<svg viewBox="0 0 4500 4000" xmlns="http://www.w3.org/2000/svg" fill-rule="evenodd" clip-rule="evenodd" stroke-linejoin="round" stroke-miterlimit="2"><path fill="none" d="M0 0H4500V4000H0z"/><path fill-rule="nonzero" d="M0 0H4500V4000H0z"/><path d="M863.136 296.294c-24.25 101.739-46.008 188.95-76.333 287.098-10.878 35.125-19.328 42.358-43.575 42.358h-33.911l23.027-83.567 41.15-129.569c30.267-96.933 35.125-123.556-49.652-124.767-75.059-1.214-90.861 27.834-129.573 171.989l-14.527 53.297 9.666 1.217 7.289-26.678c13.311-49.65 21.761-60.533 136.861-60.533h16.961l-1.216 3.644-19.389 3.595c-73.897 13.361-98.086 26.672-130.842 121.116-53.241 155.039-123.5 408.162-164.7 549.887h140.514l94.445-337.903h15.741c36.342 0 49.711 3.644 36.342 48.436l-48.439 163.48c-32.7 111.462-21.817 138.084 49.653 138.084 65.397 0 82.353-21.761 117.48-156.253l18.167-70.197-9.661-1.214-14.531 54.455c-7.291 26.678-9.722 30.325-19.389 30.325-9.722 0-12.091-6.077-3.644-33.913l53.3-165.967c27.833-88.37 19.386-124.711-58.158-138.078l-27.839-4.803V629.4l31.483-3.644c95.658-10.884 115.047-35.128 181.656-300.35l7.291-29.112H863.136zm133.206 821.184c52.086 0 93.289-8.453 122.341-37.561 36.339-36.284 58.159-87.15 109.025-265.223 72.631-251.905 84.778-297.913 71.411-342.761-12.091-39.989-50.866-61.75-132-61.75-52.086 0-92.013 8.45-121.122 37.556-33.914 33.917-59.319 92.017-108.969 265.222-70.256 245.889-83.567 299.133-71.472 342.767 12.094 39.986 49.652 61.75 130.786 61.75zm24.247-127.142c-14.525 0-23.028-6.078-24.247-16.958-2.431-16.956 8.508-53.297 54.519-209.55 41.2-139.295 56.939-190.161 65.389-208.334 6.078-13.311 14.525-18.169 27.894-18.169 14.523 0 22.975 6.075 24.187 16.956 2.433 16.955-8.445 53.297-54.512 209.547-41.147 139.297-58.1 190.164-64.177 205.905-6.075 15.739-14.525 20.603-29.053 20.603zm459.03 124.711c72.684 0 87.212-20.544 123.556-148.964l19.325-69.036-8.447-2.43-15.742 54.511c-7.292 26.683-10.88 30.266-20.603 30.266-10.877 0-13.311-7.233-1.216-44.788l110.244-340.337c44.795-139.297 49.653-184.086-25.461-184.086-49.653 0-73.844 14.528-117.478 82.35l-61.75 96.873h-2.428l25.406-79.917c24.242-76.331 23.031-99.306-46.014-99.306-70.253 0-83.564 20.6-119.908 148.961l-19.384 69.037 8.506 2.43 15.742-54.511c7.233-26.622 10.877-30.267 20.6-30.267 10.88 0 13.311 7.234 1.214 44.792L1198.6 1105.381h145.369l142.884-494.156c6.072-20.6 12.15-33.911 20.603-44.792 10.936-13.366 14.522-20.6 33.911-19.386 15.741 1.214 16.955 10.881 7.291 43.578l-115.047 388.769c-32.755 109.031-21.814 135.653 46.008 135.653zm393.598-723.036c50.866 0 78.764-16.953 92.075-65.394 15.739-53.295-2.434-66.606-50.873-66.606-50.866 0-78.702 16.956-92.072 65.392-15.741 53.297 2.434 66.611 50.87 66.611v-.003zm-186.52 723.036c75.12 0 90.861-20.544 127.2-148.964l19.389-69.036-8.505-2.43-15.742 54.511c-7.233 26.683-10.881 30.266-20.603 30.266-10.878 0-13.308-7.233-1.217-44.788l124.773-376.678c38.772-117.481 25.461-147.745-48.439-147.745s-89.639 20.6-124.77 148.961l-19.386 69.037 8.509 2.43 15.741-54.511c7.289-26.622 10.878-30.267 20.6-30.267 10.881 0 13.311 7.234 1.214 44.792L1637.05 979.394c-36.344 109.031-25.408 135.653 49.653 135.653h-.006zm404.556 0c72.683 0 87.211-20.544 123.555-148.964l19.325-69.036-8.447-2.43-15.742 54.511c-7.291 26.683-10.88 30.266-20.602 30.266-10.878 0-13.311-7.233-1.217-44.788l110.244-340.337c44.795-139.297 49.653-184.086-25.461-184.086-49.652 0-73.844 14.528-117.477 82.35l-61.75 96.873h-2.428l25.405-79.917c24.242-76.331 23.031-99.306-46.014-99.306-70.252 0-83.563 20.6-119.908 148.961l-19.383 69.037 8.505 2.43L1955.6 576.1c7.233-26.622 10.878-30.267 20.6-30.267 10.881 0 13.311 7.234 1.214 44.792l-167.181 514.756h145.37l142.883-494.156c6.072-20.6 12.15-33.911 20.603-44.792 10.936-13.366 14.522-20.6 33.911-19.386 15.742 1.214 16.956 10.881 7.292 43.578l-115.048 388.769c-32.755 109.031-21.813 135.653 46.009 135.653zm390.008 0c71.414 0 85.997-20.544 122.281-148.964l19.386-69.036-8.447-2.43-15.742 54.511c-7.292 26.683-10.936 30.266-20.603 30.266-10.878 0-13.308-7.233-1.217-44.788l44.795-133.223c13.369-38.769 12.15-64.172 2.428-83.561-13.306-26.678-48.436-36.341-96.873-42.419v-2.431c36.345-14.525 75.059-16.955 123.556-12.094l69.036-221.642c-9.722-4.864-18.169-7.297-42.419-8.453-31.481-1.214-53.295 4.806-70.256 21.761-18.169 19.389-27.833 42.417-72.683 187.734-8.45 29.111-14.528 33.911-37.5 33.911h-24.245l56.945-175.578c31.48-96.933 44.791-106.597 117.48-107.817 83.564-1.213 101.734 20.606 88.423 66.612l-8.509 29.052 8.509 2.431 10.88-33.911c50.867-158.684 9.664-197.397-129.572-196.186-145.372 1.219-173.206 33.914-210.764 173.147l-47.222 175.642c-24.253 92.075-41.209 140.502-59.378 197.452l-94.444 300.348h142.88l85.995-300.348h18.169c32.697 0 38.775 4.803 25.464 46.006l-39.986 128.355c-33.911 109.031-21.814 135.653 43.633 135.653zm186.508 0c72.628 0 87.212-20.544 123.495-148.964l19.389-69.036-8.45-2.43-15.742 54.511c-7.289 26.683-10.936 30.266-20.6 30.266-10.88 0-13.311-7.233-1.214-44.788l211.972-663.714h-146.58l-118.692 410.586c-14.528 52.08-29.053 102.95-44.794 155.036l-43.628 142.878c-33.919 109.033-21.767 135.655 44.844 135.655zm386.32-723.036c50.867 0 78.764-16.953 92.075-65.394 15.739-53.295-2.433-66.606-50.872-66.606-50.867 0-78.703 16.956-92.073 65.392-15.741 53.297 2.434 66.611 50.87 66.611v-.003zm-186.52 723.036c75.12 0 90.862-20.544 127.2-148.964l19.389-69.036-8.505-2.43-15.742 54.511c-7.233 26.683-10.88 30.266-20.603 30.266-10.877 0-13.308-7.233-1.216-44.788l124.772-376.678c38.772-117.481 25.461-147.745-48.439-147.745s-89.639 20.6-124.769 148.961l-19.387 69.037 8.509 2.43 15.741-54.511c7.289-26.622 10.878-30.267 20.6-30.267 10.881 0 13.312 7.234 1.214 44.792l-128.411 388.769c-36.344 109.031-25.408 135.653 49.653 135.653h-.006zm408.209-723.036c50.869 0 78.703-16.953 92.014-65.394 15.741-53.295-2.431-66.606-50.867-66.606-50.869 0-78.703 16.956-92.014 65.392-15.742 53.297 2.37 66.611 50.867 66.611v-.003zm-256.772 851.45c69.038 0 85.997-25.461 121.122-146.583l69.039-240.972c14.527-52.084 30.269-102.95 46.011-155.037l43.572-142.941c36.344-118.689 26.678-147.739-43.572-147.739-76.334 0-94.506 20.6-129.631 148.958l-19.33 69.036 8.45 2.431 15.739-54.511c7.294-26.622 10.938-30.267 20.605-30.267 10.878 0 12.092 7.233 1.214 44.792l-136.864 454.222c-16.955 55.672-16.955 60.531-27.836 60.531-14.581 0-10.936-13.312-1.214-44.792l6.017-19.386-8.447-2.431-10.937 36.342c-42.363 139.297-24.194 168.344 46.062 168.344v.003zm440.863-128.414c71.414 0 85.998-20.544 122.281-148.964l19.386-69.036-8.447-2.43-15.742 54.511c-7.291 26.683-10.936 30.266-20.603 30.266-10.877 0-13.308-7.233-1.216-44.788l44.794-133.223c13.37-38.769 12.15-64.172 2.428-83.561-13.306-26.678-48.436-36.341-96.872-42.419v-2.431c36.344-14.525 75.058-16.955 123.555-12.094l69.036-221.642c-9.722-4.864-18.169-7.297-42.419-8.453-31.481-1.214-53.294 4.806-70.256 21.761-18.169 19.389-27.833 42.417-72.683 187.734-8.45 29.111-14.528 33.911-37.5 33.911h-24.244l56.944-175.578c31.481-96.933 44.792-106.597 117.481-107.817 83.564-1.213 101.733 20.606 88.422 66.612l-8.508 29.052 8.508 2.431 10.88-33.911c50.867-158.684 9.664-197.397-129.572-196.186-145.372 1.219-173.205 33.914-210.764 173.147l-47.222 175.642c-24.253 92.075-41.208 140.502-59.378 197.452l-94.444 300.348h142.88l85.995-300.348h18.169c32.698 0 38.775 4.803 25.464 46.006l-39.986 128.355c-33.911 109.031-21.814 135.653 43.633 135.653zm278.539 2.431c84.781-1.22 122.342-27.839 153.823-147.745l19.386-72.686-8.45-2.43-8.506 27.894c-15.742 50.867-33.911 58.103-82.35 58.103-36.344 0-56.947-8.453-60.592-32.7-6.019-36.342 16.956-101.733 41.203-184.086 41.206-139.295 58.161-191.378 66.609-208.334 7.297-14.525 14.525-18.169 26.68-18.169 10.878 0 19.328 4.864 20.542 15.742 1.219 10.936-7.234 43.633-36.281 134.433-47.283 149.014-54.522 164.756-84.841 178.067l-10.878 4.861 1.214 6.016c32.697-9.663 47.222-12.094 85.997-25.405 67.822-23.033 83.564-50.867 140.508-236.17 48.436-157.463 15.739-204.686-93.286-204.686-52.086 0-92.014 8.45-121.122 37.556-31.481 31.483-58.103 84.783-108.97 265.222-67.827 234.953-82.352 294.331-69.038 341.553 12.094 44.789 53.297 64.178 128.352 62.964zm-2771.01 815.547l-1.041-61.517h-8.509v47.748c0 22.277-3.183 25.458-11.627 25.458-8.511 0-9.553-4.281-8.511-31.825l12.733-562.386H805.071l3.186 198.383c1.036 39.292 1.036 49.881-6.37 88.072l-26.561 129.461h-2.083l-6.367-274.827c-3.186-126.273-35.011-150.636-154.919-150.636-106.134 0-145.37 12.73-143.286 144.269l1.097 55.208h7.408v-21.236c0-45.605 13.778-54.111 100.814-54.111h14.87v3.183l-14.873 3.187c-54.111 11.686-77.489 23.319-81.711 106.075-7.408 135.822-9.55 357.636-10.594 481.769h124.133l-1.039-593.169c11.628 2.138 18 5.322 23.322 11.688 6.362 8.506 8.506 24.423 9.548 39.237 5.322 78.53 9.547 160.241 14.869 512.555h115.631l7.464-197.397c2.08-47.739 5.266-64.695 11.627-94.445l25.523-124.127h4.222l-4.222 344.85c-1.1 88.075 2.086 111.397 71.066 111.397 66.839 0 81.711-10.589 79.572-136.864zm165.559 136.867c45.6 0 84.897-8.45 106.075-26.506 36.111-30.786 43.516-90.222 43.516-287.555 0-194.217-4.222-247.223-30.783-274.831-19.097-20.197-48.786-30.786-100.811-30.786-46.642 0-85.939 8.508-107.175 26.564-36.056 29.686-43.464 90.164-43.464 287.555 0 194.156 4.228 247.223 30.731 274.831 19.155 20.136 48.847 30.722 101.911 30.722v.006zm7.408-111.403c-13.775 0-19.097-4.222-22.283-13.77-3.184-10.65-5.322-24.422-4.222-184.666 1.038-145.372 3.183-172.975 7.408-184.609 4.222-10.647 11.689-13.83 23.322-13.83 11.689 0 17.011 4.283 20.197 13.83 4.223 11.634 5.267 32.87 4.223 184.609-1.042 158.103-3.187 172.972-6.364 183.566-3.186 11.689-12.734 14.87-22.281 14.87zm435.033 109.319c63.659 0 75.348-17.016 75.348-130.555v-60.475h-7.409l-1.039 45.658c-1.1 23.322-3.241 26.506-11.688 26.506-9.553 0-11.695-6.367-10.653-39.239l10.653-298.203c4.222-121.992 7.405-161.286-58.395-161.286-48.783 0-64.7 14.875-88.078 72.164l-33.914 84.897h-2.141l6.366-70.022c6.367-66.842 0-87.039-60.472-87.039-68.983 0-76.389 13.83-76.389 130.497v60.533h7.406l1.042-45.658c1.1-23.322 3.186-26.505 11.688-26.505 9.553 0 11.692 6.363 10.592 39.233l-19.094 450.986h131.591l-1.036-432.925c0-18.061 2.081-29.689 6.361-39.297 5.267-12.734 8.453-18 25.464-16.956 15.914 1.042 18.056 9.547 18.056 28.645l-4.281 350.175c-1.041 95.483 5.325 118.866 70.022 118.866zm280.164-491.322v-117.764h-48.85l2.142-78.53h-115.678v78.53h-32.875v117.767h31.828l-6.361 340.622c-3.183 125.233 9.55 151.742 87.039 150.697 57.289-1.1 82.75-13.833 82.75-127.372v-63.658h-7.461l-1.045 32.925c-1.039 36.055-10.589 39.239-24.419 39.239-23.322 0-23.322-12.731-23.322-49.886l5.322-322.567 50.93-.003zm154.889 493.406c89.178 0 115.681-25.467 115.681-140.048v-53.066h-7.409l-1.1 32.925c-2.083 36.055-23.322 40.278-65.8 40.278-31.825 0-46.638-9.548-54.111-30.728-8.444-24.42-8.444-71.122-8.444-159.2 0-121.989 2.083-166.609 5.267-180.384 3.183-13.772 9.55-18.055 21.238-18.055 9.548 0 13.773 2.142 16.956 8.508 5.325 9.547 6.367 43.52 4.281 123.089-3.187 130.5-6.364 143.231-29.745 155.964l-7.408 4.281 2.141 5.266c26.503-8.453 37.098-12.733 66.842-27.547 56.25-26.564 59.433-50.928 63.658-191.031 4.223-144.269-12.733-189.93-116.725-189.93-43.519 0-76.388 8.508-98.666 27.605-33.975 29.689-41.384 89.123-41.384 286.517 0 194.153 4.228 247.222 30.731 274.828 19.156 20.136 48.847 30.722 103.997 30.722v.006zm461.62-410.65l-15.911-2.084v-3.183l28.644-6.364c64.7-14.875 76.389-33.969 79.569-161.286 3.187-114.639-25.458-141.147-144.325-144.328-127.313-3.186-175.058 11.689-172.977 143.228l1.097 55.208h8.458v-21.236c0-45.605 14.87-54.111 106.134-54.111h10.591v3.183l-13.778 3.187c-65.794 14.869-79.569 25.458-83.85 106.075-5.272 100.805-8.452 249.361-6.372 383.1 1.1 96.527 30.789 109.258 130.556 109.258 142.186 0 168.694-30.725 170.833-233.445 1.042-119.911-8.505-165.511-98.667-177.202h-.002zm-36.111-181.423c10.652 10.592 13.833 18.056 13.833 66.839 0 24.423-1.1 48.786-2.142 78.531-1.039 22.28-5.325 27.603-18.055 27.603h-41.378c0-64.756 1.042-128.414 1.042-184.667 28.647 1.106 40.333 5.328 46.702 11.694h-.002zm-18.048 467.939c-27.55 0-29.689-6.366-29.689-43.516v-127.317h19.095c45.661 0 46.705 5.322 46.705 70.022 0 93.406-3.186 100.811-36.111 100.811zm256.792-511.458c44.556 0 64.756-14.875 64.756-57.292 0-46.705-19.098-58.389-61.575-58.389-44.559 0-64.7 14.87-64.7 57.348 0 46.644 19.097 58.333 61.519 58.333zm8.5 633.508c58.342-1.1 77.436-15.916 77.436-130.555v-60.475h-7.405l-1.045 45.658c-1.1 23.322-3.183 26.506-11.689 26.506-9.55 0-11.689-6.367-10.594-39.239l14.816-335.359c4.284-96.525 0-125.169-73.205-124.13-58.333 1.042-78.528 15.917-78.528 130.494v60.534h7.467l1.036-45.661c1.044-23.323 3.186-26.503 11.692-26.503 9.55 0 11.63 6.364 10.594 39.233l-13.778 345.953c-3.183 88.072 0 114.58 73.206 113.539l-.003.005zm180.417 0c40.275 0 58.333-13.833 78.469-71.122l30.786-85.939h2.142l-6.361 68.984c-6.37 68.977-1.103 88.072 58.33 88.072 68.981.005 80.67-15.911 80.67-130.55v-60.472h-7.467l-1.036 45.661c-1.044 23.322-3.186 26.502-11.692 26.502-9.55 0-11.63-6.366-10.594-39.236l19.1-450.983h-128.414l3.186 123.089h-2.086l-9.547-39.295c-18.056-74.244-31.831-89.119-81.717-89.119-38.192 0-59.433 17.014-70.022 72.167-7.467 39.233-12.733 123.089-12.733 245.136 0 150.639 4.227 211.111 10.594 244.039 8.503 44.558 29.683 53.069 58.389 53.069l.003-.003zm73.202-119.908c-17.013 0-22.28-7.467-23.38-43.519-1.036-25.462-2.081-66.839-2.081-131.595 0-93.35-1.1-172.919 8.448-193.117 4.286-9.547 9.547-12.733 23.38-12.733 16.956 0 20.139 9.553 20.139 45.664v279.047c0 18.056-1.042 29.689-5.322 40.339-5.267 12.733-9.55 15.914-21.184 15.914zm449.875 119.908c63.659 0 75.348-17.016 75.348-130.555v-60.475h-7.409l-1.039 45.658c-1.1 23.322-3.241 26.506-11.688 26.506-9.553 0-11.695-6.367-10.653-39.239l10.653-298.203c4.222-121.992 7.405-161.286-58.395-161.286-48.783 0-64.7 14.875-88.078 72.164l-33.914 84.897h-2.141l6.366-70.022c6.367-66.842 0-87.039-60.472-87.039-68.983 0-76.389 13.83-76.389 130.497v60.533h7.406l1.042-45.658c1.1-23.322 3.186-26.505 11.688-26.505 9.553 0 11.692 6.363 10.592 39.233l-19.094 450.986h131.591l-1.036-432.925c0-18.061 2.081-29.689 6.361-39.297 5.267-12.734 8.453-18 25.464-16.956 15.914 1.042 18.056 9.547 18.056 28.645l-4.281 350.175c-1.041 95.483 5.325 118.866 70.022 118.866zm213.331 1.039c64.697 0 90.158-20.136 90.158-128.414v-63.652h-7.405l-1.042 32.927c-1.1 29.689-3.186 39.236-33.969 39.236-17.017 0-23.378-4.222-27.606-12.73-4.222-9.547-9.547-22.281-8.505-171.878 1.1-134.778 6.366-160.239 12.733-171.928 5.322-9.552 14.869-13.777 28.644-13.777 9.548 0 11.689 0 29.745 2.083l8.505-124.128c-20.194-4.228-43.516-6.372-66.894-6.372-48.786 0-75.289 12.733-91.264 30.789-27.547 30.789-37.097 90.164-37.097 283.333 0 194.156 3.186 247.222 24.366 274.831 14.873 19.097 36.112 29.686 79.631 29.686v-.006zm253.589 1.045c45.6 0 84.897-8.45 106.075-26.506 36.111-30.786 43.517-90.222 43.517-287.555 0-194.217-4.223-247.223-30.784-274.831-19.097-20.197-48.786-30.786-100.811-30.786-46.642 0-85.939 8.508-107.175 26.564-36.055 29.686-43.464 90.164-43.464 287.555 0 194.156 4.228 247.223 30.731 274.831 19.155 20.136 48.847 30.722 101.911 30.722v.006zm7.408-111.403c-13.775 0-19.097-4.222-22.283-13.77-3.183-10.65-5.322-24.422-4.222-184.666 1.039-145.372 3.183-172.975 7.408-184.609 4.222-10.647 11.689-13.83 23.322-13.83 11.689 0 17.011 4.283 20.197 13.83 4.223 11.634 5.267 32.87 4.223 184.609-1.042 158.103-3.186 172.972-6.364 183.566-3.186 11.689-12.734 14.87-22.281 14.87zm-2932.1 317.897c-49.188.872-81.075 5.445-103.877 22.745-29.167-1.792-66.492-3.645-109.314-3.645-60.131 0-82.006 2.72-107.528 24.595-24.592 20.95-34.603 57.405-50.981 113.888l-13.658 48.323h7.292l5.441-18.231c11.862-39.178 16.378-46.467 112.037-46.467h32.813l-.925 2.72-13.658 1.85c-50.986 8.161-76.508 20.022-101.1 92.017-38.253 112.036-92.942 296.988-123.033 399.013h112.094l141.206-497.455c11.861-.867 21.872-5.436 33.736-13.656 12.733-9.086 17.303-15.452 30.036-33.68l21.875-30.095 1.792.928-15.45 30.961c-11.864 23.667-21.875 42.822-28.242 67.42l-27.369 101.155c-19.106 69.214-30.964 105.67-44.623 148.497l-71.064 225.925h107.523l102.952-351.677c4.514-15.453 9.084-25.52 15.45-33.681 8.22-10.011 10.939-15.508 25.52-14.583 11.867.928 12.792 8.216 5.5 32.811l-81.133 272.397c-24.592 82-16.378 102.025 34.666 102.025 54.631 0 65.564-15.511 92.878-112.036l14.586-51.969-6.367-1.795-11.863 40.975c-5.442 20.022-8.159 22.8-15.453 22.8-8.217 0-10.011-5.5-.925-33.742l78.358-235.933c34.608-104.8 37.328-138.48-20.022-138.48-37.383 0-59.258 10.936-90.222 61.922l-44.614 72.908h-1.853l35.533-97.511c23.728-64.642 38.253-71.067 94.734-71.933 65.627-.928 79.283 15.45 69.272 50.058l-6.367 21.875 6.367 1.85 8.217-25.517c38.252-120.261 8.161-149.427-100.234-147.575l-.003.003zm119.328 645.895c39.178 0 70.136-6.367 92.014-28.242 27.37-27.314 43.747-65.567 82-199.481 54.689-189.522 63.775-224.13 53.764-257.866-9.086-30.039-38.253-46.411-99.308-46.411-39.178 0-69.27 6.361-91.086 28.238-25.523 25.464-44.678 69.212-82.003 199.478-52.836 184.953-62.847 225.061-53.764 257.872 9.089 30.037 37.33 46.412 98.383 46.412zm18.228-95.662c-10.936 0-17.303-4.513-18.228-12.733-1.797-12.728 6.361-40.1 41.028-157.633 30.964-104.745 42.828-143 49.189-156.656 4.517-10.011 10.939-13.655 20.953-13.655 10.936 0 17.3 4.511 18.225 12.73 1.797 12.734-6.423 40.103-41.028 157.581-30.964 104.805-43.695 143.055-48.264 154.919-4.569 11.809-10.936 15.453-21.875 15.453v-.006zm484.697 93.867c54.628 0 65.567-15.511 92.939-112.036l14.528-51.969-6.367-1.795-11.808 40.975c-5.497 20.022-8.214 22.8-15.508 22.8-8.217 0-10.012-5.5-.925-33.742l82.925-256.013c33.683-104.748 37.33-138.431-19.15-138.431-37.328 0-55.556 10.883-88.373 61.928l-46.466 72.855h-1.795l19.095-60.127c18.23-57.35 16.439-74.65-27.314-74.65-34.603 0-51.036 11.802-82.925 61.916l-46.417 72.861h-1.85l19.156-60.127c18.227-57.35 16.377-74.65-34.664-74.65-52.836 0-62.847 15.447-90.164 112.036l-14.581 51.908 6.367 1.85 11.864-41.028c5.436-20.022 8.214-22.741 15.447-22.741 8.222 0 10.075 5.436.925 33.677l-125.692 387.211h109.32l107.517-371.702c4.519-15.509 9.088-25.52 15.455-33.739 8.217-10.011 10.939-15.45 25.52-14.581 11.863.925 12.733 8.22 5.444 32.814l-116.614 387.208h105.67l103.877-371.702c4.57-15.509 9.145-25.52 15.509-33.739 8.222-10.011 10.939-15.45 25.522-14.581 11.805.925 12.733 8.22 5.439 32.814l-86.57 292.472c-24.591 82-16.377 102.025 34.667 102.025l-.003.003zm161.245 0c30.958 0 48.258-17.303 74.705-61.055l43.695-73.784h1.85l-18.228 60.128c-17.306 57.408-16.378 74.711 34.605 74.711 59.262 0 63.775-22.803 90.223-112.036l15.508-51.969-6.422-1.795-12.734 40.975c-6.366 20.022-9.144 22.8-15.508 22.8-7.294 0-10.011-3.647-1.794-28.242l127.55-392.705h-109.323l-25.516 105.728h-1.853l.925-36.459c1.853-63.775-12.733-76.502-49.192-76.502-37.325 0-55.555 13.655-77.43 61.916-13.659 30.095-31.889 82-61.978 183.106-36.403 125.75-56.481 203.183-57.35 240.566-.928 33.681 17.303 44.617 48.261 44.617h.006zm77.427-102.95c-11.861-.928-13.658-10.939-8.216-38.253 10.936-54.689 58.333-208.622 64.7-226.852 9.139-27.37 15.505-43.75 21.872-53.762 5.442-8.219 10.011-10.938 19.156-10.938 15.452 0 20.022 8.219 10.877 39.177l-71.005 242.364c-4.572 15.453-8.217 25.464-13.717 33.678-9.083 12.733-12.728 15.511-23.667 14.586zm219.589 104.745c31.886 0 53.703-7.295 69.211-23.667 21.875-20.953 33.742-56.483 48.264-112.039 17.361-65.628 13.714-102.025 3.648-148.494-8.159-36.462-12.734-76.564-6.37-95.662 11.867-34.666 21.878-46.469 52.839-46.469 6.422 0 15.508.867 21.875 1.792l27.314-101.1c-14.525-3.645-36.4-5.495-54.628-4.57-79.286 2.72-106.6 42.822-131.194 125.753-19.156 64.639-14.584 107.467-3.648 152.139 10.942 43.694 9.089 82.872 3.648 103.819-5.5 19.156-10.936 31.02-18.228 38.311-5.442 6.367-13.661 8.159-25.52 8.159-27.319 0-37.33-5.436-29.169-35.528l6.425-25.522h-6.425l-11.806 40.103c-16.436 58.333-17.302 91.088-.925 108.447 10.937 10.011 29.167 14.528 54.687 14.528h.002zm452.75-626.795c-91.089 0-115.68 20.083-145.777 123.9l-13.656 47.397 7.292.925 5.497-18.227c11.808-39.178 20.022-46.473 94.733-46.473h17.303l-.925 2.72-12.731 1.853c-51.044 7.294-71.991 20.95-97.511 92.013-30.961 86.52-67.425 214.064-90.166 292.42-30.092 103.878-.925 130.267 93.808 130.267 123.033 0 135.764-32.756 178.589-181.25 31.886-109.378 24.592-146.703-36.458-163.081l-17.306-4.569v-2.72l30.964-2.778c60.186-5.444 74.708-34.608 96.586-112.036 38.25-133.916 8.214-160.361-110.244-160.361h.002zm5.498 192.245c-6.364 22.8-12.789 40.975-18.231 55.555-7.289 19.156-11.864 22.8-22.8 22.8h-33.678l48.264-162.15c16.433.867 28.239 4.514 34.603 10.936 7.297 8.159 5.5 25.464-8.158 72.859zm-68.345 249.652c-20.022 70.142-21.875 78.298-50.117 78.298-21.872 0-27.313-5.439-18.227-38.25 10.936-37.325 21.872-74.712 31.889-112.037h19.15c31.888 0 35.533 8.22 17.305 71.989zm209.533 184.898c39.178 0 70.137-6.367 92.014-28.242 27.37-27.314 43.748-65.567 82-199.481 54.689-189.522 63.775-224.13 53.764-257.866-9.086-30.039-38.253-46.411-99.308-46.411-39.178 0-69.27 6.361-91.086 28.238-25.522 25.464-44.678 69.212-82.003 199.478-52.836 184.953-62.847 225.061-53.764 257.872 9.089 30.037 37.331 46.412 98.383 46.412zm18.228-95.662c-10.936 0-17.303-4.513-18.228-12.733-1.797-12.728 6.362-40.1 41.028-157.633 30.964-104.745 42.828-143 49.189-156.656 4.517-10.011 10.939-13.655 20.953-13.655 10.936 0 17.3 4.511 18.225 12.73 1.797 12.734-6.422 40.103-41.028 157.581-30.964 104.805-43.694 143.055-48.264 154.919-4.569 11.809-10.936 15.453-21.875 15.453v-.006zm194.07 93.867c36.405 0 53.764-10.936 86.519-61.98l46.467-72.859h1.853l-19.156 60.128c-18.231 57.408-17.306 74.711 34.603 74.711 52.836 0 62.908-15.511 90.222-112.036l14.581-51.969-6.362-1.795-11.866 40.975c-5.497 20.022-8.217 22.8-15.509 22.8-8.158 0-10.011-5.5-.866-33.742l125.691-387.205h-109.313l-107.52 371.755c-4.517 15.45-9.089 25.462-15.455 33.678-7.289 10.011-10.067 15.511-23.725 14.584-13.656-.925-11.803-7.292-4.514-32.814l86.516-292.42c24.595-82 16.434-102.022-34.605-102.022-54.689 0-65.628 15.45-92.942 112.039l-14.58 51.911 6.366 1.85 11.861-41.028c5.498-20.022 8.217-22.741 15.509-22.741 8.158 0 10.011 5.436.869 33.677l-82.872 256.02c-33.742 105.669-40.108 138.48 18.225 138.48l.003.003zm444.575-543.922c38.252 0 59.2-12.733 69.211-49.192 11.864-40.044-1.792-50.114-38.253-50.114-38.25 0-59.2 12.789-69.211 49.248-11.861 40.044 1.794 50.055 38.253 50.055v.003zm-140.334 543.919c56.481 0 68.342-15.511 95.656-112.036l14.586-51.972-6.367-1.792-11.864 40.975c-5.441 20.023-8.158 22.8-15.452 22.8-8.217 0-10.011-5.5-.925-33.741l93.866-283.334c29.111-88.366 19.098-111.111-36.458-111.111s-67.419 15.453-93.867 112.036l-14.583 51.92 6.422 1.853 11.809-41.031c5.497-20.022 8.213-22.742 15.508-22.742 8.217 0 10.011 5.439.925 33.678l-96.586 292.475c-27.314 82-19.156 102.025 37.328 102.025l.002-.003zm153.092.003c54.631 0 65.567-15.511 92.942-112.036l14.525-51.969-6.367-1.795-11.803 40.975c-5.5 20.022-8.219 22.8-15.511 22.8-8.214 0-10.011-5.5-.925-33.742l159.433-499.244h-110.244l-89.294 308.853c-10.878 39.178-21.814 77.43-33.681 116.611l-32.811 107.519c-25.52 82.011-16.378 102.034 33.742 102.034l-.006-.006zm145.778 0c54.63 0 65.566-15.511 92.941-112.036l14.525-51.969-6.366-1.795-11.803 40.975c-5.5 20.022-8.219 22.8-15.511 22.8-8.214 0-10.011-5.5-.925-33.742l159.433-499.244h-110.244l-89.295 308.853c-10.877 39.178-21.814 77.43-33.68 116.611l-32.811 107.519c-25.52 82.011-16.378 102.034 33.741 102.034l-.005-.006zm214.994 1.795c63.772-.867 92.014-20.95 115.739-111.112l14.528-54.686-6.367-1.797-6.366 20.95c-11.864 38.25-25.52 43.692-61.92 43.692-27.375 0-42.825-6.364-45.603-24.592-4.516-27.319 12.789-76.508 31.017-138.486 30.964-104.744 43.694-143.925 50.061-156.656 5.495-10.936 10.936-13.655 20.081-13.655 8.214 0 14.58 3.644 15.447 11.803.928 8.219-5.436 32.816-27.314 101.161-35.531 112.036-40.969 123.9-63.769 133.911l-8.223 3.644.925 4.573c24.6-7.295 35.536-9.148 64.703-19.156 51.039-17.303 62.845-38.25 105.667-177.661 36.464-118.461 11.866-153.939-70.136-153.939-39.178 0-69.27 6.372-91.086 28.242-23.728 23.669-43.75 63.777-82.003 199.48-51.042 176.739-61.978 221.411-51.967 256.945 9.142 33.683 40.103 48.264 96.586 47.339zm356.217-423.612h40.972l29.167-101.155h-39.178l20.947-67.42h-99.3l-19.1 67.42h-29.166l-29.167 101.155h28.244l-98.386 319.792c-25.516 82-15.511 102.025 43.753 102.025 60.125 0 76.503-10.011 102.947-109.317l14.528-54.686-6.364-1.797-12.733 41.9c-6.367 20.95-12.789 22.742-24.592 22.742-15.511 0-18.23-5.436-10.017-33.678l87.445-286.981zm-3476.29 1176c26.794 0 45.139-5.327 57.35-17.594 19.156-19.1 24.481-55.789 24.481-116.203 0-61.925-14.531-107.814-39.009-155.964-16.78-33.68-26.736-62.727-26.736-87.961 0-38.95 12.211-47.397 37.445-47.397 8.444 0 25.23 1.564 27.544 3.067l3.819-95.542c-16.841-3.822-36.688-6.136-55.844-5.383-73.378 3.066-97.106 39.005-97.106 132.294 0 58.1 17.595 110.067 39.817 153.645 20.6 39 26.733 66.55 26.733 93.286 0 38.252-9.2 46.644-31.363 46.644-23.67 0-31.312-3.822-32.12-27.489l-.755-24.48h-6.128v39.005c0 51.217 3.816 80.267 19.155 94.789 11.459 11.461 28.295 15.283 52.723 15.283h-.006zm104.75 79.512h97.858l-7.639-173.556h1.562l6.888 28.303c12.964 53.53 20.6 64.233 56.539 64.233 27.548 0 43.578-12.267 51.214-52.025 5.381-28.297 9.956-88.655 10.709-176.619.811-108.567-1.506-152.142-6.075-175.811-6.137-32.12-20.664-38.253-41.323-38.253-29.052 0-42.822 9.955-57.347 51.216l-23.667 61.17h-1.566l3.822-49.711c3.872-48.9.806-64.989-45.083-64.989-49.711 0-55.036 9.955-55.036 94.036v43.578h5.325l.752-32.87c.811-16.78 2.314-19.097 8.448-19.097 6.888 0 8.394 4.572 7.641 28.297l-13.022 412.098zm110.125-162.845c-12.267 0-14.525-6.889-14.525-32.872v-201.103c0-12.964.756-21.414 3.822-29.053 3.82-9.144 6.889-11.458 15.278-11.458 13.769 0 16.842 5.325 17.592 31.367.752 18.344 1.505 48.147.752 94.791-.752 67.306-.752 124.595-6.888 139.12-3.067 6.889-7.637 9.203-16.031 9.203v.005zm191.131 81.825c29.052 0 42.075-9.953 56.597-51.275l22.161-61.917h1.508l-4.575 49.712c-4.569 49.705-.75 63.48 42.075 63.48 49.653 0 58.1-11.455 58.1-94.036v-43.578h-5.38l-.753 32.87c-.753 16.78-2.314 19.097-8.392 19.097-6.886 0-8.444-4.572-7.639-28.297l13.717-324.945h-92.478l2.259 88.714h-1.509l-6.883-28.294c-13.022-53.531-22.92-64.239-58.853-64.239-27.547 0-42.825 12.211-50.467 51.966-5.38 28.298-9.2 88.717-9.2 176.623 0 108.564 3.067 152.197 7.642 175.866 6.128 32.12 21.406 38.253 42.07 38.253zm52.777-86.4c-12.269 0-16.089-5.38-16.841-31.367-.75-18.344-1.503-48.147-1.503-94.788 0-67.303-.811-124.656 6.075-139.178 3.067-6.889 6.889-9.147 16.839-9.147 12.211 0 14.528 6.888 14.528 32.872v201.1c0 12.964-.753 21.353-3.82 29.05-3.819 9.147-6.889 11.458-15.278 11.458zm240.811 172.8c88.714-.808 114.698-27.544 113.945-107.058l-.811-111.631c-.753-57.353 0-87.908 1.564-123.844l7.639-182.756h-90.978l2.261 88.714h-1.508l-6.887-28.294c-13.022-53.531-22.916-64.239-58.85-64.239-27.55 0-42.827 12.211-50.466 51.966-5.384 26.798-9.2 82.584-9.2 164.409 0 101.68 3.066 142.191 7.639 164.414 6.886 32.061 21.411 38.194 42.075 38.194 29.052 0 42.075-9.955 56.597-51.217l22.161-61.922h1.508l-6.075 81.772c-3.825 52.778-13.027 59.667-68.811 60.417-42.072.753-55.091-12.211-56.594-42.014l-.753-19.155h-5.386v20.658c0 105.5 13.778 122.342 100.928 121.586h.002zm9.2-196.525c-12.269 0-15.333-5.328-16.841-31.367-.75-16.03-1.503-42.016-1.503-83.333 0-61.172 0-113.139 6.075-126.911 3.067-6.886 6.889-9.142 16.839-9.142 12.211 0 14.528 6.889 14.528 32.87v177.372c0 13.022-.753 21.414-3.82 29.05-3.819 9.206-6.889 11.461-15.278 11.461zm308.787 110.125c49.711 0 58.1-12.267 58.1-94.036v-43.578h-5.32l-.811 32.87c-.753 16.78-2.258 19.097-8.392 19.097-6.886 0-8.389-4.572-7.639-28.297l7.639-198.036c3.067-87.906 5.381-116.2-45.083-116.2-32.114 0-47.45 11.458-61.978 51.966l-22.161 61.17h-1.508l6.136-81.77c3.819-52.778 14.528-59.666 74.13-60.419 45.892-.753 61.17 11.458 61.17 42.075v19.094h5.383l.75-20.658c3.82-107.064-13.772-124.597-106.305-123.845-93.286.753-120.023 28.298-119.273 109.32l.753 110.878c.811 58.102 0 88.658-1.503 124.591l-6.138 189.645h93.286l-.753-287.5c0-20.603 1.505-29.053 4.572-35.936 3.822-9.145 6.136-12.964 18.345-12.211 11.516.75 13.022 6.888 13.022 20.658l-3.067 235.475c-.753 68.811 3.817 85.647 46.645 85.647zm178.9 1.508c64.233 0 83.333-18.35 83.333-100.927v-38.195h-5.328l-.75 23.667c-1.564 25.983-16.842 29.05-47.453 29.05-22.919 0-33.622-6.883-38.947-22.161-6.133-17.595-6.133-51.217-6.133-114.7 0-87.906 1.503-120.022 3.816-129.975 2.317-9.956 6.889-12.964 15.278-12.964 6.889 0 9.956 1.505 12.272 6.075 3.814 6.889 4.57 31.367 3.006 88.714-2.258 94.039-4.569 103.186-21.356 112.386l-5.38 3.067 1.508 3.819c19.15-6.133 26.792-9.2 48.203-19.908 40.511-19.098 42.825-36.689 45.889-137.614 3.011-103.995-9.2-136.864-84.142-136.864-31.305 0-55.036 6.133-71.066 19.908-24.478 21.411-29.859 64.236-29.859 206.422 0 139.934 3.067 178.125 22.164 198.037 13.781 14.522 35.189 22.155 74.945 22.155v.008zm368.55-355.5v-84.897h-35.184l1.503-56.597h-83.333v56.597h-42.014l1.503-56.597h-83.334v56.597h-23.725v84.897h22.972l-4.627 245.428c-1.506 90.222 6.133 109.317 56.6 108.564 37.5-.808 54.283-9.953 54.283-91.78v-45.834h-5.325l-.811 31.306c-.753 18.344-4.57 20.661-12.211 20.661-10.703 0-11.456-7.639-10.703-35.939l3.817-232.406h42.827l-4.583 245.428c-2.314 90.222 6.889 109.317 62.675 108.564 41.32-.808 59.667-9.953 59.667-91.78v-45.834h-5.386l-.75 23.667c-.753 25.983-7.639 28.3-17.595 28.3-16.839 0-16.839-9.2-16.839-35.939l3.878-232.406h36.695zm76.444-102.488c32.119 0 46.642-10.706 46.642-41.262 0-33.68-13.77-42.072-44.386-42.072-32.059 0-46.584 10.703-46.584 41.259 0 33.686 13.714 42.075 44.328 42.075zm6.133 456.48c42.017-.808 55.789-11.455 55.789-94.036v-43.578h-5.383l-.753 32.87c-.753 16.78-2.258 19.097-8.389 19.097-6.889 0-8.391-4.572-7.641-28.297l10.705-241.611c3.07-69.559 0-90.223-52.778-89.467-42.011.811-56.594 11.458-56.594 94.036v43.578h5.378l.752-32.87c.753-16.78 2.314-19.097 8.448-19.097 6.83 0 8.394 4.572 7.641 28.297l-9.952 249.253c-2.314 63.481 0 82.581 52.777 81.828v-.003zm454.961-251.564c0-9.2 0-29.047-.755-44.325h-6.133v17.592c0 26.733-6.889 34.372-28.298 35.878v-8.392l5.381-188.075h-86.403l2.314 167.417v30.614h-81.072v-1.564l10.703-3.817c39.758-14.528 49.713-27.489 50.469-110.822.753-68.809-15.278-87.964-78.011-87.964-32.87 0-55.036 6.889-68.806 20.658-25.233 25.234-32.872 74.189-32.872 185.011v40.567c0 75.697-.75 126.911 16.089 158.222 16.778 30.609 50.461 42.82 116.953 42.064 52.025-.744 95.6-7.633 118.519-44.319 14.525-23.725 20.659-56.595 22.914-103.992 12.27-.753 20.664-3.067 26.045-8.392 12.208-12.272 12.963-38.252 12.963-96.355v-.006zm-174.308 166.667c-60.414 0-60.414-7.636-60.414-136.861v-73.375c0-60.42 2.314-69.559 18.345-69.559 11.455 0 14.525 6.825 14.525 35.125l-1.509 182.756 88.661.753c-3.011 57.347-16.03 61.166-59.608 61.166v-.005zm487.036-12.211l-.808-44.384h-6.075v34.434c0 16.028-2.317 18.344-7.639 18.344-6.889 0-7.642-3.066-6.889-22.916l3.067-76.448c2.258-57.347-8.445-76.502-61.167-81.075l-17.594-1.505v-1.564l20.6-5.322c47.455-12.27 58.161-29.053 60.419-126.911 2.314-101.737-24.48-116.259-103.992-118.52-92.477-2.314-126.161 8.397-124.594 103.186l.75 39.756h6.136v-15.278c0-32.869 10.703-39.003 75.692-39.003h8.394v2.314l-10.708 2.314c-45.889 9.894-56.597 16.778-59.608 76.444-4.628 97.862-6.889 257.642-7.695 347.109h88.714v-176.622h23.731c13.713 0 14.522 3.069 14.522 25.233v78.764c0 61.916 0 80.266 50.461 80.266 43.578 0 55.789-9.15 54.286-98.611l-.003-.005zm-102.483-198.778c-.75 14.522-3.822 18.344-12.961 18.344h-26.797v-156.016c19.908.811 26.797 3.878 31.369 8.447 8.389 8.392 9.953 22.919 9.953 66.492 0 25.986-.814 42.827-1.564 62.733zm167.45 295.886c29.053 0 42.075-9.953 56.597-51.275l22.161-61.917h1.509l-4.575 49.712c-4.57 49.705-.75 63.48 42.075 63.48 49.652 0 58.1-11.455 58.1-94.036v-43.578h-5.381l-.753 32.87c-.753 16.78-2.314 19.097-8.391 19.097-6.887 0-8.445-4.572-7.639-28.297l13.716-324.945h-92.477l2.258 88.714h-1.508l-6.884-28.294c-13.022-53.531-22.919-64.239-58.853-64.239-27.547 0-42.825 12.211-50.466 51.966-5.381 28.298-9.2 88.717-9.2 176.623 0 108.564 3.066 152.197 7.641 175.866 6.128 32.12 21.406 38.253 42.07 38.253zm52.778-86.4c-12.27 0-16.089-5.38-16.842-31.367-.75-18.344-1.503-48.147-1.503-94.788 0-67.303-.811-124.656 6.075-139.178 3.067-6.889 6.889-9.147 16.839-9.147 12.211 0 14.528 6.888 14.528 32.872v201.1c0 12.964-.753 21.353-3.82 29.05-3.819 9.147-6.888 11.458-15.277 11.458zm240.058 87.908c31.364 0 55.033-6.138 70.311-19.852 21.411-19.909 29.861-45.136 31.364-170.545.756-55.786 2.319-221.703 2.319-250h-84.15l.817 316.553c0 35.183-3.822 43.578-17.594 43.578-15.278 0-17.592-10.709-17.592-35.186 0-84.842 1.503-140.686 3.067-187.325l2.255-59.609c2.314-68.808-1.503-84.144-45.833-84.144-36.747 0-51.275 10.703-51.275 96.355v43.575h5.386l.756-16.841c1.558-28.242 6.886-31.309 29.047-33.622 16.841-1.503 35.186-1.503 52.778.752v2.314l-20.659 3.07c-47.4 6.883-54.286 19.844-55.789 165.908-1.564 115.453 6.075 142.942 21.409 161.344 12.961 16.031 37.444 23.667 73.38 23.667l.003.008zm184.256-457.988c32.119 0 46.641-10.706 46.641-41.262 0-33.68-13.769-42.072-44.386-42.072-32.058 0-46.583 10.703-46.583 41.259 0 33.686 13.714 42.075 44.328 42.075zm6.133 456.48c42.017-.808 55.789-11.455 55.789-94.036v-43.578h-5.384l-.752 32.87c-.753 16.78-2.259 19.097-8.389 19.097-6.889 0-8.392-4.572-7.642-28.297l10.706-241.611c3.069-69.559 0-90.223-52.778-89.467-42.011.811-56.595 11.458-56.595 94.036v43.578h5.378l.753-32.87c.753-16.78 2.314-19.097 8.447-19.097 6.831 0 8.395 4.572 7.642 28.297l-9.953 249.253c-2.314 63.481 0 82.581 52.778 81.828v-.003zm175.844 1.508c32.873 0 61.167-6.138 76.445-19.1 25.986-22.163 31.366-64.988 31.366-207.233 0-139.875-3.066-178.128-22.222-198.033-13.714-14.522-35.125-22.164-72.628-22.164-33.622 0-61.919 6.133-77.197 19.155-25.986 21.412-31.366 64.989-31.366 207.175 0 139.934 3.066 178.125 22.163 198.037 13.781 14.522 35.189 22.155 73.437 22.155l.002.008zm5.323-80.266c-9.956 0-13.773-3.067-16.028-9.956-2.317-7.639-3.82-17.594-3.067-133.044.75-104.745 2.314-124.595 5.322-133.045 3.067-7.639 8.45-9.894 16.839-9.894 8.395 0 12.211 3.008 14.528 9.894 3.067 8.45 3.817 23.728 3.067 133.045-.753 113.947-2.317 124.655-4.573 132.291-2.313 8.392-9.202 10.703-16.088 10.703v.006zm188.183 78.758c42.822 0 51.967-12.267 51.967-94.036v-43.578h-5.323l-.814 32.87c-.747 16.78-2.252 19.097-8.388 19.097-6.889 0-8.389-4.572-7.637-28.297l15.278-418.981h-95.544l.75 259.2c0 32.87 0 64.989-.75 97.858l-2.317 90.223c-1.503 74.936 6.889 85.641 52.778 85.641v.003zm123.794-456.48c32.12 0 46.642-10.706 46.642-41.262 0-33.68-13.769-42.072-44.386-42.072-32.058 0-46.583 10.703-46.583 41.259 0 33.686 13.713 42.075 44.327 42.075zm6.134 456.48c42.016-.808 55.789-11.455 55.789-94.036v-43.578h-5.384l-.753 32.87c-.752 16.78-2.258 19.097-8.388 19.097-6.889 0-8.392-4.572-7.642-28.297l10.705-241.611c3.07-69.559 0-90.223-52.777-89.467-42.011.811-56.595 11.458-56.595 94.036v43.578h5.378l.753-32.87c.753-16.78 2.314-19.097 8.447-19.097 6.831 0 8.394 4.572 7.642 28.297l-9.953 249.253c-2.314 63.481 0 82.581 52.778 81.828v-.003z" fill="#fff" fill-rule="nonzero"/></svg>