<svg clip-rule="evenodd" fill-rule="evenodd" stroke-linejoin="round" stroke-miterlimit="2" viewBox="0 0 4500 4000" xmlns="http://www.w3.org/2000/svg"><path d="M0 0h4500v4000H0z" fill="none"/><g fill-rule="nonzero"><path d="M0 0h4500v4000H0z"/><path d="M1431.64 870.775c-10.881 37.556-20.545 42.361-37.5 42.361-18.17 0-18.17-4.803-7.292-37.5l201.039-606.828h-291.895l-64.177 248.323c-12.098 46.005-13.312 59.316-41.15 104.111l-94.5 153.814h-4.862l67.825-288.253c48.498-208.272-39.93-236.167-271.297-236.167-199.825 0-261.572 39.989-319.733 262.85l-21.817 83.561h15.739l6.075-24.247c21.82-72.631 38.778-106.542 227.722-96.875 14.525 1.217 27.836 1.217 39.931 2.431l-1.217 4.863-29.05 2.37c-140.508 12.153-171.989 31.542-219.211 151.444C534.184 773.9 466.362 999.136 426.373 1123.9H678.34L861.209 482c14.528 3.592 25.408 8.453 30.267 16.958 8.508 13.309 9.722 38.717 4.864 67.823-12.156 81.133-32.7 163.483-118.692 521.994h221.644l82.348-234.956c19.386-56.944 32.697-76.333 55.73-112.675l89.581-146.525h8.508l-125.986 409.373c-27.833 93.289-6.02 135.65 113.889 135.65 138.08 0 155.036-9.667 220.43-251.911l22.973-85.995h-15.739zm138.063 262.792c70.256 0 105.384-7.236 168.406-108.97l92.014-148.964h4.858l-37.555 112.62c-42.367 125.983-14.528 145.311 90.85 145.311 127.144 0 151.391-33.911 202.258-236.167l20.603-81.139h-15.739l-18.175 64.184c-10.936 37.555-18.17 43.627-31.536 42.416-21.761-2.433-20.545-10.936 1.214-69.036l151.444-415.455H1942.79l-49.709 213.197h-4.803l-6.077-85.997c-7.292-107.814-27.836-132.059-113.831-133.22-60.592-1.214-100.522 12.097-140.511 75.061-31.481 47.223-62.961 124.767-100.517 247.106-35.127 113.83-58.164 209.489-58.164 276.097.009 65.456 25.467 102.956 100.525 102.956zm179.284-207.064c-24.25-1.214-33.911-10.936-32.697-36.339 1.213-27.897 14.525-82.353 31.48-138.083 19.386-64.178 31.483-90.85 44.795-104.167 10.936-10.878 24.247-13.306 42.416-13.306 36.345 0 52.086 9.661 38.775 56.884l-37.555 129.63c-8.511 30.267-18.175 52.086-31.481 72.631-18.175 27.889-29.111 33.966-55.733 32.75zm1062.44-274.939h89.583l61.806-213.197h-84.778l47.219-144.098h-226.508l-41.147 144.098h-135.648l47.228-144.098h-226.503l-41.147 144.098h-60.586l-61.755 213.2h59.313l-87.202 279.741c-48.442 156.25-31.481 202.259 96.93 202.259 145.314 0 169.561-27.836 222.859-236.17l20.544-81.139h-15.742l-14.525 52.086c-10.877 39.989-26.619 54.514-56.889 54.514-37.555 0-35.125-14.525-15.741-69.036l66.611-202.258h139.239l-87.153 279.744c-48.497 156.25-31.542 202.259 100.519 202.259 147.739 0 174.362-29.053 226.445-236.17l20.603-81.139h-15.742l-14.525 52.086c-12.092 39.989-26.619 54.514-59.369 54.514-38.72 0-38.72-14.525-20.55-69.036zm268.875 489.292c185.3 0 226.444-30.267 288.25-254.342l21.761-78.703h-15.742l-12.092 41.147c-16.955 60.589-48.438 79.92-151.394 82.35-64.181 1.214-96.878-1.216-107.814-24.189-8.447-18.175-4.803-44.852 18.175-127.2 27.889-96.875 35.125-128.355 53.295-146.53 9.722-9.722 21.816-13.308 37.555-13.308 20.606 1.155 30.272 7.233 33.917 19.33 3.644 12.147 0 29.108-6.075 50.867-31.481 105.38-37.559 130.844-92.014 147.8l-21.82 7.233v13.37c52.087-9.723 95.659-18.173 158.681-38.778 78.706-25.459 115.044-52.081 161.053-201.036 37.555-123.556 10.936-199.889-181.656-199.889-77.544 0-133.219 8.511-175.636 30.325-82.35 42.364-113.83 134.433-165.917 305.211-59.366 196.178-72.672 266.433-39.977 322.164 27.886 43.578 87.208 64.178 197.45 64.178zm285.58-16.956h282.175l67.825-358.508c6.075-32.695 12.153-41.203 16.956-50.867 4.864-8.506 10.936-12.094 29.111-12.094l102.947 2.427c99.308 2.375 124.711 7.239 208.278-285.877l14.528-50.867h-15.742l-7.236 24.244c-13.308 46.009-36.342 50.873-73.9 49.656l-42.361-1.214c-85.995-3.647-112.672-4.864-164.759 119.908l-69.036 163.481h-4.805l35.128-150.175c29.05-123.556 25.405-145.311-73.9-145.311-124.767 0-140.509 35.128-197.453 236.172l-20.545 81.133h15.742l18.169-64.177c10.881-37.562 18.17-43.639 31.481-42.423 21.817 2.434 20.606 10.939-1.214 69.039zm-2258.34 746.975l-2.139-75.289h-12.733v60.475c0 32.87-7.409 37.15-22.284 37.15-16.955 0-20.136-4.28-16.955-32.925l4.227-45.603c7.406-82.816-18.055-107.175-140.05-113.541L875.136 1699v-6.367l48.839-7.405c120.95-18.056 143.231-61.575 148.556-183.567 7.408-163.428-67.939-187.844-270.603-191.03-227.081-3.181-298.147 21.241-292.881 222.858l2.139 82.755h13.775v-41.377c0-56.248 44.62-65.8 191.031-65.8h22.28v5.327l-21.241 3.184c-114.581 16.953-148.556 27.544-160.239 133.678-13.784 122.05-16.961 315.163-16.961 426.563h221.764v-205.844h64.755c31.831 0 35.011 4.222 35.011 36.053l-1.041 64.758c-1.1 91.258 8.45 118.808 116.722 118.808 121.994 0 135.822-19.097 130.5-220.719zM860.32 1658.664c-2.139 21.236-8.506 26.564-29.745 26.564h-68.989v-175.117c39.297 1.1 64.761 5.322 75.35 10.65 19.095 9.547 26.561 27.545 26.561 76.389 0 26.503-1.1 41.378-3.183 61.517zm492.011 434.03c100.811 0 160.241-14.875 194.155-48.844 43.52-43.519 55.209-131.542 58.389-273.728 3.186-143.289 1.042-218.633-42.478-263.194-29.683-31.828-83.791-46.7-180.38-46.7-100.809 0-160.186 14.872-194.153 48.844-43.517 43.517-57.294 131.592-58.392 284.37-1.041 181.425 18.056 226.044 42.478 252.547 31.825 32.872 83.792 46.705 180.381 46.705zm12.73-176.161c-12.73 0-24.422-1.039-32.869-9.547-12.731-12.733-14.872-30.789-13.831-139.003 1.1-85.939 4.281-106.133 14.875-118.866 7.406-8.45 19.095-12.734 36.05-12.734 12.731 0 24.422 1.1 32.928 9.55 12.733 12.731 16.958 30.786 13.778 139-2.145 85.942-2.145 106.139-14.875 118.873-7.409 7.405-19.1 12.727-36.056 12.727zm964.622 169.795c114.639 0 137.962-26.564 134.778-206.945l-1.039-71.066h-13.833v56.191c0 32.925-5.267 37.156-20.139 37.156-15.911 0-16.955-9.553-12.73-60.478l14.875-179.342c11.627-146.405 11.627-193.111-97.631-193.111-76.389 0-103.992 19.098-140.103 103.995l-57.294 135.822h-3.181l10.647-120.95c8.45-91.261-4.28-118.867-94.444-118.867-61.572 0-95.483 20.198-130.556 103.995l-57.291 135.822h-3.186l10.652-120.95c8.448-91.261 0-118.867-103.991-118.867-115.686 0-135.822 24.423-135.822 206.945v71.064h13.772v-56.248c0-32.872 6.364-37.097 22.278-37.097 15.916 0 18.055 4.222 15.916 32.87l-31.83 391.552h230.266l-5.319-331.075c0-27.605 5.322-46.702 10.65-62.616 8.447-24.364 13.772-30.731 38.192-29.689 28.647 1.044 31.83 15.914 29.688 48.783l-21.241 374.597h230.264l-12.731-331.075c-1.039-27.605 5.322-46.702 10.65-62.616 8.447-24.364 13.772-30.731 38.192-29.689 28.647 1.044 30.789 15.914 29.689 48.783l-6.367 274.831c-2.081 95.541 8.508 108.275 108.219 108.275zm286.495 0c64.761 0 96.589-30.789 124.194-102.953l46.645-123.089h4.28l-9.547 106.133c-8.508 92.303-1.1 119.909 103.992 119.909 111.4 0 135.822-24.422 132.636-206.945l-1.1-71.066h-13.77v56.191c0 32.925-5.325 37.156-18.055 37.156-15.914 0-19.097-4.225-15.914-32.875l29.744-391.547H2781.75l9.547 186.747h-4.28l-22.284-75.347c-25.461-86.978-45.602-116.725-128.355-116.725-67.939 0-102.95 26.561-122.047 78.527-15.914 42.42-23.323 127.317-24.423 235.595-1.041 102.892 5.323 195.194 17.012 231.305 18 55.15 48.786 68.984 109.258 68.984zm112.505-181.484c-21.241 0-35.016-5.266-39.238-32.869-2.139-12.733-4.281-43.519-4.281-96.586 0-86.981 3.181-102.892 12.731-114.583 7.466-9.55 18.055-11.689 39.294-11.689 30.728 0 41.375 8.505 41.375 49.883v113.542c0 26.502-1.097 45.602-8.503 63.658-9.553 22.278-19.1 28.644-41.378 28.644zm732.789 181.484c114.581 0 141.145-26.564 135.817-206.945l-2.139-71.066h-13.775v56.191c0 32.925-5.322 37.156-20.136 37.156-15.917 0-17.017-9.553-12.733-60.478l14.814-179.342c11.691-146.405 11.691-193.111-99.712-193.111-77.486 0-107.175 19.098-142.186 103.995l-57.291 135.822h-3.186l10.594-120.95c8.506-91.261 0-118.867-103.994-118.867-115.681 0-140.048 24.423-136.862 206.945l1.039 71.064h13.775v-56.248c0-32.872 6.367-37.097 22.281-37.097 15.911 0 19.097 4.222 15.911 32.87l-31.825 391.552h237.731l-12.731-331.075c-1.1-27.605 5.264-46.702 10.589-62.616 8.508-24.364 13.775-30.731 38.197-29.689 32.925 1.044 35.011 15.914 33.967 48.783l-6.364 274.831c-2.145 95.541 8.503 108.275 108.214 108.275zm274.831-637.731c79.569 0 115.68-22.28 115.68-82.755 0-57.353-27.602-76.448-103.991-76.448-79.57 0-114.642 21.237-113.542 80.67 1.042 58.333 27.545 78.53 101.853 78.53zm12.73 637.725c103.992 0 131.6-26.561 131.6-206.944v-71.067H3866.8v56.195c0 32.925-6.367 37.155-18 37.155-13.83 0-15.911-4.228-13.83-32.875l18.058-262.092c9.55-127.372-7.406-137.963-114.583-137.963-107.178 0-132.642 23.377-130.556 196.297l1.1 71.122h13.772v-56.253c0-32.866 2.142-37.147 16.956-37.147 13.83 0 15.916 4.281 13.83 32.925l-18.055 260.997c-9.547 136.922 9.547 149.656 113.544 149.656zm-2781.33 238.603c-30.1-35.533-89.3-50.986-187.681-52.839-193.166-4.569-242.358 8.22-291.547 198.611l-18.23 71.067h11.863l10.012-35.533c13.658-48.262 36.458-56.481 171.294-56.481h27.317l-.928 4.569-19.095 1.798c-112.097 10.936-137.616 24.591-174.016 115.741-26.445 66.492-59.259 168.517-73.784 219.559-31.888 112.964 1.792 154.864 189.467 154.864 107.522 0 168.578-12.795 211.339-51.912 49.25-44.677 73.844-123.961 114.817-257.872l20.027-65.566c37.378-123.9 46.467-200.462 9.139-246.006zM783.67 2525.386c-9.145 36.4-13.659 56.483-35.534 132.061-17.303 60.125-26.444 89.295-41.894 102.95-10.942 10.011-25.522 11.864-44.678 11.864-34.608 0-42.822-13.655-33.683-47.397 24.597-84.722 55.561-188.539 82.005-274.189 70.139 1.794 90.161 14.586 73.784 74.711zm314.305 419.042c139.408 0 170.37-22.745 216.836-191.322l16.378-59.2h-11.861l-9.086 30.963c-12.734 45.539-36.459 60.125-113.889 61.978-48.264.925-72.858-.928-81.075-18.23-6.37-13.659-3.647-33.681 13.655-95.659 20.95-72.861 26.445-96.589 40.106-110.244 7.292-7.295 16.378-10.011 28.239-10.011 15.453.925 22.742 5.439 25.519 14.58 2.723 9.089 0 21.878-4.569 38.256-23.667 79.28-28.242 98.378-69.272 111.167l-16.378 5.441v10.011c39.178-7.294 71.994-13.661 119.33-29.111 59.259-19.153 86.575-39.178 121.181-151.272 28.242-92.939 8.217-150.289-136.633-150.289-58.334 0-100.234 6.367-132.117 22.742-61.922 31.889-85.65 101.158-124.828 229.575-44.616 147.628-54.628 200.461-30.036 242.358 20.956 32.814 65.575 48.264 148.5 48.264zm577.058-5.442c98.381 0 117.534-26.444 155.789-177.661l15.509-61.053h-11.864l-13.659 48.322c-8.216 28.237-13.655 32.753-23.727 31.887-16.378-.928-15.45-8.22.927-51.967l56.481-153.939c47.397-129.394 40.103-165.8-51.911-165.8-68.345 0-91.086 17.306-138.481 89.239l-77.43 117.536-2.722-.925 33.68-96.531c32.817-93.866 11.864-109.319-70.139-109.319-96.586 0-111.166 25.464-152.141 177.608l-16.434 61.053h11.864l13.658-48.264c8.214-28.241 13.656-32.814 23.667-31.889 16.436.925 15.511 8.164-.867 51.911l-113.888 312.5h204.047l70.2-284.258c6.364-23.667 17.305-40.975 26.389-53.764 14.583-20.947 20.95-26.389 38.252-25.464 28.242.873 26.445 13.661 17.303 41.9l-67.422 219.561c-29.106 93.806-12.728 109.323 72.922 109.323zm799.914-197.683c-7.294 28.239-14.583 31.889-27.372 31.889-13.661 0-13.661-3.65-5.442-28.245l150.289-456.483h-205.844l-63.775 248.728h-90.217l10.011-37.328 36.459-112.092c27.314-85.591 14.586-109.319-68.345-110.186-128.475-1.85-137.555 34.606-179.455 194.964l-16.442 62.847h11.864l4.575-18.228c16.378-54.688 37.325-79.283 184.95-72.916l20.95.928-.928 4.569-21.872 1.792c-110.242 9.15-134.839 25.522-169.445 113.889-40.1 102.952-90.219 272.397-120.25 366.263h199.534l61-221.411h91.141l-39.177 131.189c-20.948 70.2-12.786 102.086 76.511 102.086 109.314 0 123.9-6.422 170.369-189.527l16.378-64.695h-11.806zm100.442 197.683c52.836 0 79.286-5.5 126.678-82l69.214-112.036h3.644l-28.239 84.719c-31.886 94.734-10.939 109.323 68.345 109.323 95.661 0 113.889-25.52 152.144-177.664l15.447-61.053h-11.802l-13.662 48.322c-8.213 28.239-13.713 32.753-23.725 31.886-16.377-1.852-15.452-8.219.925-51.966l113.889-312.5h-192.244l-37.325 160.355h-3.645l-4.575-64.703c-5.438-81.075-20.947-99.305-85.647-100.172-45.544-.925-75.636 9.086-105.669 56.484-23.667 35.527-47.397 93.805-75.639 185.822-26.389 85.647-43.692 157.633-43.692 207.755 0 49.184 19.097 77.428 75.578 77.428zm134.842-155.789c-18.231-.925-25.523-8.214-24.598-27.314.925-20.947 10.937-61.977 23.725-103.877 14.528-48.259 23.667-68.345 33.684-78.356 8.216-8.219 18.228-10.011 31.889-10.011 27.311 0 39.177 7.292 29.161 42.825l-28.236 97.453c-6.364 22.8-13.656 39.177-23.725 54.689-13.656 20.947-21.817 25.519-41.898 24.591zm351.755 155.789c52.836 0 79.286-5.5 126.678-82l69.214-112.036h3.644l-28.239 84.719c-31.886 94.734-10.938 109.323 68.345 109.323 95.661 0 113.889-25.52 152.144-177.664l15.448-61.053h-11.803l-13.661 48.322c-8.214 28.239-13.714 32.753-23.725 31.886-16.378-1.852-15.453-8.219.925-51.966l113.889-312.5H3342.6l-37.325 160.355h-3.644l-4.575-64.703c-5.439-81.075-20.948-99.305-85.648-100.172-45.544-.925-75.636 9.086-105.669 56.484-23.667 35.527-47.397 93.805-75.639 185.822-26.389 85.647-43.692 157.633-43.692 207.755 0 49.184 19.098 77.428 75.578 77.428zm134.842-155.789c-18.231-.925-25.522-8.214-24.597-27.314.925-20.947 10.936-61.977 23.725-103.877 14.527-48.259 23.666-68.345 33.683-78.356 8.217-8.219 18.228-10.011 31.889-10.011 27.311 0 39.178 7.292 29.161 42.825l-28.236 97.453c-6.364 22.8-13.656 39.177-23.725 54.689-13.656 20.947-21.817 25.519-41.897 24.591zm435.653 310.65c162.155-1.794 200.466-42.822 238.719-190.394l31.889-122.106c25.517-97.453 30.958-114.755 41.894-143.928l80.15-221.405h-191.319l-37.325 160.358h-3.644l-4.575-64.703c-5.442-81.075-20.948-99.305-85.648-100.172-45.544-.925-75.577 9.086-105.672 56.484-19.094 30.036-40.972 74.711-69.214 165.8-21.875 70.136-39.178 141.2-39.178 191.313 0 49.189 20.025 77.431 76.509 77.431 52.833 0 78.355-7.294 128.469-82l60.125-90.164h3.65l-47.397 124.831c-27.314 72.858-36.4 82.869-150.289 83.794-85.647.928-120.255-14.589-109.319-52.836l6.366-22.8h-10.011l-10.069 29.167c-60.125 175.811 12.789 203.186 195.889 201.333zm60.133-325.228c-18.231-.925-26.389-8.216-24.592-27.313.925-11.864 6.361-47.398 16.434-80.212 16.372-53.763 25.458-76.508 36.394-87.444 8.22-8.219 18.231-10.011 31.889-10.011 27.372 0 39.178 7.292 29.164 42.825l-23.667 82.867c-6.366 22.805-13.658 39.183-23.725 54.688-13.661 20.95-21.819 25.52-41.9 24.595zm-2826.81 767.862l-1.506-54.281h-9.955v48.147c0 19.853-.75 22.164-12.267 22.164-9.144 0-12.211-2.314-12.211-22.914l-3.822-247.744c-2.314-131.484-41.261-149.075-207.178-149.075-133.044 0-175.114 24.48-173.611 159.03l.811 64.234h9.897v-29.861c0-42.014 33.678-52.723 135.359-50.462h8.388v3.817l-22.161 3.067c-63.427 8.45-88.661 21.411-103.186 92.533-18.391 87.908-29.853 230.908-32.111 310.42h160.536l2.314-146.814h80.267l.75 71.122c.758 65.739 10.711 85.647 83.333 85.647 81.081 0 100.178-13.778 96.358-159.03zm-181.945-204.167l1.5 71.875h-74.938l6.133-127.664c57.35 1.508 66.494 7.642 67.305 55.789zm291.045 359.375c46.642 0 69.555-22.164 89.467-74.189l33.622-88.658h3.066l-6.888 76.447c-6.128 66.492-.748 86.4 74.944 86.4 80.267 0 97.861-17.592 95.544-149.131l-.75-51.214h-9.955v40.509c0 23.725-3.82 26.791-12.964 26.791-11.519 0-13.022-3.066-11.519-23.725l29.111-413.6h-175.114l17.591 266.028h-3.066l-16.028-54.28c-18.408-62.675-32.931-84.086-92.539-84.086-48.955 0-74.189 19.097-87.903 56.597-11.519 29.803-16.841 91.725-17.591 169.733-.811 74.133 3.816 140.686 12.211 166.667 13.016 39.758 35.183 49.711 78.758 49.711zm81.017-130.786c-15.278 0-25.231-3.822-28.242-23.667-1.564-9.203-3.067-31.369-3.067-69.561 0-62.733 3.067-74.189 9.145-82.583 5.38-6.889 13.022-8.448 28.297-8.448 22.167 0 29.803 6.134 29.803 35.937v81.83c0 19.097-.753 32.87-6.075 45.889-6.889 16.031-13.773 20.603-29.861 20.603zm318.85 130.786c46.641 0 69.555-22.164 89.466-74.189l33.622-88.658h3.067l-6.889 76.447c-6.128 66.492-.747 86.4 74.945 86.4 80.266 0 97.861-17.592 95.544-149.131l-.75-51.214h-9.955v40.509c0 23.725-3.82 26.791-12.964 26.791-11.52 0-13.775-3.066-11.52-23.725l21.417-282.119h-156.717l6.889 134.547h-3.067l-16.027-54.28c-18.409-62.675-32.931-84.086-92.539-84.086-48.956 0-74.189 19.097-87.903 56.597-11.519 30.555-16.842 91.725-17.592 169.733-.811 74.133 3.817 140.686 12.211 166.667 13.017 39.758 35.184 49.711 78.759 49.711zm81.016-130.786c-15.278 0-25.23-3.822-28.241-23.667-1.564-9.203-3.067-31.369-3.067-69.561 0-62.733 2.258-74.189 9.144-82.583 5.381-6.889 13.023-8.448 28.298-8.448 22.166 0 29.802 6.134 29.802 35.937v81.83c0 19.097-.752 32.87-6.075 45.889-6.889 16.031-13.772 20.603-29.861 20.603zm724.939 130.786c82.581 0 99.361-19.156 97.106-149.131l-.811-51.214h-9.895v40.509c0 23.725-3.817 26.791-14.528 26.791-11.514 0-12.266-6.886-9.2-43.575l10.706-129.222c8.392-105.5 8.392-139.18-70.372-139.18-55.034 0-74.881 13.775-100.925 74.941l-41.259 97.859h-2.316l7.697-87.153c6.075-65.739-3.067-85.647-68.056-85.647-44.386 0-68.808 14.525-94.036 74.941l-41.322 97.859h-2.317l7.698-87.153c6.077-65.739 0-85.647-74.942-85.647-83.333 0-97.858 17.591-97.858 149.133v51.214h9.897v-40.511c0-23.725 4.628-26.792 16.089-26.792 11.458 0 13.016 3.067 11.458 23.725l-22.919 282.12h165.916l-3.819-238.542c0-19.906 3.819-33.622 7.636-45.139 6.075-17.594 9.955-22.164 27.489-21.411 20.661.811 22.975 11.517 21.411 35.183l-15.278 269.909h165.917l-9.145-238.542c-.808-19.906 3.823-33.622 7.639-45.139 6.075-17.594 9.897-22.164 27.489-21.411 20.661.811 22.164 11.517 21.411 35.183l-4.569 198.034c-1.503 68.808 6.133 78.008 78.008 78.008zm301.017 3.822c72.63 0 110.883-14.525 120.022-107.064l3.072-29.803h4.57l13.775 54.287c18.344 71.122 29.047 82.58 93.283 82.58 71.875 0 99.422-2.319 97.108-147.569l-.752-46.645h-9.956v35.936c0 16.031-2.314 19.098-14.525 19.098-8.389 0-13.019-2.256-32.869-23.667l-46.642-51.275 88.714-3.82 6.889-156.713c-6.889-1.564-16.845-2.314-29.861-2.314-58.106 0-61.928 37.5-71.067 111.627l-4.631 39.762-84.086-93.287 16.842-3.819c81.019-18.347 98.611-38.194 102.43-121.528 3.817-81.075-25.986-120.083-150.638-120.083-113.889 0-178.878 22.975-181.192 134.608-1.503 65.742 10.708 103.934 58.103 145.256l17.594 15.278-15.278 2.313c-53.53 7.639-96.361 20.6-97.861 116.206-1.561 103.992 22.164 150.636 116.956 150.636zm117.766-329.575l-19.155-18.344c-33.622-32.117-38.947-43.578-38.947-69.559 0-9.202 1.508-19.097 7.641-25.233 5.325-5.322 13.773-7.636 25.984-7.636 13.019 0 21.408 2.314 25.983 10.703 3.817 7.641 5.381 19.852 5.381 42.075 0 16.027-1.559 39.755-6.887 68zm-48.958 188.889c-49.711 0-57.347-22.161-57.347-91.781v-25.986l99.417 113.139c-16.089 3.878-30.614 4.628-42.073 4.628zm696.072-16.083l-1.558-64.239h-9.147v29.861c0 37.444-6.886 45.08-90.972 45.833-70.37.811-76.503-.753-76.503-35.128v-29.861h139.178v-135.3h-136.112l2.314-58.852c44.331.752 100.928 2.255 157.523 3.813l7.641-152.194c-30.614-3.011-88.714-6.075-137.614-6.075-97.919 0-149.133 5.322-175.872 26.733-28.294 22.164-35.183 66.553-32.869 145.256l1.508 59.667h9.95v-29.809c0-40.505 32.119-47.394 136.864-47.394h14.525v3.822l-15.278 2.256c-82.58 12.269-109.372 19.905-117.767 96.355-5.38 55.033-7.636 132.289-6.888 181.945 0 101.733 19.911 122.333 157.527 122.333 60.359 0 116.203-2.253 142.939-22.917 28.297-22.161 32.12-68.055 30.611-136.111zm184.948 158.272c61.919 0 103.186-6.889 129.975-33.622 22.166-22.167 34.377-58.856 38.194-117.014 6.889-99.364 6.133-265.278 5.383-293.578h-143.75l3.817 270.658c.756 39.761-3.064 42.828-26.733 42.828-23.728 0-29.053-3.819-27.545-44.33l4.57-117.014 3.819-80.264c3.067-61.17 1.561-78.011-67.244-78.011-80.328 0-98.667 15.333-97.109 136.864l.753 70.369h9.147v-22.164c0-32.117.809-40.567 55.089-44.389 28.297-1.503 55.036-.75 84.836 2.317v3.822l-32.869 5.322c-82.581 11.517-97.858 14.584-100.175 117.014-1.5 81.02 3.828 126.911 28.305 152.142 23.725 23.725 64.237 29.803 131.539 29.05zm354.013-.756c126.162 0 157.467-17.591 155.209-160.589l-.753-49.65h-9.947v25.984c0 38.194-16.842 49.711-88.714 51.216-32.12.75-53.531-.752-64.239-15.277-8.392-11.461-11.458-27.55-11.458-85.65 0-61.923 2.314-76.445 9.2-85.648 4.575-6.075 10.708-9.144 22.919-9.144 6.133 0 14.525.753 19.906 6.889 5.327 6.075 7.641 18.344 7.641 58.853 0 43.577-1.564 61.169-32.875 71.872l-12.269 4.575 2.314 8.444c31.366-6.13 57.35-11.511 93.289-24.475 45.077-16.089 60.355-32.872 64.986-126.911 4.575-100.172-31.364-126.158-140.681-126.158-66.553 0-103.994 11.458-129.222 36.692-29.808 29.8-39.761 93.286-40.517 203.355-.811 130.731 12.211 162.85 30.556 182 21.417 22.92 58.105 33.631 124.655 33.631z" fill="#fff"/></g></svg>