<svg viewBox="0 0 4500 4000" xmlns="http://www.w3.org/2000/svg" fill-rule="evenodd" clip-rule="evenodd" stroke-linejoin="round" stroke-miterlimit="2"><path fill="none" d="M0 0H4500V4000H0z"/><path fill="#f0f" fill-rule="nonzero" d="M0 0H4500V4000H0z"/><path d="M1711.42 3705.97l-1.912-29.57c-139.988.692-183.97-21.815-198.381-368.867l-37.615-888.715c-13.6-334.374-64.815-530.381-425.867-536.285l-50.985-.867-.578-8.451 71.008-17.419c321.47-80.67 354.455-222.915 325.055-539.237l-48.148-535.819c-21.585-261.692 14.815-289.585 153.648-307.177l-1.966-29.571c-528.189 34.952-676.337 104.111-608.104 557.926l91.493 613.545c24.363 176.618 12.211 249.592-85.011 256.018l-92.941 6.134 31.018 532.637 67.941-.175c123.033.349 141.9 28.763 140.682 202.838l-9.897 620.311c-8.737 509.844 152.374 507.703 680.56 472.748v-.004z" fill="#fff" fill-rule="nonzero"/><path d="M2257.71 3495.8c527.952-39.122 657.289-200.518 618.112-664.7l-46.123-569.852c-33.389-439.118-63.829-899.707-69.618-1052.14l-485.937 32.119 63.196 954.974c3.356 50.696-3.241 80.844-10.474 98.263-14.47 39.181-44.041 41.148-69.389 42.767-33.741 2.259-55.207-.578-74.304-33.215-19.155-32.756-37.963-124.889-72.34-644.563-29.337-443.689-25.056-571.237 8.222-645.6 33.274-74.363 107.692-104.745 280.9-116.204 105.615-7 216.029-5.789 326.737-.407l-8.508-512.963c-81.074-7.348-242.477-9.371-428.355 2.896-249.307 16.493-453.878 68.23-570.259 232.926-120.426 169.27-141.897 421.067-98.552 1075.99 35.766 540.915 87.326 872.685 130.092 1005.67 42.767 132.925 111.171 204.863 271.415 189.988 156.134-14.525 229.048-66.088 273.667-289.7l62.963-330.9 8.507-.581 3.185 432.7c1.56 279.918-85.533 311.167-317.363 334.952-324.537 34.2-358.851-35.648-377.662-191.378l-10.875-101.156-29.629 1.908 8.389 126.796c37.733 570.371 162.155 655.556 614.007 621.408l-.004.003zm530.93-3137.326l1.966 29.57c140.049-.811 183.912 21.704 198.382 368.752l37.555 888.771c13.6 334.377 64.76 530.444 425.871 536.285l51.041.811.577 8.507-71.063 17.419c-321.355 80.67-354.455 222.859-325 539.178l48.149 535.822c21.525 261.689-14.76 289.585-153.649 307.292l1.911 29.571c528.186-34.952 676.389-104.222 608.16-557.985l-91.493-613.6c-24.422-176.623-12.326-249.537 84.896-255.963l92.941-6.134-30.963-532.696-67.822.233c-123.148-.348-141.956-28.818-140.8-202.892l9.956-620.259c8.677-509.834-152.434-507.637-680.615-472.682z" fill="#fff" fill-rule="nonzero"/></svg>