<svg clip-rule="evenodd" fill-rule="evenodd" stroke-linejoin="round" stroke-miterlimit="2" viewBox="0 0 4500 4000" xmlns="http://www.w3.org/2000/svg"><path d="M0 0h4500v4000H0z" fill="none"/><g fill-rule="nonzero"><path d="M0 0h4500v4000H0z" fill="#f0f"/><path d="M1783.07 3635.72c436.804.171 712.73-38.196 907.463-173.785 212.445-149.193 325.756-417.652 441.496-886.748 128.586-518.289 187.441-879.919-583.914-912.445l-44.56.463 4.223-22.333 129.111-14.644c623.207-72.974 760.648-154.515 876.792-574.593 146.241-536.289-140.622-711.752-867.07-704.63-806.596 7.926-1006.13 116.837-1225.06 961.341l-90.16 348.493 57.926-.522 47.282-174.308c68.981-236.918 184.374-282.518 679.167-282.926 325.288 1.274 463.774 35.474 407.755 223.263-21.47 89.352-47.744 138.6-92.015 165.8-22.166 13.6-53.296 18.345-93.403 18.748l-757.637 7.408-223.845 795.489 619.385-6.078c231.774-2.259 307.641 10.359 260.304 184.722-47.282 178.704-73.556 223.496-514.815 227.833-467.881 4.63-646.181-2.544-564.526-306.481l34.548-116.204-53.474.522-103.644 339.815c-90.626 303.937-115.222 518.056-42.593 655.556 95.371 181.77 341.148 246.181 791.26 246.237l.003.007z" fill="#fff"/></g></svg>