<svg clip-rule="evenodd" fill-rule="evenodd" stroke-linejoin="round" stroke-miterlimit="2" viewBox="0 0 4500 4000" xmlns="http://www.w3.org/2000/svg"><path d="M0 0h4500v4000H0z" fill="none"/><g fill-rule="nonzero"><path d="M0 0h4500v4000H0z"/><path d="M1089.27 353.592v-33.334h-132L809.231 612.911 657.27 320.261H521.903v33.333h58.68v368.689h-58.68v32.642h176.044v-32.642h-76.044V374.256l158.68 303.355h36.689l154.631-301.333v346.005h-76.62v32.642h193.984v-32.642h-58.684V353.594zm318.727 342.652l-3.355 15.334c-1.334 7.35-8.622 10.711-21.295 10.711-18 0-18.694-10.708-18-23.383l4.628-134.667c2.028-65.333-4.628-107.983-107.983-107.983-81.309 0-115.334 28.647-115.334 92.65v14.005l26.678.695 3.295-16.667c6.019-30.036 16.666-47.339 73.383-47.339 62.672 0 65.972 24.017 65.333 68l-.694 35.3c-25.347 4.689-69.961 14.003-92.65 20.022-56.65 16.67-78.008 36.692-78.008 70.659 0 40.686 21.355 68 75.347 68 34.666 0 58.678-11.978 97.339-48.667h.636l.691 4.686c3.995 26.678 11.345 44.672 53.995 44.672 49.305 0 57.35-25.344 58.68-52.658l.637-13.37zm-165.333 28.014c-34.667 0-43.98-17.302-43.98-38.022 0-15.969 7.986-25.289 35.297-34.667 17.361-5.958 53.358-14.636 80.036-19.963l-1.333 68.633-10.703 6.717c-14.642 8.622-36.631 17.302-59.317 17.302zm533.606-228.652v-31.362h-106.02c-16.666-5.963-37.964-9.319-63.311-9.319-94.036 0-135.997 45.311-135.997 111.978 0 47.341 21.297 80.036 67.305 93.344l-5.964 2.025c-35.355 10.653-54.68 31.309-56.011 52.667-2.03 29.972 19.959 50.63 52.656 55.319l-12.675 5.323c-19.325 7.988-56.65 27.319-56.65 68.697 0 68.633 74.014 82 141.317 82 121.994 0 168-51.331 168-113.367 0-56.655-22.689-85.3-115.973-86.63l-101.333-1.334c-21.353 0-30.667-10.703-30.667-22.686 0-11.978 5.959-21.35 33.967-37.325l.695-.692c11.977 2.025 24.652 3.356 39.297 3.356 92.703 0 133.333-46.008 134.658-110.011.697-25.35-4.628-47.342-17.3-64.008l27.317 2.025zm-175.987 140.63c-52.025 0-74.013-25.292-74.711-75.292-.636-45.372 20.025-74.711 74.711-74.711 59.32 0 73.959 30.67 73.959 74.014 0 49.367-21.295 75.986-73.959 75.986zm49.312 140.675c52.658 1.333 69.325 12.036 69.325 44.678 0 51.333-35.992 71.992-104.628 71.992-72.05 0-102.72-22.689-102.72-67.303 0-28.706 21.356-42.711 28.012-48.039l5.322-3.989zm367.108-317.297c-37.331 0-43.289 4.63-98.617 53.297l-1.383-.639-1.333-42.703c-.639-15.975-3.298-15.975-19.964-11.98l-86.698 19.328 2.664 24.652 52.664-1.966v224.014h-55.961v31.308h186v-31.308h-74.658V527.611l13.311-6.019c14-5.325 38.019-10.648 66.667-9.32l32.636 1.334 4.053-32.695c1.966-17.305.636-21.297-19.387-21.297zm135.647-70.022c23.956 0 36.631-14.645 36.631-36 0-21.989-12.675-34.025-33.973-34.025-24.013 0-36.688 15.333-36.688 35.358 0 23.322 12.675 34.667 34.03 34.667zm31.308 334.025V470.9c0-15.975-6.655-16.667-32-9.956l-78.652 19.328 2.658 23.961 52.667-1.972v221.356h-56.659v31.308h163.311v-31.308zm203.417 40.627c88.656 0 123.322-34.666 122.631-91.322 0-46.641-21.992-69.328-84.667-83.972l-32.642-7.347c-38.016-8.681-57.983-18.692-57.983-48.667 0-25.986 19.961-43.986 60.647-43.986 52.664 0 65.334 23.322 71.992 47.978l4.686 17.997h25.347v-59.319c0-16.667 0-24.014-20.022-31.362-16.669-5.327-45.314-9.319-71.992-9.319-70.022 0-118.691 28.644-118.691 90.681 0 62.675 50 75.288 84.666 83.333l32.695 7.297c50 12.036 58.678 24.708 58.678 50 0 30.031-24.706 43.342-65.334 43.342-59.372 0-74.014-26.678-83.333-51.967l-7.35-20.661-25.345 3.297 2.662 57.353c.694 16.667 2.022 24.014 21.352 32 15.334 7.35 42.014 14.644 82 14.644zm282.267 0c88.655 0 123.322-34.666 122.63-91.322 0-46.641-21.991-69.328-84.666-83.972l-32.642-7.347c-38.017-8.681-57.983-18.692-57.983-48.667 0-25.986 19.961-43.986 60.647-43.986 52.664 0 65.333 23.322 71.992 47.978l4.686 17.997h25.347v-59.319c0-16.667 0-24.014-20.022-31.362-16.67-5.327-45.314-9.319-71.992-9.319-70.022 0-118.692 28.644-118.692 90.681 0 62.675 50 75.288 84.667 83.333l32.694 7.297c50 12.036 58.678 24.708 58.678 50 0 30.031-24.705 43.342-65.333 43.342-59.372 0-74.014-26.678-83.333-51.967l-7.35-20.661-25.345 3.297 2.661 57.353c.695 16.667 2.022 24.014 21.353 32 15.333 7.35 42.014 14.644 82 14.644zm245.341-374.652c23.956 0 36.631-14.645 36.631-36 0-21.989-12.675-34.025-33.972-34.025-24.014 0-36.689 15.333-36.689 35.358 0 23.322 12.675 34.667 34.03 34.667zm31.309 334.025V470.9c0-15.975-6.656-16.667-32-9.956l-78.653 19.328 2.658 23.961 52.667-1.972v221.356h-56.658v31.308h163.311v-31.308zm604.88 0l.639-172.048c0-65.977-19.33-96.644-87.33-96.644-49.367 0-61.981 6.656-116.667 53.992-8.678-36.628-32-53.992-83.333-53.992-49.367 0-61.981 6.656-114.645 52.664l-1.386-.639-1.333-37.383c-.636-15.973-1.967-15.973-19.961-11.978l-86.695 19.328 2.664 24.652 52.664-1.966v224.014h-55.961v31.308h161.986v-31.308h-50.642V524.95l9.32-6.022c16.666-10.011 35.991-20.022 71.297-20.022 68.689 0 64.694 30.038 64.694 65.333l-.691 159.378h-52.664v31.308h159.375v-31.308h-51.333l.641-172.048c0-9.319-.639-18-1.333-25.986l10.014-6.655c16.666-10.011 35.991-20.022 71.297-20.022 68.689 0 64.694 30.038 64.694 65.333l-.691 159.378h-52.664v31.308h160.011v-31.308zm226.656 40.627c105.964 0 153.994-61.344 153.994-162.675 0-97.977-41.319-146.644-139.989-146.644-106.019 0-156.019 60.647-156.019 161.978 0 96.703 40.681 147.341 142.014 147.341zm10.011-36c-68 0-93.344-43.977-94.678-119.963-1.328-71.353 21.995-117.359 88.661-117.359 70.659 0 92.65 46.006 93.345 121.35.636 71.995-22.686 115.975-87.328 115.975zm-2872.26 757.995c-7.35 34.03-21.992 41.378-71.355 41.378-38.023 0-60.648-11.345-69.328-59.373l-.634-1.972c127.312-15.333 193.284-97.333 193.284-235.991 0-138.714-64.639-215.337-218.634-215.337-156.655 0-238.658 85.3-238.658 237.325 0 135.3 62.62 212.675 207.989 216.667l1.331 11.345c9.316 81.308 38.022 108.622 119.961 108.622 87.386 0 119.389-25.289 120.027-98.667l.692-21.297-40.68-1.333zm-320.022-247.972c0-118.695 46.005-177.317 142.65-177.317 102.717 0 143.344 65.333 143.344 183.972 0 124.014-47.975 178.006-139.989 178.006-102.022 0-146.005-66.028-146.005-184.667zm793.9 174.65l-49.361 2.027v-244.038c0-15.973-1.967-15.973-19.331-13.312l-107.986 17.3 3.297 34.031 50-2.025v186.05l-7.986 4.631c-15.333 8.68-32.636 16.033-64.639 16.033-59.375 0-56.716-25.347-56.716-62.036l.697-180.675c0-15.97-2.025-15.97-20.022-13.309l-107.292 17.3 3.294 34.031 50-2.025-.633 164.7c0 65.969 17.306 96.644 87.328 96.644 53.294 0 65.333-7.297 117.303-56.655l1.333.692 2.022 39.988c.697 15.975 2.025 15.975 20.022 12.675l101.334-18.694zm321.089-19.967l-2.661 12.619c-1.967 8.045-7.986 11.342-19.964 11.342-16.667 0-16.667-9.317-16.034-23.322l3.998-120.022c2.658-72.631-6.656-115.973-117.306-115.973-92.014-.002-126.044 29.339-126.044 97.331v15.342l35.361.633 3.358-15.333c5.958-29.286 16.667-43.984 68.631-43.984 60.014 0 64.005 20.661 63.369 65.334l-.692 25.35c-24.655 3.991-70.027 13.311-96.644 20.658-52.664 15.333-76.042 35.303-76.042 71.992 0 43.344 21.353 70.661 76.678 70.661 35.997 0 60.011-11.978 98.667-50.639v-2.025l.697 6.019c4.628 29.339 15.333 47.336 61.344 47.336 57.984 0 69.325-26.677 69.962-62.036l.697-11.283zm-171.992 27.317c-33.333 0-41.319-15.334-41.319-34.664 0-14.003 6.655-22.686 32-31.367 15.341-5.322 48.675-13.308 73.327-17.997l-1.333 64.005-8.678 5.325c-12.675 7.348-32.641 14.7-53.994 14.7zm403.611-36.689l-2.666 7.989c-6.653 20.022-12.67 25.344-39.987 25.344-31.366 0-39.988-6.655-39.988-44.675l1.333-164.642h113.308v-42.013h-114.641l3.297-66.667h-74.647l-.695 66.667h-50v42.013h49.364l-.697 170.023c-.636 65.333 18.694 90.627 96.008 90.627 81.367 0 91.322-30.675 93.345-72.63l.697-11.342zm315.347-16.667l-2.022 6.656c-3.3 10.702-7.989 40.683-75.983 40.683-78.645 0-93.983-39.356-93.983-104.628v-6.022l198.666.636 5.328-10.647c0-6.02.636-6.02.636-10.65 0-85.992-34.667-126.678-121.297-126.678-106.714 0-156.714 57.986-156.714 171.356 0 92.652 35.358 140.627 147.342 140.627 130.033 0 129.339-61.983 131.361-88.661l.639-11.977zm-98.666-167.305c60.65 0 63.308 38.661 63.308 68.638l-134.664.692c6.656-50.692 29.342-69.33 71.356-69.33zm395.194-39.348c-41.319 0-47.339 6.653-98.033 61.342l-1.333-.697-2.662-50c-.636-15.97-2.661-15.97-19.327-12.67l-102.661 20.023 3.355 33.333 50-1.967v209.95h-52.661v39.353h197.972v-39.353h-71.355v-181.305l10.708-3.995c14.642-3.991 38.658-7.989 65.333-6.655l36.634 1.333 3.997-46.011c1.383-17.995.692-22.683-19.967-22.683zm386.714 259.314l.692-165.972c0-66.031-18.689-97.333-90.681-97.333-51.333 0-68.691 8.677-118.691 56.014l-1.334-.692-1.964-40.686c-.697-15.97-2.666-15.97-20.025-12.67l-102.661 20.023 3.356 33.333 50-1.967v209.95h-52.661v39.353h172.627v-39.353h-46.011v-187.961c29.339-16.03 44.039-20.661 72.05-20.661 61.978 0 61.978 23.322 61.978 52.664l-.697 155.958h-47.275v39.353h170.661v-39.353zm369.325-26.622l-2.661 12.619c-1.967 8.045-7.986 11.342-19.964 11.342-16.667 0-16.667-9.317-16.033-23.322l3.997-120.022c2.658-72.631-6.656-115.973-117.306-115.973-92.013-.002-126.044 29.339-126.044 97.331v15.342l35.361.633 3.358-15.333c5.959-29.286 16.667-43.984 68.631-43.984 60.014 0 64.006 20.661 63.369 65.334l-.691 25.35c-24.656 3.991-70.028 13.311-96.645 20.658-52.664 15.333-76.041 35.303-76.041 71.992 0 43.344 21.352 70.661 76.677 70.661 35.998 0 60.012-11.978 98.667-50.639v-2.025l.697 6.019c4.628 29.339 15.334 47.336 61.345 47.336 57.983 0 69.325-26.677 69.961-62.036l.697-11.283zm-171.992 27.317c-33.333 0-41.319-15.334-41.319-34.664 0-14.003 6.656-22.686 32-31.367 15.342-5.322 48.675-13.308 73.328-17.997l-1.334 64.005-8.677 5.325c-12.675 7.348-32.642 14.7-53.995 14.7zm-62.463 751.977c126.694 0 172.694-61.98 172.694-166.666 0-97.342-34.028-147.975-154.694-147.975-125.978 0-175.342 60.644-175.342 167.3 0 94.678 34.028 147.341 157.342 147.341zm-370.725 0c126.677 0 172.683-61.98 172.683-166.666 0-97.342-34.028-147.975-154.689-147.975-125.981 0-175.344 60.644-175.344 167.3 0 94.678 34.027 147.341 157.35 147.341zM2391.954 1857.6c-45.372 0-66.667 10.653-113.372 59.319l-1.333-.638 2.03-226.039c0-15.334-2.025-17.306-18.692-14.006l-126.677 21.353 3.355 42.014 47.336-2.025v409.375c31.309 13.311 80.675 24.655 141.323 24.655 130.033 0 180.666-57.986 180.666-169.33 0-100-30.666-144.678-114.636-144.678zm-1104.21 231.311l-2.664 9.37c-2.025 9.322-6.714 11.983-18 11.983-14 0-14.695-7.986-14-23.322l3.994-103.356c2.659-81.308-8.683-124.653-127.319-124.653-104.047 0-138.02 29.978-138.02 101.967v17.364l45.312.636 2.663-13.311c6.02-28.647 16.031-41.322 64.003-41.322 57.353 0 60.706 16.666 60.706 63.311v12.675c-24.706 3.991-71.35 14.005-102.022 21.991-48.667 14-73.323 34.025-73.323 74.014 0 46.009 20.659 73.323 77.314 73.323 37.325 0 61.345-11.978 100-51.967l.697 2.661c5.323 32.639 19.325 50 69.325 50 68 0 82.003-27.372 82.642-72.686l.692-8.678zm2354.36-173.958v-48.034H3478.16v48.034h47.278l-104.639 101.966v1.334l107.361 125.98c13.305 16.031 17.305 18.692 41.305 18.692h66.667v-39.35l-121.972-132 87.944-76.622zm-1942.85 200l.694-159.375c0-66.667-16.667-97.975-92.017-97.975-54.683 0-72.683 8.678-121.35 60.011l-1.333-.695-2.661-45.311c-1.333-15.333-2.667-16.03-20.658-12.675l-119.967 20.659 3.992 42.652 47.339-1.969v194.678h-49.364v47.972h185.358v-47.972h-40.681v-176.678c25.981-11.344 39.353-14.7 62.675-14.7 51.961 0 53.992 18 53.992 52.025l-.697 139.353h-41.956v47.972h182.642v-47.972zm-875.303-188.717c79.342-18.636 108.68-46.644 108.68-100.636 0-68.692-42.013-97.336-146.005-97.336H523.951v52.022h52.658V2110.9h-52.655v52.025h218c146.005 0 200.633-37.325 200.633-128.011 0-60.011-23.322-97.333-118.633-108.678zm2588.88-235.994c0-15.334-2.028-17.306-19.334-14.006l-126.666 21.353 3.277 42.014 47.334-2.025v377.369h-46.639v47.978h186.639v-47.972h-44.611zm-1268.92 224.711v-48.034h-163.947v48.034h47.281l-104.628 101.966v1.334l107.347 125.98c13.308 16.031 17.303 18.692 41.319 18.692h66.667v-39.35l-121.989-132 87.961-76.622zm-229.283-224.711c0-15.334-2.028-17.306-19.328-14.006l-126.68 21.353 3.3 42.014 47.336-2.025v377.369h-46.645v47.978h186.634v-47.972h-44.617zm421.947 428.705c-41.319 0-57.289-18-57.289-52.661v-128.705l3.992-1.967c15.972-8.045 33.972-12.672 53.994-12.672 60.011 0 74.014 29.339 74.014 97.972 0 77.372-26.036 98.033-74.708 98.033zm750.117-.003c-54.695 0-72-34.03-72.695-105.325-.639-70.022 16.028-102.719 68.695-102.719 53.305 0 68.639 33.333 69.333 105.381.639 71.994-14.694 102.663-65.333 102.663zm-370.742 0c-54.689 0-71.994-34.03-72.689-105.325-.633-70.022 16.034-102.719 68.692-102.719 53.3 0 68.636 33.333 69.333 105.381.633 71.994-14.703 102.663-65.336 102.663zm-1559.56-15.336c-9.955 5.961-28.011 11.981-47.975 11.981-32 0-38.658-14.003-38.658-30.67 0-12.675 5.964-20.663 28.647-28.011 14.006-4.63 43.983-11.977 65.333-15.975l-.636 59.32zm-403.092 7.292h-75.35v-146.642h72.687c34.666 0 87.963-2.658 87.963 74.02 0 55.322-21.994 72.63-85.3 72.63zm-3.361-330.614c55.328 0 78.65 18.636 78.65 65.281 0 25.344-7.294 47.333-25.986 67.358H677.948v-132.639zm3240.12-614.705h-139.334v39.352h47.334l-47.972 115.97-28.028 72.689-25.334-72.684-47.333-115.972h46.695v-39.35H3631.39v39.35h37.389l116.667 265.972-18.056 35.359c-22.639 44.677-38.667 60.011-86.639 57.986l-27.305-1.331-4.056 36.689c-3.305 24.656 0 26.678 30.028 26.678 70.667 0 99.305-36.053 125.333-92.703l148.667-328.65h36.639zm-399.722-5.323c-41.306 0-47.334 6.653-98.028 61.342l-1.334-.697-2.638-50c-.639-15.97-2.667-15.97-19.334-12.67l-102.666 20.023 3.361 33.333 50-1.967v209.953h-52.667v39.35h197.972v-39.35h-71.361v-181.308l10.722-3.992c14.639-3.994 38.639-7.989 65.334-6.656l36.611 1.334 4-46.011c1.389-17.998.694-22.686-19.972-22.686zm201.836 1012.68c101.327 0 150-28.008 148.605-102.664-.633-54.683-31.939-74.711-90.622-86.689l-46.006-9.316c-30.672-6.017-44.677-16.031-44.677-36.689 0-20.661 16.027-33.334 50-33.334 44.677 0 55.325 16.667 63.311 39.35l5.38 15.975h48.667v-59.955c0-18.692-1.331-24.711-22.044-31.367-16.667-5.322-50-11.978-87.325-11.978-88.662 0-143.984 31.309-143.984 99.309 0 59.369 38.02 78.703 87.328 89.989l50.692 10.702c35.997 7.987 42.652 17.303 42.652 35.998 0 21.989-18 32-52.663 32-50.692 0-64.7-19.328-74.014-42.011l-6.02-16.667-51.333 3.355 3.997 56.656c.692 18.633 3.356 24.65 22.047 32 15.334 6.658 46.003 15.339 96.009 15.339zm-2712.21 259.314H882.622v61.981h68.634l2.664 245.372-53.992-93.345-126.683-198.033c-9.95-15.333-11.281-15.972-27.311-15.972H564.62v61.978h49.308v310.705h-49.306v61.981h197.975v-61.978h-69.322V2544.93l52.659 86.63 159.316 236.692h124.711v-374.014h50zm413.339 371.356l-42.014 1.333v-229.342c0-16.666-2.025-18-18-16.028l-146.7 20.023 3.992 51.966 45.372-1.966v159.316l-3.994 1.331c-12.036 4.686-25.345 7.986-48.028 7.986-41.956-.639-42.653-15.972-42.653-55.322v-167.306c0-16.666-2.025-18-18-16.028l-146 20.023 3.992 51.966 44.675-1.966v147.972c0 67.364 14.008 98.033 89.989 98.033 60.703 0 72.686-7.35 121.355-64.7l1.334.697 3.989 49.303c1.333 16.031 2.025 16.031 20.663 13.372l132.695-18zm221.953-28.009l-1.964 7.986c-5.325 15.975-10.014 21.356-30.036 21.356-23.958 0-29.978-7.353-29.978-40.047V2631.56h116.667v-63.308h-118l3.358-76.678h-115.333l-.695 76.678h-47.975v63.311h46.642v137.386c0 79.281 24.017 107.292 118.692 107.292 100.636 0 111.286-34.667 114.008-88.658l.633-11.342zm667.547 34.664l.697-152.664c0-66.666-14.008-99.361-91.377-99.361-56.656 0-73.959 7.983-121.992 64.003-5.964-42.647-28.008-64-89.297-64-57.347 0-74.014 7.986-122.681 64l-1.333-.633-3.995-48.67c-1.327-16.03-2.658-16.667-20.658-14.005l-137.38 21.986 4.683 51.966 44.678-2.658v180.036h-46.006v56.656h195.311v-56.656h-33.972v-164.7l3.361-1.33c13.306-3.992 26.617-8.623 48.606-7.984 44.677.692 44.677 16.028 44.677 55.322l-.636 118.692h-35.997v56.656h186.633v-56.656h-34.666l.697-152.664v-12.036l2.664-1.33c11.978-3.992 25.983-8.623 47.972-7.984 45.372.692 44.678 16.028 44.678 55.322l-.636 118.692h-36v56.656h194.622v-56.656zm331.606-48.033l-2.664 6.714c-3.356 9.316-10.011 30.611-68 30.611-65.333 0-78.645-25.981-79.336-76.617l194.672.636 7.353-18c0-2.658.633-7.986.633-12.669 0-91.322-34.664-134.667-140.68-134.667-126.62 0-177.317 60.703-177.317 174.65 0 93.35 34.667 143.35 166.667 143.35 150 0 150-64.008 152.027-99.308l.636-14.003zm-92.017-144.62c47.339 0 50 27.32 50 57.989l-105.961.639c5.325-44.678 22.628-58.622 55.961-58.622zm540.081 7.29v-56.653h-114.647c-21.353-5.322-48.033-8.678-80.672-8.678-128.011 0-166.028 46.003-166.028 115.334 0 46.702 16.667 80.036 78.006 94.036l-5.323 1.333c-48.666 12.619-68 36.631-68.691 67.306 0 34.027 26.041 58.68 76.677 64.002v2.025l-7.347 1.334c-26.619 5.319-80.672 14.639-80.672 61.975 0 46.644 46.008 71.355 156.717 71.355 169.327 0 207.291-56.714 207.291-131.369 0-80.667-52.664-92.011-130.669-92.65l-109.956-1.334c-16.666 0-26.677-3.988-26.677-19.325 0-7.986 2.661-14.002 8.68-21.352 15.333 2.022 33.333 3.355 53.992 3.355 133.333 0 169.964-48.666 171.297-110.703 0-15.975-1.967-31.311-7.292-44.622l17.303 4.631zm-197.98 97.336c-32.698 0-52.028-11.978-52.028-56.014-.636-36 14.642-53.3 50.697-53.3 38.656 0 51.333 18.633 51.333 55.322 0 40.684-14.702 53.992-50 53.992zm47.339 188.658c27.311 0 41.955 5.328 41.955 27.372 0 26.623-21.294 43.289-80.672 43.289-62.675 0-79.975-16.666-79.975-45.95 0-13.369 5.322-21.355 10.011-26.677zM3545.27 2624.9v-56.653h-114.647c-21.353-5.322-48.033-8.678-80.672-8.678-128.011 0-166.028 46.003-166.028 115.334 0 46.702 16.667 80.036 78.005 94.036l-5.322 1.333c-48.666 12.619-68 36.631-68.691 67.306 0 34.027 26.041 58.68 76.677 64.002v2.025l-7.347 1.334c-26.619 5.319-80.672 14.639-80.672 61.975 0 46.644 46.008 71.355 156.717 71.355 169.327 0 207.291-56.714 207.291-131.369 0-80.667-52.664-92.011-130.669-92.65l-109.956-1.334c-16.666 0-26.678-3.988-26.678-19.325 0-7.986 2.662-14.002 8.681-21.352 15.333 2.022 33.333 3.355 53.992 3.355 133.333 0 169.963-48.666 171.297-110.703 0-15.975-1.967-31.311-7.292-44.622l17.303 4.631zm-197.981 97.336c-32.697 0-52.027-11.978-52.027-56.014-.636-36 14.641-53.3 50.697-53.3 38.655 0 51.333 18.633 51.333 55.322 0 40.684-14.703 53.992-50 53.992zm47.339 188.658c27.311 0 41.956 5.328 41.956 27.372 0 26.623-21.295 43.289-80.672 43.289-62.675 0-79.975-16.666-79.975-45.95 0-13.369 5.322-21.355 10.011-26.677z" fill="#fff"/><path d="M3919.26 2568.25h-153.3v56.653h41.955l-35.3 85.358-28.011 77.314-24.014-77.314-32-85.358h38.02v-56.653h-197.342v56.656h33.333l125.348 270.655-5.323 9.378c-20.025 35.297-35.358 46.003-88.025 42.644l-25.344-1.333-4.631 57.353c-3.358 29.283 4.631 31.305 33.967 31.305 66.031 0 108.683-21.35 143.983-96.639l144.678-313.372h32zM1215.51 3578.28c131.366 0 182.697-60.695 182.697-172 0-112.028-31.367-146.695-110.011-146.695-49.309 0-72.687 12.667-117.364 68l-1.331-.639-5.322-53.361c-1.333-15.333-2.667-16.666-21.992-14l-153.991 22.695 5.325 61.333 42.011-2.667v326.612h-43.981v65.333h242.65v-65.333h-61.978v-91.945c12.617 1.333 26.62 2.667 43.286 2.667zm646.667 0c131.367 0 182.697-60.695 182.697-172 0-112.028-31.366-146.695-110.011-146.695-49.308 0-72.686 12.667-117.364 68l-1.33-.639-5.322-53.361c-1.334-15.333-2.667-16.666-21.992-14l-153.992 22.695 5.325 61.333 42.011-2.667v326.612h-43.98v65.333h242.65v-65.333h-61.978v-91.945c12.617 1.333 26.619 2.667 43.286 2.667zm1907.14 1.972c140 0 144-55.333 146.638-101.972l1.334-21.361-63.945-.639-2.722 6.666c-5.305 12.667-10.639 29.334-50.639 29.334-53.333 0-61.333-26.667-61.333-80.028 0-65.972 11.972-81.306 43.972-81.306 22.056 0 25.361 8.667 37.389 37.945l8.639 19.389h87.305l2.028-82c.639-18.695-1.333-22.667-20.028-30.667-16.666-6.722-57.277-16.028-103.972-16.028-142.028 0-191.333 61.334-191.333 173.334 0 96 31.305 147.333 166.667 147.333zm-918.303-100l-1.334 4c-3.355 11.333-5.383 13.361-14.7 13.361-10.644 0-10.644-6.028-10.011-23.333l2.667-71.334c4.047-97.361-11.983-142.027-147.283-142.027-128.011 0-162.036 32-162.036 112.027v20.667l64.697.639 2.661-10c5.964-27.333 15.333-33.972 53.994-33.972 47.336 0 54.628 7.333 55.961 46.639-24.655 4.694-71.991 14.694-111.283 24.694-40.05 11.306-68.694 30.611-68.694 77.333 0 50.639 20.022 78.639 79.975 78.639 40.686 0 64.702-11.333 102.722-55.333v.694c6.655 38.667 27.953 55.334 85.997 55.334 87.325 0 107.289-30.028 107.289-93.334v-4.694zm-1248.82 25.333v-228c0-15.972-2.661-18-18-16.666l-165.333 22.694 4.686 60.639 41.958-1.972v163.305h-43.983v65.334h224.014v-65.334zm-742.922-69.333l-8.045 32.639c-7.983 26.694-10.647 30.055-42.65 30.055h-74.65V3382.28h112.675v30.666h105.964v-130.027H846.602v27.361H733.925v-102.028h74.019c26.617 0 32 3.361 37.961 27.306l6.02 22.694h112.669l-2.022-100.639c-.636-17.361 0-21.333-15.336-21.333H541.911v71.972h46.703v290.694h-46.703v71.973h393.983c17.361 0 18.053-1.334 21.353-25.334l12.675-105.333zm2684.93 69.333v-228c0-15.972-2.666-18-18-16.666l-165.333 22.694 4.667 60.639 41.972-1.972v163.305h-43.972v65.334h224v-65.334zm-1091.05 0l.633-146c0-67.305-13.306-100-95.311-100-59.372 0-78.703 9.306-125.347 68l-1.334-.639 3.303-228c0-15.333-1.969-18-18-16.027l-165.969 21.333 4.686 60.667 42.65-1.973v342.639h-42.65v65.334h208.622v-65.334h-29.342v-152.027c18.059-3.278 30.037-4.612 43.348-4.612 33.333 0 38.655 6.639 38.655 51.945l-.636 104.694h-30.669v65.334h206.655v-65.334zm849.608 0l.694-146c0-67.305-13.305-100-94.666-100-60.028 0-79.334 9.306-126 68l-1.306-.639-4.694-53.361c-1.334-15.333-2.667-15.972-20.667-14l-155.325 22.695 5.322 61.333 42.017-2.667v164.639h-42.65v65.334h209.331v-65.334h-30.056v-152.027c18.694-3.278 30.667-4.612 43.361-4.612 33.333 0 38.639 6.639 38.639 51.945l-.611 104.694h-30.056v65.334h206.028v-65.334zm-2095.24-157.333c45.311 0 53.995 20.639 53.995 84.028 0 59.305-11.978 75.972-49.309 75.972-32 0-39.988-16.667-39.988-46v-110.028c7.988-1.944 22.63-3.972 35.302-3.972zm646.667 0c45.311 0 53.994 20.639 53.994 84.028 0 59.305-11.977 75.972-49.308 75.972-32 0-39.989-16.667-39.989-46v-110.028c7.989-1.944 22.631-3.972 35.303-3.972zm802.786 158.028c-28.644 0-33.333-10.695-33.333-23.361 0-9.334 3.991-15.334 21.991-20.667 10.012-3.306 33.334-8.694 50-11.972v48.666l-1.969.639c-5.322 3.361-20.022 6.695-36.689 6.695zm-1130.76-270.028c62.616 0 79.978-22.667 79.283-65.333-.636-35.361-16.667-56-71.992-56-61.344 0-79.977 23.361-79.341 66.666.697 34.667 16.03 54.695 72.05 54.695zm1941.99 0c62.639 0 80-22.667 79.306-65.333-.639-35.361-16.667-56-72-56-61.361 0-79.972 23.361-79.333 66.666.694 34.667 16.027 54.695 72.027 54.695z" fill="#fff"/></g></svg>