<svg clip-rule="evenodd" fill-rule="evenodd" stroke-linejoin="round" stroke-miterlimit="2" viewBox="0 0 4500 4000" xmlns="http://www.w3.org/2000/svg"><path d="M0 0h4500v4000H0z" fill="none"/><g fill-rule="nonzero"><path d="M0 0h4500v4000H0z" fill="#33d042"/><path d="M1694.87 1128.79c386.341 39.237 511.167-104.167 536.167-395.545 19.907-241.433-65.741-392.474-402.085-426.618-377.256-38.37-511.689 108.678-537.149 404.57-19.444 236.808 62.149 382.926 403.063 417.593zm1077.31 109.492c386.345 39.234 511.171-104.166 536.171-395.544 19.907-241.437-65.741-392.478-402.086-426.622-377.314-38.371-511.688 108.681-537.148 404.574-19.444 236.804 62.148 382.926 403.063 417.592zm512.674 1778.88l-11.918 26.385c-30.615 74.945-45.604 87.212-109.259 80.789-72.686-7.407-68.519-48.322-51.971-166.029l67.652-484.548c94.619-660.882 16.493-976.563-906.252-1070.32-872.741-88.715-1126.73 105.903-1182.17 651.333l-14.296 140.97 440.455 49.312 25.119-66.319c59.837-182.178 128.122-221.185 391.778-194.333 322.748 32.755 367.655 87.852 349.481 356.948-171.411 14.755-501.1 50.115-776.215 91.089-280.555 49.537-489.466 161.455-521.815 479.685-35.133 345.485 81.823 550.23 490.967 591.837 277.259 28.185 448.726-32.522 738.371-306.193l-.467 4.515c18.637 268.345 152.548 396.704 548.037 436.922 595.478 60.53 752.596-130.151 796.522-562.04l3.241-31.83-277.256-28.178zm-1340.86 42.882c-195.43-19.852-219.852-95.834-211.052-182.237 6.481-63.597 37.904-101.734 164.233-125.634 70.545-15.8 233.334-36 349.308-47.166l-33.741 331.829-14.119 3.126c-38.714 19.037-141.029 31.656-254.629 20.082z" fill="#fff"/></g></svg>