<svg xmlns="http://www.w3.org/2000/svg" width="1440" height="1440" viewBox="0 0 1080 1080"><path fill="#fe2e12" d="M0 0h1080v1080H0z"/><path fill="#fe2e12" d="M0 0h1080v1080H0z"/><path d="M55.09 362.012c0 24.488 14.922 35.968 36.351 36.734v91.07h9.95V333.313h19.898v144.449h9.945V333.695l13.395-2.488v-7.46h-44.77c-28.507 0-44.77 12.628-44.77 38.265m183.669-38.266v7.078l14.539 2.871.574 69.45c.191 25.636-11.289 39.03-33.672 39.605-12.246-4.02-19.324-9.566-26.594-19.133-.957-4.015-1.722-9.183-1.722-15.496v-74.426l15.496-2.87v-7.079h-43.621v7.078l11.097 2.871-.382 75c-.192 30.227 16.644 44.961 44.195 44.961 30.613 0 45.152-17.793 45.918-46.875l1.914-73.086 10.902-2.87v-7.079zm51.082 127.805h41.324v-6.887l-12.246-3.828V316.094h-.762l-29.273 4.785v5.93l13.773 3.441v110.586l-12.816 3.828zm104.652-17.028c-5.36 3.059-12.055 6.696-16.262 6.696-2.87 0-8.418-4.399-8.418-12.055v-55.289h25.829v-9.566h-25.829v-19.516h-2.68l-13.585 19.133-11.86 3.824v6.125h11.86v56.82c0 14.16 7.082 22.961 18.75 22.961 7.656 0 17.601-5.168 26.785-11.672zm16.453 17.028h42.09v-6.887l-13.012-3.828v-55.484c6.891-4.016 13.395-6.122 15.692-6.122 1.91 0 10.71 2.106 13.2 2.872l4.401-19.707c-1.34-.192-1.53-.192-2.87-.192-11.864 0-21.813 7.844-31.376 14.73v-14.73h-.77l-28.312 4.59v6.125l13.774 3.441v64.477l-12.817 3.828zm136.797-10.524v-52.804c0-19.516-13.394-26.02-27.55-26.02-18.368 0-33.485 10.906-35.97 31.758h18.176v-18.363c4.399-2.871 8.227-3.828 11.477-3.828 8.613 0 17.605 7.078 17.605 11.289v20.851h-18.558c-17.219 0-32.145 10.524-32.145 28.317 0 13.011 9.758 21.43 19.516 21.43 10.14 0 22-7.27 31.95-14.544l.765 12.438h26.976v-6.313zm-16.262-10.523c-2.87 1.723-17.984 11.672-24.3 11.672-4.016 0-9.758-5.738-9.758-13.395 0-11.476 6.7-16.644 22.387-16.644h11.671zm71.934 21.047h9.375l33.098-77.867 6.316-3.254v-6.121h-32.527v6.886l15.117 2.871-20.856 52.04-1.914 5.355h-.382s-.957-3.25-1.723-5.356l-20.852-52.039 11.668-2.87v-6.887h-36.156v6.503l7.652 3.446zM683 342.305c7.082 0 10.906-4.973 10.906-11.098 0-5.93-3.824-10.902-10.906-10.902-7.078 0-11.094 4.972-11.094 10.902 0 6.125 4.016 11.098 11.094 11.098M662.914 451.55h41.324v-6.887l-12.246-3.637v-78.824h-1.527l-28.508 4.59v6.125l13.773 3.441v64.668l-12.816 3.637zm96.617 2.105c26.594 0 42.664-18.367 42.664-46.875 0-26.785-14.156-44.578-39.988-44.578-25.828 0-41.898 17.985-41.898 47.45 0 26.976 13.586 44.003 39.222 44.003m1.532-9.566c-8.993-1.531-15.118-6.121-20.282-14.735-2.105-5.546-3.062-12.433-3.062-21.234 0-22.387 6.89-36.351 23.726-36.351 8.992 1.53 15.114 6.12 20.278 14.73 2.105 5.55 3.062 12.438 3.062 21.238 0 22.383-6.887 36.352-23.722 36.352m54.14 7.46h41.328v-6.886l-12.246-3.828V316.094h-.765l-29.274 4.785v5.93l13.777 3.441v110.586l-12.82 3.828zm131.059-50.316c0-22.77-11.864-39.03-34.055-39.03-25.062 0-41.328 20.472-41.328 47.64 0 29.27 19.133 43.812 38.648 43.812 13.395 0 25.446-6.699 34.438-13.969l-4.781-7.269c-8.993 5.164-18.75 9.95-24.871 9.95-7.274 0-17.032-6.696-20.856-12.821-2.68-4.399-4.594-12.242-4.973-21.426h57.395c.191-2.105.383-4.02.383-6.887m-57.59-1.914c1.723-17.793 10.523-27.55 20.664-27.55 8.61 0 16.644 6.886 17.793 8.8 1.34 2.106 3.445 11.864 3.445 18.75zm123.98 35.203c-5.359 3.059-12.054 6.696-16.261 6.696-2.871 0-8.418-4.399-8.418-12.055v-55.289h25.828v-9.566h-25.828v-19.516h-2.68l-13.586 19.133-11.86 3.824v6.125h11.86v56.82c0 14.16 7.082 22.961 18.75 22.961 7.656 0 17.606-5.168 26.785-11.672zm0 0M75.32 105.746c-14.343 12.664-21.047 28.684-21.047 44.145 0 12.664 5.215 18.996 11.918 18.996 8.383 0 12.48-7.82 12.48-17.32 0-.56 0-2.051-.374-2.794l-12.293-7.265c-.184-.559-.184-1.117-.184-1.492 0-9.313 3.91-20.301 13.223-29.614zm26.82 0c-14.343 12.664-21.046 28.684-21.046 44.145 0 12.664 5.215 18.996 11.918 18.996 8.383 0 12.48-7.82 12.48-17.32 0-.56 0-2.051-.37-2.794l-12.294-7.265c-.187-.559-.187-1.117-.187-1.492 0-9.313 3.91-20.301 13.226-29.614zm37.81 2.234v3.727l8.753 3.164-6.144 73.387-.746 5.402-9.684-78.789 3.164-3.164v-3.727h-25.89v3.727l3.35 3.723 18.071 132.433h7.45l20.3-132.992 4.844-3.164v-3.727zm40.902 17.508c7.265 0 10.617-6.332 10.617-13.039 0-6.703-3.352-12.476-10.617-12.476-7.633 0-10.989 5.773-10.989 12.476 0 6.707 3.356 13.04 10.989 13.04m-15.645 122h30.922v-3.723l-6.336-4.473V136.477h-2.234l-22.723 4.101v3.54l6.703 2.234v92.941l-6.332 4.473zm63.516-64.259c-5.215-7.636-11.922-19.93-11.922-29.242 0-7.078 3.355-12.11 7.824-12.11l5.402 2.61 7.262 32.035h5.215v-36.507c-2.047-2.047-8.754-4.47-17.32-4.47-11.364 0-24.399 6.892-24.399 24.958 0 14.531 7.262 25.894 13.035 34.648 9.313 14.153 16.578 22.536 16.578 35.575 0 5.402-1.675 11.734-8.195 11.734l-8.195-4.844-7.637-29.988h-5.586v37.254c4.281 2.234 14.899 3.722 20.86 3.722 15.085 0 24.398-11.546 24.398-24.957 0-18.253-11.176-31.293-17.32-40.418m37.437-57.742c7.266 0 10.617-6.332 10.617-13.039 0-6.703-3.351-12.476-10.617-12.476-7.637 0-10.988 5.773-10.988 12.476 0 6.707 3.351 13.04 10.988 13.04m-15.644 122h30.918v-3.723l-6.332-4.473V136.477h-2.235l-22.726 4.101v3.54l6.707 2.234v92.941l-6.332 4.473zm79.718-111.942c-8.57 0-13.597 9.312-21.793 23.656l-.187-.187v-57.739h-1.863l-22.723 4.098v3.352l6.707 2.234v137.086h3.54l10.429-6.332c2.793 3.355 7.824 6.89 14.902 6.89 24.211 0 26.45-28.496 26.45-60.53 0-42.098-6.337-52.528-15.462-52.528m-3.351 65.379c0 35.945-2.422 42.094-6.707 42.094-3.54 0-9.125-8.196-11.547-11.176v-66.867c2.605-3.168 12.664-13.04 13.594-13.04.746 0 2.425 2.422 3.168 3.352 1.117 1.492 1.492 5.59 1.492 35.39zm26.262 46.562h30.918v-3.722l-6.333-4.473V101.277h-2.234l-22.723 3.91v3.54l6.704 2.234v128.332l-6.332 4.473zm64.82-111.941c-18.625 0-26.82 21.418-26.82 52.152v8.383c0 15.832 0 52.523 26.074 52.523 19 0 22.164-17.32 22.164-30.171v-5.403h-5.957v4.285c0 8.938-2.422 24.028-12.852 24.028l-6.707-4.844c-1.863-7.078-3.726-13.223-4.097-42.469h31.664V187.7c0-18.254 0-52.152-23.47-52.152m1.118 5.586h-.559zm-9.312 47.312v-5.773c0-24.215.746-36.879 5.773-40.418l6.707 4.656c2.047 8.38 2.422 18.254 2.422 28.309v13.226zm86.796-5.215c-5.218-7.636-11.921-19.93-11.921-29.242 0-7.078 3.351-12.11 7.82-12.11l5.402 2.61 7.266 32.035h5.215v-36.507c-2.051-2.047-8.754-4.47-17.32-4.47-11.364 0-24.403 6.892-24.403 24.958 0 14.531 7.266 25.894 13.04 34.648 9.312 14.153 16.577 22.536 16.577 35.575 0 5.402-1.676 11.734-8.199 11.734l-8.195-4.844-7.637-29.988h-5.586v37.254c4.285 2.234 14.902 3.722 20.863 3.722 15.086 0 24.399-11.546 24.399-24.957 0-18.253-11.176-31.293-17.32-40.418m54.761 65.375c23.84 0 26.074-28.496 26.074-60.53 0-42.098-6.332-52.528-15.457-52.528-8.57 0-13.226 8.941-21.047 22.351v-21.421h-1.304l-23.098 4.101v3.54l6.707 2.234v128.52l-6.332 4.655v2.793h38.18v-2.793l-13.594-4.656v-28.687c2.606 1.492 5.961 2.421 9.871 2.421m2.606-96.667c.746 0 2.421 2.421 3.168 3.351 1.117 1.492 1.488 3.356 1.488 35.39 0 39.114-.559 52.34-6.703 52.34-2.793 0-4.657-2.609-10.43-9.687v-69.66c3.164-3.54 11.547-11.734 12.477-11.734m60.722-16.391c-18.629 0-26.824 21.418-26.824 52.152v8.383c0 15.832 0 52.523 26.078 52.523 18.996 0 22.164-17.32 22.164-30.171v-5.403h-5.96v4.285c0 8.938-2.423 24.028-12.852 24.028l-6.707-4.844c-1.86-7.078-3.723-13.223-4.098-42.469h31.668V187.7c0-18.254 0-52.152-23.469-52.152m1.117 5.586h-.558zm-9.316 47.312v-5.773c0-24.215.746-36.879 5.777-40.418l6.703 4.656c2.051 8.38 2.422 18.254 2.422 28.309v13.226zm79.719 24.586v4.469c0 8.383-1.492 22.352-9.684 23.656l-6.707-4.656c-1.676-6.52-4.097-14.527-4.097-54.016 0-28.496 1.304-40.789 8.753-40.976l9.313 36.879h5.59v-39.86c-1.121-.746-6.149-2.98-13.227-2.98-29.054 0-29.054 38.742-29.054 52.152v8.383c0 15.086 0 52.523 25.703 52.523 16.578 0 19.183-17.507 19.183-30.171v-5.403zm48.242 0v4.844c0 7.078-1.305 18.625-7.078 22.352-2.98-1.864-5.961-3.915-5.961-4.286v-93.316h16.95v-5.96h-16.763l.371-21.794h-5.59l-11.546 19.559-7.637 2.422v5.773h5.961v73.758c0 18.254 1.488 32.222 18.813 32.222 18.437 0 18.437-22.164 18.437-29.8v-5.774zm37.625-52.71h12.852v-24.774h-2.051c-6.89 0-10.801 11.363-15.457 23.84v-22.91h-1.864l-22.722 4.101v3.54l6.703 2.234v93.128l-6.332 4.47v3.538h38.183v-3.539l-13.597-4.469v-73.945zm75.246 78.972l.188-103h-1.68l-23.281 4.469v3.355l6.707 2.235-.188 74.503c-2.422 2.793-11.363 11.36-12.293 11.36-.746 0-4.469-3.164-4.469-4.469v-91.27l-1.68-.183-23.28 4.469v3.355l6.707 2.235v75.062c0 16.203 5.773 27.191 15.085 27.191 8.383 0 12.668-8.937 20.301-21.23v20.113h24.215v-3.539zm105.238 0v-76.55c0-16.766-5.96-27.196-15.273-27.196-8.012 0-12.48 8.754-19.746 20.676-1.305-12.852-6.89-20.676-14.715-20.676-8.379 0-12.852 9.125-20.117 21.418v-20.488h-2.235l-22.722 4.101v3.54l6.707 2.234v92.941l-6.336 4.473v3.722h28.87v-3.722l-4.284-4.473v-75.992c2.238-2.61 11.176-11.363 12.48-11.363.746 0 4.473 3.167 4.473 4.472v82.883l-4.473 4.473v3.722h26.82v-3.722l-4.28-4.473.183-76.55c3.168-3.356 10.805-10.805 11.922-10.805.746 0 4.472 3.167 4.472 4.472l-.187 82.883-4.285 4.473v3.722h28.125v-3.164zm14.899-70.59c14.34-12.668 21.047-28.687 21.047-44.144 0-12.668-5.215-19-11.922-19-8.383 0-12.48 7.824-12.48 17.324 0 .558 0 2.047.374 2.793l12.293 7.265c.184.559.184 1.118.184 1.489 0 9.312-3.91 20.3-13.223 29.613zm26.82 0c14.34-12.668 21.047-28.687 21.047-44.144 0-12.668-5.215-19-11.922-19-8.379 0-12.476 7.824-12.476 17.324 0 .558 0 2.047.37 2.793l12.294 7.265c.187.559.187 1.118.187 1.489 0 9.312-3.914 20.3-13.226 29.613zm0 0M116.504 567.727c-4.953 0-8.371 2.046-12.469 5.976-6.492 6.149-14.18 17.25-23.742 33.992l-1.2-.172c.173-.683 7.005-22.546 9.395-31.597l12.813-48.684H96.52l-22.38 4.442-1.195 4.613 12.813 2.562-28.356 110.856h5.977l8.543-7.688c4.61 6.32 9.906 8.711 16.738 8.711 27.332 0 44.07-31.086 44.07-58.586 0-12.984-4.27-24.425-16.226-24.425m-27.332 75.668c-4.953 0-11.785-5.465-14.348-9.907l2.735-11.101c1.023-3.93 26.304-36.899 33.476-43.73 1.54.171 5.125 2.562 6.153 4.269 1.023 1.71 1.367 5.636 1.367 8.883 0 18.789-11.79 51.586-29.383 51.586m115.129-75.5c-2.395 0-5.64.855-7.52 2.05l-.34 1.367c2.563 7.516 5.809 16.227 5.809 16.91-6.492 13.497-20.328 36.383-25.793 45.266v-2.906c0-11.957-.855-44.75-1.707-53.293-.516-4.781-1.883-9.562-8.715-9.562-11.101 0-19.64 7.855-24.254 25.793l4.781 2.218c5.297-12.129 9.739-18.449 12.985-18.449 1.363 0 2.39 1.027 2.562 3.246l3.075 67.985c-5.637 8.37-24.426 29.89-28.356 29.89-.683 0-7.687-.851-15.203-2.562l-1.535.511c-.684 2.735-1.028 5.125-1.028 6.836 0 6.149 4.102 9.395 8.711 9.395 10.25 0 17.594-8.715 24.598-16.23 16.227-17.423 35.531-45.946 49.879-71.227 7.172-12.469 11.613-19.301 11.613-26.477 0-4.613-2.39-10.761-9.562-10.761m142.281 7.515c-.855-25.793-13.836-43.215-37.238-43.215-32.625 0-58.59 36.727-57.735 74.989.512 23.23 10.762 43.214 37.067 43.214 31.086 0 59.27-35.359 57.906-74.988m-58.078 66.617c-3.246-1.195-12.297-6.148-17.082-10.418-2.219-4.441-3.758-10.422-4.098-18.277-1.707-32.453 15.715-72.594 41.164-72.766 3.246 1.024 11.79 5.125 16.91 9.051 3.079 4.953 4.954 11.617 5.47 19.817 2.05 31.257-17.255 72.082-42.364 72.593m79.941-5.293c0-5.297 30.746-105.05 31.942-109.492h-4.614l-23.398 4.613-1.367 4.27 12.98 2.902-27.672 93.778c-.851 2.902-1.367 5.636-1.367 8.027 0 5.297 2.735 8.883 9.567 8.883 10.933 0 20.496-8.028 25.62-25.793l-4.78-2.219c-5.981 12.64-11.274 18.445-14.008 18.445-1.024 0-2.903-.855-2.903-3.414m48.336-22.207c21.696-2.562 48.512-14.347 48.512-31.77 0-8.03-5.809-15.03-17.422-15.03-24.77 0-46.117 31.77-46.117 56.707 0 15.543 8.195 26.304 22.547 26.304 16.738 0 28.523-14.687 32.281-28.011l-5.637-1.88c-4.953 7.688-12.129 18.446-19.472 21.524-7.688-.855-11.786-4.441-15.887-10.933-.34-1.536-.512-3.247-.512-5.125 0-3.247.512-7.344 1.707-11.786m28.867-38.601c1.711-.172 4.102 1.707 5.637 3.758.344 1.023.684 3.074.684 4.78 0 10.25-17.762 20.157-32.965 22.204 5.297-15.027 15.203-30.742 26.644-30.742m116.153 18.105c19.129-4.441 31.43-16.91 31.43-32.625 0-16.742-10.079-26.648-37.75-28.015-10.762-.512-24.938.172-37.922.683l-.852 4.953 13.664 3.075-19.984 98.218-14.18 2.903-1.023 4.953h42.359l.855-4.953-13.324-2.903 9.055-44.582h13.836l18.617 52.438h22.035l.856-4.953-11.106-2.903zm-16.742-52.781l16.398-.172c3.246 1.195 8.371 3.758 12.469 6.492 2.394 3.586 3.59 8.367 3.59 14.004 0 17.082-11.446 25.965-31.602 26.309l-10.25.168zm128.96 24.254l-4.953-3.93-9.906 12.301c-3.758-3.93-9.055-6.148-15.715-6.148-24.765 0-42.36 31.086-41.847 55.511.168 6.832 1.535 12.64 4.27 17.082l-9.567 11.785 4.953 3.93 8.543-10.762c3.926 3.586 8.883 5.465 15.031 5.465 24.426 0 42.36-30.914 41.848-55.683-.172-6.149-1.367-11.614-3.586-15.887zm-32.453 10.078c4.27 1.879 7.176 4.102 9.907 7.176l-36.383 45.605c0-19.644 9.91-50.902 26.476-52.781m-14.347 67.129c-4.27-1.707-7.344-4.098-10.078-7.176l36.043-44.922c-.172 19.473-9.739 49.707-25.965 52.098m109.144 5.465l7.176-25.621c1.195-4.442 31.09-43.899 32.797-43.899 1.535 0 5.465 3.246 5.465 4.442 0 5.125-9.906 32.625-13.664 48.683-1.028 4.442-1.88 8.028-1.88 9.907 0 3.925 3.075 8.027 9.223 8.027 11.274 0 21.012-8.028 25.965-25.793l-4.785-2.219c-5.805 12.64-11.101 18.617-14.004 18.617-.855 0-2.562-.855-2.562-3.418 0-7.515 15.37-48.507 15.37-58.586 0-5.808-4.44-10.59-10.589-10.59-11.785 0-21.008 12.126-38.434 39.97l-1.367-.173c4.785-11.273 9.227-24.082 9.227-29.207 0-5.808-3.758-10.59-10.078-10.59-11.446 0-20.668 12.126-38.262 40.141l-1.367-.172c3.074-8.37 7.515-26.648 7.515-31.601 0-3.414-2.218-7.516-8.37-7.516-10.93 0-21.18 8.027-25.962 25.793l4.782 1.707c5.464-12.125 10.761-17.933 14.863-17.933 1.879 0 3.242.855 3.242 2.734 0 2.902-14.176 53.805-17.762 67.297h13.153l7.004-25.45c1.363-4.613 31.425-44.07 33.136-44.07 1.535 0 5.465 3.074 5.465 4.102-2.562 9.906-15.715 54.316-18.45 65.418zm91.899-33.649c21.691-2.562 48.508-14.347 48.508-31.77 0-8.03-5.805-15.03-17.422-15.03-24.766 0-46.118 31.77-46.118 56.707 0 15.543 8.2 26.304 22.547 26.304 16.739 0 28.524-14.687 32.282-28.011l-5.637-1.88c-4.953 7.688-12.125 18.446-19.473 21.524-7.683-.855-11.785-4.441-15.883-10.933-.343-1.536-.511-3.247-.511-5.125 0-3.247.511-7.344 1.707-11.786m28.867-38.601c1.707-.172 4.098 1.707 5.637 3.758.34 1.023.683 3.074.683 4.78 0 10.25-17.765 20.157-32.969 22.204 5.297-15.027 15.204-30.742 26.649-30.742m87.281 12.297c5.125-4.442 7.004-9.907 7.004-13.496 0-3.414-2.047-7-6.66-7-4.442 0-9.734 3.074-14.18 10.246-4.097 6.492-9.734 16.226-17.59 29.722l-1.027-.172c3.074-8.199 7.516-26.476 7.516-31.43 0-3.413-2.22-7.515-8.54-7.515-10.761 0-21.011 8.027-25.792 25.793l4.78 1.707c5.47-12.125 10.763-17.933 14.864-17.933 1.88 0 3.242 1.023 3.242 2.218 0 3.758-14.175 54.32-17.761 67.813h13.152l7.004-25.79c.683-2.734 18.105-28.015 25.793-39.116zm67.473-11.102l-.516-1.027c-5.465-10.762-8.879-13.324-11.785-16.399 4.785-.511 9.395-.34 23.402-4.27l1.196-.34-1.024-10.76-1.195.34c-13.668 3.929-18.11 7.347-22.719 9.737 2.051-4.613 4.27-9.394 8.028-22.547l.34-1.195h-11.274l-.34 1.195c-2.39 8.368-2.39 13.493-2.39 17.25 0 2.051.167 3.59.167 5.297-3.414-2.39-5.636-7.687-18.445-9.906l-1.023-.172-5.809 10.59 1.024.512c10.933 5.465 16.57 3.758 21.351 4.101-4.098 3.075-11.445 4.27-19.644 16.567l-.68 1.027 7.512 6.488 1.199-1.023c11.273-9.566 12.297-15.203 15.199-19.645 1.027 4.102 0 9.567 6.32 19.985l.516.855zm0 0M129.8 803.828v-8.105h-13.25v-66.555h-5.456L59.039 796.5v7.328h43.172v22.133l-13.871 2.18v6.078h38.652v-6.078l-10.441-2.18v-22.133zm-60.476-8.105l32.887-41.774v41.774zm121.106-16.989c13.093-5.77 18.082-14.34 18.082-24.937 0-14.809-11.692-25.406-28.836-25.406-6.547 0-12.625 1.558-17.77 4.675-7.793 4.676-13.246 13.09-14.804 24.938h14.804v-16.055c4.989-3.738 9.508-4.988 13.094-4.988h1.09c7.015 2.184 11.222 5.613 15.43 10.289 1.093 2.18 1.558 4.984 1.558 8.102 0 12.316-6.7 20.73-19.637 20.73h-7.324v7.793h11.844c7.637 1.871 12.156 5.145 16.676 9.508 1.25 2.965 2.183 6.547 2.183 11.379 0 13.87-6.547 22.758-19.328 22.758-6.078 0-12-2.805-17.144-6.704l-6.703-16.988-7.012 1.402 1.09 26.184c7.328 2.649 14.964 4.52 24.937 4.52 25.094 0 40.215-12.625 40.215-31.329 0-12.312-7.793-21.976-22.445-25.87m73.566-50.344c-24.469-1.871-39.586 23.379-39.586 55.797 0 30.394 13.403 50.5 34.29 51.746 23.534 1.406 39.277-22.29 39.277-55.489 0-30.86-13.563-50.496-33.98-52.054m-.157 99.285h-.934c-7.015-2.653-12-5.77-16.367-9.977-3.582-6.39-6.855-18.39-6.855-36.629 0-24.004 5.765-44.422 19.48-44.422h1.402c5.77 2.34 10.133 4.832 14.032 8.106 4.207 6.078 8.105 18.86 8.105 38.344 0 23.379-5.613 44.578-18.863 44.578m44.11-31.953h62.347v-9.352h-62.348zm83.073 38.652h17.145l43.797-98.035.312-6.235h-69.359V755.2h6.078l2.961-11.066 48.941-.313-49.875 86.973zm109.414-64.684c-9.039 0-17.765 1.871-23.687 7.172v-32.11h49.875v-14.339h-57.668v59.074h6.078c5.14-6.547 11.844-11.379 23.38-11.379h.312c7.636 2.961 12.777 6.391 17.453 11.38 1.406 3.429 2.027 7.636 2.027 12.624 0 16.055-7.012 25.407-18.703 25.407-7.48 0-13.871-2.805-19.328-6.704l-6.543-16.988-7.016 1.402 1.09 26.184c7.328 2.649 14.965 4.52 26.5 4.52 25.094 0 39.586-12 39.586-33.508 0-22.446-15.586-32.735-33.356-32.735m84.637-41.3c-24.472-1.871-39.59 23.379-39.59 55.797 0 30.394 13.403 50.5 34.29 51.746 23.535 1.406 39.277-22.29 39.277-55.489 0-30.86-13.559-50.496-33.977-52.054m-.156 99.285h-.938c-7.011-2.653-12-5.77-16.363-9.977-3.586-6.39-6.86-18.39-6.86-36.629 0-24.004 5.766-44.422 19.485-44.422h1.403c5.765 2.34 10.128 4.832 14.027 8.106 4.207 6.078 8.105 18.86 8.105 38.344 0 23.379-5.613 44.578-18.859 44.578m102.71 41.3l6.548-3.425C681.55 847 673.914 823 673.914 796.348c0-26.657 7.637-50.657 20.262-69.207l-6.547-3.426c-19.016 21.976-27.742 46.445-27.742 72.633 0 26.183 8.726 50.652 27.742 72.629m36.781-34.758h39.434v-5.453l-12.469-2.805v-88.219h19.64l9.352 20.106 6.39-2.34-4.21-25.403h-76.684l-4.207 25.403 6.39 2.34 9.352-20.106h19.48v88.219l-12.468 2.805zm159.914-8.258v-87.598l9.352-2.804v-5.454h-34.29v5.454l10.29 2.804v40.371h-47.227v-40.37l10.285-2.805v-5.454h-34.132v5.454l9.351 2.804v87.598l-9.351 2.805v5.453h34.132v-5.453l-10.285-2.805V786.84h47.38v39.12l-10.442 2.806v5.453h34.445v-5.453zm75.125-14.965l-9.039 16.211h-27.902l41.773-59.23v-4.829h-54.707l-2.652 23.223h4.988l8.73-16.21h27.118l-41.77 59.073v4.985h55.02l3.43-23.223zm19.793 57.98c19.016-21.976 27.742-46.445 27.742-72.628 0-26.188-8.726-50.657-27.742-72.633l-6.547 3.426c12.625 18.55 20.262 42.55 20.262 69.207 0 26.652-7.637 50.652-20.262 69.203zm0 0M67.563 952.387c4.496.855 8.347 5.566 8.347 11.453 0 6.207-2.25 15.094-2.25 23.12 0 1.712.11 7.923 5.461 7.923.215 0 1.39 0 1.926-.11l.43 5.997c-1.18.32-3.426.43-4.926.43-6.848 0-16.375-2.036-16.375-16.7 0-7.281 2.031-13.703 2.031-20.445 0-6.852-2.14-8.137-9.418-8.137v-7.172c7.277 0 9.418-1.285 9.418-8.137 0-6.742-2.031-13.379-2.031-20.656 0-14.664 9.527-16.805 16.375-16.805 1.5 0 3.746.106 4.926.426l-.43 5.996c-.535-.11-1.926-.11-2.14-.11-5.032 0-5.247 6.317-5.247 8.458 0 7.066 2.25 16.594 2.25 22.691 0 5.996-4.066 10.707-8.347 11.457zm59.832-11.239c9.847-3.535 15.628-8.992 15.628-17.664 0-11.773-10.382-16.804-29.757-16.804-8.028 0-18.73 0-28.153.425v4.176l6.637 2.356v58.66l-6.527 2.14v4.172c8.668 0 23.441.536 29.972.43 21.301-.32 31.04-8.133 31.04-20.23 0-12.309-10.274-15.735-18.84-17.66m-14.13-27.727c4.712 0 11.239 3 12.313 4.39.426.43 1.817 3.426 1.817 7.813 0 9.098-5.887 13.703-14.02 13.703h-6.21v-25.906zm-6.1 58.445v-26.652h8.136c3.96 0 10.703 3.426 12.308 5.246.536.64 2.25 2.676 2.25 8.027 0 10.063-5.566 13.38-15.523 13.38zm70.218-43.887c-14.88 0-25.688 10.493-25.688 26.547 0 16.055 10.703 25.262 24.832 25.262 9.098 0 16.7-3.746 21.621-9.207l-3.96-4.816c-3.852 2.785-11.344 5.46-14.344 5.46-3.531 0-8.563-3.64-9.953-5.351-1.07-1.285-2.356-4.39-2.786-10.277l32.114-.106c.11 0 .11-1.285.11-1.5 0-16.699-8.243-26.012-21.946-26.012m-2.356 6.422c2.891-.105 7.172 2.996 8.243 4.391 1.18 1.605 1.82 6.312 1.93 10.703l-18.2.106c.43-8.993 2.996-14.985 8.027-15.2m75.356 13.059c0-6.957 0-19.48-18.73-19.48-10.063 0-23.442 3.53-24.087 18.945h14.774v-10.809c2.14-.965 4.281-1.715 5.351-1.715 1.926 0 8.137 3.856 8.137 5.676v11.133h-7.601c-15.52 0-22.266 6.527-22.266 16.27 0 7.707 5.89 12.308 13.383 12.308 6.101 0 11.664-3.32 17.02-7.707v6.527h18.515v-4.172l-4.496-2.355zm-14.555 18.2c-3.105 1.925-7.816 5.566-10.062 5.566-1.715 0-5.032-3.641-5.032-6.317 0-3.746 1.606-7.707 8.348-7.707h6.746zm111.535-19.27c0-13.594-6.531-18.41-16.164-18.41-8.347 0-12.308 3.64-18.199 8.351-2.566-5.996-7.707-8.352-14.45-8.352-8.027 0-11.988 3.32-17.554 7.817V928.3h-2.246l-18.414 2.89v4.176l6.96 1.82v34.895l-6.425 2.356v4.171h27.297v-4.172l-6.316-2.355v-29.758c2.14-1.39 7.707-5.246 9.957-5.246 2.246 0 8.347 3.961 8.347 6.426v28.578l-6.316 2.356v4.171h27.082v-4.172l-6.207-2.355v-25.691c0-1.496-.106-2.782-.215-4.067 2.14-1.39 7.707-5.246 9.957-5.246 2.246 0 8.348 3.961 8.348 6.426v28.578l-6.317 2.356v4.171h26.762v-4.172l-5.887-2.355zm52.715 33.398c15.2 0 26.652-8.883 26.652-25.797 0-16.164-10.382-26.012-25.476-26.012-14.559 0-26.547 9.098-26.547 26.653 0 15.949 9.957 25.156 25.371 25.156m11.453-25.367c0 12.414-3.746 18.945-9.097 18.945-4.606 0-9.528-5.031-10.707-7.707-.856-1.93-1.711-6.637-1.711-12.523 0-12.203 3.746-18.735 9.097-18.735 4.602 0 9.633 5.032 10.813 7.707.855 1.93 1.605 6.746 1.605 12.313m49.13-43.356c1.179 2.68 2.034 5.891 2.46 7.176h5.89v-14.988c-3.214-.856-6.96-1.606-12.202-1.606-12.954 0-17.664 8.457-17.875 17.34l-.215 10.172-5.676 1.817v4.605h5.676v36.5l-6.211 2.356v4.171h29.652v-4.172l-8.992-2.355v-36.5h10.277v-6.422h-10.277v-14.558c0-3.426 1.07-6.532 2.89-6.532zm78.296 18.094v4.496l8.137 2.14-9.957 29.755-10.383-36.715h-5.887L508.56 965.66l-8.457-30.078 5.246-1.926v-4.496h-24.836v4.496l4.39 2.352 13.38 43.246h11.347l-.106-2.785.641 2.785 9.418-25.367 7.816 25.367h11.024l16.7-43.246 2.46-2.352-.105-4.496zm48.598 49.45v-4.173l-6.317-2.355v-29.758c2.14-1.39 8.137-5.246 10.063-5.246 2.46 0 8.562 3.961 8.562 6.426v28.578l-6.316 2.356v4.171h26.762v-4.172l-5.887-2.355v-25.691c0-13.594-6.531-18.41-16.164-18.41-8.028 0-12.309 3.32-17.875 7.816v-32.969h-2.25l-18.41 2.887v4.176l6.957 1.82v60.371l-6.422 2.356v4.171zm51.379-56.516a8.86 8.86 0 008.882-8.883 8.86 8.86 0 00-8.882-8.887 8.864 8.864 0 00-8.887 8.887 8.863 8.863 0 008.887 8.883m13.699 56.515v-4.172l-5.992-2.355v-43.887h-4.176l-17.445 2.996v4.176l7.062 1.82v34.895l-6.531 2.356v4.171zm35.86-11.023c-1.821.965-7.067 3.64-8.134 3.64-1.5 0-4.285-3.21-4.285-5.246v-30.398h13.278v-6.422h-13.278v-10.812h-5.457l-7.281 10.062-8.133 1.281v5.891h6.317v29.008c0 13.379 8.027 15.2 13.808 15.2 6.742 0 10.918-2.892 16.16-7.067zm32.753-39.606c-14.879 0-25.687 10.493-25.687 26.547 0 16.055 10.703 25.262 24.832 25.262 9.097 0 16.699-3.746 21.62-9.207l-3.96-4.816c-3.852 2.785-11.344 5.46-14.344 5.46-3.531 0-8.562-3.64-9.953-5.351-1.07-1.285-2.356-4.39-2.785-10.277l32.113-.106c.11 0 .11-1.285.11-1.5 0-16.699-8.243-26.012-21.946-26.012m-2.355 6.422c2.89-.105 7.172 2.996 8.242 4.391 1.18 1.605 1.82 6.312 1.93 10.703l-18.2.106c.43-8.993 2.996-14.985 8.028-15.2m72.625 44.207v-4.172l-6.102-2.355v-69.254h-4.176l-17.449 2.996V910l7.066 1.816v60.266l-6.527 2.356v4.171zm18.515-56.515a8.863 8.863 0 008.887-8.883 8.864 8.864 0 00-8.887-8.887 8.863 8.863 0 00-8.883 8.887 8.862 8.862 0 008.883 8.883m13.703 56.515v-4.172l-5.996-2.355v-43.887h-4.172l-17.449 2.996v4.176l7.067 1.82v34.895l-6.532 2.356v4.171zm20.442-8.027c-2.031 0-3.531-.96-3.852-2.46l2.785-5.673a35.64 35.64 0 007.813.856c11.238 0 23.762-4.817 23.762-17.34 0-4.496-1.711-8.137-4.282-10.918h8.563v-5.887h-18.73c-2.782-.75-5.673-1.18-8.352-1.18-9.633 0-22.262 4.711-22.262 18.09 0 6.532 2.89 11.239 7.707 14.024l-8.672 13.058c0 5.352 2.25 9.313 8.352 10.813-1.07.75-2.25 1.39-3.215 2.14-3.211 2.141-5.457 4.387-5.457 8.778 0 7.172 6.207 11.558 22.05 11.558 19.59 0 29.544-6.636 29.544-19.265 0-10.598-7.063-16.594-19.16-16.594zm6.426-36.18c3.851 0 8.027 2.891 8.882 4.176.536.856 1.391 3.746 1.391 7.277 0 6.852-3.102 11.028-7.707 11.028-3.852 0-7.492-2.89-8.348-4.281-.535-.856-1.39-3.747-1.39-7.497 0-6.207 2.355-10.703 7.172-10.703m4.601 65.618c-5.137 0-10.808-2.786-11.883-3.641-.96-.856-1.925-3.102-1.925-5.567 0-1.925.644-4.496 1.07-6.312h16.7c1.07 0 7.6 0 7.6 6.637 0 6.527-6.316 8.883-11.562 8.883m54.055-21.41v-4.173l-6.313-2.355v-29.758c2.14-1.39 8.133-5.246 10.059-5.246 2.465 0 8.566 3.961 8.566 6.426v28.578l-6.316 2.356v4.171h26.762v-4.172l-5.891-2.355v-25.691c0-13.594-6.527-18.41-16.164-18.41-8.027 0-12.309 3.32-17.875 7.816v-32.969h-2.246l-18.414 2.887v4.176l6.96 1.82v60.371l-6.421 2.356v4.171zm68.722-11.024c-1.82.965-7.066 3.64-8.136 3.64-1.5 0-4.282-3.21-4.282-5.246v-30.398h13.274v-6.422h-13.274v-10.812h-5.46l-7.278 10.062-8.136 1.281v5.891h6.316v29.008c0 13.379 8.027 15.2 13.808 15.2 6.747 0 10.918-2.892 16.165-7.067zm20.977-15.52c-4.281-.75-8.348-5.46-8.348-11.457 0-6.097 2.246-15.625 2.246-22.691 0-2.14-.21-8.457-5.242-8.457-.215 0-1.61 0-2.144.11l-.426-5.997c1.176-.32 3.426-.426 4.922-.426 6.851 0 16.379 2.141 16.379 16.805 0 7.277-2.035 13.914-2.035 20.656 0 6.852 2.14 8.137 9.421 8.137v7.172c-7.28 0-9.421 1.285-9.421 8.137 0 6.742 2.035 13.164 2.035 20.445 0 14.664-9.528 16.7-16.38 16.7-1.495 0-3.745-.11-4.921-.43l.426-5.997c.535.11 1.715.11 1.93.11 5.351 0 5.456-6.211 5.456-7.922 0-8.027-2.246-16.914-2.246-23.121 0-5.887 3.852-10.598 8.348-11.453zm0 0" fill="#fff"/></svg>