<svg xmlns="http://www.w3.org/2000/svg" width="1440" height="1280" viewBox="0 0 1080 960"><path d="M280.55 51.238c-132.655 0-188.69 154.387-188.69 427.707v13.723c0 292.762 65.183 428.852 188.69 428.852 132.66 0 188.696-154.387 188.696-426.567V481.23c0-293.902-65.183-429.992-188.695-429.992m10.293 826.825c-9.149-3.434-21.727-10.293-35.45-18.297-32.023-93.778-37.742-192.13-37.742-396.832 0-263.028 8.008-353.372 53.75-369.383 9.149 3.43 20.586 9.148 33.164 16.011 33.164 94.918 38.883 193.266 38.883 401.403 0 258.453-8.004 349.941-52.605 367.098m446.36-82.34h-174.97C673.16 575.008 822.973 402.324 822.973 249.082c0-108.644-64.04-197.844-194.41-197.844-36.598 0-84.63 6.86-112.075 33.164v282.47h42.313L618.27 92.405h4.574c11.437 0 52.605 22.875 61.754 40.028 5.718 10.293 14.867 46.886 14.867 115.504 0 168.109-77.766 308.773-216.14 614.113v52.605h332.788V627.613H784.09zM917.237 921.52c45.746 0 70.907-41.172 70.907-89.204 0-45.742-25.16-85.77-70.907-85.77-46.886 0-73.191 40.028-73.191 85.77 0 48.032 26.305 89.204 73.191 89.204" fill="#fe2e12"/></svg>