<svg xmlns="http://www.w3.org/2000/svg" viewBox="0 0 1080 960"><defs><clipPath id="a"><path fill="none" d="M0 0H1080V960H0z"/></clipPath></defs><path fill="#fe2e12" d="M0 0H1080V960H0z"/><text transform="translate(38.917 118.38)" font-size="115.956" font-family="EdoniaText-Bold, Edonia Text" font-weight="700">FANTASTIC</text><text transform="translate(619.385 118.38)" font-size="101.315" font-family="EdoniaDisplay-Compressed, Edonia Display"><tspan>SUN</tspan></text><text transform="translate(38.952 207.841)" font-size="101.315" font-family="EdoniaDisplay-Compressed, Edonia Display">FANTASTIC</text><text transform="translate(355.263 207.862)" font-size="115.956" font-family="EdoniaText-Italic, Edonia Text" font-style="italic">us</text><path fill="none" stroke="#000" stroke-miterlimit="12.413" stroke-width="1.074" d="M72.206 219.91L41.191 219.91 41.191 221.978 44.499 224.459 44.499 292.795 41.191 295.276 41.191 297.344 64.556 297.344 64.556 295.276 55.665 292.795 55.665 262.814 60.834 262.814 64.866 271.911 67.761 271.911 67.761 250.304 64.866 250.304 60.834 259.402 55.665 259.402 55.665 223.115 63.832 223.115 68.794 243.998 72.206 243.998 72.206 219.91z"/><path d="M85.336 274.186l3.618-23.364.31-2.378 4.652 25.742zm9.304 23.158h16.438l-.104-2.068-2.584-2.481-13.647-73.091h-3.72l-13.648 73.4-2.998 2.172v2.068h14.06v-2.068l-5.996-2.171 2.378-15.61h9.718l2.791 15.61-2.585 2.17z" fill="none" stroke="#000" stroke-miterlimit="12.413" stroke-width="1.074"/><path fill="none" stroke="#000" stroke-miterlimit="12.413" stroke-width="1.074" d="M134.545 219.91L134.545 221.978 140.851 223.735 141.989 261.883 142.195 267.363 142.299 269.844 141.989 269.12 126.688 219.91 112.421 219.91 112.421 221.978 115.626 223.839 115.109 293.415 112.214 295.276 112.214 297.344 128.239 297.344 128.239 295.276 120.692 293.105 118.934 237.382 118.624 230.869 139.197 297.344 144.883 297.344 144.883 271.394 145.71 223.735 148.295 221.978 148.295 219.91 134.545 219.91z"/><path fill="none" stroke="#000" stroke-miterlimit="12.413" stroke-width="1.074" d="M159.873 297.344L177.655 297.344 177.655 295.276 174.347 292.795 174.347 223.115 176.828 223.115 181.687 247.617 185.512 247.617 185.512 219.91 152.016 219.91 152.016 247.617 155.841 247.617 160.7 223.115 163.181 223.115 163.181 292.795 159.873 295.276 159.873 297.344z"/><path d="M192.44 274.186l3.617-23.364.31-2.378 4.652 25.742zm9.303 23.158h16.438l-.104-2.068-2.584-2.481-13.647-73.091h-3.72l-13.648 73.4-2.998 2.172v2.068h14.06v-2.068l-5.996-2.171 2.378-15.61h9.718l2.791 15.61-2.585 2.17z" fill="none" stroke="#000" stroke-miterlimit="12.413" stroke-width="1.074"/><g clip-path="url(#a)" fill="none" stroke="#000" stroke-miterlimit="12.413" stroke-width="1.074"><path d="M230.38 293.725a15.18 15.18 0 0 1-1.345-.93zm7.236-41.353c-3.515-5.066-8.477-12.716-8.477-20.366 0-4.342 1.55-8.89 5.376-8.89a3.962 3.962 0 0 1 1.964.516l7.03 24.191h3.308v-26.466c-.827-.93-5.479-2.067-9.82-2.067-11.58 0-17.37 4.445-17.37 16.231 0 10.958 5.066 17.678 9.925 24.605 5.583 7.96 10.96 17.058 10.96 26.155 0 4.963-1.552 8.271-6.41 8.271-.62 0-1.138-.103-1.655-.103l-7.65-24.916h-3.619v26.88c2.998 1.344 7.03 1.551 9.615 1.551 15.3 0 19.126-7.34 19.126-16.438 0-12.613-7.237-21.814-12.303-29.154z"/><path d="M260.463 297.344L278.245 297.344 278.245 295.276 274.937 292.795 274.937 223.115 277.418 223.115 282.277 247.617 286.102 247.617 286.102 219.91 252.606 219.91 252.606 247.617 256.431 247.617 261.29 223.115 263.771 223.115 263.771 292.795 260.463 295.276 260.463 297.344z"/><path d="M290.237 297.344L308.019 297.344 308.019 295.38 304.711 292.899 304.711 224.459 308.019 221.978 308.019 219.91 290.237 219.91 290.237 221.978 293.545 224.459 293.545 292.899 290.237 295.38 290.237 297.344z"/><path d="M328.488 223.012l4.342 3.102 4.652 21.71h3.825v-25.226c-2.067-1.86-6.203-3.308-10.648-3.308-10.855 0-17.678 9.408-17.678 39.389 0 22.64 3.308 39.285 17.058 39.285 5.065 0 9.304-1.757 10.855-3.308v-23.158h-3.825l-4.963 23.158-4.86-3.515c-2.687-8.374-2.997-15.921-2.997-22.537v-12.51c0-21.09.621-30.498 4.239-33.082z"/></g><text transform="translate(355.263 297.344)" font-size="115.956" font-family="EdoniaText-Regular, Edonia Text">G</text><text transform="translate(431.33 297.344)" font-size="115.956" font-family="EdoniaText-Regular, Edonia Text">irl</text><text transform="translate(38.917 386.825)" font-size="101.315" font-family="EdoniaDisplay-Compressed, Edonia Display">FANTASTIC</text><text transform="translate(355.263 386.825)" font-size="115.956" font-family="EdoniaText-Bold, Edonia Text" font-weight="700">LIFE</text><path fill="none" stroke="#000" stroke-miterlimit="12.413" stroke-width="1.074" d="M52.948 402.211L62.34 404.298 48.89 470.973 39.033 472.944 38.454 476.307 69.878 476.307 70.457 472.944 58.862 470.973 65.007 440.36 79.038 440.36 81.009 450.565 84.372 450.565 89.59 425.17 86.227 425.17 80.082 435.258 66.051 435.258 72.313 404.066 98.287 404.066 98.634 419.141 101.997 419.72 106.519 398.848 53.644 398.848 52.948 402.211z"/><path d="M137.826 414.967l3.363 31.888h-19.945zm7.653-16.35h-4.406l-40.469 72.356-6.84 1.972-.58 3.362h25.161l.58-3.362-10.32-1.972 9.856-18.785h23.307l1.972 18.785-9.16 1.972-.697 3.362h27.482l.696-3.362-8.58-1.972z" fill="none" stroke="#000" stroke-miterlimit="12.413" stroke-width="1.074"/><path fill="none" stroke="#000" stroke-miterlimit="12.413" stroke-width="1.074" d="M226.995 402.211L235.46 404.298 226.531 448.477 224.56 457.754 197.774 398.848 181.54 398.848 180.845 402.211 189.541 404.298 174.467 470.973 167.51 472.944 166.814 476.307 191.165 476.307 191.976 472.944 182.12 470.973 191.397 421.692 193.02 411.256 222.473 476.307 226.183 476.307 229.43 459.029 242.881 404.298 249.838 402.211 250.534 398.848 227.691 398.848 226.995 402.211z"/><path fill="none" stroke="#000" stroke-miterlimit="12.413" stroke-width="1.074" d="M250.765 422.504L254.244 422.272 261.549 404.183 277.783 404.183 264.332 470.973 254.592 472.945 253.896 476.307 281.841 476.307 282.537 472.945 274.304 470.973 287.755 404.183 304.336 404.183 303.525 422.736 307.003 423.2 312.801 398.849 255.171 398.849 250.765 422.504z"/><path d="M342.718 414.967l3.363 31.888h-19.945zm7.653-16.35h-4.406l-40.47 72.356-6.84 1.972-.58 3.362h25.162l.58-3.362-10.32-1.972 9.856-18.785h23.307l1.972 18.785-9.161 1.972-.696 3.362h27.482l.696-3.362-8.581-1.972z" fill="none" stroke="#000" stroke-miterlimit="12.413" stroke-width="1.074"/><g clip-path="url(#a)" fill="none" stroke="#000" stroke-miterlimit="12.413" stroke-width="1.074"><path d="M369.967 473.756c3.71 2.087 13.335 4.29 21.8 4.29 17.857 0 26.438-9.856 26.438-21.683 0-10.436-6.494-15.77-16.35-24.467-6.146-5.45-11.016-9.392-11.016-16.582 0-7.537 6.146-12.291 14.03-12.291a23.317 23.317 0 0 1 12.06 3.363l.348 12.871 3.363.464 4.174-19.48c-4.986-2.088-11.48-2.668-15.886-2.668-16.002 0-26.902 7.537-26.902 20.408 0 6.842 2.783 12.408 10.784 19.481 7.19 6.377 16.466 11.827 16.466 21.452 0 6.957-4.87 13.451-14.38 13.451a29.412 29.412 0 0 1-15.19-4.639l2.552-11.943-3.362-.464z"/><path d="M431.306 422.504L434.784 422.272 442.09 404.183 458.323 404.183 444.872 470.973 435.133 472.945 434.436 476.307 462.382 476.307 463.077 472.945 454.844 470.973 468.296 404.183 484.876 404.183 484.065 422.736 487.543 423.2 493.341 398.849 435.711 398.849 431.306 422.504z"/><path d="M510.155 476.307L510.851 472.944 502.618 470.973 515.953 404.299 524.881 402.211 525.577 398.849 497.4 398.849 496.704 402.211 505.981 404.299 492.646 470.973 482.905 472.944 482.21 476.307 510.155 476.307z"/><path d="M524.996 449.173c0 16.466 7.42 28.757 24.003 28.757 9.392 0 17.973-3.479 21.683-5.914l4.175-18.553-3.711-.579-6.377 12.987c-4.523 3.71-10.668 6.262-15.886 6.378-1.971-.696-6.842-4.406-10.088-6.841-1.972-3.363-3.131-8.117-3.131-14.147 0-20.176 9.16-48.121 28.293-48.121h2.087c1.972.81 6.726 2.783 8.697 4.174l.696 13.799 3.71.464 3.247-20.293c-2.087-1.74-8.233-3.71-15.77-3.71-28.177 0-41.628 27.596-41.628 51.6z"/></g><text transform="translate(598.625 476.307)" font-size="101.315" font-family="EdoniaDisplay-Compressed, Edonia Display">BAND</text><text transform="translate(38.917 565.79)" font-size="115.956" font-family="EdoniaText-Regular, Edonia Text">FANTASTIC</text><text transform="translate(612.312 565.79)" font-size="101.315" font-family="EdoniaDisplay-Compressed, Edonia Display"><tspan>RISE</tspan></text><text transform="translate(38.869 655.25)" font-size="101.315" font-family="EdoniaDisplay-Compressed, Edonia Display">FANTASTIC</text><text transform="translate(355.263 655.27)" font-size="115.956" font-family="EdoniaText-Italic, Edonia Text" font-style="italic">LIGHT</text><text transform="translate(38.917 744.752)" font-size="101.315" font-family="EdoniaDisplay-Compressed, Edonia Display">FANTASTIC</text><path fill="none" stroke="#000" stroke-miterlimit="12.413" stroke-width="1.074" d="M378.421 667.319L378.421 669.387 384.727 671.144 385.865 709.292 386.071 714.772 386.175 717.253 385.865 716.529 370.564 667.319 356.297 667.319 356.297 669.387 359.502 671.248 358.985 740.824 356.09 742.685 356.09 744.753 372.115 744.753 372.115 742.685 364.568 740.514 362.81 684.791 362.5 678.278 383.073 744.753 388.759 744.753 388.759 718.804 389.586 671.144 392.171 669.387 392.171 667.319 378.421 667.319z"/><path fill="none" stroke="#000" stroke-miterlimit="12.413" stroke-width="1.074" d="M396.305 744.752L414.087 744.752 414.087 742.788 410.779 740.307 410.779 671.867 414.087 669.386 414.087 667.318 396.305 667.318 396.305 669.386 399.613 671.867 399.613 740.307 396.305 742.788 396.305 744.752z"/><g clip-path="url(#a)" fill="none" stroke="#000" stroke-miterlimit="12.413" stroke-width="1.074"><path d="M435.384 742.375zm1.344-32.876v2.068l3.308 2.48v24.916a6.482 6.482 0 0 1-2.274 2.688l-4.55-3.308c-2.687-8.478-3.1-17.162-2.894-35.047l.104-10.028c.206-12.51.517-20.47 4.135-22.848l4.445 3.205 4.653 21.607h3.825v-25.225c-2.275-1.964-5.996-3.308-11.062-3.308-10.65 0-17.368 9.407-17.368 39.388 0 11.683.206 39.286 17.368 39.286a12.935 12.935 0 0 0 8.684-3.62l3.1 2.999h2.896v-30.704l1.758-2.481v-2.068z"/><path d="M495.242 669.386L495.242 667.318 477.46 667.318 477.46 669.386 480.768 671.867 480.768 705.467 470.223 705.467 470.223 671.867 473.532 669.386 473.532 667.318 455.75 667.318 455.75 669.386 459.058 671.867 459.058 740.203 455.75 742.684 455.75 744.752 473.532 744.752 473.532 742.684 470.223 740.203 470.223 708.775 480.768 708.775 480.768 740.203 477.46 742.684 477.46 744.752 495.242 744.752 495.242 742.684 491.934 740.203 491.934 671.867 495.242 669.386z"/><path d="M507.234 744.752L525.016 744.752 525.016 742.684 521.708 740.203 521.708 670.523 524.189 670.523 529.048 695.025 532.873 695.025 532.873 667.318 499.377 667.318 499.377 695.025 503.202 695.025 508.061 670.523 510.542 670.523 510.542 740.203 507.234 742.684 507.234 744.752z"/></g><text transform="translate(38.917 834.234)" font-size="115.956" font-family="EdoniaText-Regular, Edonia Text">FANTASTIC</text><text transform="translate(622.016 834.234)" font-size="115.956" font-family="EdoniaText-Bold, Edonia Text" font-weight="700">YOU</text><text transform="translate(38.874 923.752)" font-size="115.956" font-family="EdoniaText-Bold, Edonia Text" font-weight="700">FANTASTIC</text><text transform="translate(619.385 923.716)" font-size="82.036" font-family="EdoniaDisplay-Compressed, Edonia Display"><tspan>TIME</tspan></text></svg>