<svg xmlns="http://www.w3.org/2000/svg" width="1440" height="1440" viewBox="0 0 1080 1080"><path fill="#fe2e12" d="M0 0h1080v1080H0z"/><path d="M130.875 950.238l6.66-1.847-3.332-21.336H74.395v4.933l9 2.715v66.961l-9 2.836v4.934h36.253v-4.934l-9.742-2.836V972.81h13.442l5.43 11.222h4.929v-29.843h-4.93l-5.43 11.59h-13.44v-31.571h23.183zm43.164-24.047h-10.113l-28.86 75.965-4.683 2.344v4.934h27.87v-4.934l-12.331-2.836 5.672-16.031h26.511l6.043 15.91-7.027 2.957v4.934h32.188v-4.934l-6.66-2.71zm-9.742 23.063l10.973 28.98h-21.086zm102.723-17.266l10.484 2.715 1.601 44.395.125 4.437-41.437-56.48h-25.281v4.933l8.758 2.961-.989 66.715-7.398 2.836v4.934h28.363v-4.934l-10.36-2.836-1.355-50.312-.37-6.786 47.48 64.868h10.851l.617-74.73 6.164-2.716v-4.933H267.02zm82.503 77.446v-4.934l-8.878-2.836v-67.457h12.328l7.648 17.145 6.29-2.344-3.454-21.953h-63.512l-3.203 21.703 6.41 2.344 7.645-16.895h12.332v67.457l-8.879 2.836v4.934zm55.368-83.243h-10.11l-28.86 75.965-4.687 2.344v4.934h27.871v-4.934l-12.332-2.836 5.676-16.031h26.512l6.043 15.91-7.031 2.957v4.934h32.187v-4.934l-6.66-2.71zm-9.743 23.063l10.977 28.98h-21.09zm79.172 9.496c-7.523-3.95-14.425-8.14-14.425-15.54 0-5.304 3.449-8.878 10.234-8.878 6.656 0 13.933 3.328 17.758 6.41l4.07 11.719 6.781-.863-2.218-21.953c-5.18-2.22-13.442-3.946-21.954-3.946-17.265 0-29.597 7.153-29.597 22.567 0 13.195 9.62 19.609 21.46 25.898 13.688 7.277 19.977 9.371 19.852 17.512-.12 7.152-5.176 10.36-12.949 10.36-7.273 0-14.18-2.962-18.371-6.29l-4.441-13.812-6.782.984 1.23 23.8c5.552 2.47 17.266 3.95 24.173 3.95 21.953 0 32.062-8.262 32.062-22.566 0-16.899-14.55-22.817-26.883-29.352m82.75 50.684v-4.934l-8.879-2.836v-67.457h12.332l7.645 17.145 6.289-2.344-3.453-21.953h-63.512l-3.203 21.703 6.41 2.344 7.645-16.895h12.332v67.457l-8.88 2.836v4.934zm55.614 0v-4.934l-8.88-2.836v-66.96l8.88-2.716v-4.933h-35.27v4.933l8.879 2.715v66.961l-8.879 2.836v4.934zm62.402-12.207c-3.207 2.34-8.758 4.808-15.168 4.808-.742 0-1.36 0-2.098-.125-7.398-3.082-11.715-6.906-16.648-13.195-2.465-5.918-3.578-13.317-3.578-21.332 0-21.707 8.015-33.051 20.472-33.051 6.907 0 12.086 3.453 15.664 5.918l5.176 10.852 6.907-2.465-2.711-18.254c-5.305-2.957-13.442-4.684-22.2-4.684-26.265 0-42.175 15.293-42.175 43.903 0 27.87 15.046 41.187 39.832 41.187 9.62 0 21.953-1.973 26.023-4.316l3.203-19.852-6.41-2.223zm35.047 12.207h18.91v-2.2l-3.516-2.64v-74.106h2.637l5.168 26.059h4.07v-29.465h-35.625v29.465h4.067l5.168-26.059h2.64v74.106l-3.52 2.64zm31.664 0h18.914v-2.09l-3.52-2.637v-72.789l3.52-2.637v-2.199h-18.914v2.2l3.52 2.636v72.789l-3.52 2.637zm69.926-80.153v-2.199h-16.489l-7.039 39.691-6.156-39.691h-15.394v2.2l2.75 2.09-1.54 73.995-2.75 1.867v2.2h15.063v-2.2l-6.484-1.867-1.211-67.84 10.336 66.301h2.859l11.215-67.512v68.278l-3.52 2.64v2.2h18.36v-2.2l-3.516-2.64V932.03zm35.187 56.953l-4.95 19.793h-10.003v-34.855h6.266l3.738 9.894h3.187v-22.98h-3.078l-3.847 9.676h-6.266v-37.274h8.902l5.059 21.66h3.848v-25.066h-33.203v2.2l3.519 2.75v72.562l-3.52 2.64v2.2h34.196v-23.2zm0 0M78.34 914.27h29.597v-4.317l-10.73-2.223v-31.199h15.91l5.301 11.223h4.195v-28.117h-4.195l-5.3 10.976H97.206v-32.68h25.652l7.399 15.786 5.054-1.727-3.328-20.101H78.34v4.316l7.398 2.219v69.304l-7.398 2.223zm119.375-6.66l-28.86-77.079h-3.945l-28.484 77.078-5.305 2.344v4.317h25.652v-4.317l-12.21-2.223 6.289-18.375h28.117l6.781 18.375-7.89 2.47v4.07h26.882v-4.07zm-44.645-24.544l11.223-33.046 12.332 33.046zm106.551-51.175v4.316l9.496 2.094 1.356 46.37v8.509l-42.793-61.535-8.508.246h-10.36v4.316l9.868 2.094-.864 69.43-6.906 2.222v4.317h26.512v-4.317l-10.852-2.223-1.48-51.546-.617-9.496 47.234 67.582h5.426l-.246-18.375.984-57.594 6.785-2.094v-4.316zm50.438 82.379h31.199v-4.317l-9.863-2.223v-69.796h15.539l7.398 15.906 5.055-1.848-3.328-20.101h-60.676l-3.328 20.101 5.054 1.848 7.403-15.906h15.414v69.796l-9.867 2.223zm113.332-6.66l-28.86-77.079h-3.945l-28.488 77.078-5.301 2.344v4.317h25.648v-4.317l-12.207-2.223 6.29-18.375h28.117l6.785 18.375-7.895 2.47v4.07h26.883v-4.07zm-44.645-24.544l11.223-33.046 12.332 33.046zm86.695-16.398c-9.617-4.566-16.402-9.992-16.277-18.008.121-7.52 4.688-10.972 11.469-10.972 6.164 0 13.07 2.835 16.894 5.671l3.825 10.977 5.18-.863-1.235-18.375c-6.535-2.715-12.824-4.567-20.719-4.567-14.18 0-25.773 5.922-25.773 20.719 0 13.813 10.234 20.227 18.746 24.418 11.469 5.797 22.32 8.879 22.195 19.855-.121 7.399-4.933 12.95-14.55 12.95-6.536 0-13.196-2.344-17.266-5.055l-4.688-13.566-5.672.984.743 20.719c6.042 2.836 16.152 3.945 22.812 3.945 17.758 0 28.98-9.125 28.98-23.059 0-14.921-12.453-19.98-24.664-25.773m51.301 47.602h31.2v-4.317l-9.864-2.223v-69.796h15.535l7.403 15.906 5.054-1.848-3.328-20.101h-60.676l-3.328 20.101 5.055 1.848 7.398-15.906h15.418v69.796l-9.867 2.223zm58.7 0h27.253v-4.317l-7.89-2.223v-69.304l7.89-2.219v-4.316h-27.254v4.316l7.891 2.219v69.304l-7.89 2.223zm96.93-23.184l-5.798 12.578c-3.824 2.219-11.097 4.563-15.785 4.563a20.43 20.43 0 01-3.945-.372c-6.168-2.714-10.114-6.168-14.43-11.468-2.715-5.918-5.055-14.43-5.055-25.528 0-21.336 8.754-33.914 21.95-33.914 6.785 0 13.195 3.453 16.402 5.426l5.305 11.469 5.054-1.848-2.836-16.773c-4.687-2.465-11.468-4.688-19.855-4.688-22.813 0-38.723 16.528-38.723 43.29 0 24.91 13.688 41.804 36.133 41.804 8.262 0 19.238-2.836 23.8-5.918l2.837-16.773zm94.593-54.262v-4.933h-23.059v4.933l8.508 2.344-16.031 33.91-17.14-33.664 8.26-2.59v-4.933h-32.679v4.933l5.547 2.59 23.555 46.738V906.5l-8.88 2.836v4.934h35.024v-4.934l-8.879-2.836v-25.281l20.473-41.805zm40.078-6.293c-24.168 0-41.805 17.02-41.805 43.782 0 22.812 14.059 41.312 39.586 41.312 26.27 0 42.051-17.758 42.051-42.668 0-24.05-15.906-42.426-39.832-42.426m-.246 76.461c-.738 0-1.48 0-2.219-.12-6.66-2.716-10.851-6.044-15.168-11.102-3.332-6.043-5.305-14.18-5.305-23.184 0-16.524 6.415-33.418 21.336-33.418.618 0 1.235 0 1.848.121 7.156 2.836 11.348 6.29 15.91 11.715 3.082 5.922 4.809 13.441 4.809 21.707 0 15.043-5.547 34.281-21.211 34.281m94.836-70.539l8.633 1.848.863 26.27.246 20.593c.121 13.813-6.781 21.828-17.266 21.828h-1.601c-6.66-2.59-10.856-5.054-15.047-9.742-1.234-3.328-1.852-7.523-1.852-12.578v-45.137l9.13-2.71v-4.934h-34.16v4.933l7.523 2.711v48.344c0 6.043.246 27.746 31.199 27.746 21.332 0 31.074-11.469 31.074-28.98v-22.32l.742-26.024 7.524-1.848v-4.562h-27.008zm0 0"/><path d="M433.734 736.75v2.2l6.707 1.87 1.211 40.57.22 5.829.108 2.636-.328-.77-16.273-52.335h-15.172v2.2l3.406 1.98-.547 73.996-3.078 1.976v2.2h17.04v-2.2l-8.024-2.308-1.871-59.262-.328-6.926 21.879 70.696h6.046v-27.594l.88-50.688 2.75-1.87v-2.2zm19.02 82.352h18.914v-2.086l-3.52-2.641V741.59l3.52-2.64v-2.2h-18.914v2.2l3.52 2.64v72.785l-3.52 2.64zm42.992-37.493v2.2l3.52 2.64v26.496a6.901 6.901 0 01-2.418 2.86l-4.84-3.52c-2.86-9.015-3.301-18.25-3.078-37.273l.11-10.664c.218-13.305.55-21.77 4.398-24.297l4.726 3.406 4.95 22.98h4.066V739.61c-2.418-2.09-6.375-3.52-11.766-3.52-11.32 0-18.469 10.009-18.469 41.891 0 12.426.22 41.782 18.47 41.782 3.519 0 6.706-1.54 9.237-3.848l3.297 3.188h3.078v-32.653l1.871-2.64v-2.2zm-1.43 34.965h-.328zm63.66-77.625v-2.199h-18.91v2.2l3.516 2.64v35.73h-11.21v-35.73l3.515-2.64v-2.2h-18.91v2.2l3.52 2.64v72.676l-3.52 2.636v2.2h18.91v-2.2l-3.516-2.636V780.84h11.211v33.426l-3.516 2.636v2.2h18.91v-2.2l-3.519-2.636V741.59zm12.754 80.153h18.915v-2.2l-3.52-2.636V740.16h2.637l5.168 26.059H598V736.75h-35.625v29.469h4.066l5.168-26.059h2.641v74.106l-3.52 2.636zm0 0" fill="none" stroke-width="1.142" stroke="#000" stroke-miterlimit="12.328"/><path d="M108.07 736.75H75.086v2.2l3.52 2.64v72.676l-3.52 2.636v2.2h24.848v-2.2l-9.454-2.636v-31.887h5.497l4.289 9.676h3.078v-22.98h-3.078l-4.29 9.675H90.48v-38.59h8.684l5.277 22.207h3.63zm23.86 82.352h17.48l-.11-2.2-2.745-2.636-14.516-77.735h-3.957l-14.516 78.063-3.187 2.308v2.2h14.953v-2.2l-6.375-2.308 2.527-16.602h10.336l2.97 16.602-2.75 2.308zm-9.895-24.63l3.848-24.847.328-2.527 4.95 27.375zm52.336-57.722v2.2l6.707 1.87 1.207 40.57.219 5.829.113 2.636-.332-.77-16.27-52.335H150.84v2.2l3.41 1.98-.55 73.996-3.079 1.976v2.2h17.043v-2.2l-8.027-2.308-1.867-59.262-.333-6.926 21.88 70.696h6.046v-27.594l.88-50.688 2.75-1.87v-2.2zm26.938 82.352h18.91v-2.2l-3.52-2.636V740.16h2.637l5.168 26.059h4.07V736.75H192.95v29.469h4.07l5.168-26.059h2.637v74.106l-3.515 2.636zm44.527 0h17.48l-.109-2.2-2.75-2.636-14.512-77.735h-3.957l-14.515 78.063-3.188 2.308v2.2h14.953v-2.2l-6.375-2.308 2.528-16.602h10.336l2.968 16.602-2.75 2.308zm-9.895-24.63l3.848-24.847.328-2.527 4.95 27.375zm48.047-23.199c-3.738-5.386-9.015-13.523-9.015-21.66 0-4.617 1.648-9.453 5.714-9.453.77 0 1.543.219 2.09.547l7.477 25.73h3.52V738.29c-.88-.988-5.829-2.2-10.446-2.2-12.312 0-18.473 4.731-18.473 17.263 0 11.656 5.387 18.804 10.555 26.168 5.938 8.468 11.656 18.144 11.656 27.82 0 5.277-1.648 8.793-6.816 8.793-.66 0-1.21-.11-1.762-.11l-8.133-26.496h-3.851v28.586c3.191 1.43 7.476 1.649 10.226 1.649 16.274 0 20.34-7.805 20.34-17.48 0-13.415-7.695-23.2-13.082-31.009m-7.699 43.98c-.547-.327-.988-.66-1.426-.987zm31.996 3.849h18.91v-2.2l-3.515-2.636V740.16h2.636l5.168 26.059h4.07V736.75H299.93v29.469h4.066l5.168-26.059h2.64v74.106l-3.519 2.636zm31.664 0h18.914v-2.086l-3.52-2.641V741.59l3.52-2.64v-2.2H339.95v2.2l3.52 2.64v72.785l-3.52 2.64zm40.68-79.051l4.621 3.297 4.945 23.09h4.07v-26.829c-2.199-1.976-6.597-3.52-11.324-3.52-11.546 0-18.8 10.009-18.8 41.891 0 24.082 3.515 41.782 18.14 41.782 5.387 0 9.895-1.867 11.543-3.52v-24.625h-4.066l-5.278 24.625-5.168-3.734c-2.859-8.906-3.19-16.934-3.19-23.973v-13.3c0-22.43.66-32.438 4.507-35.184M108.07 641.586H75.086v2.2l3.52 2.636v72.676l-3.52 2.64v2.2h24.848v-2.2l-9.454-2.64v-31.883h5.497l4.289 9.676h3.078v-22.98h-3.078l-4.29 9.675H90.48v-38.594h8.684l5.277 22.211h3.63zm23.86 82.351h17.48l-.11-2.199-2.745-2.64-14.516-77.73h-3.957l-14.516 78.062-3.187 2.308v2.2h14.953v-2.2l-6.375-2.308 2.527-16.602h10.336l2.97 16.602-2.75 2.308zm-9.895-24.628l3.848-24.848.328-2.531 4.95 27.379zm52.336-57.723v2.2l6.707 1.866 1.207 40.57.219 5.829.113 2.64-.332-.77-16.27-52.335H150.84v2.2l3.41 1.976-.55 73.996-3.079 1.98v2.2h17.043v-2.2l-8.027-2.308-1.867-59.262-.333-6.926 21.88 70.696h6.046V696.34l.88-50.688 2.75-1.867v-2.2zm26.938 82.351h18.91v-2.199l-3.52-2.64v-74.106h2.637l5.168 26.059h4.07v-29.465H192.95v29.465h4.07l5.168-26.059h2.637v74.106l-3.515 2.64zm44.527 0h17.48l-.109-2.199-2.75-2.64-14.512-77.73h-3.957l-14.515 78.062-3.188 2.308v2.2h14.953v-2.2l-6.375-2.308 2.528-16.602h10.336l2.968 16.602-2.75 2.308zm-9.895-24.628l3.848-24.848.328-2.531 4.95 27.379zm48.047-23.2c-3.738-5.386-9.015-13.523-9.015-21.66 0-4.617 1.648-9.457 5.714-9.457.77 0 1.543.223 2.09.551l7.477 25.727h3.52v-28.145c-.88-.988-5.829-2.2-10.446-2.2-12.312 0-18.473 4.727-18.473 17.263 0 11.656 5.387 18.8 10.555 26.167 5.938 8.465 11.656 18.141 11.656 27.817 0 5.277-1.648 8.797-6.816 8.797-.66 0-1.21-.11-1.762-.11l-8.133-26.496h-3.851v28.586c3.191 1.43 7.476 1.649 10.226 1.649 16.274 0 20.34-7.809 20.34-17.48 0-13.415-7.695-23.204-13.082-31.009m-7.699 43.98c-.547-.331-.988-.66-1.426-.991zm31.996 3.848h18.91v-2.199l-3.515-2.64v-74.106h2.636l5.168 26.059h4.07v-29.465H299.93v29.465h4.066l5.168-26.059h2.64v74.106l-3.519 2.64zm31.664 0h18.914v-2.09l-3.52-2.636v-72.79l3.52-2.636v-2.2H339.95v2.2l3.52 2.637v72.789l-3.52 2.637zm40.68-79.054l4.621 3.3 4.945 23.087h4.07v-26.825c-2.199-1.98-6.597-3.52-11.324-3.52-11.546 0-18.8 10.005-18.8 41.891 0 24.079 3.515 41.782 18.14 41.782 5.387 0 9.895-1.871 11.543-3.52V696.45h-4.066l-5.278 24.63-5.168-3.74c-2.859-8.905-3.19-16.929-3.19-23.968v-13.305c0-22.43.66-32.433 4.507-35.183m83.973 79.054l5.918-25.527-3.7-.246-9.37 20.223h-27.13l14.305-71.032 11.59-2.218.617-3.578H424.77l-.618 3.578 9.868 2.218-14.31 70.91-10.355 2.098-.742 3.574zm37.734 0l.742-3.574-8.758-2.097 14.184-70.91 9.496-2.22.738-3.577h-29.965l-.742 3.578 9.867 2.218-14.183 70.91-10.36 2.098-.738 3.574zm54.016-34.28l8.753 1.355-4.808 23.8c-5.18 3.329-11.344 4.684-16.77 4.81-2.097-.74-7.277-3.454-10.73-6.044-2.098-3.574-3.328-8.633-3.328-16.277 0-21.457 9.742-51.18 30.09-51.18h1.23c1.852.496 8.02 3.332 10.238 5.55l.739 13.567 3.945.492 3.453-21.582c-2.219-1.601-9.988-3.945-16.77-3.945-29.968 0-44.273 29.227-44.273 55.125 0 17.262 6.29 30.336 26.39 30.336 8.512 0 18.255-2.344 25.157-6.535l5.55-28.117 6.907-1.356.738-3.703H557.09zm88.171-44.52l9.622 2.218-6.782 33.79h-35.52l6.786-33.79 9.863-2.218.742-3.578h-30.09l-.742 3.578 9.621 2.218-14.183 70.91-9.863 2.098-.743 3.574h29.72l.741-3.574-9.25-2.097 6.29-31.45h35.515l-6.29 31.45-9.862 2.097-.743 3.574h29.723l.738-3.574-9.25-2.097 14.184-70.91 9.867-2.22.738-3.577h-30.09zm33.051 21.578l3.7-.246 7.769-19.239h17.266l-14.305 71.036-10.36 2.097-.738 3.574h29.719l.738-3.574-8.754-2.097 14.305-71.036h17.633l-.86 19.735 3.7.492 6.164-25.898h-61.29zm0 0M78.34 628.773h29.597v-4.316l-10.73-2.223v-31.199h15.91l5.301 11.223h4.195V574.14h-4.195l-5.3 10.976H97.206v-32.68h25.652l7.399 15.786 5.054-1.727-3.328-20.101H78.34v4.316l7.398 2.219v69.304l-7.398 2.223zm119.375-6.66l-28.86-77.078h-3.945l-28.484 77.078-5.305 2.344v4.316h25.652v-4.316l-12.21-2.223 6.289-18.375h28.117l6.781 18.375-7.89 2.47v4.07h26.882v-4.07zM153.07 597.57l11.223-33.047 12.332 33.047zm106.551-51.175v4.316l9.496 2.094 1.356 46.37v8.509l-42.793-61.536-8.508.247h-10.36v4.316l9.868 2.094-.864 69.43-6.906 2.222v4.316h26.512v-4.316l-10.852-2.223-1.48-51.547-.617-9.496 47.234 67.582h5.426l-.246-18.375.984-57.593 6.785-2.094v-4.316zm50.438 82.378h31.199v-4.316l-9.863-2.223v-69.797h15.539l7.398 15.907 5.055-1.848-3.328-20.101h-60.676l-3.328 20.101 5.054 1.848 7.403-15.907h15.414v69.797l-9.867 2.223zm113.332-6.66l-28.86-77.078h-3.945l-28.488 77.078-5.301 2.344v4.316h25.648v-4.316l-12.207-2.223 6.29-18.375h28.117l6.785 18.375-7.895 2.47v4.07h26.883v-4.07zm-44.645-24.543l11.223-33.047L402.3 597.57zm86.695-16.402c-9.617-4.563-16.402-9.988-16.277-18.004.121-7.52 4.688-10.973 11.469-10.973 6.164 0 13.07 2.836 16.894 5.672l3.825 10.977 5.18-.863-1.235-18.375c-6.535-2.715-12.824-4.567-20.719-4.567-14.18 0-25.773 5.922-25.773 20.719 0 13.812 10.234 20.226 18.746 24.418 11.469 5.797 22.32 8.879 22.195 19.855-.121 7.399-4.933 12.95-14.55 12.95-6.536 0-13.196-2.344-17.266-5.059l-4.688-13.563-5.672.985.743 20.719c6.042 2.836 16.152 3.945 22.812 3.945 17.758 0 28.98-9.125 28.98-23.059 0-14.922-12.453-19.98-24.664-25.777m51.301 47.605h31.2v-4.316l-9.864-2.223v-69.797h15.535l7.403 15.907 5.054-1.848-3.328-20.101h-60.676l-3.328 20.101 5.055 1.848 7.398-15.907h15.418v69.797l-9.867 2.223zm58.7 0h27.253v-4.316l-7.89-2.223V552.93l7.89-2.22v-4.315h-27.254v4.316l7.891 2.219v69.304l-7.89 2.223zm96.93-23.183l-5.798 12.574c-3.824 2.223-11.097 4.566-15.785 4.566a20.43 20.43 0 01-3.945-.37c-6.168-2.715-10.114-6.169-14.43-11.47-2.715-5.917-5.055-14.43-5.055-25.527 0-21.336 8.754-33.914 21.95-33.914 6.785 0 13.195 3.453 16.402 5.426l5.305 11.469 5.054-1.848-2.836-16.773c-4.687-2.465-11.468-4.688-19.855-4.688-22.813 0-38.723 16.528-38.723 43.29 0 24.91 13.688 41.804 36.133 41.804 8.262 0 19.238-2.836 23.8-5.922l2.837-16.77zm61.675 18.344l-7.695-29.246c-.11-.329-.77-.77-1.868-1.211 8.356-3.625 10.446-13.082 10.446-22.977 0-6.27-1.211-24.52-20.782-24.52-3.078 0-10.886-.109-17.152.438v2.2l3.52 2.75v72.566l-3.52 2.64v2.2h18.14v-2.2l-2.745-2.64v-29.028c.547.114 1.207.114 1.757.223l9.016 33.644h13.633v-2.199zm-20.45-75.204l-.218-.113s.11 0 .219.113m-1.207.88h2.636c1.868 1.32 4.727 3.515 6.817 5.054.879 3.629 1.101 9.02 1.101 15.836 0 13.96-.77 21.438-6.488 21.438h-4.066zm27.047 79.163h18.91v-2.09l-3.52-2.64v-72.785l3.52-2.64v-2.2h-18.91v2.2l3.515 2.64v72.785l-3.515 2.64zm41.667-47.828c-3.738-5.386-9.015-13.527-9.015-21.66 0-4.62 1.648-9.457 5.719-9.457.77 0 1.539.219 2.086.55l7.476 25.727h3.52v-28.148c-.88-.988-5.828-2.195-10.446-2.195-12.312 0-18.472 4.726-18.472 17.261 0 11.653 5.39 18.801 10.554 26.168 5.942 8.465 11.657 18.141 11.657 27.817 0 5.277-1.649 8.797-6.817 8.797-.66 0-1.21-.114-1.758-.114l-8.136-26.496h-3.852v28.586c3.192 1.43 7.48 1.653 10.227 1.653 16.273 0 20.34-7.809 20.34-17.485 0-13.414-7.696-23.199-13.083-31.004m-7.695 43.98c-.55-.331-.992-.66-1.43-.991zm54.422-19.35l-4.945 19.788h-10.008v-34.851h6.27l3.738 9.894h3.187v-22.98h-3.078l-3.848 9.676h-6.27v-37.274h8.907l5.059 21.66h3.847v-25.07h-33.203v2.2l3.516 2.75v72.566l-3.516 2.64v2.2h34.192v-23.2zm0 0M697.395 490.617c6.707-2.75 10.222-8.797 10.222-19.133 0-15.171-8.246-20.671-20.34-20.671-3.078 0-10.664-.11-16.93.44v2.2l3.516 2.64v72.677l-3.515 2.636v2.2c6.703.44 13.3.66 18.91.66 16.16 0 19.68-11.985 19.68-24.957 0-5.829-1.211-14.954-11.543-18.692m-10.997-37.055l-.218-.109s.11 0 .218.11m1.43.878c1.871 1.32 4.727 3.52 6.926 5.168.77 3.41.992 8.246.992 14.297 0 10.004.766 14.84-6.16 14.84h-3.848v-34.305zm3.629 76.637l-5.719-4.07v-34.524h3.961c1.758 1.211 4.176 3.192 6.156 4.618.88 3.41 1.098 8.359 1.098 14.625 0 10.336-1.758 17.921-5.496 19.351m38.922 2.527h17.484l-.113-2.199-2.746-2.636-14.516-77.735h-3.957l-14.515 78.063-3.188 2.308v2.2h14.953v-2.2l-6.375-2.308 2.528-16.602h10.336l2.968 16.602-2.75 2.308zm-9.895-24.628l3.848-24.848.332-2.527 4.945 27.375zm52.336-57.723v2.2l6.707 1.87 1.207 40.57.223 5.829.11 2.636-.333-.77-16.27-52.335H749.29v2.2l3.41 1.98-.55 73.996-3.079 1.976v2.2h17.043v-2.2l-8.027-2.308-1.871-59.262-.328-6.926 21.879 70.695h6.05v-27.597l.88-50.684 2.745-1.87v-2.2zm36.063-.66c-7.7 0-12.977.332-17.043.66v2.2l3.52 2.75v72.566l-3.52 2.636v2.2c6.265.44 17.043.66 18.8.66 14.844-.22 20.34-7.477 20.34-41.782 0-35.293-5.496-41.89-22.097-41.89m3.847 80.484l-5.496-4.07v-72.785h2.528l5.605 4.07c3.082 9.016 3.63 18.14 3.63 34.191 0 26.938-1.43 37.055-6.267 38.594"/><path d="M87.59 454.805l9.988 2.218-14.305 70.91-10.484 2.098-.613 3.574h33.418l.617-3.574-12.332-2.097 6.535-32.555h14.922l2.098 10.851h3.574l5.55-27.007h-3.578l-6.535 10.726h-14.922l6.66-33.172h27.626l.367 16.032 3.578.617 4.809-22.2H88.328zm98.406-3.825h-4.684l-43.039 76.954-7.277 2.097-.617 3.574h26.762l.617-3.574-10.977-2.097 10.485-19.977h24.785l2.097 19.977-9.742 2.097-.742 3.574h29.23l.739-3.574-9.125-2.097zm-8.137 17.391l3.575 33.914h-21.211zm94.832-13.566l9.004 2.218-9.496 46.985-2.097 9.867-28.489-62.648h-17.261l-.743 3.578 9.25 2.218-16.03 70.91-7.4 2.098-.741 3.574h25.898l.863-3.574-10.48-2.097 9.863-52.41 1.727-11.102 31.324 69.183h3.945l3.453-18.375 14.305-58.207 7.398-2.218.743-3.578h-24.293zm25.282 21.582l3.699-.25 7.77-19.235h17.265l-14.309 71.032-10.359 2.097-.738 3.574h29.722l.739-3.574-8.754-2.097 14.305-71.032h17.632l-.863 19.73 3.7.493 6.167-25.898h-61.293zm105.93-25.407h-4.684l-43.04 76.954-7.277 2.097-.617 3.574h26.762l.617-3.574-10.976-2.097 10.484-19.977h24.785l2.098 19.977-9.743 2.097-.742 3.574h29.23l.74-3.574-9.126-2.097zm-8.137 17.391l3.574 33.914h-21.211zm28.98 62.524c3.945 2.218 14.18 4.562 23.184 4.562 18.992 0 28.117-10.484 28.117-23.062 0-11.098-6.906-16.77-17.39-26.02-6.536-5.797-11.716-9.988-11.716-17.637 0-8.015 6.536-13.07 14.922-13.07 5.18 0 10.36 1.848 12.828 3.578l.368 13.688 3.578.492 4.437-20.719c-5.3-2.219-12.207-2.836-16.894-2.836-17.02 0-28.61 8.016-28.61 21.707 0 7.274 2.961 13.192 11.47 20.715 7.644 6.785 17.51 12.578 17.51 22.816 0 7.399-5.179 14.305-15.292 14.305-6.043 0-12.207-2.344-16.153-4.934l2.711-12.703-3.578-.492zm65.234-54.508l3.7-.25 7.77-19.235h17.265l-14.309 71.032-10.355 2.097-.742 3.574h29.722l.739-3.574-8.754-2.097 14.304-71.032h17.633l-.863 19.73 3.7.493 6.167-25.898h-61.293zm83.856 57.218l.742-3.574-8.758-2.097 14.184-70.91 9.496-2.22.738-3.577h-29.965l-.742 3.578 9.867 2.218-14.183 70.91-10.36 2.098-.738 3.574zm15.785-28.855c0 17.512 7.895 30.582 25.527 30.582 9.989 0 19.114-3.7 23.063-6.289l4.437-19.73-3.945-.618-6.781 13.813c-4.813 3.945-11.348 6.66-16.899 6.781-2.093-.738-7.273-4.684-10.726-7.273-2.098-3.578-3.328-8.633-3.328-15.047 0-21.457 9.742-51.176 30.09-51.176h2.218c2.094.863 7.153 2.957 9.25 4.437l.739 14.676 3.945.492 3.453-21.582c-2.219-1.847-8.754-3.945-16.77-3.945-29.968 0-44.273 29.352-44.273 54.879zm0 0" fill="none" stroke-width="1.142" stroke="#000" stroke-miterlimit="12.328"/><path d="M108.07 356.09H75.086v2.2l3.52 2.636v72.676l-3.52 2.64v2.2h24.848v-2.2l-9.454-2.64v-31.883h5.497l4.289 9.676h3.078v-22.98h-3.078l-4.29 9.675H90.48v-38.594h8.684l5.277 22.211h3.63zm23.86 82.351h17.48l-.11-2.199-2.745-2.64-14.516-77.735h-3.957l-14.516 78.067-3.187 2.308v2.2h14.953v-2.2l-6.375-2.308 2.527-16.602h10.336l2.97 16.602-2.75 2.308zm-9.895-24.628l3.848-24.848.328-2.531 4.95 27.378zm52.336-57.723v2.2l6.707 1.866 1.207 40.57.219 5.829.113 2.64-.332-.77-16.27-52.335H150.84v2.2l3.41 1.976-.55 73.996-3.079 1.98v2.2h17.043v-2.2l-8.027-2.308-1.867-59.262-.333-6.93 21.88 70.7h6.046v-27.598l.88-50.688 2.75-1.867v-2.2zm26.938 82.351h18.91v-2.199l-3.52-2.64v-74.106h2.637l5.168 26.059h4.07V356.09H192.95v29.465h4.07l5.168-26.059h2.637v74.106l-3.515 2.64zm44.527 0h17.48l-.109-2.199-2.75-2.64-14.512-77.735h-3.957l-14.515 78.067-3.188 2.308v2.2h14.953v-2.2l-6.375-2.308 2.528-16.602h10.336l2.968 16.602-2.75 2.308zm-9.895-24.628l3.848-24.848.328-2.531 4.95 27.378zm48.047-23.2c-3.738-5.386-9.015-13.523-9.015-21.66 0-4.617 1.648-9.457 5.714-9.457.77 0 1.543.223 2.09.55l7.477 25.727h3.52V357.63c-.88-.988-5.829-2.2-10.446-2.2-12.312 0-18.473 4.727-18.473 17.262 0 11.657 5.387 18.801 10.555 26.168 5.938 8.465 11.656 18.141 11.656 27.817 0 5.277-1.648 8.797-6.816 8.797-.66 0-1.21-.11-1.762-.11l-8.133-26.5h-3.851v28.586c3.191 1.434 7.476 1.653 10.226 1.653 16.274 0 20.34-7.809 20.34-17.485 0-13.414-7.695-23.195-13.082-31.004m-7.699 43.98c-.547-.331-.988-.66-1.426-.991zm31.996 3.848h18.91v-2.199l-3.515-2.64v-74.106h2.636l5.168 26.059h4.07V356.09H299.93v29.465h4.066l5.168-26.059h2.64v74.106l-3.519 2.64zm31.664 0h18.914v-2.09l-3.52-2.636v-72.79l3.52-2.636v-2.2H339.95v2.2l3.52 2.637v72.789l-3.52 2.637zm40.68-79.054l4.621 3.3 4.945 23.086h4.07V358.95c-2.199-1.98-6.597-3.52-11.324-3.52-11.546 0-18.8 10.005-18.8 41.891 0 24.078 3.515 41.782 18.14 41.782 5.387 0 9.895-1.872 11.543-3.52v-24.629h-4.066l-5.278 24.629-5.168-3.738c-2.859-8.906-3.19-16.934-3.19-23.969V394.57c0-22.43.66-32.433 4.507-35.183m66.34-3.325h-36.137v4.934l9.004 2.715v66.96l-9.004 2.837v4.933h59.813l3.453-23.8-6.782-1.852-6.906 18.5h-23.062v-67.578l9.62-2.715zm64.617 82.38v-4.934l-8.879-2.836V363.71l8.879-2.715v-4.933h-35.27v4.933l8.88 2.715v66.96l-8.88 2.837v4.933zm59.934-59.196l6.66-1.848-3.332-21.336h-59.809v4.934l9 2.715v66.96l-9 2.837v4.933h36.254v-4.933l-9.742-2.836v-28.856h13.441l5.426 11.22h4.934V383.19h-4.934l-5.426 11.594h-13.441v-31.57h23.187zm61.906 52.043h-26.02v-28.98h13.567l5.425 11.222h4.93v-29.844h-4.93l-5.425 11.59h-13.567v-32.062h22.567l6.78 16.031 6.661-1.848-3.328-21.336H580.89v4.934l9.004 2.715v66.96l-9.004 2.837v4.933h62.77l3.206-21.336-6.781-1.847zm0 0M457.941 305.293v4.316l10.73 1.848v22.57c-4.194 1.973-9.987 3.328-15.91 3.328-.863 0-1.726 0-2.59-.12-8.26-3.208-12.698-7.032-17.878-13.692-2.344-5.672-4.195-13.563-4.195-23.555 0-21.457 8.632-34.035 21.953-34.035 7.644 0 14.676 4.195 18.992 7.152l4.562 9.743L478.66 281l-2.836-16.773c-5.918-2.465-11.715-4.688-20.719-4.688-25.402 0-39.71 17.758-39.71 43.656 0 24.91 13.32 41.438 36.382 41.438 11.223 0 23.922-3.945 27.254-5.18v-27.996l6.29-1.848v-4.316zm11.965 28.117v.121zm37.735-60.55c4.562 0 7.027-3.208 7.027-7.153 0-3.824-2.465-7.031-7.027-7.031-4.563 0-7.153 3.207-7.153 7.031 0 3.945 2.59 7.152 7.153 7.152m-12.95 70.418h26.637v-4.441l-7.894-2.344v-50.808h-.985l-18.375 2.96v3.946l8.88 2.223v41.68l-8.263 2.343zm36.133 0h27.13v-4.441l-8.388-2.465v-35.766c4.442-2.59 8.633-3.945 10.114-3.945 1.234 0 6.906 1.356 8.508 1.848l2.84-12.7c-.864-.124-.989-.124-1.852-.124-7.645 0-14.059 5.058-20.223 9.496v-9.496h-.496l-18.25 2.96v3.946l8.879 2.223v41.558l-8.262 2.465zm44.27 0h26.64v-4.441l-7.894-2.465v-80.406h-.492l-18.868 3.082v3.824l8.88 2.219v71.281l-8.266 2.465zm0 0"/><path d="M108.07 260.922H75.086v2.2l3.52 2.64v72.676l-3.52 2.64v2.2h24.848v-2.2l-9.454-2.64V306.55h5.497l4.289 9.676h3.078V293.25h-3.078l-4.29 9.676H90.48v-38.594h8.684l5.277 22.211h3.63zm23.86 82.355h17.48l-.11-2.199-2.745-2.64-14.516-77.735h-3.957l-14.516 78.067-3.187 2.308v2.2h14.953v-2.2l-6.375-2.308 2.527-16.606h10.336l2.97 16.606-2.75 2.308zm-9.895-24.629l3.848-24.851.328-2.527 4.95 27.378zm52.336-57.726v2.2l6.707 1.87 1.207 40.57.219 5.829.113 2.636-.332-.77-16.27-52.335H150.84v2.2l3.41 1.98-.55 73.996-3.079 1.98v2.2h17.043v-2.2l-8.027-2.308-1.867-59.266-.333-6.926 21.88 70.7h6.046V315.68l.88-50.688 2.75-1.87v-2.2zm26.938 82.355h18.91v-2.199l-3.52-2.64v-74.106h2.637l5.168 26.059h4.07v-29.47H192.95v29.47h4.07l5.168-26.059h2.637v74.106l-3.515 2.64zm44.527 0h17.48l-.109-2.199-2.75-2.64-14.512-77.735h-3.957l-14.515 78.067-3.188 2.308v2.2h14.953v-2.2l-6.375-2.308 2.528-16.606h10.336l2.968 16.606-2.75 2.308zm-9.895-24.629l3.848-24.851.328-2.527 4.95 27.378zm48.047-23.199c-3.738-5.387-9.015-13.527-9.015-21.66 0-4.621 1.648-9.457 5.714-9.457.77 0 1.543.219 2.09.55l7.477 25.727h3.52v-28.148c-.88-.988-5.829-2.2-10.446-2.2-12.312 0-18.473 4.731-18.473 17.266 0 11.653 5.387 18.801 10.555 26.168 5.938 8.465 11.656 18.14 11.656 27.817 0 5.277-1.648 8.793-6.816 8.793-.66 0-1.21-.11-1.762-.11l-8.133-26.496h-3.851v28.586c3.191 1.43 7.476 1.652 10.226 1.652 16.274 0 20.34-7.808 20.34-17.484 0-13.414-7.695-23.2-13.082-31.004zm-7.699 43.977a15.302 15.302 0 01-1.426-.989zm31.996 3.851h18.91v-2.199l-3.515-2.64v-74.106h2.636l5.168 26.059h4.07v-29.47H299.93v29.47h4.066l5.168-26.059h2.64v74.106l-3.519 2.64zm31.664 0h18.914v-2.09l-3.52-2.64v-72.785l3.52-2.64v-2.2H339.95v2.2l3.52 2.64v72.785l-3.52 2.64zm40.68-79.054l4.621 3.297 4.945 23.09h4.07V263.78c-2.199-1.976-6.597-3.52-11.324-3.52-11.546 0-18.8 10.009-18.8 41.895 0 24.078 3.515 41.782 18.14 41.782 5.387 0 9.895-1.872 11.543-3.52v-24.629h-4.066l-5.278 24.629-5.168-3.738c-2.859-8.907-3.19-16.934-3.19-23.97v-13.304c0-22.43.66-32.437 4.507-35.183zm0 0" fill="none" stroke-width="1.142" stroke="#000" stroke-miterlimit="12.328"/><path d="M108.07 165.758H75.086v2.199l3.52 2.64v72.676l-3.52 2.637v2.2h24.848v-2.2l-9.454-2.637v-31.886h5.497l4.289 9.675h3.078v-22.98h-3.078l-4.29 9.676H90.48v-38.59h8.684l5.277 22.207h3.63zm23.86 82.351h17.48l-.11-2.199-2.745-2.637-14.516-77.734h-3.957l-14.516 78.063-3.187 2.308v2.2h14.953v-2.2l-6.375-2.308L121.484 227h10.336l2.97 16.602-2.75 2.308zm-9.895-24.629l3.848-24.847.328-2.528 4.95 27.375zm52.336-57.722v2.199l6.707 1.867 1.207 40.574.219 5.829.113 2.636-.332-.77-16.27-52.335H150.84v2.199l3.41 1.98-.55 73.997-3.079 1.976v2.2h17.043v-2.2l-8.027-2.308-1.867-59.262-.333-6.926 21.88 70.695h6.046v-27.597l.88-50.688 2.75-1.867v-2.2zm26.938 82.351h18.91v-2.199l-3.52-2.637v-74.105h2.637l5.168 26.055h4.07v-29.465H192.95v29.465h4.07l5.168-26.055h2.637v74.105l-3.515 2.637zm44.527 0h17.48l-.109-2.199-2.75-2.637-14.512-77.734h-3.957l-14.515 78.063-3.188 2.308v2.2h14.953v-2.2l-6.375-2.308L235.391 227h10.336l2.968 16.602-2.75 2.308zm-9.895-24.629l3.848-24.847.328-2.528 4.95 27.375zm48.047-23.199c-3.738-5.386-9.015-13.523-9.015-21.66 0-4.617 1.648-9.453 5.714-9.453.77 0 1.543.219 2.09.547l7.477 25.73h3.52v-28.148c-.88-.988-5.829-2.2-10.446-2.2-12.312 0-18.473 4.727-18.473 17.262 0 11.657 5.387 18.801 10.555 26.168 5.938 8.465 11.656 18.145 11.656 27.817 0 5.281-1.648 8.797-6.816 8.797-.66 0-1.21-.11-1.762-.11l-8.133-26.496h-3.851v28.586c3.191 1.43 7.476 1.649 10.226 1.649 16.274 0 20.34-7.805 20.34-17.48 0-13.415-7.695-23.2-13.082-31.009m-7.699 43.98c-.547-.327-.988-.66-1.426-.988zm31.996 3.848h18.91v-2.199l-3.515-2.637v-74.105h2.636l5.168 26.055h4.07v-29.465H299.93v29.465h4.066l5.168-26.055h2.64v74.105l-3.519 2.637zm31.664 0h18.914v-2.09l-3.52-2.636v-72.785l3.52-2.641v-2.2H339.95v2.2l3.52 2.64v72.786l-3.52 2.637zm40.68-79.054l4.621 3.3 4.945 23.09h4.07v-26.828c-2.199-1.98-6.597-3.52-11.324-3.52-11.546 0-18.8 10.008-18.8 41.891 0 24.078 3.515 41.782 18.14 41.782 5.387 0 9.895-1.868 11.543-3.52v-24.625h-4.066l-5.278 24.625-5.168-3.738c-2.859-8.907-3.19-16.93-3.19-23.969v-13.305c0-22.425.66-32.433 4.507-35.183m46.238 80.78c8.88 0 14.426-8.753 26.637-28.855l.738.122c-1.23 5.18-3.082 9.25-4.562 15.418-.739 3.082-1.235 5.792-1.235 7.273 0 3.7 2.836 5.426 6.168 5.426 7.278 0 13.567-5.793 17.88-18.621l-3.454-1.602c-4.312 9.125-8.137 13.316-10.234 13.316-.985 0-1.848-.984-1.848-2.093 0-3.95 10.36-36.133 13.07-48.344h-9.25l-5.425 18.621c-.739 2.469-21.086 31.45-22.692 31.45-.367 0-4.066-1.852-4.066-3.454 0-2.836 10.726-36.629 10.726-42.672 0-2.218-1.601-5.18-7.152-5.18-8.633 0-15.66 5.43-19.36 18.626l3.454 1.23c3.945-8.754 7.765-12.95 10.726-12.95 1.48 0 2.465.864 2.465 1.481 0 .989-2.094 9.496-4.683 18.746-3.946 14.059-6.043 20.72-6.043 24.418 0 3.946 2.59 7.645 8.14 7.645m71.649-4.809c-7.649-2.59-11.965-4.808-17.391-11.714h-1.11c-2.59 2.093-3.081 4.93-3.081 6.66 0 6.906 8.632 9.988 16.77 9.988 12.577 0 20.843-7.152 20.843-15.785 0-6.043-4.195-11.469-8.387-15.664-4.687-4.684-11.223-10.36-11.223-16.403 0-3.945 3.825-6.289 7.77-7.52 6.29 1.849 10.977 7.891 13.688 11.84h1.109c2.84-2.59 4.195-4.566 4.195-7.03 0-5.055-5.922-9.372-15.418-9.372-11.715 0-19.851 7.028-19.851 15.043 0 7.032 6.164 13.075 10.48 17.266 5.18 5.055 9.496 8.879 9.496 15.047 0 5.18-4.808 6.535-7.89 7.644M130.875 93.75l6.66-1.848-3.332-21.336H74.395V75.5l9 2.71v66.966l-9 2.836v4.933h36.253v-4.933l-9.742-2.836V116.32h13.442l5.43 11.22h4.929V97.694h-4.93l-5.43 11.594h-13.44V77.72h23.183zm43.164-24.047h-10.113l-28.86 75.965-4.683 2.344v4.933h27.87v-4.933l-12.331-2.836 5.672-16.031h26.511l6.043 15.906-7.027 2.96v4.934h32.188v-4.933l-6.66-2.715zm-9.742 23.063l10.973 28.98h-21.086zM267.02 75.5l10.484 2.71 1.601 44.4.125 4.437-41.437-56.48h-25.281V75.5l8.758 2.957-.989 66.719-7.398 2.836v4.933h28.363v-4.933l-10.36-2.836-1.355-50.317-.37-6.78 47.48 64.866h10.851l.617-74.734 6.164-2.711v-4.934H267.02zm82.503 77.445v-4.933l-8.878-2.836V77.719h12.328l7.648 17.14 6.29-2.34-3.454-21.953h-63.512l-3.203 21.704 6.41 2.343 7.645-16.894h12.332v67.457l-8.879 2.836v4.933zm55.368-83.242h-10.11l-28.86 75.965-4.687 2.344v4.933h27.871v-4.933l-12.332-2.836 5.676-16.031h26.512l6.043 15.906-7.031 2.96v4.934h32.187v-4.933l-6.66-2.715zm-9.743 23.063l10.977 28.98h-21.09zm79.172 9.492c-7.523-3.945-14.425-8.137-14.425-15.535 0-5.305 3.449-8.88 10.234-8.88 6.656 0 13.933 3.329 17.758 6.41l4.07 11.716 6.781-.86-2.218-21.953c-5.18-2.219-13.442-3.945-21.954-3.945-17.265 0-29.597 7.152-29.597 22.566 0 13.196 9.62 19.61 21.46 25.899 13.688 7.273 19.977 9.37 19.852 17.511-.12 7.153-5.176 10.36-12.949 10.36-7.273 0-14.18-2.961-18.371-6.293l-4.441-13.809-6.782.985 1.23 23.8c5.552 2.47 17.266 3.946 24.173 3.946 21.953 0 32.062-8.262 32.062-22.567 0-16.894-14.55-22.812-26.883-29.351m82.75 50.687v-4.933l-8.879-2.836V77.719h12.332l7.645 17.14 6.289-2.34-3.453-21.953h-63.512L504.29 92.27l6.41 2.343 7.645-16.894h12.332v67.457l-8.88 2.836v4.933zm55.614 0v-4.933l-8.88-2.836V78.21l8.88-2.711v-4.934h-35.27V75.5l8.879 2.71v66.966l-8.879 2.836v4.933zm62.402-12.21c-3.207 2.343-8.758 4.812-15.168 4.812-.742 0-1.36 0-2.098-.125-7.398-3.082-11.715-6.906-16.648-13.195-2.465-5.918-3.578-13.32-3.578-21.332 0-21.707 8.015-33.051 20.472-33.051 6.907 0 12.086 3.453 15.664 5.918l5.176 10.851 6.907-2.465-2.711-18.253c-5.305-2.957-13.442-4.684-22.2-4.684-26.265 0-42.175 15.289-42.175 43.902 0 27.871 15.046 41.188 39.832 41.188 9.62 0 21.953-1.973 26.023-4.317l3.203-19.855-6.41-2.219zm47.355-35.618c-3.738-5.387-9.015-13.523-9.015-21.66 0-4.617 1.648-9.457 5.715-9.457.77 0 1.539.219 2.09.55l7.476 25.727h3.52V72.133c-.88-.988-5.829-2.2-10.446-2.2-12.316 0-18.472 4.727-18.472 17.262 0 11.657 5.386 18.801 10.554 26.168 5.938 8.465 11.657 18.14 11.657 27.817 0 5.277-1.649 8.797-6.817 8.797-.66 0-1.21-.11-1.762-.11l-8.136-26.5h-3.848v28.586c3.191 1.43 7.477 1.652 10.227 1.652 16.273 0 20.34-7.808 20.34-17.484 0-13.414-7.696-23.2-13.083-31.004m-7.699 43.98c-.547-.331-.988-.66-1.426-.992zm41.23 4.176c12.426 0 13.196-9.234 13.305-16.492l.77-62.12 2.2-1.868v-2.2h-12.423v2.2l4.067 1.867 1.32 62.23v3.079c0 5.719-2.309 8.578-5.059 8.578s-5.058-2.86-5.605-4.067c-.883-2.199-1.102-10.777-1.102-21.773V75.539l2.528-2.746v-2.2h-17.48v2.2l3.077 2.746v54.977c0 10.445 0 22.757 14.403 22.757m43.87-82.68v2.2l6.708 1.867 1.207 40.57.222 5.829.11 2.64-.332-.77-16.27-52.335h-15.172v2.199l3.407 1.977-.551 73.996-3.078 1.98v2.2h17.043v-2.2l-8.028-2.309-1.867-59.265-.332-6.926 21.88 70.7h6.05v-27.598l.879-50.688 2.746-1.867v-2.2zm0 0"/></svg>