<svg clip-rule="evenodd" fill-rule="evenodd" stroke-miterlimit="10" viewBox="0 0 1440 1280" xmlns="http://www.w3.org/2000/svg"><path d="m720 1229.76c325.72 0 589.77-264.04 589.77-589.76s-264.05-589.771-589.77-589.771-589.765 264.051-589.765 589.771 264.046 589.76 589.765 589.76" fill="#f2a6b0" fill-rule="nonzero"/><path d="m720 1186.08c301.59 0 546.08-244.487 546.08-546.08 0-301.584-244.49-546.073-546.08-546.073-301.588 0-546.079 244.49-546.079 546.073 0 301.593 244.491 546.08 546.079 546.08z" fill="none" stroke="#000" stroke-width="38.16"/><path d="m630.798 1097.097-7.458 1.438-.52 4.229 22.458 2.708 23.479-41.5 12.187 45.813 24.584 2.958.52-4.228-7.271-3.21 13.211-56.749 5.166-1.853.52-4.251-25.541-3.084-.52 4.251 9.895 3.666-9.104 48.646-13.98-54.978-5.084-.604-27.438 49.104 2.647-48.562 8.02-1.5.52-4.251-29.853-3.604-.52 4.251 7.124 3.333zm-65.987-11.423 8.271 2.853 45.041-53.977 4.5-.583 1.396-4.044-22.791-7.853-1.396 4.041 9.272 5.792-9.146 11.5-21.667-7.48-.48-14.706 6.584-.439 1.395-4.041-26.291-9.084-1.396 4.042 4.667 4.083zm14.48-16.104-.792-26.813 17.228 5.96zm-82.406-45.642-26.626 8.563-5.27.041-2.062 3.729 21.5 11.834 2.062-3.73-6.229-5.978 40.563-14.312-15.459 28.04-7.853-1.667-2.063 3.731 26.707 14.708 2.064-3.73-5.584-5.729 27.958-50.728 7.896 1.543 2.063-3.752-26.709-14.708-2.063 3.749 5.543 5.855-7.314 13.27-14.229 4.563 1.147-36.771-17.104-9.417-2.063 3.751 4.147 5.082zm-43.392-77.16 17.627 14.021-15.606 19.624-9.208-7.312 2.375-10.52-3.333-2.646-16.063 20.208 3.333 2.646 9.896-4.937 9.208 7.312-17.249 21.708-15.271-12.147 4.02-14.498-5.52-2.355-9.209 16.251 40.063 31.853 2.646-3.333-4.625-6.667 36.063-45.312 7.604 2.896 2.666-3.333-42.5-33.792-13.666 12.708 3.604 4.937zm-100.021-9.68 5.52 6.792 66.71-22.188 4.124 1.875 3.312-2.708-15.229-18.688-3.312 2.709 4.833 9.812-13.833 4.959-14.5-17.792 7.353-12.73 5.834 3.104 3.313-2.708-17.584-21.562-3.312 2.708 1.813 5.917zm20.792-6.063 13.437-23.208 11.5 14.126zm-48.224-100.964c-7.645-7.083-15.124-9.707-22.812-5.728-10.396 5.416-10.082 16.916-1.166 34.063 3.688 7.104 8.604 16.561 13.333 24.686l3.688-1.937-.98-6.916 51.876-26.981 4.875 4.793 3.686-1.917c-3.977-7.686-10.289-20.979-13.393-26.687-10.084-18.688-21.459-23.708-32.147-18.147-10.896 5.667-9.186 16.294-6.957 24.772zm-18 25.229c-2.165-4.186-2.541-11.312-1.79-12.916.186-.562 2.186-3.166 6.082-5.186 8.043-4.188 14.814-1.084 18.563 6.104l2.853 5.5-22.894 11.894zm54.459-21.457-23.541 12.249-3.751-7.208c-1.812-3.5-1.895-11.041-1.04-13.292.312-.77 1.333-3.229 6.083-5.686 8.896-4.627 14.353-1.23 18.937 7.604zm-93.398-54.562 2.646 8.333 70.186 3.876 3.168 3.271 4.063-1.292-7.312-23-4.063 1.292.875 10.916-14.687-.479-6.937-21.853 11.52-9.147 4.292 5.022 4.063-1.294-8.438-26.52-4.062 1.292-.48 6.187zm21.542 2 21.04-16.645 5.522 17.354zm20.342-101.808c2.396 2.437 5.23 6.875 6.022 12.375.104.626.186 1.146.166 1.813-1.688 6.729-4.458 10.896-9.208 15.916-4.75 2.833-10.938 4.708-17.813 5.708-18.563 2.709-29.292-2.687-30.833-13.353-.875-5.918 1.417-10.792 3.084-14.167l8.645-5.792-2.959-5.604-15.29 4.604c-1.876 4.917-2.314 12.084-1.21 19.584 3.272 22.479 18.334 34.208 42.814 30.624 23.853-3.499 33.373-18.061 30.27-39.271-1.208-8.208-4.438-18.52-6.958-21.708l-17.375-.27-1.104 5.749zm-34.342-62.242-19.729-19.833-2.418-4.667-4.27-.125-.771 24.52 4.271.125 2.48-8.249 31.186 29.604-31.978-1-2.084-7.771-4.271-.125-.979 30.48 4.271.124 2.584-7.583 57.875 1.833 2.208 7.75 4.27.125.98-30.48-4.272-.124-2.706 7.604-15.127-.48-10.541-10.604 33.252-15.707.624-19.501-4.271-.124-2.667 6zm-11.533-84.217 3.104-7 22.417 3.98 17.459 3.457c11.706 2.376 17.27 9.667 15.394 18.543l-.29 1.353c-3.396 5.147-6.23 8.251-10.959 10.98-3.041.437-6.688.208-10.959-.688l-38.208-8.063-.666-8.208-4.167-.896-6.104 28.918 4.167.894 3.645-5.894 40.917 8.645c5.104 1.063 23.52 4.771 29.042-21.437 3.813-18.063-4.147-28.376-18.959-31.5l-18.896-3.98-21.896-5.271-.208-6.708-3.853-.833-4.834 22.874zm15.329-63.863c-3.646 9.459-6.708 17.314-9.667 26.23l3.979 1.542 4.542-5.313 54.02 20.896-.082 7.063 3.978 1.541 10.752-27.749-3.98-1.543-5.104 6.376-21.374-8.271 3.146-8.166c6.059-15.607 3.102-28.419-10.128-33.544-13.021-5.042-23.333 3.542-30.084 20.937zm30.604 18.271-26.187-10.124 2.624-6.771c1.271-3.293 6.604-7.854 8.271-8.376.521-.145 3.313-1.104 9.062 1.147 13.543 5.229 9.688 15.167 8.459 18.353zm33.012-42.998c2.27-4.355.498-9.73-3.96-12.042-4.354-2.27-9.75-.625-12.02 3.73-2.312 4.457-.584 9.896 3.77 12.166a9.023 9.023 0 0 0 12.21-3.854zm21.021-105.646 2.437-7.229-3.437-2.541-13.439 18.208 24.521 40.916-45.874-12.02-14.71 19.914 3.438 2.543 6.374-4.709 42.834 39.48-.918 5.394 3.442 2.546 15.27-20.688-3.437-2.542-8.063 6.792-37.813-31.917 54.709 14.979 3.04-4.124-29.186-48.104 40.917 26.27-2.625 7.708 3.437 2.542 17.853-24.187-3.436-2.543-6.417 4.543zm41.7-51.588-6.52 5.855 25.333 65.541-1.666 4.229 2.853 3.187 17.939-16.124-2.855-3.187-9.563 5.312-5.625-13.584 17.063-15.333 13.084 6.751-2.814 5.958 2.854 3.187 20.709-18.604-2.853-3.187-5.835 2.124zm7.021 20.48 23.854 12.311-13.562 12.186zm80.379-49.92 5.688-27.416 2.541-4.563-2.229-3.645-20.896 12.873 2.229 3.646 8.271-2.48-7.52 42.333-16.772-27.249 5.313-6.02-2.229-3.647-25.98 16 2.229 3.647 7.771-2.043 30.377 49.315-5.272 6.104 2.25 3.645 25.98-16-2.251-3.645-7.813 1.958-7.958-12.896 3.042-14.625 31.417 19.084 16.624-10.229-2.249-3.647-6.459 1.104zm88.33-.129-20.898 8.376-9.333-23.25 10.895-4.374 7.98 7.249 3.958-1.583-9.626-23.937-3.958 1.583-.625 11.041-10.895 4.376-10.313-25.729 18.104-7.271 10.604 10.667 4.771-3.627-9.562-16.04-47.5 19.061 1.583 3.96 8.084-.73 21.584 53.75-6.291 5.186 1.583 3.961 50.375-20.231-4.292-18.146-6.063.689zm56.564-82.51-8.604 1.606-12.584 69.145-3.602 2.708.77 4.208 23.707-4.373-.769-4.21-10.938-.48 2.291-14.498 22.563-4.167 7.625 12.541-5.5 3.626.771 4.208 27.374-5.063-.77-4.208-6.083-1.251zm-4.666 21.147 13.917 22.937-17.937 3.312zm112.187 7.246c9.916-3.208 15.853-8.459 16.124-17.104.376-11.71-9.812-17.063-29.124-17.667-8-.251-18.647-.584-28.043-.459l-.122 4.167 6.52 2.541-1.835 58.419-6.583 1.915-.125 4.166c8.645.292 23.313 1.292 29.813 1.376 21.25.354 31.187-7.125 31.562-19.168.396-12.249-9.707-16-18.187-18.186zm-13.209-28.042c4.709.146 11.105 3.312 12.125 4.75.417.417 1.709 3.458 1.563 7.833-.292 9.063-6.312 13.459-14.416 13.208l-6.188-.187.833-25.792zm-7.938 58 .855-26.521 8.125.251c3.938.124 10.542 3.728 12.083 5.604.52.645 2.167 2.729 1.98 8.04-.313 10.042-5.96 13.168-15.896 12.834zm92.766-55.035-8.584-1.688-37.248 59.604-4.376 1.187-.834 4.19 23.667 4.687.833-4.187-10-4.501 7.502-12.624 22.5 4.459 2.454 14.497-6.457 1.333-.833 4.188 27.29 5.418.834-4.188-5.187-3.418zm-12.147 17.916 4.437 26.459-17.874-3.542zm79.292 67.543c-3.314.896-8.563 1.167-13.73-.853-.584-.23-1.104-.418-1.666-.751-5-4.792-7.294-9.251-9.294-15.853-.144-5.543 1.272-11.855 3.772-18.314 6.792-17.5 16.792-24.166 26.834-20.292 5.562 2.167 8.666 6.584 10.792 9.688l.79 10.354 6.314.166 3.541-15.541c-3.355-4.063-9.396-7.979-16.459-10.708-21.186-8.208-38.79-.853-47.729 22.229-8.707 22.48-.707 37.896 19.272 45.646 7.749 3 18.312 5.27 22.312 4.646l8.792-15-4.48-3.792zm70.996.26 26.96-7.583 5.249.147 2.187-3.647-21.04-12.625-2.188 3.647 6 6.208-41.043 12.833 16.438-27.437 7.792 1.937 2.186-3.645-26.142-15.688-2.188 3.645 5.353 5.96-29.771 49.665-7.833-1.834-2.187 3.668 26.147 15.688 2.187-3.667-5.314-6.063 7.792-13 14.375-4.041-2.459 36.685 16.73 10.043 2.186-3.667-3.937-5.229zm79.199 31.312 4.562 6.126-14.416 17.584-11.605 13.541c-7.771 9.041-16.855 10.313-23.667 4.333l-1.042-.916c-2.854-5.48-4.146-9.458-4.208-14.917 1.084-2.853 3.084-5.937 5.958-9.229l25.75-29.354 7.458 3.458 2.834-3.23-22.208-19.478-2.834 3.229 3.355 6.041-27.563 31.439c-3.458 3.939-15.666 18.167 4.458 35.833 13.876 12.167 26.77 10.271 36.75-1.104l12.73-14.52 15.292-16.544 5.98 3.126 2.604-2.979-17.584-15.417zm48.467 44.889c-6.396-7.853-11.73-14.373-18-21.373l-3.312 2.706 2.373 6.563-44.895 36.607-6.084-3.564-3.31 2.708 18.813 23.062 3.312-2.708-3.041-7.584 17.769-14.48 5.541 6.774c10.584 12.978 23.167 16.749 34.167 7.792 10.813-8.836 8.459-22.023-3.333-36.503zm-31 17.544 21.75-17.731 4.604 5.626c2.23 2.729 3.563 9.625 3.167 11.333-.147.52-.667 3.416-5.48 7.333-11.229 9.147-17.957.875-20.124-1.77zm21.318 49.729c2.688 4.124 8.229 5.208 12.438 2.48 4.126-2.666 5.355-8.168 2.667-12.293-2.729-4.208-8.312-5.395-12.437-2.728a9.054 9.054 0 0 0 -2.667 12.541zm81.964 69.314 5.147 5.624 3.895-1.791-9.459-20.543-47.667 1.73 32.667-34.396-10.333-22.479-3.896 1.792 1.062 7.833-55.29 18.458-4.272-3.416-3.875 1.792 10.729 23.353 3.875-1.791-2.04-10.333 46.205-17.688-39.498 40.688 2.125 4.645 56.208-2.333-42.771 23.147-5.48-6.043-3.873 1.792 12.563 27.312 3.874-1.791-.896-7.792zm24.645 62.112-1.916-8.541-69.563-9.979-2.876-3.52-4.165.936 5.291 23.52 4.166-.937.063-10.938 14.584 1.75 5.02 22.376-12.271 8.104-3.833-5.376-4.167.938 6.084 27.167 4.167-.937 1.02-6.106zm-21.311-3.893-22.377 14.769-3.979-17.771zm4.188 94.362 21.187 18.292 2.771 4.48 4.27-.189-1.082-24.52-4.271.187-1.853 8.396-33.355-27.124 31.979-1.418 2.666 7.563 4.271-.187-1.355-30.458-4.27.186-2 7.771-57.854 2.563-2.792-7.563-4.27.188 1.354 30.459 4.271-.187 2.124-7.772 15.125-.688 11.292 9.751-31.958 18.208.874 19.5 4.272-.187 2.187-6.188zm-42.911 77.249 2.711-22.355 24.873 3-1.416 11.645-10.188 3.5-.52 4.23 25.624 3.084.52-4.23-9.395-5.853 1.416-11.647 27.522 3.311-2.355 19.376-14.457 4.187.896 5.917 18.666-.667 6.124-50.833-4.229-.521-3.229 7.458-57.499-6.936-1.523-8.021-4.25-.52-6.5 53.916 18 4.959 2.293-5.647zm44.194 90.063 2.853-8.271-53.977-45.041-.583-4.5-4.044-1.396-7.853 22.791 4.041 1.396 5.792-9.272 11.5 9.148-7.48 21.666-14.706.48-.439-6.584-4.041-1.396-9.084 26.291 4.042 1.396 4.083-4.667zm-16.104-14.48-26.813.792 5.96-17.228zm-61.313 94.34c-2.146 10.187-.542 17.959 6.812 22.5 10 6.147 19.687-.021 29.814-16.48 4.208-6.812 9.79-15.894 14.333-24.124l-3.543-2.166-5.458 4.396-49.771-30.667 1.604-6.627-3.541-2.186c-4.542 7.354-12.708 19.584-16.022 25.209-10.853 18.208-9.333 30.583.918 36.895 10.458 6.437 18.729-.479 24.853-6.75zm30.895 2.48c-2.457 4.02-8.416 7.979-10.145 8.166-.604.166-3.875-.25-7.584-2.542-7.728-4.75-8.542-12.166-4.291-19.062l3.249-5.271 21.98 13.541zm-46.372-35.71 22.6 13.918-4.269 6.916c-2.063 3.355-8.5 7.312-10.854 7.688-.833.146-3.458.52-8-2.27-8.542-5.272-8.458-11.71-3.229-20.168zm2.475 107.741 5.688-6.645-33.71-61.709 1.124-4.395-3.248-2.773-15.688 18.333 3.251 2.772 8.792-6.5 7.353 12.728-14.916 17.417-13.854-4.957 2.021-6.292-3.251-2.771-18.104 21.147 3.251 2.771 5.52-2.854zm-9.646-19.374-25.25-9.104 11.854-13.835zm-97.539 36.15c.833-3.314 3.125-8.043 7.396-11.606.48-.396.896-.749 1.459-1.104 6.624-2.041 11.604-1.874 18.353-.457 4.937 2.583 9.771 6.853 14.209 12.187 12.04 14.396 13.02 26.374 4.75 33.292-4.584 3.833-9.938 4.416-13.688 4.749l-9.438-4.312-3.229 5.437 11.917 10.626c5.167-.979 11.5-4.334 17.334-9.208 17.416-14.543 19.541-33.522 3.666-52.522-15.437-18.5-32.833-19-49.292-5.25-6.374 5.333-13.458 13.48-14.874 17.293l8.874 14.957 5.5-2.104zm-35.161 61.955-6.667 27.187-2.709 4.5 2.105 3.708 21.334-12.104-2.106-3.707-8.353 2.165 9.063-42.041 15.77 27.833-5.52 5.834 2.103 3.708 26.521-15.042-2.104-3.708-7.833 1.73-28.563-50.378 5.459-5.914-2.104-3.708-26.521 15.04 2.104 3.709 7.896-1.645 7.48 13.166-3.564 14.5-30.728-20.209-16.98 9.627 2.104 3.706 6.5-.853zm-65.48 53.77-7.584 1-8.375-21.104-6.229-16.71c-4.125-11.186-.833-19.749 7.688-22.812l1.312-.48c6.187.188 10.292.96 15.084 3.543 1.979 2.353 3.707 5.583 5.187 9.708l13.208 36.729-6.646 4.875 1.438 4.021 27.813-9.978-1.439-4.022-6.916-.021-14.146-39.353c-1.75-4.918-8.311-22.5-33.5-13.459-17.374 6.229-21.958 18.416-16.834 32.667l6.522 18.186 7.021 21.396-5.604 3.71 1.333 3.706 22-7.894zm-63.337 20.426c9.958-1.729 18.292-3.145 27.437-5.186l-.729-4.21-6.896-1.165-9.812-57.084 6.084-3.541-.731-4.208-29.313 5.04.729 4.209 8.084 1.104 3.875 22.584-8.624 1.479c-16.5 2.853-25.959 11.958-23.542 25.937 2.375 13.771 15.042 18.208 33.438 15.041zm-.084-35.604 4.75 27.647-7.166 1.229c-3.459.604-10.104-1.626-11.396-2.813-.375-.355-2.667-2.249-3.708-8.355-2.459-14.27 8.062-16.082 11.437-16.666zm-53.603-5.856c-4.896.334-8.563 4.647-8.208 9.647.333 4.916 4.561 8.667 9.457 8.333 5.021-.354 8.751-4.646 8.417-9.562-.354-5-4.646-8.771-9.666-8.418zm-5.567-287.179c0 14.937 4.959 29.146 33.396 29.146 66.104 0 234.542-75.333 234.542-252.313 0-125.083-83.854-215.355-239.52-215.355-197.584 0-351.106 146.418-351.106 352.522 0 162.062 95.23 253.041 265.814 253.041 68.958 0 105.186-14.937 131.5-23.457l-3.563-27.022c-14.208 2.147-42.645 13.52-99.5 13.52-35.541 0-69.645-4.27-100.208-14.937-48.333-24.875-74.647-47.624-104.48-78.895-21.333-34.104-34.124-78.876-34.124-136.458 0-208.251 164.187-309.167 305.624-309.167 17.772 0 34.833 1.416 49.751 4.959 49.041 18.478 74.625 41.228 105.186 79.604 13.5 27.729 20.606 63.27 20.606 105.208 0 164.896-108.022 206.104-149.96 206.104h-2.832c-4.271-2.834-9.959-7.814-13.52-12.792 2.853-32.687 69.666-232.416 78.894-273.624l-50.458-6.418-12.083 42.646c-27-24.875-47.625-34.812-74.625-34.812-93.814 0-167.02 125.792-167.02 233.125 0 50.459 15.624 94.52 56.853 94.52 42.645 0 78.896-48.333 147.833-157.061h4.271c-7.104 24.874-20.625 69.645-24.875 85.29-2.853 11.355-6.396 30.563-6.396 42.627zm-89.562-13.5c-6.396-.708-21.334-9.938-25.583-16.334-4.271-6.396-7.104-21.333-7.104-38.396 0-70.353 46.896-199.708 108.729-199.708 30.562 0 61.124 31.979 67.52 39.084l-12.082 41.938c-2.834 9.957-110.876 147.124-131.48 173.416z" fill-rule="nonzero"/></svg>