<svg viewBox="0 0 1920 1080" xmlns="http://www.w3.org/2000/svg" fill-rule="evenodd" clip-rule="evenodd" stroke-linejoin="round" stroke-miterlimit="2"><path d="M-123.561-84.834h2124.6v1287.84h-2124.6z"/><path d="M295.114 808.932c0-85.832 31.472-211.719 64.851-211.719 35.287 0 41.009 140.192 71.527 265.126-10.49 24.796-22.889 43.87-36.24 57.221-12.398 12.398-24.796 18.12-38.148 18.12-39.101 0-61.99-57.221-61.99-128.748zM39.526 596.26c0 215.534 116.35 356.68 294.69 356.68 43.87 0 82.017-10.49 116.35-28.61 13.351 37.193 29.564 68.665 52.453 91.554 20.027 20.027 45.777 32.425 77.249 32.425 109.674 0 162.127-142.1 162.127-333.791h-1.908c-20.98 142.1-81.063 164.035-118.257 164.035-22.889 0-50.546-8.584-73.434-28.611l20.027-20.028c88.693-88.693 171.664-221.256 171.664-395.78 0-197.415-107.767-337.607-283.245-337.607-253.682 0-417.716 227.932-417.716 499.733zm245.098 102.999c0-314.718 98.23-582.705 160.22-582.705 32.425 0 59.128 88.694 59.128 295.644 0 96.323-8.583 191.692-22.888 273.71-15.26-75.342-28.61-145.915-80.11-145.915-44.824 0-98.23 28.61-115.397 217.44-.953-20.027-.953-39.1-.953-58.174zm809.686-432.023l-281.34 49.592 42.916 49.592-57.221 327.116c-34.333 185.97 10.49 259.403 83.925 259.403 46.73 0 98.23-26.703 143.053-71.526 45.777-45.778 86.786-111.582 111.582-189.785l-44.824 261.311 281.339-49.592-42.916-49.591 104.906-587.473-252.728 43.87V449.39c-48.638 247.96-89.647 335.699-123.98 335.699-37.194 0-40.055-101.091-18.12-221.256l53.407-296.598zm338.542 685.704l281.339-49.593-42.916-49.591 102.998-587.473-281.338 49.592 42.916 49.591-102.999 587.473zm257.496-700.963c90.601 0 154.498-42.916 154.498-103.952-.953-53.406-50.545-96.322-129.702-96.322-94.415 0-149.729 50.545-150.683 104.905-.953 50.546 45.778 95.37 125.887 95.37zm96.315 446.327c.954 166.896 105.86 254.635 216.488 254.635 142.1 0 245.098-141.146 283.246-248.913h-9.537c-35.287 30.518-81.064 48.638-127.795 48.638-97.276 0-148.775-99.183-148.775-231.746 0-112.535 35.286-200.275 61.99-200.275 47.684 0 86.785 185.97 86.785 422.485h9.537l212.673-470.17c-27.657-3.814-74.388-6.675-115.396-6.675-303.274 0-469.216 221.256-469.216 432.021z" fill="#fff" fill-rule="nonzero"/></svg>