<svg clip-rule="evenodd" fill-rule="evenodd" stroke-linejoin="round" stroke-miterlimit="2" viewBox="0 0 1920 1080" xmlns="http://www.w3.org/2000/svg"><g fill-rule="nonzero"><path d="m439.157 201.616c0-12.695-4.738-18.059-12.515-18.059-8.94 0-16.182 10.013-23.244 25.568l7.777-23.78h-22.17l10.28 34.955h.894c4.023-12.426 7.778-17.7 11.89-17.7 3.487 0 6.437 3.128 6.437 8.94v1.787c-15.645 5.632-20.83 8.583-24.317 12.07-3.129 3.128-4.917 6.794-4.917 10.995 0 6.705 5.007 11.533 12.07 11.533 6.704 0 12.337-5.185 17.164-13.41l-1.251 13.41 25.925-2.682c-3.04-2.414-4.023-4.202-4.023-9.476zm-20.65 19.847v11.89c-1.52.447-2.057.715-3.22.715-4.201 0-6.257-3.04-6.257-9.298 0-3.576.715-5.81 2.056-7.152.536-.536 1.162-.804 1.967-.804 1.43 0 3.129 1.698 5.453 4.649zm30.931 19.757-4.023 4.917h28.787c-3.04-2.414-4.023-4.202-4.023-9.476v-53.64l1.073-19.132-25.837 2.682c2.95 2.414 4.023 4.649 4.023 10.192zm93.959-39.604c0-12.695-4.738-18.059-12.515-18.059-8.94 0-16.182 10.013-23.244 25.568l7.777-23.78h-22.17l10.28 34.955h.894c4.023-12.426 7.778-17.7 11.89-17.7 3.487 0 6.437 3.128 6.437 8.94v1.787c-15.645 5.632-20.83 8.583-24.317 12.07-3.129 3.128-4.917 6.794-4.917 10.995 0 6.705 5.007 11.533 12.07 11.533 6.704 0 12.337-5.185 17.164-13.41l-1.251 13.41 25.925-2.682c-3.04-2.414-4.023-4.202-4.023-9.476zm-20.65 19.847v11.89c-1.52.447-2.057.715-3.22.715-4.201 0-6.257-3.04-6.257-9.298 0-3.576.715-5.81 2.056-7.152.536-.536 1.162-.804 1.967-.804 1.43 0 3.129 1.698 5.453 4.649zm49.348-48.097c5.9 0 13.678 5.99 19.936 5.99 9.03 0 9.744-10.013 8.94-18.596h-.894c0 3.844-2.682 6.884-6.973 6.884-5.811 0-13.5-5.99-19.936-5.99-9.03 0-9.745 10.013-8.94 18.595h.894c0-3.844 2.682-6.883 6.973-6.883zm-18.238 67.854-4.023 4.917h28.787c-3.04-3.308-4.023-5.096-4.023-9.476v-34.866c1.52-.805 3.129-1.252 4.38-1.252 5.364 0 6.884 6.08 6.884 14.84v25.837l-3.129 4.917h27.893c-3.04-3.308-4.023-5.096-4.023-9.476v-35.045c0-12.695-4.917-18.059-12.516-18.059-8.225 0-15.02 8.225-19.49 16.986l.895-16.986-25.658 3.576c2.95 1.878 4.023 4.113 4.023 9.924zm60.077-23.691c0 18.953 11.98 30.396 26.73 30.396 15.824 0 30.128-13.589 30.128-34.866 0-18.684-13.052-29.502-26.999-29.502-15.734 0-29.86 13.053-29.86 33.972zm20.651-16.092c0-10.728 1.52-15.824 3.665-15.824 4.739 0 11.801 23.512 11.801 44.432 0 8.493-1.43 15.824-3.755 15.824-4.648 0-11.71-23.512-11.71-44.432zm63.118 22.439 9.298-19.757h25.479c-13.768 16.36-27.535 32.81-41.303 49.17h30.664l17.165-67.944h-50.421l8.224 38.531zm43.981-6.347c0 18.953 11.98 30.396 26.73 30.396 15.825 0 30.129-13.589 30.129-34.866 0-18.684-13.053-29.502-27-29.502-15.733 0-29.859 13.053-29.859 33.972zm20.652-16.092c0-10.728 1.52-15.824 3.665-15.824 4.738 0 11.8 23.512 11.8 44.432 0 8.493-1.43 15.824-3.754 15.824-4.649 0-11.711-23.512-11.711-44.432zm39.783 16.092c0 18.953 11.98 30.396 26.73 30.396 15.824 0 30.128-13.589 30.128-34.866 0-18.684-13.053-29.502-26.999-29.502-15.734 0-29.86 13.053-29.86 33.972zm20.65-16.092c0-10.728 1.52-15.824 3.666-15.824 4.738 0 11.801 23.512 11.801 44.432 0 8.493-1.43 15.824-3.755 15.824-4.649 0-11.711-23.512-11.711-44.432zm89.49 18.863 7.688 20.473-2.145 5.364h28.697l-26.82-71.52 4.023-5.364h-30.575c4.828 8.85 4.739 18.595.984 28.519l-18.506 48.365h25.658c-1.699-5.9-2.861-12.516-3.666-19.221zm-13.142-35.312 12.695 34.06h-14.84c-.894-13.946 0-27.177 2.145-34.06zm62.852 62.847c7.51 0 12.963-5.632 12.963-13.052 0-7.599-5.454-13.142-12.963-13.142-7.51 0-12.963 5.543-12.963 13.142 0 7.42 5.453 13.052 12.963 13.052zm12.337-37.726c0 23.601 13.41 37.816 29.68 37.816 17.612 0 30.575-16.181 30.575-45.862h-.894c0 12.695-7.688 25.3-17.433 25.3-11.622 0-18.863-18.416-18.863-39.157 0-10.55 1.43-17.165 4.023-17.165 3.04 0 10.191 9.745 16.181 38.174h.894l16.986-38.71c-6.973-2.414-17.79-3.04-21.992-3.04-22.618 0-39.157 21.456-39.157 42.644zm75.989 37.726c7.51 0 12.963-5.632 12.963-13.052 0-7.599-5.453-13.142-12.963-13.142s-12.962 5.543-12.962 13.142c0 7.42 5.453 13.052 12.962 13.052zm34.33-29.501c0 17.343 11.175 29.59 25.658 29.59 14.482 0 23.422-11.263 26.462-25.657l-.715-.179c-4.56 5.633-9.208 8.672-15.288 8.672-7.777 0-13.32-5.274-15.913-16.002l31.38 6.436c.715-4.29.983-6.973.983-10.37 0-16.092-9.387-27.446-23.333-27.446-15.824 0-29.234 15.198-29.234 34.956zm18.774-18.506c0-10.192 1.698-13.946 4.202-13.946 2.95 0 7.33 11.353 7.867 23.959l-10.818 3.844c-.804-3.934-1.251-8.493-1.251-13.857zm41.571 41.392-4.023 4.917h28.786c-3.04-3.308-4.023-5.096-4.023-9.476v-34.866c1.52-.805 3.13-1.252 4.381-1.252 5.364 0 6.884 6.08 6.884 14.84v25.837l-3.13 4.917h27.893c-3.04-3.308-4.023-5.096-4.023-9.476v-35.045c0-12.695-4.917-18.059-12.515-18.059-8.225 0-15.02 8.225-19.49 16.986l.894-16.986-25.657 3.576c2.95 1.878 4.023 4.113 4.023 9.924zm80.28-.447-4.47 5.364h58.736l-7.778-37.637h-.894c-6.794 24.674-12.694 36.296-21.098 36.296h-1.252v-37.1l10.639 19.22h.894v-39.425h-.894l-10.639 19.22v-35.938h1.252c8.404 0 14.304 12.158 21.098 36.833h.894l7.778-38.353h-59.004c3.576 2.146 5.007 4.113 4.739 9.924v61.596zm59.183-31.29c0 7.063 2.95 13.231 7.867 17.344l-8.403 28.25h50.957l1.788-18.327h-39.067l-4.649-9.387c4.202 3.308 9.745 5.185 16.003 5.185 17.254 0 27.266-14.214 27.266-27.803 0-2.682-.447-5.007-1.34-8.135l6.257-5.9c-8.224-4.65-19.22-7.153-28.34-7.153-16.717 0-28.339 11.712-28.339 25.926zm19.221-7.957c0-9.744 1.877-16.36 4.56-16.36 4.38 0 9.208 15.645 9.208 29.234 0 9.655-1.878 16.539-4.56 16.539-4.56 0-9.208-16.003-9.208-29.413zm51.941-19.31c7.867 0 12.963-3.933 12.963-9.208s-5.274-9.566-13.41-9.566c-8.046 0-12.605 4.291-12.605 9.566s4.738 9.208 13.052 9.208zm-9.834 59.004-4.023 4.917h28.787c-3.04-2.414-4.023-4.202-4.023-9.476v-33.972l.894-19.132-25.658 2.682c2.95 2.414 4.023 4.649 4.023 10.192zm31.823 8.94-4.023 4.917h28.787c-3.04-3.308-4.023-5.096-4.023-9.476v-1.788c9.387-.626 16.717-3.576 22.26-9.12 6.616-6.615 11.086-16.002 11.086-27.087 0-16.092-7.778-24.049-16.092-24.049-8.761 0-15.288 7.6-17.254 15.556l.625-15.556-25.39 3.576c2.951 1.878 4.024 4.113 4.024 9.924zm29.77-9.298c-2.593 0-6.169-5.095-9.03-13.23v-27.447c.716-.536 1.342-.715 1.878-.715 7.33 0 11.89 13.32 11.89 25.926 0 11.354-2.592 15.466-4.738 15.466zm52.209-49.616 13.768-5.007v-.894h-13.768l-1.34-17.97-19.31 17.97h-4.113c2.95 3.308 4.023 5.364 4.023 13.41v31.022c0 12.695 5.095 18.148 12.873 18.148 8.225 0 16.27-9.387 21.188-20.562-1.877.715-3.487.983-4.917.983-6.347 0-8.404-5.095-8.404-13.767zm14.755 26.283c0 18.953 11.98 30.396 26.73 30.396 15.824 0 30.128-13.589 30.128-34.866 0-18.684-13.052-29.502-26.999-29.502-15.734 0-29.86 13.053-29.86 33.972zm20.651-16.092c0-10.728 1.52-15.824 3.666-15.824 4.738 0 11.8 23.512 11.8 44.432 0 8.493-1.43 15.824-3.754 15.824-4.65 0-11.712-23.512-11.712-44.432zm-1392.167 202.428-6.187 59.583c5.729 2.98 18.104 8.48 33.916 8.48 24.292 0 39.188-14.896 39.417-38.5 0-14.209-7.563-26.125-17.417-35.98-8.02-8.02-20.396-17.874-27.729-25.208-9.167-9.166-16.042-17.875-16.042-30.479 0-16.958 12.375-26.812 23.605-26.812 14.437 0 25.208 13.52 27.5 64.625h.458l8.02-59.813c-4.354-2.291-16.27-8.25-30.708-8.25-23.833 0-38.041 16.271-38.041 38.5 0 13.292 6.646 23.146 15.583 32.083 8.02 8.021 22.688 19.25 29.562 26.125 9.167 9.167 16.042 19.709 16.042 33.459 0 16.958-11.687 26.812-24.75 26.812-17.875 0-32.77-13.52-32.77-64.625zm92.354 60.271-13.75 5.5h38.5c-10.312-3.208-13.75-5.958-13.75-18.104v-159.27l.459-31.167-25.209 6.187c12.834 3.208 13.75 6.188 13.75 13.98zm59.584-5.958 4.354 11.458h16.729l-45.833-69.208c-5.959-9.167-12.375-16.271-16.042-19.938 20.167-22.229 38.73-44.458 56.833-66.687h-16.5c-5.041 11.458-11.458 24.062-16.5 31.625-12.604 19.02-21.541 29.104-30.937 39.875zm97.624-115.729c0-23.834-11.458-30.938-21.312-30.938-15.354 0-29.104 21.084-35.75 57.063l5.27-54.771h-13.75l5.73 85.479h.458c5.5-61.646 23.146-77.917 32.084-77.917 9.625 0 16.27 8.25 16.27 23.834v33.229c-20.854 4.583-35.062 11.687-44.458 21.083-10.312 10.313-14.437 23.375-14.437 37.813 0 22.458 11 34.604 23.145 34.604 17.875 0 31.625-23.604 35.75-36.438l-.229 36.438 24.98-6.188c-12.834-3.208-13.75-6.187-13.75-13.979v-109.312zm-10.77 47.208-.23 42.396c-4.354 11-17.187 30.708-30.708 30.708-7.104 0-19.02-7.563-19.02-32.77 0-12.605 3.208-24.75 10.312-31.855 5.27-5.27 15.354-10.083 25.896-10.083 3.437 0 8.25.458 13.75 1.604zm42.854 74.479-13.75 5.5h38.5c-10.313-3.208-13.75-5.958-13.75-18.104v-50.646c0-58.437 12.604-77.916 20.854-77.916 6.645 0 13.52 12.833 15.125 54.312h.458l5.27-58.667c-5.04-5.5-10.77-7.104-14.437-7.104-13.062 0-24.75 21.313-27.729 54.771l.917-54.77-25.208 6.187c12.833 3.208 13.75 6.187 13.75 13.979zm71.958 22.917-13.75 5.5h38.5c-10.313-3.209-13.98-5.959-13.98-18.105v-11.687c4.813 4.354 10.313 6.875 17.188 6.875 8.25 0 16.5-3.896 23.604-11 14.667-14.667 25.438-42.854 25.438-81.583 0-44.688-18.105-65.542-34.834-65.542-14.896 0-26.583 16.271-31.166 31.396l.458-31.396-25.208 6.188c12.833 3.208 13.75 6.187 13.75 13.979zm35.291-26.584c-8.02 0-18.333-3.896-24.291-11.458v-101.52c5.958-14.896 15.583-26.813 24.979-26.813 16.041 0 31.854 32.312 31.854 76.77 0 51.563-18.563 63.021-32.542 63.021zm59.584-62.104c0 48.354 15.583 73.563 35.292 73.563 4.583 0 7.104-1.146 9.395-2.292-3.437 2.52-11 8.937-11 17.875 0 7.104 5.042 11.917 12.605 11.917 13.75 0 21.77-16.5 24.062-25.209h-.458c-3.896 9.167-11 16.271-19.709 16.271-5.5 0-9.395-4.125-9.395-7.792 0-5.5 2.52-9.625 7.562-14.666 15.125-15.125 21.313-35.75 21.313-73.792h-.459c-4.583 58.208-19.25 66.917-28.416 66.917-16.73 0-29.563-28.188-31.396-74.02l63.479 2.75c.458-3.668.687-6.647.687-10.313 0-46.292-13.75-68.063-31.166-68.063-22 0-42.396 33.23-42.396 86.854zm9.167-22.916c0-41.48 13.75-54.771 24.979-54.771 17.646 0 27.958 24.979 28.646 60.27l-53.396 3.209c-.23-2.75-.23-5.73-.23-8.708zm142.309-114.354-24.98 6.187c12.834 3.208 13.75 6.188 13.75 13.98v182.416c10.084 5.729 19.25 8.25 27.042 8.25 25.667 0 49.958-36.209 49.958-95.792 0-44.687-18.104-64.625-34.833-64.625-14.896 0-26.812 15.813-31.396 29.792zm-.23 192.958v-107.48c5.959-14.895 15.584-25.895 24.98-25.895 16.041 0 31.854 31.396 31.854 75.854 0 53.396-18.563 66.229-32.542 66.229-8.708 0-16.73-3.896-24.292-8.708zm85.48-16.729c0 22.458 11 34.604 23.146 34.604 17.875 0 31.625-23.604 35.75-36.438l-.23 36.438 11.23-2.75c-14.209 4.812-23.834 9.625-23.834 19.02 0 6.646 5.042 11.23 12.605 11.23 13.75 0 21.77-16.5 24.062-25.209h-.458c-3.896 9.167-11 16.271-19.709 16.271-5.5 0-9.395-2.75-9.395-5.958 0-3.667 5.27-9.854 30.479-18.792-12.834-3.208-13.75-6.187-13.75-13.979v-109.312c0-23.834-11.459-30.938-21.313-30.938-15.354 0-29.104 21.084-35.75 57.063l5.271-54.771h-13.75l5.73 85.479h.458c5.5-61.646 23.145-77.917 32.083-77.917 9.625 0 16.27 8.25 16.27 23.834v33.229c-20.853 4.583-35.062 11.687-44.457 21.083-10.313 10.313-14.438 23.375-14.438 37.813zm58.896-47.667v42.396c-4.354 11-17.188 30.708-30.709 30.708-7.104 0-19.02-7.563-19.02-32.77 0-12.605 2.979-24.522 10.312-31.855 5.271-5.27 15.354-10.083 25.896-10.083 3.437 0 8.02.458 13.52 1.604zm113.895-97.396.459-31.166-25.209 6.187c12.834 3.208 13.98 6.188 13.98 13.98v37.353c-6.417-5.27-11.23-7.104-16.73-7.104-8.02 0-16.041 3.896-23.145 11-14.896 14.896-26.355 44.458-26.355 84.792 0 44.687 18.105 64.625 34.834 64.625 14.895 0 26.583-15.355 31.166-30.48l-.229 30.48 24.98-6.188c-12.834-3.208-13.75-6.187-13.75-13.979v-159.5zm-35.291 28.417c8.25 0 16.729 4.354 24.291 10.542v105.645c-5.958 14.896-15.583 25.896-24.979 25.896-16.041 0-31.854-31.396-31.854-75.854 0-53.396 18.563-66.23 32.542-66.23zm114.126-59.583h-.459l-27.041 42.166h.458l38.5-29.333zm-55.917 52.708 5.5 68.75h.458c2.292-55.917 3.209-62.104 33.23-64.625l22.458-1.833-61.646 153.541h74.708l-5.5-68.75h-.458c-2.292 56.146-5.5 62.792-33.917 64.854l-21.77 1.604 61.645-153.541zm129.02 109.083c0 32.312 12.375 49.042 27.73 49.042 33 0 60.729-48.354 60.729-111.375 0-32.313-12.375-49.042-27.73-49.042-33 0-60.729 48.354-60.729 111.375zm12.605-3.208c0-54.771 21.77-105.875 43.541-105.875 13.063 0 19.709 18.562 19.709 49.958 0 54.77-21.771 105.875-43.542 105.875-13.063 0-19.708-18.563-19.708-49.958zm120.544-97.625 21.77-7.792v-.458h-20.166c3.667-21.083 13.98-38.27 33.458-52.708h-1.833c-25.896 14.437-35.98 31.854-43.083 52.708h-5.042v.458c2.52 2.063 3.896 6.188 1.833 17.646l-28.645 162.937 11.687-2.062 30.02-170.73zm89.142 77c11.687 11.687 17.875 20.166 17.875 35.52 0 22.459-16.271 33.917-30.708 33.917-16.73 0-24.292-11.229-24.292-49.958h-.458l-8.938 48.812c7.563 2.521 13.98 4.584 28.188 4.584 29.791 0 46.979-21.084 46.979-44 0-13.292-5.5-24.75-17.646-36.896l-9.167-9.167c-8.479-8.479-18.104-16.729-18.104-34.375 0-22.458 13.52-32.541 27.958-32.541 16.73 0 22.917 11.229 22.917 49.958h.458l8.938-48.812c-7.563-2.521-12.604-4.584-26.813-4.584-29.791 0-44.229 20.396-44.229 42.167 0 17.416 7.104 25.437 18.334 36.666zm84.795-85.25 4.125-39.646-19.479 40.563c2.521 8.937 2.98 14.437-1.146 38.041l-12.833 72.646c-6.187 35.062 1.833 46.52 11.458 46.52 10.771 0 21.542-14.437 29.104-57.062h-.458c-9.167 37.125-17.187 46.75-23.833 46.75-5.73 0-9.854-8.479-5.271-34.604l18.104-104.041 28.188-8.709v-.458zm27.727 109.083c0 32.312 12.375 49.042 27.729 49.042 33 0 60.729-48.354 60.729-111.375 0-32.313-12.375-49.042-27.73-49.042-33 0-60.728 48.354-60.728 111.375zm12.604-3.208c0-54.771 21.77-105.875 43.542-105.875 13.062 0 19.708 18.562 19.708 49.958 0 54.77-21.771 105.875-43.542 105.875-13.062 0-19.708-18.563-19.708-49.958zm82.961 52.25 14.667-3.667v-15.813c20.166-95.104 51.333-131.77 64.624-131.77 8.25 0 10.771 14.896 6.875 37.583l-19.937 113.437 26.125-6.187-12.833-4.583 18.333-104.042c5.27-29.791-.688-45.375-14.208-45.375-5.271 0-10.542 2.292-15.813 7.563-13.52 13.52-32.77 44.229-46.291 93.729l17.875-101.292-26.125 6.188 12.833 4.583zm190.209-80.667h-.459c-12.833 57.75-31.625 69.896-42.166 69.896-13.98 0-22.688-21.771-22.688-54.313v-3.666c24.75-4.125 43.313-10.084 55.917-22.688 11.687-11.687 15.812-27.27 15.812-39.416 0-20.167-13.291-29.563-27.27-29.563-8.938 0-17.417 4.584-24.98 12.146-19.02 19.02-32.541 57.75-32.541 93.73 0 32.77 13.52 54.54 29.791 54.54 16.5 0 40.563-19.937 48.584-80.666zm-22.688-77.458c10.313 0 16.5 13.062 16.5 31.167 0 15.354-3.208 29.562-11.916 38.27-8.021 8.021-19.709 10.771-33 10.771-4.355 0-8.709-.23-13.521-.917 4.125-42.395 26.125-79.291 41.937-79.291zm76.768 85.25c11.688 11.687 17.875 20.166 17.875 35.52 0 22.459-16.27 33.917-30.708 33.917-16.73 0-24.292-11.229-24.292-49.958h-.458l-8.938 48.812c7.563 2.521 13.98 4.584 28.188 4.584 29.792 0 46.979-21.084 46.979-44 0-13.292-5.5-24.75-17.646-36.896l-9.166-9.167c-8.48-8.479-18.105-16.729-18.105-34.375 0-22.458 13.521-32.541 27.959-32.541 16.729 0 22.916 11.229 22.916 49.958h.459l8.937-48.812c-7.562-2.521-12.604-4.584-26.812-4.584-29.792 0-44.23 20.396-44.23 42.167 0 17.416 7.105 25.437 18.334 36.666zm-1637.707 227.834h18.253c-5.632-18.565-10.222-38.486-10.222-63.205l27.953 65.291h1.043l18.982-65.291 4.172 56.947-4.59 6.258h36.297c-3.129-4.693-4.38-7.822-5.006-14.81l-5.632-68.63 4.484-6.257h-36.922c3.86 19.712 3.025 35.044-.208 46.517l-1.252 4.485-17.626-43.701 1.043-7.301h-30.143c5.007 10.951 5.632 20.547 5.632 27.326 0 6.78-.417 12.933-1.564 22.424zm153.321-51.941c0-14.81-5.528-21.068-14.602-21.068-10.43 0-18.878 11.681-27.118 29.83l9.074-27.744h-25.866l11.994 40.78h1.043c4.694-14.497 9.074-20.65 13.872-20.65 4.068 0 7.51 3.65 7.51 10.43v2.085c-18.253 6.571-24.302 10.013-28.37 14.08-3.65 3.651-5.736 7.927-5.736 12.83 0 7.822 5.84 13.454 14.08 13.454 7.822 0 14.393-6.05 20.025-15.645l-1.46 15.645 30.247-3.129c-3.546-2.816-4.693-4.902-4.693-11.056zm-24.094 23.154v13.872c-1.773.522-2.398.835-3.754.835-4.902 0-7.301-3.547-7.301-10.847 0-4.172.834-6.78 2.399-8.344.625-.626 1.356-.94 2.294-.94 1.669 0 3.65 1.983 6.362 5.424zm59.764-22.32 1.043-21.902-29.934 4.171c3.442 2.19 4.693 4.798 4.693 11.578v37.756c0 14.81 5.737 21.069 14.602 21.069 9.596 0 17.522-10.117 22.737-21.382l-1.356 21.903 30.247-3.129c-3.546-2.816-4.693-4.902-4.693-11.056v-39.008l1.043-21.902-29.934 4.171c3.442 2.19 4.693 4.798 4.693 11.578v35.983c-1.981.73-3.963 1.043-5.423 1.043-6.988 0-7.718-7.197-7.718-17.418zm46.205 18.67c0 20.234 13.037 34.523 29.934 34.523 16.896 0 27.326-13.142 30.872-29.934l-.834-.208c-5.32 6.57-10.743 10.117-17.835 10.117-9.074 0-15.54-6.154-18.566-18.67l36.61 7.51c.834-5.007 1.147-8.136 1.147-12.1 0-18.773-10.952-32.02-27.222-32.02-18.461 0-34.106 17.732-34.106 40.782zm21.903-21.59c0-11.89 1.981-16.27 4.902-16.27 3.442 0 8.552 13.245 9.178 27.952l-12.62 4.484c-.939-4.589-1.46-9.908-1.46-16.166zm47.977 48.29-4.693 5.737h33.584c-3.546-3.859-4.694-5.945-4.694-11.056v-17.521c0-10.743 2.4-17.835 5.528-17.835 3.234 0 6.363 8.865 9.179 26.7h1.043l9.074-51.523c-1.67-.73-3.234-1.043-4.902-1.043-8.866 0-16.688 10.638-19.504 29.412l.625-30.142-29.933 4.171c3.441 2.19 4.693 4.798 4.693 11.578v51.524zm58.095-22.945-8.135 25.657c4.276 2.4 12.62 5.111 23.675 5.111 19.296 0 28.996-11.786 28.996-24.093 0-8.031-2.608-12.307-5.737-15.436-8.448-8.449-25.866-12.83-33.376-20.443-.938-.939-3.233-3.338-3.233-5.528 0-2.086 2.19-3.338 5.11-3.338 6.78 0 18.566 7.927 29.413 24.407h1.043l7.823-25.554c-4.277-2.399-12.412-5.11-22.633-5.11-17.523 0-29.83 10.117-29.83 23.884 0 7.197 2.712 12.307 6.362 15.958 6.05 6.05 25.762 13.454 32.333 20.025 1.982 1.982 3.233 3.65 3.233 5.737 0 2.503-1.981 3.442-4.38 3.442-4.694 0-17.94-6.363-29.621-24.72h-1.043zm78.121-35.358 16.062-5.84v-1.043h-16.062l-1.565-20.965-22.529 20.965h-4.797c3.442 3.859 4.693 6.257 4.693 15.644v36.192c0 14.81 5.945 21.173 15.02 21.173 9.595 0 18.982-10.951 24.718-23.989-2.19.835-4.068 1.147-5.736 1.147-7.406 0-9.804-5.945-9.804-16.062zm17.73 31.603c0 20.234 13.038 34.523 29.934 34.523 16.897 0 27.327-13.142 30.873-29.934l-.834-.208c-5.32 6.57-10.743 10.117-17.836 10.117-9.074 0-15.54-6.154-18.565-18.67l36.61 7.51c.834-5.007 1.146-8.136 1.146-12.1 0-18.773-10.951-32.02-27.222-32.02-18.46 0-34.106 17.732-34.106 40.782zm21.903-21.59c0-11.89 1.982-16.27 4.902-16.27 3.442 0 8.553 13.245 9.179 27.952l-12.62 4.484c-.94-4.589-1.46-9.908-1.46-16.166zm59.763-20.547c9.179 0 15.124-4.59 15.124-10.743s-6.154-11.16-15.645-11.16c-9.387 0-14.706 5.007-14.706 11.16 0 6.154 5.528 10.743 15.227 10.743zm-11.472 68.838-4.694 5.736h33.584c-3.546-2.816-4.693-4.902-4.693-11.056v-39.633l1.043-22.32-29.934 3.128c3.442 2.817 4.694 5.424 4.694 11.89zm36.819-.001-4.693 5.737h33.584c-3.546-3.859-4.693-5.945-4.693-11.056v-40.676c1.773-.94 3.65-1.46 5.11-1.46 6.258 0 8.031 7.092 8.031 17.313v30.143l-3.65 5.736h32.541c-3.546-3.859-4.693-5.945-4.693-11.056v-40.885c0-14.81-5.737-21.068-14.602-21.068-9.596 0-17.523 9.595-22.737 19.816l1.043-19.816-29.934 4.171c3.441 2.19 4.693 4.798 4.693 11.578v51.524zm74.258 0-4.694 5.737h33.585c-3.546-2.816-4.694-4.902-4.694-11.056v-62.58l1.252-22.32-30.143 3.13c3.442 2.816 4.694 5.423 4.694 11.89v75.2zm38.8 0-2.608 5.737h32.228l-13.142-28.474c-4.902-10.638-8.97-16.583-20.13-17.626 16.063-2.712 26.493-11.995 31.499-24.823h-30.351c.209 1.877.313 3.859.313 8.03 0 10.43-2.816 17.523-11.786 24.302l13.976 32.855z"/><path d="m856.636 593.511c0 22.112 13.976 35.462 31.185 35.462 18.461 0 35.149-15.853 35.149-40.677 0-21.798-15.228-34.418-31.498-34.418-18.357 0-34.836 15.227-34.836 39.633zm24.093-18.774c0-12.516 1.773-18.46 4.276-18.46 5.528 0 13.768 27.43 13.768 51.836 0 9.909-1.67 18.461-4.381 18.461-5.424 0-13.663-27.43-13.663-51.837zm50.277 46.413-4.694 5.737h33.585c-3.546-3.859-4.694-5.945-4.694-11.056v-17.521c0-10.743 2.4-17.835 5.528-17.835 3.234 0 6.363 8.865 9.179 26.7h1.043l9.074-51.523c-1.67-.73-3.234-1.043-4.902-1.043-8.866 0-16.688 10.638-19.504 29.412l.625-30.142-29.934 4.171c3.442 2.19 4.694 4.798 4.694 11.578v51.524zm79.998-90.218-30.039 3.65c3.547 2.712 4.694 5.32 4.694 11.577v79.685c4.902 1.982 11.786 3.129 19.087 3.129 25.97 0 44.014-20.547 44.014-47.039 0-18.774-9.074-28.056-18.774-28.056-10.221 0-17.835 8.865-20.13 18.148zm-1.148 76.242v-33.897c.835-.626 1.565-.834 2.19-.834 8.553 0 13.872 17.418 13.872 34.001 0 13.246-3.024 18.044-5.527 18.044-3.025 0-6.884-6.78-10.535-17.314zm62.057-23.05c0 8.24 3.442 15.437 9.179 20.234l-9.804 32.959h59.45l2.086-21.381h-45.579l-5.423-10.952c4.902 3.86 11.369 6.05 18.67 6.05 20.13 0 31.81-16.584 31.81-32.438 0-3.129-.52-5.84-1.564-9.49l7.301-6.885c-9.595-5.423-22.424-8.343-33.063-8.343-19.504 0-33.063 13.663-33.063 30.246zm22.425-9.282c0-11.369 2.19-19.087 5.32-19.087 5.11 0 10.742 18.252 10.742 34.106 0 11.264-2.19 19.295-5.32 19.295-5.319 0-10.742-18.67-10.742-34.314zm48.81 46.308-4.694 5.737h33.585c-3.547-3.859-4.694-5.945-4.694-11.056v-17.521c0-10.743 2.399-17.835 5.528-17.835 3.233 0 6.362 8.865 9.178 26.7h1.043l9.074-51.523c-1.668-.73-3.233-1.043-4.902-1.043-8.865 0-16.688 10.638-19.504 29.412l.626-30.142-29.934 4.171c3.442 2.19 4.694 4.798 4.694 11.578v51.524zm49.437-27.639c0 22.112 13.976 35.462 31.186 35.462 18.46 0 35.148-15.853 35.148-40.677 0-21.798-15.227-34.418-31.498-34.418-18.357 0-34.836 15.227-34.836 39.633zm24.093-18.774c0-12.516 1.773-18.46 4.277-18.46 5.527 0 13.767 27.43 13.767 51.836 0 9.909-1.669 18.461-4.38 18.461-5.424 0-13.664-27.43-13.664-51.837zm50.59 46.413-4.693 5.737h33.584c-3.546-2.816-4.693-4.902-4.693-11.056v-41.094c0-25.762 3.859-41.72 9.491-41.72 3.86 0 5.32 7.615 5.32 14.29 0 10.742-3.234 21.068-11.682 30.977v1.043c7.718 5.945 14.497 11.472 19.712 16.687 9.804 9.805 15.75 17.731 15.75 24.094 0 2.19-1.252 2.607-2.504 2.607-5.84 0-15.123-8.97-25.136-27.43h-1.043l-5.11 27.847c4.172 2.608 9.386 5.841 17.209 5.841 15.75 0 25.553-10.743 25.553-28.474 0-8.76-2.712-17.105-9.7-24.093-5.319-5.32-10.012-7.718-22.32-13.559 15.854 0 28.266-7.3 28.266-17.835 0-9.387-8.762-14.08-27.118-14.08-25.345 0-40.886 13.35-40.886 43.805v46.414zm77.804-26.7c0 20.234 13.037 34.523 29.934 34.523 16.896 0 27.326-13.142 30.872-29.934l-.834-.208c-5.32 6.57-10.743 10.117-17.835 10.117-9.074 0-15.541-6.154-18.566-18.67l36.61 7.51c.834-5.007 1.147-8.136 1.147-12.1 0-18.773-10.952-32.02-27.222-32.02-18.461 0-34.106 17.732-34.106 40.782zm21.903-21.59c0-11.89 1.981-16.27 4.902-16.27 3.441 0 8.552 13.245 9.178 27.952l-12.62 4.484c-.939-4.589-1.46-9.908-1.46-16.166zm47.976 48.29-4.693 5.737h33.584c-3.546-3.859-4.693-5.945-4.693-11.056v-17.521c0-10.743 2.398-17.835 5.527-17.835 3.234 0 6.363 8.865 9.179 26.7h1.043l9.074-51.523c-1.669-.73-3.233-1.043-4.902-1.043-8.866 0-16.688 10.638-19.504 29.412l.626-30.142-29.934 4.171c3.442 2.19 4.693 4.798 4.693 11.578v51.524zm100.652-77.702 5.215-6.258h-37.548c3.546 2.503 5.215 4.797 5.215 11.577v71.862l-5.215 6.258h37.548c-3.547-2.816-5.215-5.11-5.215-11.264zm12.307 83.439h35.462l-11.682-29.621c-6.154-15.645-12.516-22.529-24.927-22.529 19.19-8.24 29.516-21.068 34.731-37.547h-32.333c.94 5.632 1.46 10.638 1.46 16.375 0 14.602-5.736 22.111-13.975 31.602v1.043l15.644 35.462zm54.135-74.574c6.884 0 11.264-4.59 11.264-10.743s-4.589-11.16-11.577-11.16c-7.092 0-11.056 5.007-11.056 11.16 0 6.154 4.172 10.743 11.369 10.743zm28.578 0c6.988 0 11.369-4.59 11.369-10.743 0-6.258-4.694-11.16-11.578-11.16-7.092 0-11.16 5.215-11.16 11.16 0 6.154 4.172 10.743 11.369 10.743zm13.35 22.633c0-14.81-5.528-21.068-14.602-21.068-10.43 0-18.878 11.681-27.117 29.83l9.074-27.744h-25.867l11.995 40.78h1.043c4.693-14.497 9.074-20.65 13.872-20.65 4.067 0 7.51 3.65 7.51 10.43v2.085c-18.253 6.571-24.303 10.013-28.37 14.08-3.65 3.651-5.737 7.927-5.737 12.83 0 7.822 5.841 13.454 14.08 13.454 7.823 0 14.394-6.05 20.026-15.645l-1.46 15.645 30.247-3.129c-3.546-2.816-4.694-4.902-4.694-11.056zm-24.093 23.154v13.872c-1.773.522-2.399.835-3.755.835-4.902 0-7.3-3.547-7.3-10.847 0-4.172.834-6.78 2.398-8.344.626-.626 1.356-.94 2.295-.94 1.669 0 3.65 1.983 6.362 5.424zm60.284-35.253 10.534-5.84v-1.043h-10.534c0-10.952 2.608-18.774 12.412-23.99v-1.042c-22.529 0-34.523 12.411-36.61 25.032h-5.736v1.042c4.172 1.67 5.737 3.86 5.737 10.013v54.132l-4.694 5.736h33.585c-3.547-3.129-4.694-5.215-4.694-11.056z"/><path d="m1685.402 552.313c9.179 0 15.124-4.59 15.124-10.743s-6.154-11.16-15.645-11.16c-9.387 0-14.706 5.007-14.706 11.16 0 6.154 5.527 10.743 15.227 10.743zm-11.473 68.838-4.693 5.736h33.584c-3.546-2.816-4.693-4.902-4.693-11.056v-39.633l1.043-22.32-29.934 3.128c3.442 2.817 4.693 5.424 4.693 11.89zm33.065-37.027c0 8.24 3.442 15.437 9.178 20.234l-9.804 32.959h59.45l2.087-21.381h-45.579l-5.423-10.952c4.902 3.86 11.368 6.05 18.67 6.05 20.129 0 31.81-16.584 31.81-32.438 0-3.129-.521-5.84-1.564-9.49l7.3-6.885c-9.595-5.423-22.423-8.343-33.062-8.343-19.504 0-33.063 13.663-33.063 30.246zm22.424-9.282c0-11.369 2.19-19.087 5.32-19.087 5.11 0 10.743 18.252 10.743 34.106 0 11.264-2.19 19.295-5.32 19.295-5.319 0-10.743-18.67-10.743-34.314zm-1533.204 82.615c0 10.221 9.282 19.817 9.282 27.952 0 5.007-3.546 8.657-13.141 10.222v.521c10.117 1.147 13.454 4.798 13.454 10.117 0 9.179-9.595 20.339-9.595 30.977 0 8.344 5.528 11.786 11.681 11.786 8.448 0 15.332-7.197 17.314-26.596h-.626c-3.129 12.098-11.473 15.227-16.896 15.227-4.59 0-8.136-2.399-8.136-6.675 0-8.03 16.48-17 16.48-29.308 0-6.988-5.841-8.865-13.038-9.387 8.448-2.399 13.038-6.05 13.038-13.037 0-9.804-15.02-22.946-15.02-29.934 0-2.712 1.46-4.485 3.86-4.485 4.693 0 12.515 4.902 16.479 20.443h.521l2.712-20.652c-5.215-1.773-8.97-2.816-13.455-2.816-12.933 0-14.914 10.639-14.914 15.645zm54.236 75.513-4.903 4.172h24.719c-3.86-2.086-5.528-3.86-5.528-9.804v-78.642l3.442.209c7.405.312 9.491 10.325 12.725 45.996h.625l4.798-47.457h-57.365l4.694 47.457h.626c3.442-35.775 5.423-45.788 12.62-46.1l3.546-.21v84.379zm44.43.313-5.527 3.859h24.093c-4.276-2.19-5.632-3.755-5.632-9.387v-41.095c4.276-7.614 7.822-9.7 10.847-9.7 5.424 0 8.135 5.632 8.135 16.062v40.26l-5.11 3.859h23.571c-4.172-2.19-5.528-3.755-5.528-9.387v-42.659c0-14.601-5.11-20.13-12.098-20.13-7.927 0-15.124 8.658-19.921 19.818l.417-42.972-18.878 2.92c4.902 1.982 5.632 3.86 5.632 8.657v79.894zm54.758-28.891c0 21.59 10.43 34.21 23.05 34.21 13.872 0 26.284-15.436 26.284-40.155 0-21.277-10.952-33.689-23.259-33.689-13.767 0-26.075 15.228-26.075 39.634zm12.516-13.246c0-16.897 4.068-22.946 8.866-22.946 8.448 0 15.332 20.964 15.332 44.014 0 15.854-3.964 22.946-8.866 22.946-8.448 0-15.332-20.964-15.332-44.014zm48.5 16.584-5.007 26.491c3.234 1.774 10.013 4.381 18.774 4.381 14.498 0 22.529-8.865 22.529-20.234 0-7.092-3.129-12.099-6.988-15.958-5.632-5.632-16.167-10.117-21.173-15.228-2.92-2.816-5.632-6.153-5.632-10.43 0-5.319 4.172-8.552 8.344-8.552 6.675 0 14.498 6.884 19.504 27.43h.626l5.319-26.596c-2.92-1.564-9.491-4.276-17.522-4.276-13.664 0-22.529 8.553-22.529 20.13 0 6.57 2.92 11.264 6.78 15.123 4.693 4.694 16.792 10.743 21.277 15.332 3.337 3.234 5.632 6.78 5.632 11.265 0 5.527-3.964 8.552-8.449 8.552-6.675 0-16.166-6.154-20.964-27.43zm43.596-3.025c0 21.277 9.492 33.897 21.8 33.897 11.68 0 20.442-11.056 21.902-33.063l-.417-.104c-3.442 18.252-9.596 22.007-15.02 22.007-8.239 0-14.601-8.97-16.374-27.43l32.437 3.754c.417-3.025.626-5.11.626-7.718 0-20.13-8.24-31.394-19.609-31.394-13.454 0-25.344 16.166-25.344 40.05zm11.473-15.02c0-16.061 4.485-21.38 8.657-21.38 6.05 0 11.056 12.098 11.473 27.534l-19.817 2.816a120.302 120.302 0 0 1 -.313-8.97zm68.525-30.455c5.32 0 9.074-3.233 9.074-7.3 0-4.068-3.859-7.51-9.282-7.51-5.528 0-8.97 3.442-8.97 7.51 0 4.067 3.546 7.3 9.178 7.3zm-5.736 74.053-5.632 3.859h24.197c-4.172-1.982-5.632-3.65-5.632-9.387v-45.683l.626-17.314-19.191 2.92c4.902 1.982 5.632 3.86 5.632 8.657zm27.013 0-5.632 3.859h24.198c-4.277-2.503-5.632-4.068-5.632-9.387v-41.928c4.276-7.719 7.3-9.909 10.22-9.909 5.424 0 8.762 5.737 8.762 17.731v39.634l-5.215 3.859h23.78c-4.276-2.503-5.632-4.068-5.632-9.387v-43.597c0-13.976-5.11-19.4-11.994-19.4-8.031 0-15.124 8.448-19.921 19.087l.521-19.087-19.087 3.338c4.902 1.773 5.632 3.65 5.632 8.552zm55.175-29.1c0 21.799 9.596 34.419 21.799 34.419 11.994 0 19.295-10.326 21.068-30.873-3.65 16.584-10.326 19.087-14.08 19.087-9.596 0-17.731-12.62-17.627-35.983 0-14.706 4.172-22.32 8.553-22.32 5.945 0 11.577 11.681 14.706 38.8h.521l7.927-38.696c-3.546-1.773-8.761-3.65-14.602-3.65-16.688 0-28.265 15.54-28.265 39.216zm53.19 29.1-5.632 3.859h24.197c-4.172-1.982-5.632-3.65-5.632-9.387v-68.42l.626-17.523-19.191 2.92c4.902 1.982 5.632 3.86 5.632 8.657zm39.636-51.211.522-17.314-19.087 3.338c4.798 1.773 5.632 3.65 5.632 8.552v42.346c0 13.976 5.006 19.4 11.995 19.4 7.926 0 15.123-8.657 19.92-20.13l-.73 20.338 19.192-2.92c-4.902-1.982-5.528-3.65-5.528-8.344v-45.266l.521-17.314-19.086 3.338c4.797 1.773 5.632 3.65 5.632 8.552v40.052c-4.38 7.614-7.406 9.7-10.43 9.7-5.632 0-8.553-5.736-8.553-17.73v-26.597zm88.55-20.756.521-19.504-19.086 3.13c4.902 1.98 5.632 3.858 5.632 8.552v12.306c-.939-.104-1.878-.209-2.712-.209-7.51 0-13.768 2.504-18.67 7.406-7.3 7.3-12.307 20.234-12.307 36.817 0 19.609 8.553 28.787 17 28.787 8.24 0 14.498-7.718 16.689-15.645l-.522 15.645 18.983-3.129c-4.798-1.982-5.528-3.859-5.528-8.553v-65.604zm-23.78 8.24c3.441 0 7.3 3.963 10.847 9.908v41.824c-1.982 4.172-4.798 7.197-7.614 7.197-7.823 0-14.29-15.332-14.29-33.793 0-19.713 6.259-25.136 11.057-25.136zm34.422 35.149c0 21.277 9.491 33.897 21.799 33.897 11.681 0 20.442-11.056 21.903-33.063l-.418-.104c-3.442 18.252-9.595 22.007-15.019 22.007-8.24 0-14.602-8.97-16.375-27.43l32.437 3.754c.418-3.025.626-5.11.626-7.718 0-20.13-8.24-31.394-19.608-31.394-13.455 0-25.345 16.166-25.345 40.05zm11.473-15.02c0-16.061 4.485-21.38 8.657-21.38 6.05 0 11.056 12.098 11.473 27.534l-19.817 2.816a120.302 120.302 0 0 1 -.313-8.97zm86.881-28.369.521-19.504-19.086 3.13c4.902 1.98 5.632 3.858 5.632 8.552v12.306c-.939-.104-1.878-.209-2.712-.209-7.51 0-13.768 2.504-18.67 7.406-7.3 7.3-12.307 20.234-12.307 36.817 0 19.609 8.553 28.787 17 28.787 8.24 0 14.498-7.718 16.689-15.645l-.522 15.645 18.983-3.129c-4.798-1.982-5.528-3.859-5.528-8.553v-65.604zm-23.78 8.24c3.442 0 7.3 3.963 10.847 9.908v41.824c-1.982 4.172-4.798 7.197-7.614 7.197-7.823 0-14.29-15.332-14.29-33.793 0-19.713 6.259-25.136 11.057-25.136zm52.88 34.627c0 21.799 9.596 34.419 21.799 34.419 11.994 0 19.295-10.326 21.068-30.873-3.65 16.584-10.325 19.087-14.08 19.087-9.596 0-17.731-12.62-17.627-35.983 0-14.706 4.172-22.32 8.553-22.32 5.945 0 11.577 11.681 14.706 38.8h.521l7.927-38.696c-3.546-1.773-8.761-3.65-14.602-3.65-16.688 0-28.265 15.54-28.265 39.216zm49.435.209c0 21.59 10.43 34.21 23.05 34.21 13.872 0 26.283-15.436 26.283-40.155 0-21.277-10.951-33.689-23.259-33.689-13.767 0-26.074 15.228-26.074 39.634zm12.516-13.246c0-16.897 4.067-22.946 8.865-22.946 8.448 0 15.332 20.964 15.332 44.014 0 15.854-3.963 22.946-8.865 22.946-8.449 0-15.332-20.964-15.332-44.014zm47.35 42.137-5.632 3.859h24.197c-4.276-2.503-5.632-4.068-5.632-9.387v-41.928c4.276-7.719 7.3-9.909 10.221-9.909 5.424 0 8.761 5.737 8.761 17.731v39.634l-5.215 3.859h23.78c-4.276-2.503-5.632-4.068-5.632-9.387v-43.597c0-13.976-5.11-19.4-11.994-19.4-8.031 0-15.123 8.448-19.921 19.087l.521-19.087-19.086 3.338c4.902 1.773 5.632 3.65 5.632 8.552zm71.972-62.371 13.768-4.172v-.522h-13.768l-1.46-21.068-11.473 21.068h-5.632c4.172 2.503 5.632 4.172 5.632 11.265v36.609c0 18.774 4.485 24.51 11.369 24.51 6.258 0 12.203-8.448 14.602-25.136-1.878 9.7-3.755 12.933-5.945 12.933-4.694 0-7.093-5.528-7.093-19.191zm21.902 62.371-5.632 3.859h24.093c-4.172-2.503-5.528-4.068-5.528-9.387v-20.756c0-20.025 4.277-28.16 7.823-28.16 3.129 0 6.258 7.092 7.822 25.449h.522l5.215-36.922c-2.086-1.774-4.277-2.295-5.945-2.295-7.093 0-13.455 10.013-15.437 26.805l.522-27.118-19.087 3.338c4.798 1.773 5.632 3.65 5.632 8.552zm37.131-28.891c0 21.59 10.43 34.21 23.05 34.21 13.872 0 26.284-15.436 26.284-40.155 0-21.277-10.951-33.689-23.259-33.689-13.767 0-26.075 15.228-26.075 39.634zm12.516-13.246c0-16.897 4.068-22.946 8.866-22.946 8.448 0 15.332 20.964 15.332 44.014 0 15.854-3.964 22.946-8.866 22.946-8.448 0-15.332-20.964-15.332-44.014zm47.246 42.137-5.632 3.859h24.197c-4.171-1.982-5.632-3.65-5.632-9.387v-68.42l.626-17.523-19.191 2.92c4.902 1.982 5.632 3.86 5.632 8.657zm58.825-62.371 13.767-4.172v-.522h-13.767l-1.46-21.068-11.474 21.068h-5.632c4.172 2.503 5.632 4.172 5.632 11.265v36.609c0 18.774 4.485 24.51 11.37 24.51 6.257 0 12.202-8.448 14.601-25.136-1.877 9.7-3.755 12.933-5.945 12.933-4.694 0-7.092-5.528-7.092-19.191zm22.005 62.371-5.527 3.859h24.093c-4.276-2.19-5.632-3.755-5.632-9.387v-41.095c4.276-7.614 7.822-9.7 10.847-9.7 5.423 0 8.135 5.632 8.135 16.062v40.26l-5.11 3.859h23.571c-4.172-2.19-5.528-3.755-5.528-9.387v-42.659c0-14.601-5.11-20.13-12.098-20.13-7.927 0-15.124 8.658-19.922 19.818l.418-42.972-18.879 2.92c4.902 1.982 5.633 3.86 5.633 8.657v79.894zm54.966-28.578c0 21.277 9.491 33.897 21.798 33.897 11.682 0 20.443-11.056 21.903-33.063l-.417-.104c-3.442 18.252-9.595 22.007-15.019 22.007-8.24 0-14.602-8.97-16.375-27.43l32.437 3.754c.417-3.025.626-5.11.626-7.718 0-20.13-8.24-31.394-19.608-31.394-13.455 0-25.345 16.166-25.345 40.05zm11.473-15.02c0-16.061 4.485-21.38 8.657-21.38 6.049 0 11.055 12.098 11.473 27.534l-19.817 2.816a120.302 120.302 0 0 1 -.313-8.97zm56.638-23.467 15.436 59.66 2.504 11.264h8.24c1.25-4.798 2.711-10.743 4.38-16.897l7.927-31.185 8.76 36.505 2.087 11.577h9.282c.939-5.11 2.086-10.117 3.546-15.75l13.977-55.174h-12.516c.73 17.731.938 39.425-3.442 57.99l-12.516-48.811-.209-9.179h-12.829c.522 19.921-2.086 39.113-6.675 58.2l-11.473-48.187.105-10.013zm123.593 15.541c0-12.516-5.32-17-11.682-17-8.448 0-15.54 10.429-20.756 27.534l5.111-26.075h-14.289l6.467 39.634h.521c3.442-22.424 9.909-29.308 14.29-29.308 4.275 0 7.509 3.755 7.509 10.638v9.805c-13.142 3.859-19.4 7.196-23.676 11.473-4.172 4.171-6.154 9.49-6.154 15.332 0 9.282 5.32 14.81 11.995 14.81 8.03 0 14.393-8.761 17.835-16.166l-.73 16.166 19.19-2.92c-4.901-1.982-5.631-3.65-5.631-8.344v-45.58zm-12.83 22.111v17.105c-1.98 3.13-5.631 8.553-9.803 8.553-3.86 0-8.031-3.546-8.031-13.246 0-5.11 1.147-9.387 3.65-11.994 1.669-1.67 4.694-3.025 7.927-3.025 1.564 0 3.65.939 6.258 2.607zm39.638-32.958 13.768-4.172v-.522h-13.768l-1.46-21.068-11.473 21.068h-5.632c4.172 2.503 5.632 4.172 5.632 11.265v36.609c0 18.774 4.485 24.51 11.369 24.51 6.258 0 12.203-8.448 14.602-25.136-1.878 9.7-3.755 12.933-5.945 12.933-4.694 0-7.093-5.528-7.093-19.191zm18.247 33.793c0 21.277 9.49 33.897 21.798 33.897 11.682 0 20.443-11.056 21.903-33.063l-.417-.104c-3.442 18.252-9.596 22.007-15.02 22.007-8.239 0-14.601-8.97-16.374-27.43l32.437 3.754c.417-3.025.626-5.11.626-7.718 0-20.13-8.24-31.394-19.609-31.394-13.454 0-25.344 16.166-25.344 40.05zm11.473-15.02c0-16.061 4.484-21.38 8.656-21.38 6.05 0 11.056 12.098 11.473 27.534l-19.816 2.816a120.302 120.302 0 0 1 -.313-8.97zm43.805 43.598-5.632 3.859h24.093c-4.172-2.503-5.528-4.068-5.528-9.387v-20.756c0-20.025 4.276-28.16 7.822-28.16 3.13 0 6.258 7.092 7.823 25.449h.521l5.215-36.922c-2.086-1.774-4.276-2.295-5.945-2.295-7.092 0-13.454 10.013-15.436 26.805l.521-27.118-19.086 3.338c4.797 1.773 5.632 3.65 5.632 8.552zm65.711.104c0-10.221-9.282-19.817-9.282-27.952 0-5.007 3.546-8.657 13.142-10.222v-.521c-10.117-1.147-13.455-4.798-13.455-10.117 0-9.178 9.595-20.338 9.595-30.977 0-8.344-5.527-11.786-11.681-11.786-8.448 0-15.332 7.197-17.21 26.597h.522c3.13-12.1 11.473-15.228 16.897-15.228 4.589 0 8.135 2.399 8.135 6.675 0 8.031-16.48 17-16.48 29.308 0 6.988 5.841 8.866 13.142 9.387-8.448 2.399-13.141 6.05-13.141 13.037 0 9.805 15.019 22.946 15.019 29.934 0 2.712-1.46 4.485-3.86 4.485-4.693 0-12.515-4.902-16.479-20.442h-.521l-2.712 20.65c5.215 1.774 8.97 2.817 13.455 2.817 12.933 0 14.914-10.639 14.914-15.645zm-1210.187 85.045c-4.47 20.711-9.238 22.276-14.23 22.276-2.681 0-4.767-.447-7.002-1.192l-3.576-7.674h-.894l-5.439 12.814c5.066 1.788 7.972 2.384 13.187 2.384 9.312-.074 20.413-9.312 24.51-27.788l5.215-22.5 5.588-4.171v-1.043c-4.023-1.714-9.909-3.204-15.422-3.204-6.183 0-11.473 1.64-16.39 6.556-5.215 5.215-9.461 14.602-9.461 22.946 0 6.184 3.203 9.834 8.046 9.834 3.8 0 7.524-2.384 10.28-5.14 2.46-2.459 4.694-5.588 6.706-9.313zm-8.865-23.02c1.862-1.863 4.246-2.608 6.481-2.608 2.757 0 5.588.969 8.12 2.384-2.383 10.356-7.226 18.253-11.621 22.648-2.757 2.757-5.439 3.949-7.227 3.949-2.235 0-3.576-1.937-3.576-6.035 0-5.662 3.204-15.72 7.823-20.338zm56.248 23.84 5.214-22.5 5.588-4.171v-1.043c-4.023-1.714-9.909-3.204-15.422-3.204-6.183 0-11.473 1.64-16.39 6.556-5.215 5.215-9.461 14.602-9.461 22.946 0 6.184 3.203 9.834 8.046 9.834 3.8 0 7.524-2.384 10.28-5.14 2.46-2.459 4.694-5.588 6.706-9.313l-3.13 13.485.895.968 13.26-4.097v-1.043l-5.587-3.278zm-15.422-23.84c1.862-1.863 4.246-2.608 6.481-2.608 2.757 0 5.588.969 8.12 2.384-2.383 10.356-7.226 18.253-11.621 22.648-2.757 2.757-5.439 3.949-7.227 3.949-2.235 0-3.576-1.937-3.576-6.035 0-5.662 3.204-15.72 7.823-20.338zm37.92-16.986-9.461 40.826-5.588 4.172v1.043c4.023 1.713 9.536 3.203 15.05 3.203 6.183 0 11.472-1.639 16.39-6.556 5.214-5.215 9.46-14.602 9.46-22.946 0-6.183-3.203-9.834-8.045-9.834-3.8 0-7.525 2.384-10.281 5.14-2.459 2.46-4.694 5.588-6.705 9.313l7.822-31.588-.745-.745-12.516 2.831v1.192l4.62 3.949zm10.654 42.167c-1.863 1.862-4.098 2.607-6.333 2.607-2.756 0-5.587-.968-8.12-2.384 2.384-10.355 7.226-18.252 11.622-22.648 2.756-2.756 5.29-3.948 7.077-3.948 2.235 0 3.576 1.937 3.576 6.034 0 5.662-3.203 15.72-7.822 20.339zm29.874-42.167-9.462 40.826-5.587 4.172v1.043c4.023 1.713 9.536 3.203 15.049 3.203 6.183 0 11.473-1.639 16.39-6.556 5.215-5.215 9.461-14.602 9.461-22.946 0-6.183-3.203-9.834-8.046-9.834-3.8 0-7.524 2.384-10.28 5.14-2.46 2.46-4.694 5.588-6.706 9.313l7.823-31.588-.745-.745-12.516 2.831v1.192zm10.653 42.167c-1.862 1.862-4.097 2.607-6.332 2.607-2.757 0-5.588-.968-8.12-2.384 2.383-10.355 7.226-18.252 11.621-22.648 2.757-2.756 5.29-3.948 7.078-3.948 2.235 0 3.576 1.937 3.576 6.034 0 5.662-3.204 15.72-7.823 20.339zm33.227-38.666a5.342 5.342 0 0 0 5.364-5.364c0-2.905-2.384-5.29-5.364-5.29-2.905 0-5.29 2.385-5.29 5.29 0 2.98 2.385 5.364 5.29 5.364zm.82 6.407-8.493 3.502v8.865l-6.258 26 .894.97 13.26-4.098v-1.043l-5.661-2.98 7.003-30.47zm5.14 25.33c0 8.568 4.246 14.006 12.218 14.006 5.438 0 10.206-2.533 13.484-5.587 5.662-5.439 8.493-13.336 8.493-19.743 0-8.567-4.246-14.006-12.218-14.006-5.438 0-10.206 2.533-13.484 5.588-5.662 5.438-8.493 13.335-8.493 19.742zm26.82-11.622c0 5.29-1.714 13.485-6.929 18.7-2.458 2.458-4.693 2.905-6.109 2.905-4.991 0-6.407-4.32-6.407-9.685 0-5.29 1.714-13.484 6.929-18.7 2.533-2.532 4.693-2.905 6.109-2.905 4.991 0 6.407 4.321 6.407 9.685zm25.556-13.708-8.493 3.353v9.014l-5.96 26 .894.97 7.971-2.385v-9.76c1.863-8.418 5.14-14.005 8.493-17.358 2.682-2.682 5.364-3.948 7.301-3.948 2.98 0 4.768 2.31 3.576 7.673l-5.662 24.809.894.968 13.112-4.097v-1.043l-5.662-2.98 4.023-17.806c2.012-8.865-1.937-13.41-6.928-13.41-3.949 0-7.227 1.937-9.909 4.62-2.086 2.085-4.023 4.618-5.364 6.704l2.459-10.579zm53.262 30.396-.82-1.043c-3.8 2.384-7.524 4.098-11.175 4.098-5.066 0-7.748-2.533-7.748-8.493 0-.447 0-.894.075-1.341 9.238-.224 16.39-2.459 20.487-6.556 2.608-2.608 3.949-6.184 3.949-9.387 0-4.843-3.13-7.674-8.866-7.674-5.438 0-10.132 2.384-13.708 5.96-6.109 6.11-8.79 14.677-8.79 20.935 0 7.822 5.289 12.441 11.249 12.441 7.003 0 13.112-5.364 15.347-8.94zm-12.889-23.318c1.863-1.863 3.874-2.757 5.737-2.757 3.725 0 5.736 3.502 5.736 6.556 0 4.247-4.023 7.45-10.057 7.45-1.64 0-3.949-.223-7.152-.447 1.192-4.172 3.203-8.27 5.736-10.802zm50.958-7.078-8.493 3.502v8.865l-5.96 26 .894.97 7.822-2.46v-9.684c1.863-8.419 5.29-14.006 8.642-17.359 2.608-2.607 5.066-3.948 6.929-3.948 2.682 0 4.395 2.31 3.203 7.673l-5.662 24.809.894.968 7.823-2.458v-9.685c1.862-8.419 4.991-14.08 8.269-17.359 2.608-2.607 4.992-3.948 6.854-3.948 2.682 0 4.396 2.31 3.204 7.673l-5.662 24.809.894.968 13.26-4.097v-1.043l-5.661-2.98 4.022-17.806c2.012-8.865-1.936-13.41-6.704-13.41-3.8 0-7.003 1.788-9.834 4.62-1.565 1.564-3.13 3.277-4.843 5.661.522-6.481-2.682-10.28-6.705-10.28-3.8 0-7.077 2.309-9.908 5.14-2.012 2.011-3.651 4.246-4.992 6.332l2.459-10.728zm74.052 30.396-.82-1.043c-3.799 2.384-7.524 4.098-11.174 4.098-5.066 0-7.748-2.533-7.748-8.493 0-.447 0-.894.074-1.341 9.238-.224 16.39-2.459 20.488-6.556 2.607-2.608 3.948-6.184 3.948-9.387 0-4.843-3.129-7.674-8.865-7.674-5.439 0-10.132 2.384-13.708 5.96-6.11 6.11-8.791 14.677-8.791 20.935 0 7.822 5.29 12.441 11.25 12.441 7.002 0 13.111-5.364 15.346-8.94zm-12.888-23.318c1.862-1.863 3.874-2.757 5.736-2.757 3.725 0 5.737 3.502 5.737 6.556 0 4.247-4.023 7.45-10.058 7.45-1.639 0-3.948-.223-7.152-.447 1.192-4.172 3.204-8.27 5.737-10.802zm49.543 23.84 5.216-22.5 5.587-4.171v-1.043c-4.023-1.714-9.908-3.204-15.421-3.204-6.184 0-11.473 1.64-16.39 6.556-5.215 5.215-9.462 14.602-9.462 22.946 0 6.184 3.204 9.834 8.046 9.834 3.8 0 7.525-2.384 10.281-5.14 2.459-2.459 4.694-5.588 6.705-9.313l-3.129 13.485.894.968 13.261-4.097v-1.043l-5.587-3.278zm-15.42-23.84c1.862-1.863 4.246-2.608 6.48-2.608 2.757 0 5.588.969 8.121 2.384-2.384 10.356-7.226 18.253-11.622 22.648-2.756 2.757-5.438 3.949-7.226 3.949-2.235 0-3.576-1.937-3.576-6.035 0-5.662 3.203-15.72 7.822-20.338zm41.2-7.078-8.492 3.353v9.014l-5.96 26 .894.97 7.971-2.385v-9.76c1.863-8.418 5.14-14.005 8.493-17.358 2.682-2.682 5.364-3.948 7.301-3.948 2.98 0 4.768 2.31 3.576 7.673l-5.662 24.809.894.968 13.112-4.097v-1.043l-5.662-2.98 4.023-17.806c2.012-8.865-1.937-13.41-6.928-13.41-3.949 0-7.227 1.937-9.909 4.62-2.086 2.085-4.023 4.618-5.364 6.704l2.459-10.579-.745-.745zm40.977-6.407a5.342 5.342 0 0 0 5.364-5.364c0-2.905-2.384-5.29-5.364-5.29-2.905 0-5.29 2.385-5.29 5.29 0 2.98 2.385 5.364 5.29 5.364zm.82 6.407-8.493 3.502v8.865l-6.258 26 .894.97 13.26-4.098v-1.043l-5.661-2.98 7.003-30.47zm19.146 0-8.493 3.353v9.014l-5.96 26 .894.97 7.971-2.385v-9.76c1.863-8.418 5.14-14.005 8.493-17.358 2.682-2.682 5.364-3.948 7.301-3.948 2.98 0 4.768 2.31 3.576 7.673l-5.662 24.809.894.968 13.112-4.097v-1.043l-5.662-2.98 4.023-17.806c2.012-8.865-1.937-13.41-6.928-13.41-3.949 0-7.227 1.937-9.909 4.62-2.086 2.085-4.023 4.618-5.364 6.704l2.459-10.579zm50.505 30.098c-4.47 20.711-9.238 22.276-14.23 22.276-2.681 0-4.767-.447-7.002-1.192l-3.576-7.674h-.894l-5.439 12.814c5.066 1.788 7.972 2.384 13.187 2.384 9.312-.074 20.413-9.312 24.51-27.788l5.215-22.5 5.588-4.171v-1.043c-4.023-1.714-9.909-3.204-15.422-3.204-6.183 0-11.473 1.64-16.39 6.556-5.215 5.215-9.461 14.602-9.461 22.946 0 6.184 3.203 9.834 8.046 9.834 3.8 0 7.524-2.384 10.28-5.14 2.46-2.459 4.694-5.588 6.706-9.313zm-8.865-23.02c1.862-1.863 4.246-2.608 6.481-2.608 2.757 0 5.588.969 8.12 2.384-2.383 10.356-7.226 18.253-11.621 22.648-2.757 2.757-5.439 3.949-7.227 3.949-2.235 0-3.576-1.937-3.576-6.035 0-5.662 3.204-15.72 7.823-20.338zm78.748-24.958-1.639-.447-14.378 20.339 10.802 2.756zm-14.155 0-1.639-.447-14.378 20.339 10.802 2.756zm22.8 7.972-9.461 40.826-5.588 4.172v1.043c4.023 1.713 9.536 3.203 15.05 3.203 6.183 0 11.472-1.639 16.39-6.556 5.214-5.215 9.46-14.602 9.46-22.946 0-6.183-3.203-9.834-8.045-9.834-3.8 0-7.525 2.384-10.281 5.14-2.459 2.46-4.694 5.588-6.705 9.313l7.822-31.588-.745-.745-12.516 2.831v1.192l4.62 3.949zm10.654 42.167c-1.863 1.862-4.098 2.607-6.333 2.607-2.756 0-5.587-.968-8.12-2.384 2.384-10.355 7.226-18.252 11.622-22.648 2.756-2.756 5.29-3.948 7.077-3.948 2.235 0 3.576 1.937 3.576 6.034 0 5.662-3.203 15.72-7.822 20.339zm33.222-38.666a5.342 5.342 0 0 0 5.364-5.364c0-2.905-2.384-5.29-5.364-5.29-2.906 0-5.29 2.385-5.29 5.29 0 2.98 2.384 5.364 5.29 5.364zm.82 6.407-8.494 3.502v8.865l-6.258 26 .894.97 13.261-4.098v-1.043l-5.662-2.98 7.003-30.47-.745-.746zm28.755 30.098c-4.47 20.711-9.238 22.276-14.229 22.276-2.682 0-4.768-.447-7.003-1.192l-3.576-7.674h-.894l-5.438 12.814c5.066 1.788 7.971 2.384 13.186 2.384 9.312-.074 20.413-9.312 24.51-27.788l5.215-22.5 5.588-4.171v-1.043c-4.023-1.714-9.909-3.204-15.422-3.204-6.183 0-11.473 1.64-16.39 6.556-5.214 5.215-9.461 14.602-9.461 22.946 0 6.184 3.204 9.834 8.046 9.834 3.8 0 7.524-2.384 10.281-5.14 2.458-2.459 4.693-5.588 6.705-9.313zm-8.865-23.02c1.862-1.863 4.246-2.608 6.481-2.608 2.757 0 5.588.969 8.121 2.384-2.384 10.356-7.227 18.253-11.622 22.648-2.757 2.757-5.439 3.949-7.226 3.949-2.235 0-3.576-1.937-3.576-6.035 0-5.662 3.203-15.72 7.822-20.338zm57.368 26.373c-4.247 0-6.706-2.831-6.706-7.748 0-6.333 2.608-14.528 6.63-18.55 1.938-1.938 3.875-2.46 5.737-2.46 1.416 0 2.608.448 3.949 1.193l2.83 10.504h1.193l5.736-14.304c-2.235-.82-5.587-2.086-9.685-2.086-5.438 0-10.43 2.086-14.676 6.333-5.29 5.29-9.015 13.186-9.015 21.456 0 7.599 4.694 11.547 10.728 11.547 7.45 0 13.187-4.842 15.645-7.599l-.67-1.415c-4.023 1.862-7.301 3.129-11.697 3.129zm49.763-2.533 5.215-22.5 5.588-4.171v-1.043c-4.023-1.714-9.909-3.204-15.422-3.204-6.183 0-11.473 1.64-16.39 6.556-5.215 5.215-9.461 14.602-9.461 22.946 0 6.184 3.203 9.834 8.046 9.834 3.8 0 7.524-2.384 10.28-5.14 2.46-2.459 4.694-5.588 6.706-9.313l-3.13 13.485.895.968 13.26-4.097v-1.043zm-15.421-23.84c1.862-1.863 4.246-2.608 6.481-2.608 2.757 0 5.588.969 8.12 2.384-2.383 10.356-7.226 18.253-11.621 22.648-2.757 2.757-5.439 3.949-7.227 3.949-2.235 0-3.576-1.937-3.576-6.035 0-5.662 3.204-15.72 7.823-20.338zm50.812 23.02c-4.47 20.711-9.238 22.276-14.23 22.276-2.682 0-4.768-.447-7.003-1.192l-3.576-7.674h-.894l-5.438 12.814c5.066 1.788 7.971 2.384 13.186 2.384 9.313-.074 20.413-9.312 24.51-27.788l5.215-22.5 5.588-4.171v-1.043c-4.023-1.714-9.909-3.204-15.421-3.204-6.184 0-11.473 1.64-16.39 6.556-5.215 5.215-9.462 14.602-9.462 22.946 0 6.184 3.204 9.834 8.046 9.834 3.8 0 7.525-2.384 10.281-5.14 2.459-2.459 4.694-5.588 6.705-9.313zm-8.866-23.02c1.863-1.863 4.247-2.608 6.482-2.608 2.756 0 5.587.969 8.12 2.384-2.384 10.356-7.226 18.253-11.622 22.648-2.756 2.757-5.438 3.949-7.226 3.949-2.235 0-3.576-1.937-3.576-6.035 0-5.662 3.203-15.72 7.822-20.338zm52.445 23.318-.82-1.043c-3.799 2.384-7.524 4.098-11.174 4.098-5.066 0-7.748-2.533-7.748-8.493 0-.447 0-.894.074-1.341 9.238-.224 16.39-2.459 20.488-6.556 2.607-2.608 3.948-6.184 3.948-9.387 0-4.843-3.129-7.674-8.865-7.674-5.439 0-10.132 2.384-13.708 5.96-6.109 6.11-8.791 14.677-8.791 20.935 0 7.822 5.29 12.441 11.25 12.441 7.002 0 13.111-5.364 15.346-8.94zm-12.888-23.318c1.862-1.863 3.874-2.757 5.736-2.757 3.725 0 5.737 3.502 5.737 6.556 0 4.247-4.023 7.45-10.058 7.45-1.639 0-3.948-.223-7.152-.447 1.192-4.172 3.204-8.27 5.737-10.802zm25.257-2.757 1.64.447 14.378-20.338-10.803-2.757zm14.155 0 1.64.447 14.378-20.338-10.803-2.757zm-1251.185 140.958c-2.011-.372-3.352-1.043-4.32-2.011-1.267-1.267-1.714-3.353-1.714-13.038v-1.49c.67.075 1.266.075 1.937.075 5.81 0 12.59-2.012 17.507-6.929 3.725-3.725 6.407-9.163 6.407-16.688 0-9.387-5.81-15.72-14.155-15.72-5.14 0-8.94 2.012-11.845 4.098v-4.842l-13.336 5.438v1.118c2.16.521 3.65 1.34 4.62 2.31 1.936 1.936 2.16 4.544 2.16 10.057v35.536l-6.035 2.31v1.639h18.774zm-6.034-23.244v-24.808c2.533-1.267 5.81-2.16 9.238-2.16 2.533 0 4.693.67 6.332 2.309 2.235 2.235 3.427 5.81 3.427 10.653 0 6.035-1.49 9.983-3.725 12.218-1.937 1.937-4.47 2.831-7.226 2.831-2.682 0-5.513-.447-8.046-1.043zm49.02-35.983h1.192l12.367-12.814-.745-.969-11.473 5.886-12.963-5.886-.745.969zm-10.728 37.771-6.034 2.31v1.639h18.774v-1.863c-2.012-.372-3.353-1.043-4.321-2.011-1.267-1.267-1.714-3.353-1.714-13.038v-1.788c0-5.215.969-8.27 2.906-10.206 1.34-1.341 3.129-2.16 5.364-2.16l3.501 8.94h1.192l3.874-14.826c-1.713-.969-3.054-1.341-5.066-1.341-3.203 0-6.183 1.639-8.493 3.948-1.34 1.341-2.533 3.502-3.278 6.482v-10.43l-12.516 4.842v1.118c1.863.372 3.13.745 4.098 1.713 1.49 1.49 1.713 4.396 1.713 8.419zm43.955-1.043c-6.183 0-10.43-4.768-10.504-14.006l24.361 1.64c.373-2.31.596-4.769.596-6.259 0-8.79-4.842-14.676-12.59-14.676-8.046 0-19.072 7.599-19.072 22.126 0 12.07 8.865 17.21 15.421 17.21 8.493 0 14.528-5.96 16.465-12.814l-1.267-.522c-2.607 3.204-6.481 7.301-13.41 7.301zm-7.226-25.553c1.713-1.714 3.8-2.16 6.034-2.16 7.003 0 8.94 4.99 8.94 9.535l-18.178 1.49c.373-4.097 1.416-7.077 3.204-8.865zm34.344 8.344v18.252l-6.035 2.31v1.639h18.774v-1.863c-2.011-.372-3.352-1.043-4.32-2.011-1.267-1.267-1.714-3.353-1.714-13.038v-12.888c2.682-1.416 5.81-2.608 10.206-2.608s7.152 1.863 7.152 6.854v21.605l-6.034 2.31v1.639h18.774v-1.863c-2.012-.372-3.353-1.043-4.321-2.011-1.267-1.267-1.714-3.353-1.714-13.038v-9.163c0-8.344-3.874-12.218-10.355-12.218-5.513 0-9.983 2.458-13.708 4.768v-4.768l-12.516 4.842v1.118c1.862.372 3.129.745 4.097 1.713 1.49 1.49 1.714 4.396 1.714 8.419zm55.949-19.966 10.952-11.771-8.046-3.874-.969.596-2.756 14.602.82.447zm21.233 38.442v-1.043c-2.16-.522-3.65-1.341-4.62-2.31-1.787-1.788-1.862-4.544-1.862-10.057v-12.367c0-5.588-4.842-8.791-10.057-8.791-6.407 0-13.261 3.203-18.03 5.81l3.353 10.282h1.192l4.098-11.026c6.407 0 9.387.223 11.398 2.235 1.043 1.043 1.341 2.458 1.341 4.395v5.588l-5.364 1.415c-5.885 1.565-11.175 3.427-13.41 5.662-1.788 1.788-2.458 3.874-2.458 6.11 0 5.065 4.172 8.865 9.908 8.865 4.321 0 8.046-1.937 11.324-3.949l.15 4.023zm-13.187-2.608c-1.937.894-5.736 2.012-8.716 2.012-4.47 0-5.662-2.98-5.662-6.258 0-.67.074-1.714.223-2.459l14.155-3.352zm31.513-35.387h1.192l12.367-12.814-.745-.969-11.473 5.886-12.963-5.886-.745.969zm6.929 33.227c0 1.713-.447 2.83-1.416 3.8-1.117 1.117-2.607 1.787-5.215 1.787-2.011 0-4.395-.372-6.481-1.266l-3.055-8.195h-1.192l-3.948 11.994c4.023.969 7.673 1.416 11.473 1.416 9.014 0 16.762-4.247 16.762-11.771 0-3.204-1.34-5.29-2.756-6.705-4.023-4.023-13.336-5.662-15.645-7.972-1.043-1.043-1.788-2.16-1.788-3.948 0-1.416.447-2.384 1.341-3.278.968-.969 2.086-1.714 4.172-1.714 1.862 0 4.097.447 6.109 1.267l3.054 7.897h1.192l3.949-11.697c-3.874-.968-7.45-1.415-11.1-1.415-8.345 0-15.497 3.874-15.497 11.324 0 3.054 1.043 4.917 2.31 6.183 3.874 3.874 13.186 5.364 15.794 7.972 1.266 1.266 1.937 2.458 1.937 4.32zm31.737 3.501c-6.184 0-10.43-4.768-10.505-14.006l24.362 1.64c.372-2.31.596-4.769.596-6.259 0-8.79-4.843-14.676-12.59-14.676-8.047 0-19.073 7.599-19.073 22.126 0 12.07 8.866 17.21 15.422 17.21 8.493 0 14.527-5.96 16.464-12.814l-1.266-.522c-2.608 3.204-6.482 7.301-13.41 7.301zm-7.227-25.553c1.714-1.714 3.8-2.16 6.035-2.16 7.003 0 8.94 4.99 8.94 9.535l-18.178 1.49c.372-4.097 1.415-7.077 3.203-8.865zm34.345 8.344v18.252l-6.035 2.31v1.639h18.774v-1.863c-2.011-.372-3.352-1.043-4.32-2.011-1.267-1.267-1.714-3.353-1.714-13.038v-12.888c2.682-1.416 5.81-2.608 10.206-2.608s7.152 1.863 7.152 6.854v21.605l-6.034 2.31v1.639h18.774v-1.863c-2.012-.372-3.353-1.043-4.321-2.011-1.267-1.267-1.714-3.353-1.714-13.038v-9.163c0-8.344-3.874-12.218-10.355-12.218-5.513 0-9.983 2.458-13.708 4.768v-4.768l-12.516 4.842v1.118c1.862.372 3.129.745 4.097 1.713 1.49 1.49 1.714 4.396 1.714 8.419zm47.68-19.966 10.951-11.771-8.046-3.874-.968.596-2.757 14.602zm-.894 38.218-6.035 2.31v1.639h18.774v-1.863c-2.011-.372-3.352-1.043-4.32-2.011-1.267-1.267-1.714-3.353-1.714-13.038v-8.567l.745-12.814-13.261 4.842v1.118c1.862.521 3.129 1.34 3.948 2.31 1.714 1.936 1.863 4.544 1.863 8.567zm64.964-32.333-.745-.968h-30.843l2.98 13.037h1.043l4.395-7.524 13.038-1.565-21.233 32.333.745.969h31.812l-2.98-13.038h-1.043l-4.396 7.525-14.006 1.34zm24.361 31.29c-6.183 0-10.43-4.768-10.504-14.006l24.361 1.64c.373-2.31.596-4.769.596-6.259 0-8.79-4.842-14.676-12.59-14.676-8.046 0-19.072 7.599-19.072 22.126 0 12.07 8.865 17.21 15.421 17.21 8.493 0 14.528-5.96 16.465-12.814l-1.267-.522c-2.607 3.204-6.481 7.301-13.41 7.301zm-7.226-25.553c1.713-1.714 3.8-2.16 6.034-2.16 7.003 0 8.94 4.99 8.94 9.535l-18.178 1.49c.373-4.097 1.416-7.077 3.204-8.865zm80.98 26.596-6.034 2.31v1.639h18.774v-1.863c-2.012-.372-3.353-1.043-4.321-2.011-1.267-1.267-1.714-3.353-1.714-13.038v-9.163c0-8.344-3.278-12.218-9.685-12.218-5.29 0-9.908 2.235-14.825 5.215-1.565-3.502-4.247-5.215-8.493-5.215-5.439 0-10.207 2.384-13.634 4.768v-4.768l-12.516 4.842v1.118c1.863.521 3.13 1.34 3.949 2.31 1.713 1.936 1.862 4.544 1.862 8.567v17.507l-6.034 2.31v1.639h18.774v-1.863c-2.012-.372-3.353-1.043-4.321-2.011-1.267-1.267-1.714-3.353-1.714-13.038v-12.888c2.608-1.341 5.588-2.533 9.834-2.533 4.172 0 6.78 2.905 6.78 9.387v18.997l-6.035 2.31v1.639h18.774v-1.863c-2.011-.372-3.352-1.043-4.32-2.011-1.267-1.267-1.714-3.353-1.714-13.038v-12.814c3.352-1.639 6.034-2.607 9.834-2.607 4.172 0 6.78 2.905 6.78 9.387v18.997zm22.723-18.252v18.252l-6.034 2.31v1.639h18.774v-1.863c-2.012-.372-3.353-1.043-4.321-2.011-1.267-1.267-1.714-3.353-1.714-13.038v-12.888c2.682-1.416 5.811-2.608 10.207-2.608 4.395 0 7.152 1.863 7.152 6.854v21.605l-6.035 2.31v1.639h18.774v-1.863c-2.011-.372-3.352-1.043-4.32-2.011-1.267-1.267-1.714-3.353-1.714-13.038v-9.163c0-8.344-3.874-12.218-10.356-12.218-5.513 0-9.983 2.458-13.708 4.768v-4.768l-12.516 4.842v1.118c1.863.372 3.13.745 4.098 1.713 1.49 1.49 1.713 4.396 1.713 8.419zm47.682-19.966 10.952-11.771-8.046-3.874-.969.596-2.756 14.602.82.447zm-.894 38.218-6.034 2.31v1.639h18.774v-1.863c-2.012-.372-3.353-1.043-4.321-2.011-1.267-1.267-1.714-3.353-1.714-13.038v-8.567l.745-12.814-13.26 4.842v1.118c1.862.521 3.128 1.34 3.948 2.31 1.713 1.936 1.862 4.544 1.862 8.567zm33.972 4.992c7.971 0 14.006-5.96 15.943-14.304l-1.267-.522c-2.682 4.694-7.152 8.791-13.559 8.791-5.96 0-10.057-4.395-10.057-13.931 0-4.843.894-8.866 3.352-11.324 1.714-1.714 4.023-2.757 7.003-2.757 1.788 0 3.65.298 5.439.82l3.725 9.387h1.192l4.917-13.56c-4.545-1.638-7.897-1.936-11.399-1.936-11.1 0-21.232 9.536-21.232 21.903 0 11.324 6.705 17.433 15.943 17.433zm50.136-4.992-6.035 2.31v1.639h18.774v-1.863c-2.011-.372-3.352-1.043-4.32-2.011-1.267-1.267-1.714-3.353-1.714-13.038v-9.163c0-8.344-3.427-12.218-10.058-12.218-5.587 0-10.28 2.458-14.006 4.768v-6.333l.67-15.868-.744-.745-12.442 4.991v1.118c1.863.521 3.055 1.266 3.949 2.16 1.564 1.565 1.862 3.949 1.862 7.972v36.281l-6.034 2.31v1.639h18.774v-1.863c-2.012-.372-3.353-1.043-4.321-2.011-1.267-1.267-1.714-3.353-1.714-13.038v-12.888c2.682-1.416 5.811-2.533 10.207-2.533 4.395 0 7.152 2.905 7.152 9.387zm42.689-47.233h-1.192l-7.897 15.422v1.117c3.501 1.118 4.097 3.353 4.097 8.642v19.743c0 4.991 2.906 7.3 6.258 7.3 4.023 0 8.94-2.16 12.74-3.873v-1.267l-12.293-2.16v-26.15h11.995v-4.842h-11.996l-1.713-13.932zm23.24 47.233-6.034 2.31v1.639h18.774v-1.863c-2.012-.372-3.353-1.043-4.321-2.011-1.267-1.267-1.714-3.353-1.714-13.038v-22.946l.671-15.868-.745-.745-12.442 4.991v1.118c1.863.521 3.055 1.266 3.949 2.16 1.564 1.565 1.862 3.949 1.862 7.972zm53.422.223v-1.042c-2.16-.522-3.65-1.341-4.618-2.31-1.788-1.788-1.863-4.544-1.863-10.057v-12.367c0-5.588-4.842-8.791-10.057-8.791-6.407 0-13.261 3.203-18.03 5.81l3.353 10.282h1.192l4.098-11.026c6.407 0 9.387.223 11.398 2.235 1.043 1.043 1.341 2.458 1.341 4.395v5.588l-5.364 1.415c-5.885 1.565-11.175 3.427-13.41 5.662-1.788 1.788-2.458 3.874-2.458 6.11 0 5.065 4.172 8.865 9.908 8.865 4.321 0 8.046-1.937 11.324-3.949l.15 4.023 13.037-4.842zm-13.186-2.607c-1.937.894-5.736 2.012-8.716 2.012-4.47 0-5.662-2.98-5.662-6.258 0-.67.074-1.714.223-2.459l14.155-3.352zm21.901 2.384-6.035 2.31v1.639h18.774v-1.863c-2.011-.372-3.352-1.043-4.32-2.011-1.267-1.267-1.714-3.353-1.714-13.038v-1.937l6.63 1.64 7.6 13.782c1.936 3.576 3.873 4.47 6.406 4.47 2.384 0 4.768-1.043 7.674-3.8v-1.043l-7.823-2.086-8.865-15.794 15.123-14.527v-1.043h-11.324c-.745 5.364-3.054 9.461-5.364 11.77-2.31 2.31-5.662 3.502-10.057 4.322v-18.7l.67-15.868-.745-.745-12.441 4.991v1.118c1.862.521 3.054 1.266 3.948 2.16 1.565 1.565 1.863 3.949 1.863 7.972zm57.365-37.92c7.152 0 11.548-3.949 11.548-8.568s-4.396-8.12-11.548-8.12c-7.226 0-11.473 3.948-11.473 8.567 0 4.545 4.247 8.12 11.473 8.12zm0-2.757c-3.054 0-5.662-1.862-5.662-5.587s2.608-5.588 5.662-5.588c3.278 0 5.737 1.863 5.737 5.588s-2.459 5.587-5.737 5.587zm15.05 19.147.744-12.814-14.23 4.842v1.118c2.161.521 3.651 1.34 4.62 2.31 1.937 1.936 2.16 3.575 2.16 9.088v13.708c-2.235 1.267-5.364 2.384-9.834 2.384-4.842 0-6.928-2.607-6.928-7.897v-12.74l.745-12.813-13.038 4.842v1.118c1.863.447 2.98 1.415 3.874 2.31 1.788 1.787 1.714 4.544 1.714 10.057v10.355c0 6.854 3.65 10.654 9.536 10.654 5.364 0 10.504-2.31 13.931-4.768v4.842l13.187-4.842v-1.043c-2.16-.522-3.65-1.341-4.62-2.31-1.787-1.788-1.862-4.544-1.862-10.057v-8.344zm52.52 19.668c.299-.298.597-.596.82-.894l4.545 6.705h12.814v-1.863c-5.215-2.384-8.12-4.693-12.814-10.355 2.458-3.576 4.246-7.6 6.556-13.708l6.258-2.757v-1.043l-12.889-3.054c0 7.897-1.043 12.963-2.905 16.837l-9.015-11.175c4.247-4.172 10.728-10.207 10.728-16.912 0-5.96-3.725-9.908-11.25-9.908-7.3 0-13.41 6.109-13.41 13.857 0 3.278.671 7.599 4.918 12.963-5.811 4.395-11.25 9.983-11.25 16.986 0 6.63 5.066 11.175 11.622 11.175 3.725 0 9.685-1.267 15.273-6.854zm-10.653-26.224c-2.98-3.725-4.47-7.45-4.47-11.175 0-3.13 2.16-6.258 5.513-6.258 4.62 0 6.854 3.278 6.854 6.854 0 4.395-2.83 8.567-6.481 12.367zm-8.94 20.04c0-4.917 2.757-8.344 6.63-11.845l11.25 13.633-.67.67c-3.65 3.651-6.407 5.588-10.952 5.588-3.725 0-6.258-2.533-6.258-8.046zm76.51 29.502c-2.012-.372-3.353-1.043-4.321-2.011-1.267-1.267-1.714-3.353-1.714-13.038v-1.49c.67.075 1.267.075 1.937.075 5.811 0 12.59-2.012 17.508-6.929 3.725-3.725 6.407-9.163 6.407-16.688 0-9.387-5.811-15.72-14.155-15.72-5.14 0-8.94 2.012-11.846 4.098v-4.842l-13.335 5.438v1.118c2.16.521 3.65 1.34 4.619 2.31 1.937 1.936 2.16 4.544 2.16 10.057v35.536l-6.034 2.31v1.639h18.774zm-6.035-23.244v-24.808c2.533-1.267 5.811-2.16 9.238-2.16 2.533 0 4.694.67 6.333 2.309 2.235 2.235 3.427 5.81 3.427 10.653 0 6.035-1.49 9.983-3.725 12.218-1.937 1.937-4.47 2.831-7.227 2.831-2.682 0-5.513-.447-8.046-1.043zm38.295 1.788-6.034 2.31v1.639h18.774v-1.863c-2.012-.372-3.353-1.043-4.321-2.011-1.267-1.267-1.714-3.353-1.714-13.038v-1.788c0-5.215.969-8.27 2.906-10.206 1.341-1.341 3.129-2.16 5.364-2.16l3.501 8.94h1.192l3.874-14.826c-1.713-.969-3.054-1.341-5.066-1.341-3.203 0-6.183 1.639-8.493 3.948-1.34 1.341-2.533 3.502-3.278 6.482v-10.43l-12.516 4.842v1.118c1.863.372 3.13.745 4.098 1.713 1.49 1.49 1.713 4.396 1.713 8.419zm26.747-12.665c0 9.238 5.588 17.657 15.57 17.657 10.729 0 19.967-9.61 19.967-21.68 0-9.238-5.588-17.656-15.571-17.656-10.728 0-19.966 9.61-19.966 21.68zm28.683-.521c0 4.693-1.118 8.195-3.278 10.355-1.64 1.64-3.725 2.459-7.003 2.459-2.831 0-5.588-.894-7.972-3.278-2.533-2.533-3.576-7.078-3.576-12.516 0-4.694 1.118-8.195 3.278-10.356 1.639-1.639 3.725-2.458 7.003-2.458 2.831 0 5.588.894 7.972 3.278 2.533 2.533 3.576 7.077 3.576 12.516zm35.013 8.642c0 1.713-.446 2.83-1.415 3.8-1.117 1.117-2.607 1.787-5.215 1.787-2.011 0-4.395-.372-6.481-1.266l-3.055-8.195h-1.192l-3.948 11.994c4.023.969 7.673 1.416 11.473 1.416 9.014 0 16.762-4.247 16.762-11.771 0-3.204-1.34-5.29-2.756-6.705-4.023-4.023-13.336-5.662-15.645-7.972-1.043-1.043-1.788-2.16-1.788-3.948 0-1.416.447-2.384 1.34-3.278.97-.969 2.087-1.714 4.173-1.714 1.862 0 4.097.447 6.109 1.267l3.054 7.897h1.192l3.949-11.697c-3.874-.968-7.45-1.415-11.1-1.415-8.345 0-15.497 3.874-15.497 11.324 0 3.054 1.043 4.917 2.31 6.183 3.874 3.874 13.186 5.364 15.794 7.972 1.266 1.266 1.937 2.458 1.937 4.32zm22.944-42.689h-1.192l-7.897 15.422v1.117c3.501 1.118 4.097 3.353 4.097 8.642v19.743c0 4.991 2.906 7.3 6.258 7.3 4.023 0 8.94-2.16 12.74-3.873v-1.267l-12.293-2.16v-26.15h11.995v-4.842h-11.995zm17.879 34.568c0 9.238 5.587 17.657 15.57 17.657 10.728 0 19.966-9.61 19.966-21.68 0-9.238-5.587-17.656-15.57-17.656-10.728 0-19.966 9.61-19.966 21.68zm28.682-.521c0 4.693-1.117 8.195-3.278 10.355-1.639 1.64-3.725 2.459-7.003 2.459-2.83 0-5.587-.894-7.971-3.278-2.533-2.533-3.576-7.078-3.576-12.516 0-4.694 1.117-8.195 3.278-10.356 1.639-1.639 3.725-2.458 7.003-2.458 2.83 0 5.587.894 7.971 3.278 2.533 2.533 3.576 7.077 3.576 12.516zm32.035 34.642c-2.012-.372-3.353-1.043-4.321-2.011-1.267-1.267-1.714-3.353-1.714-13.038v-1.49c.67.075 1.267.075 1.937.075 5.811 0 12.59-2.012 17.508-6.929 3.725-3.725 6.407-9.163 6.407-16.688 0-9.387-5.811-15.72-14.155-15.72-5.14 0-8.94 2.012-11.846 4.098v-4.842l-13.335 5.438v1.118c2.16.521 3.65 1.34 4.619 2.31 1.937 1.936 2.16 4.544 2.16 10.057v35.536l-6.034 2.31v1.639h18.774zm-6.035-23.244v-24.808c2.533-1.267 5.811-2.16 9.238-2.16 2.533 0 4.694.67 6.333 2.309 2.235 2.235 3.427 5.81 3.427 10.653 0 6.035-1.49 9.983-3.725 12.218-1.937 1.937-4.47 2.831-7.227 2.831-2.682 0-5.513-.447-8.046-1.043zm68.691 2.011v-1.042c-2.16-.522-3.65-1.341-4.619-2.31-1.788-1.788-1.862-4.544-1.862-10.057v-12.367c0-5.588-4.843-8.791-10.058-8.791-6.407 0-13.26 3.203-18.029 5.81l3.353 10.282h1.192l4.097-11.026c6.407 0 9.387.223 11.399 2.235 1.043 1.043 1.34 2.458 1.34 4.395v5.588l-5.363 1.415c-5.886 1.565-11.175 3.427-13.41 5.662-1.788 1.788-2.459 3.874-2.459 6.11 0 5.065 4.172 8.865 9.909 8.865 4.32 0 8.046-1.937 11.324-3.949l.149 4.023 13.037-4.842zm-13.186-2.607c-1.937.894-5.737 2.012-8.717 2.012-4.47 0-5.662-2.98-5.662-6.258 0-.67.075-1.714.224-2.459l14.155-3.352zm56.17 2.533v-1.043c-4.842-.67-5.587-2.384-5.587-10.877v-24.138l.67-15.868-.745-.745-12.441 4.991v1.118c1.862.521 3.054 1.266 3.948 2.16 1.565 1.565 1.863 3.949 1.863 7.972v2.011c-.82-.074-1.714-.074-2.682-.074-8.94 0-23.17 6.258-23.17 23.616 0 9.387 5.811 15.72 14.155 15.72 5.14 0 8.94-2.012 11.846-4.098v4.172zm-12.292-27.565v24.66c-2.533 1.266-5.811 2.16-9.238 2.16-2.533 0-4.694-.67-6.333-2.31-2.235-2.234-3.427-5.81-3.427-10.653 0-6.034 1.49-9.983 3.725-12.218 1.937-1.937 4.47-2.83 7.227-2.83 2.682 0 5.513.595 8.046 1.191zm22.2 27.416-6.034 2.31v1.639h18.773v-1.863c-2.011-.372-3.352-1.043-4.32-2.011-1.267-1.267-1.714-3.353-1.714-13.038v-11.844l5.737-2.235v-4.172l-5.737 2.235v-6.929l.67-15.868-.744-.745-12.442 4.991v1.118c1.863.521 3.055 1.266 3.949 2.16 1.564 1.565 1.862 3.949 1.862 7.972v9.908l-6.183 2.384v4.172l6.183-2.384v22.201zm18.332-12.665c0 9.238 5.588 17.657 15.571 17.657 10.728 0 19.966-9.61 19.966-21.68 0-9.238-5.587-17.656-15.57-17.656-10.728 0-19.966 9.61-19.966 21.68zm28.683-.521c0 4.693-1.117 8.195-3.278 10.355-1.639 1.64-3.725 2.459-7.003 2.459-2.83 0-5.587-.894-7.971-3.278-2.533-2.533-3.576-7.078-3.576-12.516 0-4.694 1.117-8.195 3.278-10.356 1.639-1.639 3.725-2.458 7.003-2.458 2.83 0 5.587.894 7.971 3.278 2.533 2.533 3.576 7.077 3.576 12.516zm26.82-25.032 10.951-11.771-8.046-3.874-.968.596-2.757 14.602zm8.195 33.674c0 1.713-.447 2.83-1.416 3.8-1.117 1.117-2.607 1.787-5.215 1.787-2.011 0-4.395-.372-6.481-1.266l-3.055-8.195h-1.192l-3.948 11.994c4.023.969 7.673 1.416 11.473 1.416 9.014 0 16.762-4.247 16.762-11.771 0-3.204-1.34-5.29-2.756-6.705-4.023-4.023-13.336-5.662-15.645-7.972-1.043-1.043-1.788-2.16-1.788-3.948 0-1.416.447-2.384 1.34-3.278.97-.969 2.087-1.714 4.173-1.714 1.862 0 4.097.447 6.109 1.267l3.054 7.897h1.192l3.949-11.697c-3.874-.968-7.45-1.415-11.1-1.415-8.345 0-15.497 3.874-15.497 11.324 0 3.054 1.043 4.917 2.31 6.183 3.874 3.874 13.186 5.364 15.794 7.972 1.266 1.266 1.937 2.458 1.937 4.32zm30.467 9.536c7.971 0 14.006-5.96 15.943-14.304l-1.267-.522c-2.682 4.694-7.152 8.791-13.559 8.791-5.96 0-10.057-4.395-10.057-13.931 0-4.843.894-8.866 3.352-11.324 1.714-1.714 4.023-2.757 7.003-2.757 1.788 0 3.651.298 5.439.82l3.725 9.387h1.192l4.917-13.56c-4.545-1.638-7.897-1.936-11.399-1.936-11.1 0-21.232 9.536-21.232 21.903 0 11.324 6.705 17.433 15.943 17.433zm29.648-45.743a5.58 5.58 0 0 0 5.588-5.588 5.58 5.58 0 0 0 -5.588-5.587c-3.054 0-5.662 2.533-5.662 5.587 0 3.055 2.608 5.588 5.662 5.588zm-2.756 40.751-6.035 2.31v1.639h18.774v-1.863c-2.011-.372-3.352-1.043-4.32-2.011-1.267-1.267-1.714-3.353-1.714-13.038v-8.567l.745-12.814-13.261 4.842v1.118c1.862.521 3.129 1.34 3.948 2.31 1.714 1.936 1.863 4.544 1.863 8.567zm35.238-1.043c-6.184 0-10.43-4.768-10.505-14.006l24.362 1.64c.372-2.31.596-4.769.596-6.259 0-8.79-4.843-14.676-12.59-14.676-8.047 0-19.073 7.599-19.073 22.126 0 12.07 8.866 17.21 15.422 17.21 8.493 0 14.527-5.96 16.464-12.814l-1.266-.522c-2.608 3.204-6.482 7.301-13.41 7.301zm-7.227-25.553c1.714-1.714 3.8-2.16 6.035-2.16 7.003 0 8.94 4.99 8.94 9.535l-18.178 1.49c.372-4.097 1.415-7.077 3.203-8.865zm34.347 8.344v18.252l-6.035 2.31v1.639h18.774v-1.863c-2.011-.372-3.352-1.043-4.32-2.011-1.267-1.267-1.714-3.353-1.714-13.038v-12.888c2.682-1.416 5.81-2.608 10.206-2.608s7.152 1.863 7.152 6.854v21.605l-6.034 2.31v1.639h18.774v-1.863c-2.012-.372-3.353-1.043-4.321-2.011-1.267-1.267-1.714-3.353-1.714-13.038v-9.163c0-8.344-3.874-12.218-10.355-12.218-5.513 0-9.983 2.458-13.708 4.768v-4.768l-12.516 4.842v1.118c1.862.372 3.129.745 4.097 1.713 1.49 1.49 1.714 4.396 1.714 8.419zm46.788 0v18.252l-6.034 2.31v1.639h18.774v-1.863c-2.012-.372-3.353-1.043-4.321-2.011-1.267-1.267-1.714-3.353-1.714-13.038v-12.888c2.682-1.416 5.811-2.608 10.207-2.608 4.395 0 7.152 1.863 7.152 6.854v21.605l-6.035 2.31v1.639h18.774v-1.863c-2.011-.372-3.352-1.043-4.32-2.011-1.267-1.267-1.714-3.353-1.714-13.038v-9.163c0-8.344-3.874-12.218-10.356-12.218-5.513 0-9.983 2.458-13.708 4.768v-4.768l-12.516 4.842v1.118c1.863.372 3.13.745 4.098 1.713 1.49 1.49 1.713 4.396 1.713 8.419z"/><path d="m1734.461 920.054-3.65 15.645c2.16.522 4.023.82 5.885.82 8.493 0 13.783-7.674 15.869-16.241l1.192-4.843 12.814-27.714 4.619-7.599-.373-1.266h-8.865c-.15 6.854-1.788 13.633-6.035 22.722l-2.607 5.588-8.642-19.147-2.384-9.163h-9.76v1.862c2.16 2.757 3.502 4.62 5.96 9.834l11.399 24.213-1.192 4.917c-1.267 5.215-3.949 9.908-10.505 9.908l-2.682-9.536z"/></g></svg>