<svg viewBox="0 0 1920 1080" xmlns="http://www.w3.org/2000/svg" fill-rule="evenodd" clip-rule="evenodd" stroke-linejoin="round" stroke-miterlimit="2"><g transform="matrix(.56053 0 0 .58284 -36.632 -166.091)"><path d="M60 110.076h3436.06v2274.85H60z"/><clipPath id="a"><path d="M60 110.076h3436.06v2274.85H60z"/></clipPath><g clip-path="url(#a)"><path d="M-1.252 1472.205c0 322.996 118.536 568.093 314.122 568.093 37.536 0 75.073-9.5 112.61-26.6 15.804 77.9 39.512 142.498 77.048 178.598 23.708 22.8 51.366 36.1 86.927 36.1 140.268 0 266.707-231.798 266.707-568.093h-3.95c-27.66 298.296-114.586 473.094-227.196 473.094-23.707 0-47.415-7.6-71.122-30.4-25.683-24.7-41.488-72.2-53.341-134.898 15.805-11.4 33.585-26.6 49.39-41.8 203.488-195.697 357.585-611.792 357.585-999.387 0-353.395-126.439-560.492-310.17-560.492-310.171 0-598.61 562.392-598.61 1105.785zm96.805-28.5c0-524.392 241.024-1058.285 470.195-1058.285 144.22 0 243 203.297 243 560.492 0 397.095-132.366 832.19-308.195 1001.287l-3.952 3.8c-47.414-281.196-11.853-813.19-193.61-813.19-102.731 0-197.56 170.998-207.438 467.394v-161.497zm19.756 142.499c0-258.397 112.61-410.395 179.78-410.395 134.342 0 69.147 518.693 126.44 826.49-25.684 13.3-53.342 18.999-79.025 18.999-150.146 0-227.195-205.197-227.195-435.094zm821.851 455.994l403.025-74.1-110.635-62.698 272.635-1497.18h114.585c189.658 0 270.658 96.898 270.658 250.796 0 199.497-211.39 370.495-408.95 478.794l-75.074 49.399v9.5c156.073 647.891 260.78 849.289 408.951 849.289 148.171 0 187.683-193.798 187.683-368.595 0-243.197-63.22-446.495-82.975-541.493h-11.854c21.732 127.298 45.439 275.496 45.439 440.794 0 115.898-19.756 186.197-65.195 186.197-61.244 0-130.39-136.798-349.683-644.091 363.512-70.3 636.146-218.497 636.146-461.694 0-157.698-114.585-271.696-408.951-271.696h-630.22c65.196 36.1 90.879 75.999 71.123 182.397L937.16 2042.197zm1979.566-1542.78l120.512-113.998h-703.317c59.268 45.599 79.024 106.398 59.268 210.897l-264.731 1451.58 632.195-106.398-88.903-98.799 244.976-1343.282zm167.927 463.594l729-577.592h-630.22c9.878 269.796-63.22 511.093-264.732 720.09l-134.341 138.698c156.073 452.194 246.951 661.192 339.805 750.49 53.341 51.3 110.634 62.7 156.073 62.7 233.122 0 272.634-302.096 272.634-497.794 0-248.897-69.146-607.992-98.78-748.59h-19.757c35.561 178.598 49.39 402.795 49.39 514.893 0 159.598-29.633 203.297-67.17 203.297-33.585 0-106.683-68.399-331.902-566.192z" fill="#fff" fill-rule="nonzero"/></g></g></svg>