<svg clip-rule="evenodd" fill-rule="evenodd" stroke-linejoin="round" stroke-miterlimit="2" viewBox="0 0 1080 960" xmlns="http://www.w3.org/2000/svg"><path d="M0 0h1080v960H0z" fill="none"/><path d="M0 0h1080v960H0z"/><path d="M850.729 216.841c-81.441 0-137.37 138.351-102.046 239.416l5.887-.981c-14.718-77.516 11.775-195.262 79.478-195.262 28.456 0 37.286 27.474 37.286 59.854.982 167.788-195.261 357.162-360.105 384.636 7.85-48.079 13.737-101.065 18.643-153.069 62.798-70.648 111.859-142.276 112.84-216.848 0-23.549-6.869-55.93-39.249-55.93-65.741 0-80.459 110.878-93.215 237.454-.981 14.718-2.944 29.436-3.925 43.173-82.422 80.46-156.994 137.37-238.435 144.239 77.516-173.675 130.502-314.97 130.502-412.11 0-54.948-24.531-74.572-58.873-74.572-86.347 0-157.975 138.351-146.201 239.416l5.887-.981c-2.943-73.591 49.061-191.337 118.727-191.337 29.437 0 45.136 23.549 45.136 55.929 0 117.746-79.478 291.421-149.144 439.584l3.924 3.925c8.831-1.963 17.662-4.906 26.493-7.85v1.963c0-.982.981-1.963.981-1.963 90.272-31.399 177.6-100.084 259.041-179.562-7.85 65.741-17.662 130.501-35.324 183.487l7.85 3.925c187.411-52.004 428.79-287.496 428.79-471.964 0-54.948-24.53-74.572-54.948-74.572M598.557 320.85c13.737 0 21.587 14.718 21.587 38.267-.981 56.91-33.361 107.933-88.309 173.675l1.962-16.681c9.812-104.009 24.53-195.261 64.76-195.261" fill="#fff" fill-rule="nonzero"/></svg>