<svg clip-rule="evenodd" fill-rule="evenodd" stroke-linejoin="round" stroke-miterlimit="2" viewBox="0 0 1080 960" xmlns="http://www.w3.org/2000/svg"><path d="M0 0h1080v960H0z" fill="none"/><path d="M0 0h1080v960H0z" fill="#6b0724"/><path d="M643.801 404.993L807.4 176.518l-9.402-20.685H388.06l-204.029-3.761-1.88 22.566 144.794 33.848 3.761 227.534v94.023l-3.761 207.79-144.794 33.848 1.88 23.505 204.029-5.641-3.761-259.502V436.02l2.821-236.936 339.421-4.701-167.36 234.116 19.745 18.804c142.914-21.625 245.398 41.37 245.398 160.779 0 90.261-62.055 151.376-156.077 151.376-41.37 0-70.517-11.283-114.708-31.028l-72.397-197.447-23.506 4.701 47.952 261.383 46.071-12.223c42.31 9.402 67.696 15.044 115.648 15.044 133.512 0 211.55-91.202 211.55-214.372 0-111.887-90.261-204.969-235.056-180.523" fill="#fff" fill-rule="nonzero"/></svg>