<svg clip-rule="evenodd" fill-rule="evenodd" stroke-linejoin="round" stroke-miterlimit="2" viewBox="0 0 1080 960" xmlns="http://www.w3.org/2000/svg"><path d="M0 0h1080v960H0z" fill="none"/><path d="M0 1.08h1080V960H0z" fill="#6b0724"/><path d="M821.42 636.59c-12.179 15.224-23.343 27.403-46.686 27.403-25.373 0-34.507-18.269-33.492-58.865l5.074-184.715c4.06-155.282-93.372-197.909-181.67-197.909-98.446 0-206.028 56.836-278.087 174.566l45.672 75.104h75.103V345.309c31.463-14.209 63.94-20.298 95.402-20.298 73.074 0 105.552 59.88 104.537 130.924v16.239l-116.715 27.402c-112.656 27.403-193.849 50.746-193.849 143.104 0 84.238 61.909 134.983 141.073 134.983 79.163 0 141.073-49.731 177.61-114.685h10.149c10.149 59.88 36.537 109.611 102.507 109.611 74.089 0 113.67-34.507 134.984-118.745zm-331.877 34.507c-35.522 0-68-23.343-68-57.85 0-25.373 23.343-44.656 86.268-53.791l97.432-14.208-1.015 80.178c-43.641 34.507-76.119 45.671-114.685 45.671" fill="#fff" fill-rule="nonzero"/></svg>