<svg clip-rule="evenodd" fill-rule="evenodd" stroke-linejoin="round" stroke-miterlimit="2" viewBox="0 0 1080 960" xmlns="http://www.w3.org/2000/svg"><path d="M0 0h1080v960H0z" fill="none"/><path d="M0 0h1080v960H0z"/><path d="M756.02 210.055c-62.443 0-161.036-5.751-221.835-10.681v4.93c52.583 6.573 88.734 13.145 131.458 22.183 71.48 14.789 79.696 25.47 83.804 98.594 1.643 32.864 2.465 74.766 2.465 115.025v266.203c-17.254-14.789-50.94-49.297-120.777-144.604L462.704 330.832c-29.578-40.259-58.334-80.518-83.804-120.777h-11.502c-60.8 0-136.388-5.751-184.863-10.681v4.93c39.437 6.573 67.372 13.967 100.236 22.183 59.157 14.789 67.373 25.47 71.481 98.594 1.643 37.794 2.465 86.269 2.465 132.279v82.983c0 40.259-.822 82.161-2.465 115.026-4.108 73.123-12.324 83.804-71.481 98.593-32.864 8.216-60.799 14.789-100.236 22.184v4.929c56.691-5.751 129.814-10.681 182.398-10.681 70.658 0 162.679 4.93 257.164 10.681v-4.929c-60.799-6.573-103.523-13.146-153.641-22.184-84.626-14.789-92.842-25.47-96.95-98.593-1.644-32.865-2.465-74.767-2.465-115.026V457.36c0-39.437.821-80.518 4.108-187.327 27.935 21.362 59.156 57.512 135.566 162.679l251.413 347.542h4.108V440.106c0-40.259.822-82.161 2.465-115.025 4.108-73.124 12.324-83.805 63.264-98.594 28.757-8.216 52.583-14.789 86.269-21.362v-5.751c-41.902 4.93-105.166 10.681-160.214 10.681" fill="#fff" fill-rule="nonzero"/></svg>