<svg xmlns="http://www.w3.org/2000/svg" width="1440" height="1280" viewBox="0 0 1080 960"><path d="M495.46 385.477l-14.608 32.543h152.753c18.594 0 28.555 3.984 37.192 15.273l16.601 21.918 168.696 40.512-21.918-43.832c-8.637-17.27-5.977-33.871 21.254-33.871h130.172l14.609-32.543H846.793c-12.617 0-24.57-1.993-30.55-12.622-5.977-9.296-10.626-13.945-27.231-13.945h-33.207v-16.605h33.207c13.949 0 20.59-1.328 27.23-13.282 5.98-10.625 17.934-13.28 31.215-13.28h138.145l14.609-32.544H813.586c-12.617 0-24.574-1.996-30.55-12.62-5.977-9.298-10.626-13.946-27.231-13.946h-33.207v-16.606h23.91c13.945 0 20.59-1.328 27.23-13.28 5.977-10.63 17.93-13.286 31.215-13.286h180.649l14.609-32.543H748.5c-12.617 0-25.902-1.992-31.879-12.617-5.976-9.297-10.625-13.95-27.23-13.95h-11.953V137.75h11.953c13.949 0 20.59-1.328 27.23-13.281 5.977-10.63 17.27-13.285 30.55-13.285h238.43l14.61-32.543H713.3c-14.61 0-25.903-5.313-31.88-17.266-10.624-21.254-21.253-33.871-37.19-33.871H102.952l-14.61 32.543h239.09c13.286 0 25.239 2.656 31.215 13.281 6.641 11.953 13.282 13.281 27.23 13.281h21.915v16.606h-21.914c-16.606 0-21.254 4.648-27.23 13.945-5.977 10.63-18.598 12.621-31.215 12.621h-224.48l-14.61 32.543h207.21c13.282 0 25.239 2.656 31.216 13.281 6.64 11.954 13.28 13.282 27.23 13.282h23.91v16.605H354c-16.605 0-21.254 4.649-27.23 13.95-5.977 10.624-17.934 12.617-30.551 12.617H102.953l-14.61 32.543H240.43c13.285 0 25.238 2.656 31.215 13.28 6.64 11.958 13.285 13.286 27.23 13.286h37.191v16.602h-37.191c-16.602 0-21.254 4.648-27.23 13.949-5.977 10.625-18.594 12.617-31.215 12.617H102.953l-14.61 32.543h96.302c13.28 0 25.234 2.656 31.214 13.285 6.641 11.953 13.282 13.281 27.227 13.281h34.535v16.602h-34.535c-16.602 0-21.25 4.652-27.227 13.95-5.98 10.624-18.597 12.616-31.214 12.616h-81.692l-14.61 32.543h494.122l14.61-32.543H441c-12.617 0-24.57-1.992-30.547-12.617-5.98-9.297-10.629-13.95-27.23-13.95h-33.871v-16.6h20.586c13.949 0 20.59-1.329 27.23-13.282 5.977-10.629 17.934-17.934 31.215-17.934h223.152c19.926 0 26.567 2.657 26.567 10.625 0 9.301-7.305 12.622-26.567 12.622zm38.52-120.875l14.614-32.543H512.73c-12.62 0-24.574-1.993-30.55-12.618-5.977-9.3-10.625-13.949-27.23-13.949h-8.634v-16.605h44.497c20.59 0 28.558-11.953 28.558-24.57v-38.52c0-11.957-6.64-22.582-27.23-22.582h-3.32V86.609h18.597c20.586 0 27.227-10.625 27.227-23.242V56.06h17.27v51.804c0 19.926 11.952 29.887 32.542 29.887h21.254v16.602h-14.613c-16.602 0-21.25 4.652-27.23 13.949-5.977 10.625-11.29 12.617-23.907 12.617h-2.656l-14.614 32.543h45.829c16.601 0 25.234 2.656 31.214 13.285 6.641 11.953 13.282 13.281 27.227 13.281h30.55v16.606h-21.25c-16.605 0-21.253 5.976-27.23 15.273-5.976 10.63-17.933 15.278-30.55 15.278H433.694c-19.257 0-26.566-2.657-26.566-11.957 0-7.97 6.644-10.625 26.566-10.625zM181.965 588.469h2.347c.84 17.793 8.731 24.172 31.727 24.172h6.043l12.254-29.543h-6.715c-4.867 0-7.219-2.352-7.219-6.883v-16.617c0-21.657-14.097-34.078-59.086-34.078-52.035 0-61.605 16.285-61.605 29.714v.5l30.047 10.914c-25.008 2.684-32.395 10.743-32.395 23.836 0 17.29 12.59 24.676 41.293 24.676 24.676 0 41.797-7.89 43.309-26.691m-28.367-22.996c-6.38 0-12.086.168-17.125.504v-2.016c0-6.547 3.695-13.262 24.675-13.262 20.649 0 23.165 6.715 23.165 12.758v4.363c-4.364-.668-18.13-2.347-30.715-2.347m-2.688 27.195c-11.918 0-15.61-2.352-15.61-7.555 0-5.039 2.516-7.89 22.829-7.89 11.414 0 18.969 1.007 26.184 2.183v2.516c-7.72 5.707-20.477 10.746-33.403 10.746m93.832 19.973h36.09v-34.578c0-14.606 3.86-24.004 25.18-24.004 20.48 0 25.347 7.718 25.347 24.34v8.726c0 18.8 8.727 25.516 29.543 25.516h8.227l12.254-29.543h-6.715c-4.867 0-7.219-2.352-7.219-6.883v-9.063c0-26.355-10.91-41.632-41.965-41.632-27.195 0-40.793 8.898-42.3 30.886h-2.352v-2.851c0-18.801-8.727-25.516-29.543-25.516h-8.226l-12.086 29.543h6.546c4.868 0 7.22 2.352 7.22 6.883zm183.973-101.555c0-7.89-4.7-12.086-24.004-12.086-19.305 0-23.836 4.195-23.836 12.086 0 7.723 4.531 12.086 23.836 12.086s24.004-4.363 24.004-12.086m-36.09 76.039c0 18.8 8.73 25.516 29.543 25.516h9.906l12.254-29.543h-8.394c-4.868 0-7.22-2.352-7.22-6.883v-22.66c0-18.801-8.726-25.516-29.542-25.516h-9.902l-12.086 29.543h8.222c4.867 0 7.219 2.352 7.219 6.883zm98.195-33.57c0-18.801-8.726-25.516-29.543-25.516h-8.222l-12.086 29.543h6.547c4.867 0 7.214 2.352 7.214 6.883v48.176h36.09v-32.903c0-16.953 3.36-25.68 21.489-25.68s21.484 8.727 21.484 25.68v32.903h36.09v-33.235c0-16.957 3.36-25.347 21.488-25.347 18.129 0 21.484 8.726 21.484 25.68v7.386c0 18.8 8.73 25.516 29.543 25.516h8.227l12.254-29.543h-6.715c-4.867 0-7.219-2.352-7.219-6.883v-5.707c0-27.028-7.05-44.988-38.605-44.988-27.028 0-38.274 12.085-39.953 31.222h-2.012c-1.344-20.308-11.078-31.222-36.762-31.222-26.86 0-37.097 12.085-38.441 30.886h-2.352zm258.676 34.914h2.348c.84 17.793 8.73 24.172 31.726 24.172h6.043l12.254-29.543h-6.715c-4.867 0-7.218-2.352-7.218-6.883v-16.617c0-21.657-14.098-34.078-59.086-34.078-52.035 0-61.606 16.285-61.606 29.714v.5l30.047 10.914c-25.012 2.684-32.394 10.743-32.394 23.836 0 17.29 12.585 24.676 41.293 24.676 24.675 0 41.796-7.89 43.308-26.691m-28.371-22.996c-6.379 0-12.086.168-17.121.504v-2.016c0-6.547 3.691-13.262 24.676-13.262 20.648 0 23.164 6.715 23.164 12.758v4.363c-4.364-.668-18.13-2.347-30.719-2.347m-2.684 27.195c-11.918 0-15.613-2.352-15.613-7.555 0-5.039 2.52-7.89 22.828-7.89 11.418 0 18.973 1.007 26.188 2.183v2.516c-7.719 5.707-20.477 10.746-33.403 10.746m88.461-5.543c0 18.8 8.727 25.516 29.543 25.516h9.903l12.254-29.543h-8.391c-4.867 0-7.219-2.352-7.219-6.883v-74.7h-36.09zm178.938.168c0-16.953-12.926-21.82-30.215-22.828l30.55-10.574v-3.024c0-14.937-19.472-25.347-63.952-25.347-45.493 0-58.082 8.226-58.082 26.355 0 15.61 10.242 22.492 27.027 24.172l-31.39 11.414v1.68c0 17.96 22.324 26.02 62.109 26.02 51.363 0 63.953-10.243 63.953-27.868m-38.61-22.996h-28.535c-15.777 0-18.297-2.52-18.297-7.219 0-4.531 3.36-6.883 24.172-6.883 21.32 0 24.844 4.2 24.844 11.582v2.52zm2.352 19.64c0 4.7-4.363 6.547-25.852 6.547-21.988 0-26.015-4.199-26.015-10.578v-3.355h34.242c15.441 0 17.625 2.351 17.625 7.386m-592.57 114.872c4.972 2.129 9.59 4.617 25.57 4.617h11.723v8.879H381.52c-7.461 0-11.012.71-14.567 7.105-3.195 5.68-9.59 7.102-16.691 7.102h-41.203l-7.813 17.402h59.672c6.746 0 13.496 1.066 16.691 6.75 3.2 4.973 5.684 7.461 14.563 7.461h11.012v8.879h-11.012c-7.457 0-11.012.71-14.563 7.101-3.195 5.684-9.59 7.106-16.691 7.106h-51.86l-7.812 17.402h80.274l76.363 34.453v-15.273c0-13.496 6.746-19.18 20.601-19.18h76.72l7.812-17.402h-84.532c-6.75 0-13.5-1.066-16.695-6.75-3.195-4.973-5.684-7.457-14.562-7.457h-14.563v-8.879h14.563c7.457 0 11.011-.71 14.562-7.105 3.195-5.684 9.59-7.106 16.695-7.106h76.72l7.812-17.402h-86.664c-6.75 0-13.497-1.067-16.696-6.746-3.195-4.977-5.68-7.461-14.562-7.461h-19.89v-8.88h19.89c7.46 0 11.011-.71 14.562-7.105 3.2-5.68 9.59-7.101 16.696-7.101h78.851l7.813-17.407h-98.032c-13.14 0-20.597-3.195-29.125-10.652-16.336-14.566-36.937-23.8-69.613-23.8-60.383 0-82.402 25.574-87.02 64.288h-8.171v-3.195c0-39.781-20.246-53.988-64.285-53.988H97.37l-7.812 17.402h84.53c6.75 0 13.5 1.067 16.696 6.75 3.195 4.973 5.684 7.457 14.563 7.457h12.785v8.883h-12.785c-7.461 0-11.012.707-14.563 7.102-3.195 5.683-9.59 7.105-16.695 7.105H97.37l-7.812 17.402h84.886c6.75 0 13.145 1.067 16.34 6.75 3.195 4.973 5.684 7.457 14.563 7.457h12.785v8.88h-12.785c-7.461 0-11.012.71-14.563 7.105-3.195 5.683-9.59 7.101-16.695 7.101H97.37l-7.812 17.407h84.53c6.75 0 13.5 1.066 16.696 6.75 3.195 4.968 5.684 7.457 14.563 7.457h12.785v8.879h-12.785c-7.461 0-11.012.71-14.563 7.105-3.195 5.684-9.59 7.102-16.695 7.102H97.37l-7.81 17.401h277.043l7.812-17.402h-82.758c-6.75 0-13.496-1.067-16.691-6.746-3.2-4.977-5.684-7.461-14.567-7.461h-12.785v-8.88h12.785c7.461 0 11.012-.71 14.567-7.105 3.195-5.68 9.59-7.101 16.691-7.101h53.633l7.813-17.407h-63.579c-6.746 0-13.496-1.062-16.691-6.746-3.195-4.972-5.684-7.46-14.562-7.46h-10.657v-8.88h16.34c7.457 0 16.692-1.773 20.602-8.878 9.941-17.758 23.086-29.836 45.816-29.836 13.852 0 18.113 2.843 26.64 6.75m500.454 108.683c9.59-5.328 20.953-8.879 33.031-8.879h95.543l7.813-17.402h-83.82c-6.75 0-13.5-1.066-16.696-6.75-3.195-4.973-5.684-7.457-14.563-7.457h-13.851v-8.879h13.851c7.461 0 11.012-.71 14.563-7.105 3.195-5.684 9.59-7.106 16.695-7.106h76.008l7.813-17.402h-80.98c-6.75 0-13.497-1.067-16.692-6.746-3.2-4.977-5.684-7.461-14.567-7.461h-16.336v-8.88h16.336c7.461 0 11.012-.71 14.567-7.105 3.195-5.68 9.59-7.101 16.691-7.101h73.168l7.813-17.407h-99.45c-15.629 0-26.996-4.972-45.109-13.851-23.441-11.719-49.371-20.602-93.77-20.602-23.086 0-44.75 3.555-61.8 7.106H506.898l-7.816 17.402h107.266c6.75 0 13.496 1.067 16.695 6.75 3.195 4.973 5.684 7.457 14.562 7.457h16.336v8.883h-19.886c-7.461 0-13.856-.355-20.957 6.39-4.618 4.618-10.301 7.817-24.508 7.817h-81.692l-7.816 17.402h84.535c6.746 0 13.496 1.067 16.692 6.75 3.199 4.973 5.683 7.457 14.562 7.457h14.563v8.88H614.87c-7.457 0-11.008.71-14.562 7.105-3.196 5.683-9.59 7.101-16.692 7.101h-76.719l-7.816 17.407H608.48c6.747 0 13.497 1.066 16.692 6.75 3.2 4.968 5.683 7.457 14.562 7.457h19.891v8.879h-16.34c-7.457 0-13.496 2.843-18.113 7.105-4.973 4.262-9.59 7.102-16.692 7.102H506.898l-7.816 17.402h189.313c17.05 3.555 37.296 7.105 60.382 7.105 45.11 0 71.746-4.972 108.688-25.574m-152.73-91.281h59.671l7.813-16.336h-48.66c-8.168 0-9.59-7.105-2.485-10.656 7.102-3.555 15.625-6.75 35.871-6.75 26.285 0 39.782 6.75 46.532 13.851 4.972 5.684 9.945 7.461 18.824 7.461h13.496v8.88H822.3c-7.461 0-11.012.71-14.563 7.105-3.199 5.68-9.59 7.101-16.695 7.101h-61.8l-7.813 17.403h66.773c6.746 0 13.14 1.066 16.336 6.75 3.2 4.972 5.684 7.46 14.563 7.46h16.34v8.88h-14.919c-11.011 0-15.628 2.128-21.308 6.745-11.012 8.524-24.863 13.852-48.309 13.852-12.43 0-23.441-2.484-30.543-6.39-6.039-3.551-8.172-11.012 1.067-11.012h42.976l7.813-16.34h-67.485c-6.75 0-13.496-1.063-16.695-6.746-3.195-4.973-5.68-7.461-14.562-7.461h-14.563v-8.88h14.563c7.46 0 11.011-1.066 14.562-7.456 3.2-5.684 8.527-7.461 16.695-7.461M173.137 886.387h-53.95v-10.598h50.094l6.957-17.129H95.637v70.863h75.035l6.96-17.125h-58.445v-10.382h47.418zm79.636 43.136h28.582l-28.046-37.25 25.582-33.613h-27.293l-21.196 29.547h-1.5l-19.586-29.547h-28.152l24.727 33.934-27.727 36.93h28.797l21.406-32.114h1.5zm85.204-18.625c22.8 0 35.324-7.707 35.324-26.652 0-18.414-12.524-25.586-35.324-25.586h-51.594v70.863h23.55v-18.625zM309.934 892.7v-15.84h25.796c11.344 0 13.274 3.426 13.274 7.922 0 4.496-1.93 7.918-13.274 7.918zm147.074-6.312h-53.95V875.79h50.094l6.961-17.129h-80.605v70.863h75.039l6.957-17.125h-58.445v-10.382h47.418zm10.062 43.136h23.547v-20.98h15.95l20.23 20.98h33.289l-26.547-23.226v-1.5c12.738-.75 19.375-10.168 19.375-22.266 0-18.41-12.523-23.87-35.324-23.87h-50.52zm23.547-36.18V876.86h24.727c11.347 0 13.273 3.746 13.273 8.243 0 4.496-1.926 8.242-13.273 8.242zm71.824 36.18h23.551v-70.859h-23.55zm72.575 0h33.718l13.27-60.906h1.5v60.906h23.55V858.66h-41.64L652.891 917h-1.496l-12.418-58.34H596.05v70.863h23.55v-60.906h1.5zm159.597-43.136h-53.949V875.79h50.094l6.96-17.129h-80.6v70.863h75.034l6.957-17.125h-58.445v-10.382h47.418zm76.961 32.86l-23.87-60.587h-43.028v70.863h23.547v-60.586h1.5l24.191 60.586h42.707V858.66h-23.547v60.586zm31.149-40.567h33.718v50.843h23.551V878.68h29.219l8.137-20.02h-94.625zm0 0" fill="#141111"/></svg>