<svg xmlns="http://www.w3.org/2000/svg" width="1440" height="1280" viewBox="0 0 1080 960"><path d="M595.32 919.184h81.735l5.273-60.696c2.637-29.027 19.774-43.543 50.094-43.543h61.957l18.457-39.582h-83.05c-23.731 0-39.548-18.472-38.231-42.222l6.59-87.086c2.636-27.707 17.14-39.582 44.82-39.582h51.414l18.457-39.586h-69.871c-27.68 0-38.227-15.832-35.59-46.18l6.59-83.125c2.637-31.668 17.137-39.582 44.82-39.582h35.594l18.457-39.586h-56.688c-25.046 0-36.91-11.875-34.273-39.582l6.59-89.723c2.637-31.668 18.457-39.586 46.14-39.586h10.547l18.453-39.582h-32.953c-27.687 0-35.593-15.832-32.957-47.5l5.27-76.527-47.457 32.984-2.637 46.184c-1.316 30.348-11.863 44.86-39.547 44.86h-5.273l-18.453 39.581h23.726c27.684 0 34.274 15.836 31.64 46.184l-6.593 88.402c-1.316 22.43-14.5 34.305-42.183 34.305h-2.637L615.094 398h22.41c27.683 0 35.594 15.832 32.957 46.18l-5.274 76.527c-2.636 30.348-5.269 46.18-22.41 46.18h-1.316l-18.457 39.586h3.957c27.684 0 32.957 15.832 30.32 46.18l-17.14 250.695h-6.59l-21.094-357.57c-1.316-30.348 5.273-43.544 26.367-43.544h1.317l13.183-39.582h-3.953c-27.683 0-39.547-15.836-40.867-46.18l-3.953-76.53c-1.32-30.348 5.273-46.18 32.953-46.18h2.637l18.457-39.582h-21.094c-27.68 0-38.227-15.836-39.547-46.18l-3.953-76.531c-1.32-30.348 5.273-46.18 32.957-46.18h7.91l18.453-39.582H505.68l-5.274 72.566c-1.316 22.434-11.863 31.668-35.594 31.668h-2.636l-18.453 39.582h17.136c23.727 0 32.957 10.559 31.637 34.309l-6.59 92.36c-2.636 30.347-11.863 42.222-39.55 42.222h-2.633L425.266 398h17.136c27.684 0 38.23 15.832 35.594 46.18l-5.273 76.527c-2.637 30.348-6.59 46.18-23.727 46.18h-1.32l-18.457 39.586h3.957c27.683 0 31.637 15.832 30.32 46.18l-15.82 250.695h-6.59l-21.094-354.93c-1.316-30.348 3.957-46.184 29.004-46.184h1.317l13.183-39.582H452.95c-26.367 0-39.547-17.152-40.867-44.863l-3.953-80.484c-1.32-27.711 5.273-43.543 32.957-43.543h5.27l18.457-39.582h-23.727c-27.684 0-38.23-15.836-39.55-46.18l-3.954-77.852c-1.32-30.343 14.5-44.859 42.184-44.859h5.273l18.457-39.582H300.031l-18.457 39.582h23.73c29 0 44.821 15.832 47.458 46.18L358.035 208c2.637 30.344-13.183 46.18-40.867 46.18h-17.137l-18.457 39.582h39.547c26.367 0 43.504 14.515 44.824 42.222l5.27 80.489c2.637 30.343-13.18 46.18-40.863 46.18h-30.32l-18.458 39.581h50.094c27.684 0 44.82 15.836 47.457 46.184l5.273 76.527c2.637 30.348-17.136 46.18-44.82 46.18h-39.547l-18.457 39.586h67.23c27.684 0 42.188 13.191 44.825 43.539l5.273 79.168c2.633 30.348-11.867 46.18-39.55 46.18h-59.32l-18.458 39.586H534.68l18.457-39.586h-30.32c-27.684 0-35.594-14.512-32.958-46.18l6.594-84.445c1.317-25.07 17.137-38.262 39.547-38.262h1.316l19.774-39.586h-22.41c-22.41 0-31.637-17.152-30.317-36.945l6.59-85.762c2.637-30.348 5.274-46.184 22.41-46.184h1.317l18.457-39.582h-6.59c-21.094 0-26.367-17.152-25.047-36.945l23.727-364.168h6.593l23.727 471.043c1.32 21.113-5.274 34.305-19.774 34.305h-6.59l-18.456 39.586h13.183c26.363 0 36.91 14.511 38.227 43.543l5.273 89.722c1.32 22.43-9.226 35.625-31.637 35.625h-9.226l-18.457 39.582h18.457c23.726 0 43.5 11.875 44.82 39.582zm0 0" fill="#141111"/></svg>