<svg xmlns="http://www.w3.org/2000/svg" width="1440" height="1280" viewBox="0 0 1080 960"><path d="M683.164 343.672c0 12.633 7.02 18.25 28.781 18.25h10.532v17.55h-10.532c-21.761 0-28.78 11.231-28.78 24.571v35.8h-17.552c-13.34-62.476-63.883-100.386-170.586-100.386-52.652 0-86.347 7.723-108.109 14.043H59.785l-15.441 34.395h212.004c13.336 0 26.675 2.109 32.992 13.34 6.32 9.827 11.234 14.742 28.781 14.742h39.313v17.55h-46.332c-14.743 0-27.375-.703-41.418 12.633-9.125 9.13-20.356 15.445-48.438 15.445H59.786l-15.442 34.399h167.074c13.34 0 26.676 2.105 32.996 13.34 6.316 9.828 11.23 14.742 28.781 14.742h28.078v17.547h-28.078c-14.742 0-21.761 1.406-28.78 14.043-6.321 11.23-18.958 14.039-32.997 14.039H59.785l-15.441 34.398h216.215c13.34 0 26.675 2.106 32.992 13.336 6.32 9.828 11.234 14.742 28.785 14.742h39.312v17.551h-32.293c-14.742 0-26.675 5.617-35.804 14.04-9.824 8.425-18.953 14.038-32.992 14.038H59.785l-15.441 34.4H401.66c17.55 5.617 44.227 14.043 89.856 14.043 88.453 0 153.738-30.89 174.097-99.688h17.551v33.7l146.715 65.988v-24.57c0-34.399 16.851-43.524 40.719-43.524h146.015l15.446-34.398H866.383c-13.336 0-26.676-2.11-32.992-13.34-6.317-9.828-11.23-14.742-28.782-14.742h-25.976v-17.551h25.976c14.743 0 21.762-1.403 28.782-14.04 6.316-11.23 18.254-14.038 32.293-14.038h150.93l15.445-34.399H866.383c-13.336 0-26.676-2.105-32.992-13.34-6.317-9.828-11.23-14.738-28.782-14.738h-25.976v-17.55h25.976c14.743 0 21.762-1.407 28.782-14.044 6.316-11.23 18.953-14.039 32.992-14.039h150.23l15.446-34.398H872c-13.336 0-26.676-2.106-32.992-13.336-6.32-9.828-11.934-14.742-29.485-14.742h-30.89v-17.551h30.89c14.743 0 22.465-1.402 29.485-14.04 6.316-11.234 18.953-14.038 32.992-14.038h144.613l15.446-34.399H870.598c-28.782 0-40.72-15.445-40.72-38.61v-15.444H490.114l-15.445 34.398h167.078c13.336 0 26.676 2.809 32.992 13.336 6.32 9.828 11.23 14.742 28.782 14.742h18.957v17.551h-10.532c-21.761 0-28.78 4.914-28.78 18.254M450.8 495.3h117.937l15.442-32.29h-96.172c-16.149 0-18.254-12.636-4.215-19.656 14.043-7.02 29.484-11.234 70.203-11.234 42.82 0 70.902 13.34 84.942 25.274 11.933 9.828 19.656 13.335 37.207 13.335h44.222v17.551h-37.203c-14.742 0-21.762 1.406-28.785 14.04-6.317 11.234-18.953 14.042-32.992 14.042H499.238l-15.445 34.399H615.77c13.34 0 25.976 2.105 32.293 13.336 6.316 9.828 11.23 14.742 28.78 14.742h42.825v17.55h-42.824c-21.762 0-30.887 4.212-42.117 13.337-21.766 17.55-47.739 23.87-96.176 23.87-16.848 0-42.82-1.406-56.864-9.128-11.933-7.02-16.144-21.762 2.106-21.762h84.945l15.442-32.289H450.8c-13.34 0-26.675-2.11-32.991-13.34-6.32-9.828-11.235-14.742-28.786-14.742H359.54v-17.55h29.484c14.743 0 21.762-2.106 28.786-14.743 6.316-11.23 16.847-14.742 32.992-14.742" fill="#141111"/></svg>