<svg xmlns="http://www.w3.org/2000/svg" width="1440" height="1280" viewBox="0 0 1080 960"><path d="M127.277 661.61h825.446V0H127.277zm81.863 205.437v-4.719h4.72c5.85 0 7.738-3.023 7.738-6.418v-11.328c0-3.586-1.887-6.605-7.739-6.605h-4.718v-4.72h14.535c0 5.095 1.699 9.25 4.719 11.891 2.828 2.454 8.117 2.645 12.078 2.645h7.55v4.719h-1.699c-4.719 0-6.039 1.32-7.738 3.96-1.7 3.024-5.098 3.59-8.684 3.59h-1.507l-4.153 9.247h11.137c3.773 0 7.172.757 8.871 3.777 1.887 3.398 3.773 3.777 7.738 3.777h2.078v4.719h-2.078c-4.718 0-6.039 1.32-7.738 3.961-1.7 3.023-5.098 3.586-8.684 3.586h-1.511l-4.153 9.25h16.801c3.777 0 7.172.758 8.871 3.777 1.887 3.399 3.778 3.774 7.742 3.774h7.551v4.718h-4.722c-4.72 0-6.04 1.325-7.739 3.965-1.699 3.02-5.094 3.586-8.683 3.586H239.34l-4.153 9.25h24.165c4.152 0 7.359 1.512 9.058 4.91 3.02 6.04 6.043 9.625 10.57 9.625h64.372v-4.152c0-6.23 3.207-10.383 10.945-10.383h40.398l4.153-9.25h-44.926c-3.586 0-6.985 0-8.875-3.586-1.508-2.832-3.02-3.965-7.738-3.965h-6.793v-4.718h6.793c3.964 0 5.851-.375 7.738-3.774 1.7-3.02 5.098-3.777 8.875-3.777h40.773l4.153-9.25h-44.926c-3.586 0-7.176-.563-8.875-3.586-1.695-2.64-3.02-3.961-7.738-3.961h-6.793v-4.719h6.793c3.964 0 5.851-.379 7.738-3.777 1.7-3.02 5.098-3.777 8.875-3.777h40.773l4.153-9.246h-45.114c-3.59 0-6.988-.567-8.687-3.59-1.695-2.641-3.02-3.961-7.738-3.961h-6.793v-4.719h6.793c3.964 0 5.851-.379 7.738-3.777 1.7-3.02 5.098-3.774 8.875-3.774h40.773l4.153-9.25h-44.172c-6.04 0-7.36-.754-10.57-6.797-2.454-4.718-2.833-7.738-10.57-7.738h-34.169v4.152c0 6.23-3.207 10.383-10.945 10.383h-13.969l-4.156 9.25h18.5c3.586 0 6.984 0 8.871 3.586 1.512 2.832 3.023 3.965 7.742 3.965h6.793v4.719h-6.605c-3.965 0-5.852.375-7.739 3.773-1.699 3.02-5.097 3.778-8.87 3.778h-1.134l-4.156 9.246h5.29c3.585 0 7.171.566 8.87 3.59 1.7 2.64 3.02 3.964 7.739 3.964h6.418v4.719h-4.72c-5.85 0-7.737 3.02-7.737 6.418v11.324c0 3.586 1.886 6.606 7.738 6.606h4.719v4.718h-4.72c-5.85 0-7.737 3.02-7.737 6.418v11.895h-6.043v-14.535c0-13.403-3.207-18.309-13.97-18.309h-8.679v-4.722h1.13c4.718 0 6.042-1.32 7.741-3.965 1.7-3.02 5.094-3.586 8.684-3.586h1.508l4.152-9.246h-11.137c-3.773 0-7.172-.758-8.87-3.778-1.887-3.398-3.778-3.773-7.74-3.773h-1.886v-4.719h1.887c4.719 0 6.039-1.324 7.738-3.965 1.7-3.02 5.098-3.586 8.684-3.586h1.512l4.152-9.25h-16.8c-3.587 0-7.173-.566-8.872-3.586-1.7-2.644-3.02-3.964-7.742-3.964h-3.02v-4.72h3.02c3.965 0 5.851-.378 7.742-3.777 1.7-3.02 5.094-3.773 8.871-3.773h4.906l4.153-9.25H126.648l-4.152 9.25h44.926c3.586 0 7.172.566 8.871 3.586 1.7 2.64 3.023 3.965 7.742 3.965h6.793v4.719h-6.793c-3.965 0-5.851.375-7.742 3.773-1.7 3.023-5.094 3.777-8.871 3.777h-40.774l-4.152 9.25h44.926c3.586 0 7.172.567 8.871 3.586 1.7 2.64 3.023 3.965 7.742 3.965h6.793v4.719h-6.793c-3.965 0-5.851.375-7.742 3.773-1.7 3.02-5.094 3.778-8.871 3.778h-40.774l-4.152 9.246h45.117c3.586 0 6.98.566 8.68 3.586 1.7 2.644 3.023 3.965 7.742 3.965h6.793v4.722h-6.793c-3.965 0-5.851.375-7.742 3.774-1.7 3.02-5.094 3.773-8.871 3.773h-40.774l-4.152 9.25h44.926c3.586 0 7.172.566 8.871 3.586 1.7 2.645 3.023 3.965 7.742 3.965h6.793v4.719h-6.793c-3.965 0-5.851.379-7.742 3.777-1.7 3.02-5.094 3.773-8.871 3.773h-40.774l-4.152 9.25H239.34l4.156-9.25h-10.95c-3.585 0-7.171-.566-8.87-3.586-1.7-2.644-3.02-3.964-7.742-3.964h-6.793v-4.72h6.793c3.964 0 5.851-.378 7.742-3.773 1.699-3.023 5.094-3.777 8.87-3.777h4.907l4.152-9.25h-9.058c-3.586 0-7.172-.566-8.871-3.586-1.7-2.64-3.02-3.96-9.817-3.96h-4.718v-4.723h3.02c3.964 0 5.85-.375 7.737-3.774 1.7-3.02 5.098-3.777 8.872-3.777h.378l4.153-9.246h-4.531c-3.586 0-7.172-.567-8.872-3.59-1.699-2.64-3.02-3.961-9.816-3.961zm401.497 51.152c-3.586 0-7.551-.566-10.38-3.586-2.644-2.832-4.91-3.965-9.628-3.965h-6.797v-4.718h8.684c3.964 0 5.851-.375 7.742-3.774 1.695-3.02 5.094-3.777 8.87-3.777h44.548l4.152-9.25h-44.926c-3.586 0-7.172-.563-8.87-3.586-1.7-2.64-3.02-3.961-7.739-3.961h-6.418v-4.719h6.418c3.965 0 5.852-.379 7.738-3.777 1.7-3.02 5.098-3.777 8.871-3.777h40.774l4.152-9.246h-48.7c-3.585 0-6.983-.567-8.683-3.59-1.699-2.641-3.02-3.961-7.738-3.961h-8.684v-4.719h8.684c3.961 0 5.852-.379 7.738-3.777 1.7-3.02 5.098-3.774 8.871-3.774h44.36l4.152-9.25h-64.746c-7.738 0-16.988-4.34-24.348-7.55-15.668-6.606-32.09-10.762-56.062-10.762-14.16 0-26.617 1.324-37.567 3.777H369.023l-4.156 9.25h64.746c3.586 0 7.176.566 8.875 3.586 1.696 2.64 3.02 3.965 7.739 3.965h10.57v4.719h-10.57c-3.965 0-6.797.566-10.383 3.773-2.832 2.645-6.23 3.777-11.89 3.777h-54.93l-4.157 9.25h44.926c3.586 0 7.176.567 8.871 3.586 1.7 2.64 3.024 3.965 7.742 3.965h11.512v4.719h-11.512c-3.965 0-5.851.375-7.742 3.773-1.695 3.02-5.094 3.778-8.871 3.778h-40.77l-4.156 9.246h47.192c3.586 0 6.984.566 8.683 3.586 1.7 2.644 3.02 3.965 7.738 3.965h8.684v4.722h-8.684c-3.96 0-5.851.375-7.738 3.774-1.699 3.02-5.097 3.773-8.87 3.773h-42.849l-4.156 9.25h58.895c7.363 0 9.437.754 12.648 3.586 2.453 2.078 4.906 3.965 9.625 3.965h8.684v4.719h-8.684c-3.96 0-5.851.379-7.738 3.777-1.7 3.02-5.098 3.773-8.871 3.773h-60.403l-4.156 9.25h107.785c10.95 2.453 23.594 3.774 38.13 3.774 21.71 0 39.64-3.586 53.421-8.492 9.059-3.211 18.309-9.817 31.711-9.817h57.762l4.152-9.25zm-96.27-80.789c11.328 0 22.844 3.586 26.43 6.418 3.207 2.453 4.719 3.774 8.683 3.774h10.57v4.718h-10.57c-4.722 0-6.043 1.325-7.742 3.965-1.699 3.02-5.285 3.586-8.87 3.586h-37.75l-4.157 9.25h58.14c3.774 0 7.172.754 8.872 3.777 1.886 3.395 3.777 3.774 7.738 3.774h6.984v4.719h-6.984c-4.719 0-6.04 1.32-7.738 3.964-1.7 3.02-5.285 3.586-8.871 3.586h-53.985l-4.156 9.25h42.285c3.774 0 7.172.754 8.871 3.774 1.887 3.398 3.778 3.777 7.738 3.777h10.57v4.719h-10.57c-4.718 0-7.738 1.512-11.515 4.34-2.828 2.265-9.625 6.043-22.082 6.043-9.438 0-15.856-1.32-18.88-2.832-3.394-1.7-3.206-5.285 2.079-5.285h18.875l4.152-9.25h-43.226c-3.586 0-7.172-.567-8.871-3.586-1.7-2.645-3.02-3.965-7.739-3.965h-8.683v-4.719h8.683c3.965 0 5.852-.379 7.739-3.777 1.699-3.02 5.097-3.774 8.87-3.774h46.626l4.152-9.25H485.11c-3.586 0-7.171-.566-8.87-3.586-1.7-2.64-3.02-3.965-7.739-3.965h-11.516v-4.718H468.5c3.965 0 5.852-.375 7.738-3.774 1.7-3.02 5.098-3.777 8.871-3.777h33.223l4.152-9.25h-28.5c-5.476 0-5.855-3.395-1.699-5.285 3.586-1.7 12.457-2.64 22.082-2.64m229.727-6.419l-3.965 9.25h14.535c3.586 0 6.984.567 8.684 3.586 1.699 2.64 3.02 3.965 7.738 3.965h2.832v4.719h-2.645c-3.96 0-5.851.375-7.738 3.773-1.7 3.02-4.152 3.778-8.87 3.778h-8.118l-3.965 9.246h3.211c3.586 0 6.984.566 8.68 3.59 1.699 2.64 3.023 3.964 7.742 3.964h6.984v4.719h-2.644c-3.965 0-5.852.375-7.739 3.773-1.699 3.02-4.152 3.774-8.87 3.774h-3.212l-4.152 9.25h1.133c3.586 0 6.984.566 8.683 3.586 1.7 2.644 3.02 3.965 7.739 3.965h.379v4.718h-.38c-5.85 0-7.359 2.832-7.359 8.497v14.722h-4.91v-2.074c0-3.59-1.887-6.61-7.738-6.61h-9.063v-4.718h.946c5.851 0 7.738-3.02 7.738-6.418v-11.324c0-3.586-1.887-6.606-7.738-6.606h-9.25v-4.722h2.453c4.722 0 6.043-1.32 7.742-3.965 1.7-3.02 5.094-3.586 8.68-3.586h5.285l4.156-9.246h-10.383c-3.777 0-7.172-.758-8.87-3.778-1.888-3.398-3.778-3.773-7.743-3.773h-8.68v-4.719h8.68c4.719 0 6.043-1.324 7.742-3.965 1.7-3.02 5.094-3.586 8.68-3.586h10.195l4.153-9.25h-24.727c-3.777 0-7.172-.754-8.871-3.777-1.89-3.398-3.777-3.773-7.742-3.773h-7.739v-4.72h7.739c4.718 0 6.043-1.323 7.742-3.964 1.7-3.02 5.094-3.586 8.683-3.586h19.442l4.152-9.25H628.004l-4.152 9.25h32.09c3.585 0 7.171.566 8.87 3.586 1.7 2.64 3.02 3.965 7.739 3.965h9.816v4.719h-9.816c-3.965 0-5.852.375-7.739 3.773-1.699 3.023-5.097 3.777-8.87 3.777h-27.938l-4.152 9.25h42.28c3.587 0 7.173.567 8.872 3.586 1.7 2.64 3.023 3.965 7.742 3.965h10.57v4.719h-10.57c-3.965 0-5.851.375-7.742 3.773-1.7 3.02-5.094 3.778-8.871 3.778h-38.13l-4.151 9.246h57.003c3.59 0 6.985.566 8.684 3.586 1.7 2.644 3.024 3.965 7.742 3.965h6.793v4.722h-6.793c-3.965 0-5.855.375-7.742 3.774-1.7 3.02-5.094 3.773-8.871 3.773h-52.664l-4.152 9.25h65.878c3.586 0 7.172.566 8.872 3.586 1.699 2.645 3.02 3.965 7.738 3.965h6.23v4.719h-6.23c-3.965 0-5.852.379-7.738 3.777-1.7 3.02-5.098 3.773-8.872 3.773h-61.726l-4.152 9.25h173.66l4.152-9.25H789.02c-3.59 0-6.985-.566-8.684-3.586-1.7-2.644-3.02-3.964-7.742-3.964h-3.207v-4.72h.754c3.964 0 5.851-.378 7.742-3.773 1.695-3.023 4.152-3.777 8.87-3.777h4.532l4.153-9.25h-.567c-3.586 0-6.984-.566-8.683-3.586-1.7-2.64-3.02-3.96-7.739-3.96h-3.21v-4.723h.753c3.965 0 5.852-.375 7.742-3.774 1.696-3.02 4.153-3.777 8.871-3.777h.567l4.152-9.246h-.566c-3.586 0-6.985-.567-8.684-3.59-1.699-2.64-3.02-3.961-7.738-3.961h-2.645v-4.719h2.645c5.851 0 9.25-2.832 9.25-8.496v-14.723h4.906v2.075c0 3.59 1.887 6.609 7.738 6.609h4.91v4.719h-1.132c-5.852 0-7.738 3.02-7.738 6.418v11.324c0 3.586 1.886 6.61 7.738 6.61h6.793v4.718h-2.074c-3.965 0-5.098.375-6.985 3.773-1.699 3.02-4.91 3.774-9.629 3.774h-1.32l-4.152 9.25h2.265c3.586 0 6.985.566 8.684 3.586 1.7 2.644 3.02 3.965 7.738 3.965h7.172v4.718h-1.133c-4.719 0-6.039 1.325-7.738 3.965-1.7 3.02-5.098 3.586-8.684 3.586h-3.398l-4.152 9.25h11.136c4.157 0 7.364 0 10.196 5.285 3.02 6.043 4.906 9.25 9.437 9.25h39.64c4.532 0 7.551-3.586 10.571-9.625 1.7-3.398 4.906-4.91 9.063-4.91h69.085l4.153-9.25h-61.727c-3.773 0-6.984-.754-8.68-3.773-1.89-3.399-3.777-3.778-7.742-3.778h-3.398v-4.718h3.398c4.72 0 6.043-1.32 7.743-3.965 1.695-3.02 5.472-3.586 9.058-3.586h57.195l4.153-9.25h-50.778c-3.773 0-7.171-.754-8.87-3.774-1.891-3.398-3.778-3.773-7.739-3.773h-5.664v-4.719h5.664c4.719 0 6.04-1.324 7.738-3.965 1.7-3.023 5.098-3.59 8.684-3.59h46.812l4.153-9.245h-41.34c-3.774 0-7.172-.758-8.871-3.778-1.887-3.398-3.774-3.773-7.738-3.773h-5.664v-4.719h5.664c4.718 0 6.039-1.324 7.738-3.965 1.7-3.02 5.097-3.586 8.683-3.586h37.375l4.153-9.25h-34.168c-7.738 0-8.113-4.719-6.04-9.629l5.286-12.457-51.344 11.516-3.586 6.23c-2.074 3.586-5.285 4.34-10.57 4.34h-12.649l-4.152 9.25h10.762c3.586 0 6.984.567 8.683 3.586 1.696 2.64 3.02 3.965 7.739 3.965h6.039v4.719h-6.04c-3.964 0-5.85.375-7.738 3.773-1.699 3.02-4.156 3.778-8.875 3.778h-8.304l-4.153 9.246h5.098c3.586 0 6.984.566 8.68 3.59 1.699 2.64 3.023 3.964 7.742 3.964h6.039v4.719h-4.719c-3.965 0-5.851.375-7.738 3.773-1.7 3.02-4.152 3.774-8.871 3.774h-1.324l-4.153 9.25h1.133c2.453 0 6.985.566 8.684 3.586 1.699 2.644 3.02 3.965 7.738 3.965h4.156v4.718h-2.27c-5.847 0-9.245 2.832-9.245 8.497v14.722h-4.91v-2.074c0-3.59-1.887-6.61-7.739-6.61h-7.926v-4.718h.942c5.851 0 8.304-3.02 8.304-6.418v-11.324c0-3.586-1.886-6.606-7.738-6.606h-4.531v-4.722h1.133c4.719 0 6.043-1.32 7.738-3.965 1.7-3.02 5.098-3.586 8.684-3.586h1.324l4.152-9.246h-9.062c-3.774 0-7.172-.758-8.871-3.778-1.887-3.398-3.774-3.773-7.739-3.773h-1.132v-4.719h1.132c4.72 0 6.04-1.324 7.739-3.965 1.699-3.02 5.097-3.586 8.683-3.586h6.797l4.152-9.25H834.7c-3.777 0-7.172-.754-8.87-3.777-1.888-3.398-3.778-3.773-7.743-3.773h-3.02v-4.72h3.02c4.719 0 6.043-1.323 7.742-3.964 1.7-3.02 5.094-3.586 8.684-3.586h8.304l4.153-9.25h-65.692c-4.527 0-7.547 3.586-10.57 9.625-1.7 3.398-4.906 4.91-9.059 4.91zm-573.27-117.965l4.051-9.023h-46.77l-4.05 9.023zm0 28.356l4.051-9.024h-46.77l-4.05 9.024zm0 28.351l4.051-9.02h-46.77l-4.05 9.02zm0 28.356l4.051-9.02h-46.77l-4.05 9.02zm45.29-85.063l4.05-9.023h-46.766l-4.05 9.023zm0 28.356l4.05-9.024h-46.766l-4.05 9.024zm0 28.351l4.05-9.02h-46.766l-4.05 9.02zm0 28.356l4.05-9.02h-46.766l-4.05 9.02zm219.472-94.086H356.78c-4.789 0-7.183 2.945-10.312 9.39-1.656 3.317-4.785 4.79-8.836 4.79h-18.781l-4.051 9.02h12.336c3.5 0 6.812.554 8.468 3.5 1.657 2.577 2.946 3.866 7.551 3.866h8.653v4.602h-4.418c-3.868 0-5.707.367-7.551 3.683-1.656 2.946-4.05 3.68-8.652 3.68h-3.13l-4.05 9.024h1.105c3.496 0 6.809.55 8.469 3.5 1.656 2.578 2.945 3.867 7.547 3.867h.371v4.601h-.371c-5.707 0-7.18 2.762-7.18 8.285v14.364h-4.785v-2.028c0-3.5-1.844-6.445-7.55-6.445h-8.837v-4.601h.918c5.707 0 7.551-2.946 7.551-6.262v-11.047c0-3.496-1.844-6.441-7.55-6.441h-9.024v-4.606h2.394c4.606 0 5.895-1.289 7.551-3.867 1.656-2.945 4.969-3.496 8.469-3.496h3.316l4.047-9.024h-12.703c-3.683 0-6.996-.734-8.652-3.683-1.844-3.313-3.684-3.68-7.551-3.68h-6.629v-4.605h6.629c4.602 0 5.89-1.29 7.55-3.868 1.657-2.945 4.97-3.496 8.47-3.496h12.335l4.051-9.023H218.687l-4.05 9.023h27.62c3.497 0 6.997.551 8.653 3.496 1.656 2.579 2.945 3.868 7.55 3.868h12.153v4.605h-12.152c-3.867 0-5.711.367-7.55 3.68-1.657 2.949-4.974 3.683-8.653 3.683h-23.57l-4.051 9.024h47.504c3.5 0 6.812.55 8.472 3.496 1.657 2.578 2.946 3.867 7.547 3.867h6.813v4.606h-6.813c-3.867 0-5.707.367-7.547 3.68-1.66 2.945-4.972 3.683-8.656 3.683h-43.27l-4.05 9.02h56.16c3.496 0 6.996.554 8.652 3.5 1.656 2.577 2.946 3.867 7.551 3.867h6.074v4.601H287c-3.867 0-5.71.371-7.55 3.684-1.657 2.945-4.973 3.683-8.653 3.683h-52.11l-4.05 9.02H381.27l4.05-9.02h-12.34c-3.496 0-6.808-.554-8.468-3.5-1.657-2.578-2.946-3.867-7.547-3.867h-3.13v-4.601h.735c3.868 0 5.707-.368 7.551-3.684 1.656-2.945 4.05-3.684 8.652-3.684h4.973l4.05-9.02h-1.105c-3.5 0-6.812-.554-8.468-3.5-1.66-2.577-2.946-3.862-7.551-3.862h-.738v-4.606h2.578c5.71 0 9.023-2.762 9.023-8.285v-25.227h4.79v12.891c0 3.5 1.84 6.445 7.546 6.445h5.34v4.602h-1.106c-5.707 0-7.546 2.945-7.546 6.262v11.046c0 3.497 1.84 6.446 7.546 6.446h8.286v4.601h-1.657c-4.601 0-5.89 1.29-7.55 3.868-1.657 2.945-4.97 3.496-8.47 3.496h-3.312l-4.05 9.023h16.386c4.051 0 7.18 1.473 8.836 4.785 2.946 5.895 5.895 9.39 10.313 9.39h36.457c4.418 0 7.363-3.495 10.308-9.39 1.657-3.312 4.79-4.785 8.84-4.785h64.258l4.05-9.023h-55.605c-3.683 0-6.812-.735-8.468-3.68-1.844-3.316-3.684-3.684-7.551-3.684h-3.313v-4.601h3.313c4.605 0 5.894-1.29 7.55-3.867 1.657-2.95 5.34-3.5 8.837-3.5h51.187l4.05-9.024h-43.636c-3.684 0-6.996-.734-8.656-3.68-1.84-3.316-3.68-3.683-7.547-3.683h-4.606v-4.602h4.606c4.601 0 5.89-1.289 7.547-3.867 1.66-2.945 4.972-3.5 8.472-3.5h39.77l4.05-9.02h-34.984c-7.73 0-11.414-5.156-6.812-12.152l7.367-11.23-46.77 10.492-1.472 3.867c-2.207 5.707-5.89 9.024-13.992 9.024h-11.969l-4.05 9.02h10.495c3.5 0 6.813.554 8.469 3.5 1.656 2.577 2.945 3.866 7.55 3.866h6.813v4.602h-2.578c-3.867 0-5.707.367-7.55 3.683-1.657 2.946-4.051 3.68-8.653 3.68h-4.973l-4.05 9.024h1.105c3.5 0 6.813.55 8.469 3.5 1.66 2.578 2.95 3.867 7.55 3.867h2.208v4.601h-2.207c-5.707 0-9.024 2.762-9.024 8.285v14.364h-4.785v-2.028c0-3.5-1.844-6.445-7.55-6.445h-6.997v-4.601h.922c5.707 0 7.547-2.946 7.547-6.262v-11.047c0-3.496-1.84-6.441-7.547-6.441h-6.996v-4.606h2.39c4.606 0 5.895-1.289 7.551-3.867 1.657-2.945 4.973-3.496 8.47-3.496h1.288l4.05-9.024h-10.679c-3.683 0-6.996-.734-8.652-3.683-1.84-3.313-3.684-3.68-7.55-3.68h-1.106v-4.605h1.105c4.606 0 5.895-1.29 7.55-3.868 1.657-2.945 4.97-3.496 8.47-3.496h10.312zm135.14-5.152h73.465l4.051-9.024H608.84c-7.735 0-9.02-.738-11.785-5.89-2.762-5.34-6.809-8.29-19.883-8.29h-73.465l-4.05 9.024h39.402c7.734 0 9.023.738 11.785 5.89 2.761 5.34 6.812 8.29 19.883 8.29m19.332 15.832c-4.418-5.891-9.204-10.68-29.641-10.68h-56.711l-4.05 9.023h43.82c3.5 0 6.996.551 8.656 3.496 1.656 2.579 2.945 3.868 7.547 3.868h6.629v4.605h-6.63c-3.866 0-5.706.367-7.546 3.68-1.66 2.949-4.973 3.683-8.656 3.683h-39.77l-4.05 9.024h44.003c3.5 0 6.813.55 8.473 3.496 1.656 2.578 2.945 3.867 7.547 3.867h6.629v4.606h-6.63c-3.866 0-5.706.367-7.546 3.68-1.66 2.945-4.973 3.683-8.656 3.683h-39.77l-4.05 9.02h43.82c3.5 0 6.996.554 8.656 3.5 1.656 2.577 2.945 3.867 7.547 3.867h6.629v4.601h-6.63c-3.866 0-5.706.371-7.546 3.684-1.66 2.945-4.973 3.683-8.656 3.683h-39.77l-4.05 9.02h89.484c7.547 0 7.914-6.074 9.757-9.39 1.657-2.946 3.497-4.786 8.286-4.786h37.007l4.051-9.023h-43.82c-3.5 0-6.813 0-8.656-3.496-1.473-2.762-2.946-3.868-7.547-3.868h-6.63v-4.601h6.63c3.867 0 5.707-.371 7.547-3.684 1.66-2.945 4.972-3.683 8.656-3.683h39.77l4.05-9.024h-44.187c-3.5 0-7-.55-8.657-3.496-1.656-2.578-2.945-3.867-7.546-3.867h-6.262v-4.602h6.262c3.867 0 5.707-.37 7.546-3.683 1.657-2.946 4.973-3.684 8.657-3.684h40.136l4.051-9.02h-49.71c-3.5 0-6.446-.738-8.473-3.5m163.683 17.493c2.578 1.105 4.973 2.394 13.258 2.394h6.078v4.602h-6.629c-3.867 0-5.707.367-7.55 3.683-1.657 2.946-4.973 3.68-8.653 3.68h-21.36l-4.05 9.024h30.934c3.496 0 6.996.55 8.652 3.5 1.656 2.578 2.945 3.867 7.55 3.867h5.708v4.601h-5.707c-3.868 0-5.707.368-7.551 3.684-1.656 2.945-4.969 3.68-8.652 3.68h-26.883l-4.051 9.023h41.613l39.586 17.86v-7.919c0-6.996 3.496-9.94 10.68-9.94h39.77l4.05-9.024h-43.82c-3.5 0-7-.551-8.656-3.496-1.657-2.579-2.946-3.868-7.547-3.868h-7.551v-4.601h7.55c3.868 0 5.708-.371 7.548-3.684 1.656-2.945 4.972-3.683 8.656-3.683h39.77l4.05-9.024H815.61c-3.5 0-6.996-.55-8.656-3.496-1.656-2.578-2.945-3.867-7.547-3.867h-10.312v-4.602h10.312c3.867 0 5.707-.37 7.547-3.683 1.66-2.946 4.973-3.684 8.656-3.684h40.875l4.051-9.02h-50.82c-6.809 0-10.676-1.66-15.098-5.523-8.469-7.55-19.148-12.336-36.086-12.336-31.3 0-42.718 13.254-45.11 33.324h-4.234v-1.656c0-20.62-10.496-27.988-33.328-27.988h-56.707l-4.05 9.023h43.82c3.496 0 6.996.551 8.652 3.496 1.656 2.579 2.946 3.868 7.551 3.868h6.629v4.605h-6.629c-3.867 0-5.707.367-7.55 3.68-1.657 2.949-4.973 3.683-8.653 3.683h-39.77l-4.05 9.024h44.003c3.497 0 6.813.55 8.47 3.496 1.655 2.578 2.945 3.867 7.55 3.867h6.629v4.606h-6.629c-3.867 0-5.707.367-7.55 3.68-1.657 2.945-4.973 3.683-8.653 3.683h-39.77l-4.05 9.02h43.82c3.496 0 6.996.554 8.652 3.5 1.656 2.577 2.946 3.867 7.551 3.867h6.629v4.601h-6.629c-3.867 0-5.707.371-7.55 3.684-1.657 2.945-4.973 3.683-8.653 3.683h-39.77l-4.05 9.02h143.613l4.05-9.02h-42.898c-3.5 0-7-.554-8.656-3.5-1.656-2.578-2.945-3.867-7.547-3.867h-6.629v-4.601h6.63c3.866 0 5.706-.368 7.546-3.684 1.656-2.945 4.973-3.684 8.656-3.684h27.801l4.05-9.02h-32.956c-3.5 0-6.996-.554-8.657-3.5-1.656-2.577-2.945-3.862-7.546-3.862h-5.524v-4.606h8.469c3.867 0 8.652-.922 10.68-4.601 5.156-9.207 11.968-15.47 23.75-15.47 7.183 0 9.39 1.473 13.808 3.5m148.035-4.972l4.051-9.02h-46.765l-4.051 9.02zm0 28.356l4.051-9.024h-46.765l-4.051 9.024zm0 28.355l4.051-9.023h-46.765l-4.051 9.023zm45.293-56.71l4.051-9.02h-46.77l-4.05 9.02zm0 28.355l4.051-9.024h-46.77l-4.05 9.024zm0 28.355l4.051-9.023h-46.77l-4.05 9.023zm0 0" fill="#141111"/><path d="M342.902 491.723h-78.62l-18.06 125.308h-3.081l-21.364-125.308h-53.734l32.152 145.793h81.926l19.598-125.313h3.086l18.5 125.313h80.16l31.715-145.793h-52.414L362.28 617.03h-3.08zm102.625 145.793h48.453V491.723h-48.453zM652.32 616.37l-49.11-124.648h-88.53v145.793h48.449V512.863h3.082l49.773 124.653h87.871V491.723h-48.449V616.37zm72.235-124.648v145.793H836.43c46.91 0 82.586-20.485 82.586-72.899s-35.676-72.894-82.586-72.894zm48.449 41.183h55.058c25.547 0 40.301 5.727 40.301 31.711 0 25.988-14.754 31.715-40.3 31.715h-55.06zM150.285 456.39h21.043L285.75 28.954h3.945l-70.36 427.438h44.06l116.394-435.33h-21.043L244.324 448.5h-3.945l71.02-427.438h-44.72zm328.14-230.816c23.677-90.09 35.512-139.41 35.512-169.004 0-25.644-12.496-40.113-36.167-40.113-44.06 0-55.239 25.648-105.875 209.117l-7.23 26.305c-24.99 90.09-34.856 137.437-34.856 165.059 0 29.59 12.496 44.058 36.168 44.058 41.43 0 57.87-25.648 105.214-207.8zm-82.855-3.289C442.258 46.707 453.438 38.16 475.14 38.16c9.864 0 17.094 5.258 17.094 22.36 0 23.015-11.836 70.359-36.824 165.054l-7.234 27.621c-43.399 167.028-56.551 186.098-78.91 186.098-10.52 0-17.754-7.23-17.754-26.961 0-21.043 11.175-66.418 36.168-160.453zm67.73 234.106h22.36l53.266-199.91h24.988l-16.441 199.91h23.015l14.469-204.512c23.672-7.234 39.457-37.484 59.184-115.082 9.863-38.137 13.808-61.813 13.808-78.91 0-28.278-21.043-36.825-41.426-36.825h-36.828zm157.825-317.618c-19.07 72.336-26.96 96.008-61.813 96.008h-14.468l51.293-192.02h15.781c16.441 0 23.016 7.235 23.016 23.676 0 15.126-4.602 38.797-13.809 72.336m-5.262 317.618h22.36L749.359 42.105h48.66l13.81-21.042H681.624l-5.262 21.042H727zm89.434 0h22.355l61.157-228.188h59.187l-61.16 228.188h22.36L925.59 21.062h-22.36l-49.316 185.442h-59.187l49.32-185.441H821.69zm0 0" fill="#fff"/></svg>