<svg height="1280" viewBox="0 0 1080 960" width="1440" xmlns="http://www.w3.org/2000/svg"><path d="m526.5 723.121h127v-123h-127zm0 0" fill="#fff"/><path d="m71.906 451.41 11.88-9.36v-13.32c0-8.28 4.32-12.597 11.878-12.597h6.121l5.04-10.801h-11.52c-7.559 0-12.239-3.96-13.68-12.242-2.52-15.84-8.64-21.598-20.879-21.598-6.121 0-11.16 1.438-15.121 5.399h-26.281l-5.04 10.8h13.68c6.48 0 10.442 4.32 9.36 11.16-.719 5.04-1.438 15.122-1.438 22.32 0 8.278-3.96 12.599-11.52 12.599h-5.042l-5.04 10.8h11.88c8.28 0 11.523 1.801 15.12 9 2.88 5.762 6.84 10.801 15.481 14.403 11.16 4.68 13.68 12.597 13.68 39.238 0 8.281-2.16 11.879-8.281 11.879h-1.797l-5.043 10.8h6.12c7.2 0 8.282 3.602 7.563 10.801-.722 6.121-3.601 11.16-10.441 11.16-9 0-12.961-6.84-13.32-39.96 0-7.2 2.879-10.442 11.16-10.442h3.96l5.04-10.797h-10.801c-7.559 0-9-2.52-9-9v-13.68l-11.52 9v5.04c0 4.68-2.16 8.64-9.718 8.64h-5.043l-5.04 10.797h7.2c7.562 0 12.242 3.242 12.242 11.524 0 9 .719 15.476 1.438 21.238 1.441 8.64-.72 13.32-8.278 13.32h-7.562l-5.04 10.801h28.801c3.961 3.957 8.282 5.398 15.122 5.398 12.597 0 19.8-9.359 22.68-22.68 1.8-7.558 4.679-11.16 12.238-11.16h6.48l5.04-10.8h-11.52c-6.84 0-10.801-3.957-10.801-11.88 0-9 0-15.12-.719-21.6-.719-8.278 3.96-12.598 11.52-12.598h5.039l5.043-10.801h-16.2c-15.48 0-25.203-3.602-30.96-10.078-3.243-3.961-1.442-7.563 1.8-7.563h3.598l5.039-10.8h-7.918c-7.559 0-10.8-3.239-10.8-12.239 0-28.8 3.241-38.52 12.96-38.52 7.918 0 9.719 7.56 10.078 15.84 0 3.962-1.437 6.481-6.48 6.481h-.719l-5.04 10.8h2.52c7.56 0 10.801 2.88 10.801 11.157zm59.04-64.437c-1.442-9.364-7.56-10.082-13.68-10.082h-16.2l-5.039 10.8h12.239c7.918 0 11.52 4.32 11.52 12.239v21.242c0 8.277-5.04 12.598-12.602 12.598h-6.118l-5.039 10.8h11.157c7.562 0 12.601 4.32 12.601 12.602v20.879c0 8.281-5.039 12.601-12.601 12.601h-6.118l-5.039 10.797h11.157c7.562 0 12.601 4.32 12.601 12.602v20.879c0 8.28-3.238 12.601-12.601 12.601h-6.118l-5.039 10.801h11.157c7.562 0 12.601 4.32 12.601 12.598v20.883c0 8.277-5.039 12.597-12.601 12.597h-6.118l-5.039 10.8h54.36l5.039-10.8h-11.16c-7.559 0-12.602-4.32-12.602-12.597v-41.043h1.441c2.52 9.363 8.641 12.96 16.56 12.96 9.722 0 15.48-4.32 19.44-22.68 1.801-7.558 4.68-11.16 12.239-11.16h9.722l5.04-10.8h-13.68c-6.121 0-10.442-3.238-10.801-9.719-.36-6.48.36-14.039.719-23.762.363-8.277 5.043-12.597 12.601-12.597h6.121l5.04-10.801h-11.16c-7.56 0-11.88-2.879-12.602-11.16-.719-10.442-.36-18.719-.719-25.559.36-6.84 3.96-9.36 10.8-9.36h8.641l5.04-10.8h-14.399c-7.562 0-11.523-4.32-12.96-11.883-3.602-18.36-10.442-21.957-19.442-21.957-7.918 0-14.04 2.52-16.918 15.48zm2.16 127.437c.359-9 3.238-12.96 10.44-12.96h3.599l5.039-10.798h-7.559c-7.2 0-12.96-3.96-12.96-11.882v-22.32c0-7.56 5.401-11.88 12.96-11.88h2.52l5.039-10.8h-9c-6.84 0-10.079-5.04-10.079-11.16 0-31.68 4.32-39.598 12.961-39.598 5.04 0 9 1.8 11.16 9.718 2.52 8.641.36 12.602-7.921 12.602l-5.04 10.8h3.962c7.558 0 10.8 2.88 11.52 11.157.718 9 .718 15.844.718 23.762 0 6.84-4.68 11.16-12.238 11.16h-2.52l-5.043 10.8h8.281c6.84 0 11.52 3.598 11.52 11.16 0 6.84 0 17.642-.719 23.04-1.082 8.281-3.96 11.879-10.441 11.879l-5.04 10.8h5.4c6.12 0 9 2.88 8.28 7.923-.718 6.84-3.238 14.398-11.16 14.398-6.48 0-13.68-3.238-13.68-37.8m119.88 49.32v-24.84c0-5.399 1.8-9 9-9h9.718l5.04-10.801h-11.161c-7.559 0-12.598-4.32-12.598-12.598v-20.882c0-8.277 5.04-12.597 12.598-12.597h6.121l5.04-10.801h-11.161c-7.559 0-12.598-4.32-12.598-13.32v-20.16c0-8.282 5.04-12.598 12.598-12.598h6.121l5.04-10.801h-14.759c-6.48 0-10.441-2.52-11.16-8.64-2.879-20.16-8.281-25.2-20.16-25.2-6.48 0-11.52 2.16-14.762 5.399h-24.117l-5.043 10.8h12.961c6.121 0 9.719 3.598 9 9.36-.719 5.398-1.441 16.199-1.8 24.12-.36 8.278-4.68 12.599-12.239 12.599h-6.121l-5.04 10.8h14.04c6.48 0 8.64 3.243 8.64 7.563l11.88 10.437v-7.918c0-7.562 2.882-10.082 9-10.082l5.039-10.8c-10.797 0-13.68-5.04-13.68-11.88.723-32.398 3.96-38.878 11.16-38.878 5.043 0 7.922 3.238 9 12.597.723 6.48-1.797 9.723-6.48 9.723l-5.04 10.8c7.563 0 13.68 2.157 13.68 9l.36 24.84c0 7.919-2.52 12.239-10.079 12.239-11.878 0-18.718 3.96-22.32 16.559-2.16 7.203-5.039 11.882-12.601 11.882h-4.317l-5.043 10.797h7.563c7.558 0 12.238 4.32 12.238 12.602 0 9 .719 12.601 1.441 20.879.72 8.28-5.039 12.601-12.601 12.601h-3.598l-5.043 10.801h27.36c2.882 3.957 7.203 5.398 12.242 5.398 6.84 0 12.601-3.238 14.398-11.16zm-22.32-11.52c-8.282 0-11.88-6.121-12.243-39.602 0-7.918 3.601-11.16 8.64-11.16l5.04-10.797c-8.637 0-10.438-4.68-10.438-9.363 0-5.039 3.598-8.277 9.36-8.277 7.558 0 10.078 4.32 10.078 12.597v21.961c0 8.282-3.957 11.52-9 11.52l-5.04 10.8c7.2 0 13.68 2.16 13.68 9 0 9.72-4.68 13.32-10.078 13.32m83.156-22.32h4.68c6.48 0 9 2.88 8.281 8.282-.36 3.238-1.078 5.039-2.16 7.558-2.16 5.04-5.398 6.48-8.64 6.48-6.481 0-12.958-3.6-14.04-39.6-.359-6.84 3.602-11.16 10.801-11.16h3.961l5.04-10.798h-7.563c-7.2 0-12.957-3.96-12.957-12.242v-21.238c0-8.281 5.398-12.602 12.957-12.602h2.523l5.04-10.8h-8.641c-6.84 0-11.52-2.52-11.16-9.36 1.8-39.238 6.84-41.398 13.68-41.398 4.679 0 8.64 1.437 11.16 13.68 1.081 5.757-1.442 8.64-7.2 8.64h-1.082l-5.04 10.8h3.962c7.558 0 11.16 1.079 11.52 9.36.359 5.399.359 8.278.359 9.719v22.68l11.879-9.36v-19.441c0-9.36 3.242-12.957 10.8-12.957h8.641l5.04-10.801h-14.4c-7.558 0-11.878-4.68-13.679-12.242-3.96-18.36-12.242-21.598-21.602-21.598-6.117 0-11.16 1.438-15.117 5.399h-29.883l-5.039 10.8h16.559c7.563 0 11.16 4.68 9.723 13.32-.723 6.122-1.442 13.321-2.16 21.962-.36 6.476-4.68 10.797-12.243 10.797h-6.84l-5.039 10.8h11.16c7.56 0 12.239 4.32 12.239 12.602v20.879c0 8.281-4.68 12.601-12.238 12.601h-6.122l-5.039 10.797h11.88c7.562 0 11.882 2.883 12.241 11.524.72 11.52 1.438 16.558 1.801 21.238.719 8.64-.722 13.32-8.281 13.32h-12.602l-5.039 10.801h34.559c3.96 4.32 9 5.398 15.121 5.398 9.719 0 18.719-3.597 23.04-22.68 1.8-7.917 5.042-11.16 12.6-11.16h9.36l5.04-10.8h-14.04c-6.48 0-10.078-3.238-10.441-10.438v-28.8l-11.88-8.641v19.078c0 5.043 0 12.602-.359 16.922-.359 8.281-3.96 11.879-10.078 11.879zm106.563 11.16c1.797-7.917 5.039-11.16 12.597-11.16h9.36l5.043-10.8h-13.32c-7.563 0-11.16-4.68-11.16-14.04 0-5.038.359-9.718.359-15.12v-24.48l-11.88-8.637v33.117c0 5.402 0 12.601-.359 17.28-.722 8.282-3.96 11.88-10.441 11.88l-5.039 10.8h4.68c6.48 0 9 2.88 8.277 8.282-.36 3.238-1.078 5.039-2.16 7.558-2.16 5.04-5.399 6.48-8.637 6.48-6.48 0-12.96-3.6-14.043-39.6-.36-6.84 3.602-11.16 10.8-11.16h3.962l5.039-10.798h-7.559c-7.199 0-12.96-3.96-12.96-12.242v-21.238c0-8.281 5.398-12.602 12.96-12.602h27.36v-12.597c0-10.082 1.441-15.84 10.441-15.84h8.637l5.043-10.801h-14.403c-7.558 0-11.878-4.68-13.68-12.242-3.96-18.36-12.238-21.598-21.597-21.598-6.121 0-11.16 1.438-15.121 5.399h-29.879l-5.043 10.8h16.563c7.558 0 11.16 4.68 9.718 13.32-.718 6.122-1.441 13.321-2.16 21.962-.36 6.476-4.68 10.797-12.238 10.797h-6.84l-5.043 10.8h11.16c7.563 0 12.243 4.32 12.243 12.602v20.879c0 8.281-4.68 12.601-12.243 12.601h-6.117l-5.043 10.797h11.883c7.559 0 11.879 2.883 12.238 11.524.719 11.52 1.442 16.558 1.801 21.238.719 8.64-.719 13.32-8.281 13.32h-12.598l-5.043 10.801h34.563c3.957 4.32 9 5.398 15.117 5.398 9.723 0 18.723-3.597 23.043-22.68m-24.84-124.917h3.957c6.84 0 11.523 2.156 11.523 8.637 0 7.203-5.043 9-11.523 9h-4.68c-7.918 0-11.16-3.957-11.16-10.797.723-35.282 6.84-39.961 13.68-39.961 6.12 0 8.281 2.879 11.16 13.68 1.441 5.757-1.438 8.64-7.2 8.64h-.718zm38.879-39.242-5.04 10.8h90.36l5.04-10.8zm0 56.879-5.04 10.8h90.36l5.04-10.8zm0 56.882-5.04 10.797h90.36l5.04-10.797zm0 56.88-5.04 10.8h90.36l5.04-10.8zm133.558-96.122 11.88-9.36v-13.32c0-8.28 4.32-12.597 11.878-12.597h6.121l5.04-10.801h-11.52c-7.559 0-12.238-3.96-13.68-12.242-2.52-15.84-8.64-21.598-20.879-21.598-6.12 0-11.16 1.438-15.12 5.399h-26.282l-5.04 10.8h13.68c6.481 0 10.442 4.32 9.36 11.16-.719 5.04-1.438 15.122-1.438 22.32 0 8.278-3.96 12.599-11.52 12.599h-5.042l-5.04 10.8h11.88c8.281 0 11.523 1.801 15.12 9 2.88 5.762 6.84 10.801 15.481 14.403 11.16 4.68 13.68 12.597 13.68 39.238 0 8.281-2.16 11.879-8.281 11.879h-1.797l-5.043 10.8h6.121c7.2 0 8.281 3.602 7.559 10.801-.72 6.121-3.598 11.16-10.438 11.16-9 0-12.96-6.84-13.32-39.96 0-7.2 2.879-10.442 11.16-10.442h3.96l5.04-10.797h-10.8c-7.56 0-9-2.52-9-9v-13.68l-11.52 9v5.04c0 4.68-2.16 8.64-9.72 8.64h-5.042l-5.04 10.797h7.2c7.563 0 12.242 3.242 12.242 11.524 0 9 .72 15.476 1.438 21.238 1.441 8.64-.719 13.32-8.278 13.32h-7.562l-5.04 10.801h28.802c3.96 3.957 8.28 5.398 15.12 5.398 12.598 0 19.798-9.359 22.68-22.68 1.801-7.558 4.68-11.16 12.239-11.16h6.48l5.04-10.8h-11.52c-6.84 0-10.801-3.957-10.801-11.88 0-9 0-15.12-.719-21.6-.719-8.278 3.961-12.598 11.52-12.598h5.039l5.043-10.801h-16.203c-15.477 0-25.2-3.602-30.957-10.078-3.243-3.961-1.442-7.563 1.8-7.563h3.598l5.04-10.8h-7.919c-7.562 0-10.8-3.239-10.8-12.239 0-28.8 3.238-38.52 12.96-38.52 7.918 0 9.72 7.56 10.078 15.84 0 3.962-1.437 6.481-6.48 6.481h-.719l-5.039 10.8h2.52c7.558 0 10.8 2.88 10.8 11.157zm25.56-74.52-5.04 10.801h90.36l5.038-10.8zm0 56.88-5.04 10.8h90.36l5.038-10.8zm0 56.882-5.04 10.797h90.36l5.038-10.797zm0 56.88-5.04 10.8h90.36l5.038-10.8zm111.597-164.88v-62.64h-30.598l-5.043 10.8h11.16c7.563 0 12.602 4.32 12.602 12.598v20.88c0 8.28-5.04 12.6-12.602 12.6h-6.117l-5.043 10.801h12.242c7.918 0 11.52 4.32 11.52 12.239v21.242c0 8.277-5.04 12.598-12.602 12.598h-6.117l-5.043 10.8h11.16c7.563 0 12.602 4.32 12.602 12.602v20.879c0 8.281-5.04 12.601-12.602 12.601h-6.117l-5.043 10.797h11.16c7.563 0 12.602 4.32 12.602 12.602v20.879c0 8.28-5.04 12.601-12.602 12.601h-6.117l-5.043 10.801h50.762l5.039-10.8h-7.559c-7.562 0-12.601-4.321-12.601-12.602v-20.88c0-8.28 5.039-12.6 12.601-12.6h1.438l5.043-10.798h-6.48c-7.563 0-12.602-4.32-12.602-12.601v-20.88c0-8.28 5.039-12.6 12.601-12.6h1.438l5.043-10.801h-6.48c-7.563 0-12.602-5.758-12.602-14.04v-19.078c0-10.8 3.601-17.64 13.32-17.64 7.559 0 11.879 5.398 11.879 12.597 0 7.922-4.32 9.723-11.879 9.723h-1.441l-5.04 10.8h6.481c7.559 0 12.602 4.317 12.602 12.598v20.88c0 8.28-5.043 12.6-12.602 12.6h-1.441l-5.04 10.802h6.481c7.559 0 12.602 4.32 12.602 12.597v20.883c0 8.278-4.68 12.598-12.243 12.598h-1.8l-5.04 10.8h7.563c7.559 0 11.52 4.32 11.52 9v15.481l11.879 9.36v-21.239c0-8.281 5.039-12.601 12.601-12.601h6.117l5.043-10.801h-11.16c-7.562 0-12.601-4.32-12.601-12.598v-20.882c0-8.277 5.039-12.597 12.601-12.597h6.117l5.043-10.801h-11.16c-7.562 0-12.601-4.32-12.601-12.602v-20.88c0-8.28 5.039-12.597 12.601-12.597h6.117l5.043-10.801h-11.883c-7.558 0-12.597-4.32-12.597-12.96 0-12.602-6.84-20.88-19.082-20.88-9.719 0-14.04 3.957-16.559 11.16zm52.199-5.761-5.04 10.8h90.36l5.043-10.8zm0 56.879-5.04 10.8h90.36l5.043-10.8zm0 56.882-5.04 10.797h90.36l5.043-10.797zm0 56.88-5.04 10.8h90.36l5.043-10.8zm99.719-193.321 11.879-9.36v-1.44c0-8.278 5.043-12.599 12.601-12.599h6.121l5.04-10.8h-11.16c-7.56 0-12.602-4.32-12.602-12.602v-10.8l-11.88 9.363v1.437c0 8.281-5.038 12.602-12.597 12.602h-6.121l-5.04 10.8h11.161c7.559 0 12.598 4.32 12.598 12.598zm20.879 175.68h9.722l5.04-10.801h-11.16c-7.56 0-12.602-4.32-12.602-12.598v-20.882c0-8.277 5.043-12.597 12.601-12.597h6.121l5.04-10.801h-11.16c-7.56 0-12.602-4.32-12.602-12.602v-20.88c0-8.28 5.043-12.597 12.601-12.597h6.121l5.04-10.801h-11.16c-7.56 0-12.602-4.32-12.602-12.602v-5.039c0-6.48-4.68-10.8-13.317-10.8h-17.281l-5.04 10.8h11.88c7.918 0 11.879 5.04 11.879 11.88v21.6c0 8.278-5.04 12.599-12.598 12.599h-6.121l-5.04 10.8h11.161c7.559 0 12.598 4.32 12.598 12.602v20.879c0 8.281-5.04 12.601-12.598 12.601h-6.121l-5.04 10.797h11.161c7.559 0 12.598 4.32 12.598 12.602v20.879c0 8.28-5.04 12.601-12.598 12.601h-6.121l-5.04 10.801h35.638v-19.441c0-5.399 1.8-9 9-9m5.398-153-5.039 10.8h90.36l5.038-10.8zm0 56.879-5.039 10.8h90.36l5.038-10.8zm0 56.882-5.039 10.797h90.36l5.038-10.797zm0 56.88-5.039 10.8h90.36l5.038-10.8zm110.879-160.56c-1.441-9.363-7.563-10.081-13.68-10.081h-16.203l-5.039 10.8h12.242c7.918 0 11.52 4.32 11.52 12.239v21.242c0 8.277-5.043 12.598-12.602 12.598h-6.12l-5.04 10.8h11.16c7.559 0 12.602 4.32 12.602 12.602v20.879c0 8.281-5.043 12.601-12.602 12.601h-6.12l-5.04 10.797h11.16c7.559 0 12.602 4.32 12.602 12.602v20.879c0 8.28-3.242 12.601-12.602 12.601h-6.12l-5.04 10.801h11.16c7.559 0 12.602 4.32 12.602 12.598v20.883c0 8.277-5.043 12.597-12.602 12.597h-6.12l-5.04 10.8h54.36l5.042-10.8h-11.16c-7.562 0-12.601-4.32-12.601-12.597v-41.043h1.441c2.52 9.363 8.637 12.96 16.559 12.96 9.718 0 15.48-4.32 19.441-22.68 1.797-7.558 4.68-11.16 12.238-11.16h9.72l5.042-10.8h-13.68c-6.12 0-10.441-3.238-10.8-9.719-.36-6.48.359-14.039.718-23.762.36-8.277 5.04-12.597 12.602-12.597h6.117l5.043-10.801h-11.16c-7.563 0-11.883-2.879-12.602-11.16-.718-10.442-.359-18.719-.718-25.559.359-6.84 3.957-9.36 10.8-9.36h8.637l5.043-10.8h-14.402c-7.559 0-11.52-4.32-12.961-11.883-3.598-18.36-10.438-21.957-19.438-21.957-7.922 0-14.039 2.52-16.922 15.48zm2.16 127.438c.36-9 3.238-12.96 10.438-12.96h3.601l5.04-10.798h-7.56c-7.199 0-12.96-3.96-12.96-11.882v-22.32c0-7.56 5.398-11.88 12.96-11.88h2.52l5.04-10.8h-9c-6.84 0-10.079-5.04-10.079-11.16 0-31.68 4.32-39.598 12.957-39.598 5.043 0 9 1.8 11.16 9.718 2.52 8.641.36 12.602-7.918 12.602l-5.039 10.8h3.957c7.563 0 10.801 2.88 11.52 11.157.722 9 .722 15.844.722 23.762 0 6.84-4.68 11.16-12.242 11.16h-2.52l-5.038 10.8h8.28c6.84 0 11.52 3.598 11.52 11.16 0 6.84 0 17.642-.722 23.04-1.078 8.281-3.957 11.879-10.438 11.879l-5.039 10.8h5.399c6.12 0 9 2.88 8.28 7.923-.722 6.84-3.241 14.398-11.16 14.398-6.48 0-13.679-3.238-13.679-37.8" fill="#141111"/></svg>