<svg xmlns="http://www.w3.org/2000/svg" width="1440" height="1280" viewBox="0 0 1080 960"><path d="M809.82 240.77h-17.34C790 126 714.445 71.11 481.59 71.11c-330.707 0-395.113 103.542-395.113 209.577 0 106.04 53.257 169.66 175.878 192.118v17.465c-87.94 1.246-120.144 29.937-120.144 73.601 0 44.91 34.684 73.602 112.715 74.848v17.465C92.668 658.68 56.75 708.582 56.75 775.945c0 86.078 34.68 157.184 488.008 157.184 423.601 0 473.144-84.828 473.144-199.598 0-101.05-78.03-154.691-281.16-154.691H433.285c-66.887 0-85.465-12.477-85.465-33.684 0-19.957 14.864-34.93 82.985-34.93H549.71c338.14 0 449.613-79.84 449.613-237.023V19.961H809.82zm-483.054 84.828c0-48.653 37.156-69.86 209.324-69.86 170.926 0 206.844 22.453 206.844 69.86 0 51.148-34.68 67.367-206.844 67.367-172.168 0-209.324-16.219-209.324-67.367m102.8 435.379c-87.937 0-108.996-7.489-108.996-32.438 0-23.703 21.059-32.434 106.52-32.434h229.14c85.465 0 107.762 8.73 107.762 31.188 0 23.703-17.344 33.684-107.762 33.684zm0 0" fill="#141111"/></svg>