<svg xmlns="http://www.w3.org/2000/svg" width="1440" height="1280" viewBox="0 0 1080 960"><path fill="#040606" d="M0 0h1080v960H0z"/><path d="M40.063 750.441l50.683-188.324h24.645l9.3-13.949H94.47l9.761-36.734H88.887l-9.766 36.734H64.242l-3.719 13.95h14.88L25.647 748.581c-6.511 24.645.465 37.2 17.668 37.2 17.207 0 25.575-8.368 32.551-33.477l12.09-43.711-12.09-9.766-14.414 53.008c-4.187 16.277-9.3 19.531-15.812 19.531-6.043 0-10.23-4.183-5.578-20.926m51.144 32.086h14.879L94.46 813.684c-8.367 22.32-18.133 27.433-30.223 27.433h-12.09l-3.722 14.88h13.953c20.457 0 34.875-10.692 44.637-37.2l19.996-53.473 80.91-217.156h-15.809L108.88 776.949h-2.793l41.852-228.781h-15.344zM226.52 548.168h-6.508l-9.301 13.95h6.508c5.117 0 7.906 2.323 6.047 9.765l-1.395 5.578-20.926 78.586-32.55 120.902-20.926 79.047h15.347l25.11-94.394h2.324c0 13.02 2.79 24.18 15.809 24.18 19.53 0 30.691-16.739 56.265-112.993l3.723-13.953c12.555-47.895 18.598-73.004 18.598-89.277 0-16.743-6.508-24.645-17.668-24.645-11.625 0-17.672 6.508-24.18 22.32h-2.793c3.258-12.09-2.324-19.066-13.484-19.066m21.39 120.898c-26.039 96.258-32.55 101.836-44.176 101.836-6.507 0-10.23-4.183-10.23-14.879 0-10.23 3.723-27.437 11.625-58.59l21.39-79.05c15.81-54.406 22.786-58.59 33.016-58.59 6.043 0 9.766 3.719 9.766 13.484 0 14.88-5.582 37.2-18.602 85.559zm124.153-99.043c0-18.601-7.442-25.109-21.391-25.109-23.25 0-34.875 13.484-60.914 112.527l-2.79 10.696c-12.554 48.36-19.066 74.867-19.066 91.605 0 17.672 8.836 26.04 21.856 26.04 25.574 0 33.945-15.81 54.406-89.743l2.324-8.371-11.625-9.766-3.254 11.625c-20.46 73.004-27.437 81.375-39.062 81.375-6.043 0-9.766-4.183-9.766-14.879 0-13.02 6.047-37.199 19.067-86.492l.93-3.718h48.359l3.722-13.95c10.696-39.992 17.204-67.89 17.204-81.84m-23.25-10.23c6.046 0 8.37 3.719 8.37 13.484 0 12.09-4.652 34.875-15.812 77.657h-34.875c22.785-85.563 30.692-91.141 42.317-91.141m88.343 2.324l9.301-13.949h-21.39l11.624-43.246c3.72-13.02 7.907-15.809 18.137-15.809h12.555l3.719-14.414h-14.414c-19.067 0-29.297 5.578-35.805 29.758l-11.625 43.711h-14.414l-3.723 13.95h14.414l-58.59 220.41h15.348l59.055-220.41zm27.434 195.301l2.789-10.695 53.476-198.555h-15.343l-5.582 20.926h-2.325c1.86-13.02-1.859-24.18-14.414-24.18-21.39 0-31.62 16.738-57.195 112.992l-3.723 13.953c-12.554 47.895-18.597 73.004-18.597 89.278 0 17.207 6.972 24.644 18.133 24.644 13.488 0 19.53-8.367 24.644-24.18h1.863c-2.793 12.555 1.86 20.926 13.02 20.926h6.508l9.3-13.949h-6.972c-5.117 0-7.442-3.719-5.582-11.16m8.836-88.352c-26.04 96.258-32.551 101.836-44.176 101.836-6.512 0-10.23-4.183-10.23-14.879 0-13.02 6.046-37.199 19.066-86.492l2.789-10.695c24.18-93 32.086-99.043 44.176-99.043 6.043 0 9.765 3.719 9.765 13.484 0 14.88-5.582 37.2-18.601 85.559zm129.265-97.648c0-19.531-8.37-26.969-22.32-26.969-23.25 0-34.875 13.485-60.918 112.528l-2.789 10.695c-12.555 48.36-19.062 74.867-19.062 91.605 0 17.672 8.367 26.504 22.32 26.504 25.11 0 33.941-15.343 58.59-106.02l-11.625-10.23-3.258 11.625c-22.32 79.98-28.828 89.746-41.383 89.746-6.512 0-9.766-4.648-9.766-15.343 0-13.02 6.043-37.2 19.067-86.493l2.789-10.695c24.18-93 32.086-99.043 44.176-99.043 6.043 0 9.297 3.719 9.297 13.485 0 10.695-3.72 32.085-13.02 65.566l-4.184 14.879 17.204-10.23.93-3.72c8.835-35.34 13.952-55.335 13.952-67.89m86.485-1.395c0-18.601-7.442-25.109-21.39-25.109-23.25 0-34.876 13.484-60.919 112.527l-2.789 10.696c-12.555 48.36-19.062 74.867-19.062 91.605 0 17.672 8.832 26.04 21.851 26.04 25.578 0 33.946-15.81 54.406-89.743l2.325-8.371-11.625-9.766-3.254 11.625c-20.457 73.004-27.434 81.375-39.059 81.375-6.047 0-9.765-4.183-9.765-14.879 0-13.02 6.043-37.199 19.066-86.492l.93-3.718h48.359l3.719-13.95c10.695-39.992 17.207-67.89 17.207-81.84m-23.25-10.23c6.043 0 8.367 3.719 8.367 13.484 0 12.09-4.648 34.875-15.809 77.657H623.61c22.786-85.563 30.692-91.141 42.317-91.141M51.223 442.527h14.879v-302.25h2.789l31.156 302.25h31.156V134.7H116.32v302.25h-2.789L82.844 134.7H51.223zm176.234-140.43c0-89.745-11.625-97.183-33.016-97.183-21.39 0-33.015 7.902-33.015 97.649v46.035c0 89.746 11.625 97.183 33.015 97.183 21.391 0 33.016-7.902 33.016-97.648zm-15.348 39.06c0 73.937-3.718 89.745-17.668 89.745-13.949 0-17.671-15.343-17.671-89.746V309.54c0-73.937 3.722-89.746 17.671-89.746 13.95 0 17.668 15.344 17.668 89.746zm104.621-39.06c0-89.745-11.625-97.183-33.015-97.183s-33.016 7.902-33.016 97.649v46.035c0 89.746 11.625 97.183 33.016 97.183 21.39 0 33.015-7.902 33.015-97.648zm-15.343 39.06c0 73.937-3.723 89.745-17.672 89.745-13.95 0-17.668-15.343-17.668-89.746V309.54c0-73.937 3.719-89.746 17.668-89.746 13.95 0 17.672 15.344 17.672 89.746zm58.582-101.368c0-16.742 4.648-20.46 12.09-20.46 8.37 0 12.09 5.112 12.09 21.855v33.945l14.413-9.766v-30.226c0-24.18-7.437-30.223-19.527-30.223-9.3 0-15.348 4.649-17.207 14.879h-2.324c-1.395-7.441-6.512-11.625-16.274-11.625h-8.37l-5.583 13.95h6.047c5.578 0 9.301 3.253 9.301 9.3v211.11h15.344zm97.648 185.07c0 10.696 6.043 17.668 17.203 17.668h7.907l5.582-13.949h-6.047c-5.578 0-9.301-3.254-9.301-9.3v-284.58h-15.344v94.395h-2.324c-1.86-12.09-6.512-24.18-20.926-24.18-16.738 0-27.433 10.695-27.433 99.043v42.781c0 88.348 10.695 99.043 27.433 99.043 14.414 0 19.067-12.09 20.926-24.18h2.324zm-35.34-83.703V309.54c0-74.402 3.72-89.746 17.668-89.746 13.953 0 17.672 15.809 17.672 89.746v31.617c0 74.403-3.719 89.746-17.672 89.746-13.949 0-17.668-15.808-17.668-89.746m110.668 104.625c24.645 0 31.621-15.808 31.621-89.742v-8.836l-14.414-9.765v13.019c0 73.004-5.582 81.375-17.207 81.375-13.949 0-17.668-16.273-17.668-90.676v-15.344h48.36v-14.878c0-93.93-7.442-106.02-31.157-106.02-21.39 0-32.55 7.902-32.55 97.649v46.035c0 89.746 11.625 97.183 33.015 97.183M515.277 309.54c0-73.937 3.254-89.746 17.203-89.746 11.625 0 16.743 6.977 17.207 91.14h-34.41zM640.82 424.86c0 10.696 6.043 17.668 17.203 17.668h7.907l5.582-13.949h-6.047c-5.578 0-9.3-3.254-9.3-9.3v-178.56c0-24.179-8.368-35.804-24.18-35.804-13.485 0-19.997 6.043-22.786 18.598h-1.86c-1.394-10.23-6.042-15.344-17.202-15.344h-7.907l-5.582 13.95h6.047c5.578 0 9.301 3.253 9.301 9.3v211.11h15.344V247.226c0-19.528 5.582-27.434 17.207-27.434 12.09 0 16.273 8.836 16.273 27.898zm38.59-216.691l15.813 234.36h27.898l18.602-228.782h2.324l14.414 228.781h28.367l19.527-234.359h-14.414L774.273 436.95h-2.328l-13.949-228.781h-30.223L710.566 436.95h-2.324l-13.949-228.781zm146.008-55.336v4.652c0 18.133 2.324 21.387 8.371 21.387 6.047 0 8.371-3.254 8.371-21.387v-4.652c0-18.133-2.324-21.39-8.37-21.39-6.048 0-8.372 3.257-8.372 21.39m4.652 272.027c0 10.696 6.043 17.668 17.203 17.668h9.301l5.578-13.949h-7.437c-5.582 0-9.3-3.254-9.3-9.3V225.835c0-10.691-6.048-17.668-17.204-17.668h-9.3l-5.583 13.95h7.442c5.578 0 9.3 3.253 9.3 9.3zm97.184 0c0 10.696 6.043 17.668 17.203 17.668h7.906l5.578-13.949h-6.043c-5.582 0-9.3-3.254-9.3-9.3v-178.56c0-24.179-8.371-35.804-24.18-35.804-13.484 0-19.996 6.043-22.785 18.598h-1.86c-1.394-10.23-6.046-15.344-17.207-15.344h-7.906l-5.578 13.95h6.047c5.578 0 9.297 3.253 9.297 9.3v211.11h15.347V247.226c0-19.528 5.579-27.434 17.204-27.434 12.09 0 16.277 8.836 16.277 27.898zm93.926 0c0 10.696 6.043 17.668 17.203 17.668h7.906l5.578-13.949h-6.043c-5.582 0-9.3-3.254-9.3-9.3V134.698h-15.344v94.395h-2.325c-1.863-12.09-6.511-24.18-20.925-24.18-16.742 0-27.438 10.695-27.438 99.043v42.781c0 88.348 10.696 99.043 27.438 99.043 14.414 0 19.062-12.09 20.925-24.18h2.325zm-35.34-83.703V309.54c0-74.402 3.719-89.746 17.668-89.746 13.953 0 17.672 15.809 17.672 89.746v31.617c0 74.403-3.72 89.746-17.672 89.746-13.95 0-17.668-15.808-17.668-89.746" fill="#fff"/></svg>