<svg viewBox="0 0 960 1080" xmlns="http://www.w3.org/2000/svg" fill-rule="evenodd" clip-rule="evenodd" stroke-linejoin="round" stroke-miterlimit="2"><path d="M0 0h988.858v1080H0z"/><path d="M68598.7 2870.58l-61.1 339.3c-139.1 766.82-339.3 1136.65-695.5 1445.42-366.5 315.55-637.9 475.02-1170.6 475.02-190 0-410.6-30.54-682-95.01l329.1-692.17h33.9c356.3 420.73 651.5 665.03 811 665.03 115.3 0 213.7-95.01 291.8-553.06l125.5-736.28c-78 237.51-179.8 400.37-291.8 512.34-159.5 159.47-335.9 213.76-481.8 213.76-342.7 0-559.8-308.76-559.8-858.43 0-1024.68 807.5-1849.18 1845.8-1849.18 128.9 0 335.9 20.36 627.7 101.79l-729.5 1078.97h-34c-20.3-586.98-98.4-1092.54-223.9-1092.54-186.6 0-529.3 936.47-529.3 1747.39 0 325.73 54.3 451.27 132.3 451.27 105.2 0 196.8-223.94 302-614.13v-393.59l960.2-145.9z" fill="url(#_Linear1)" fill-rule="nonzero" transform="translate(-6151.87 -100.524) scale(.09163)"/><path d="M70892.4 2687.36l220.5-186.62c-274.8-108.57-495.4-152.68-722.7-152.68-464.8 0-953.4 193.4-1299.5 559.84-346.1 369.84-509 902.54-509 1275.77 0 369.84 159.5 603.95 431 603.95 139.1 0 288.4-61.07 434.3-206.97 139.1-139.11 318.9-393.59 458-841.46l-213.7 1051.83 1038.2-183.22-152.7-176.44 315.6-1744zm-1292.8 1499.7c-81.4 0-115.3-159.47-115.3-359.65 0-407.16 139.1-1140.05 291.8-1292.74 27.1-27.14 57.7-40.71 91.6-40.71 95 0 183.2 67.86 251.1 162.86-200.2 1048.44-410.6 1530.24-519.2 1530.24z" fill="url(#_Linear2)" fill-rule="nonzero" transform="translate(-6151.87 -100.524) scale(.09163)"/><path d="M72341.2 1601.6l-956.8 169.65v576.81l-380.1 2103.66-220.5 186.61c274.8 108.58 495.4 152.69 722.7 152.69 464.8 0 953.4-193.4 1299.5-559.85 346.1-369.83 509-902.53 509-1275.76 0-369.84-159.5-603.96-430.9-603.96-139.2 0-288.4 61.08-434.3 206.98-139.2 139.11-319 393.58-458.1 841.46l349.5-1798.29zm-44.1 1350.41c81.4 0 115.3 159.47 115.3 359.66 0 407.16-139.1 1140.05-291.8 1292.73-27.1 27.15-57.6 40.72-91.6 40.72-95 0-183.2-67.86-251.1-162.87 200.2-1048.43 410.6-1530.24 519.2-1530.24z" fill="url(#_Linear3)" fill-rule="nonzero" transform="translate(-6151.87 -100.524) scale(.09163)"/><path d="M73294.6 4791.02l1000.9-176.44-152.6-176.43 366.4-2090.09-1000.9 176.43 152.7 176.44-366.5 2090.09zm916.1-2493.86c322.4 0 549.7-152.68 549.7-369.83-3.4-190.01-179.8-342.69-461.5-342.69-335.9 0-532.7 179.82-536.1 373.23-3.3 179.82 162.9 339.29 447.9 339.29z" fill="url(#_Linear4)" fill-rule="nonzero" transform="translate(-6151.87 -100.524) scale(.09163)"/><path d="M74570.4 3847.76c0 590.39 329.1 943.26 878.8 943.26 671.8 0 1279.1-610.74 1279.1-1482.74 0-654.85-339.3-960.22-868.6-960.22-671.8 0-1289.3 620.92-1289.3 1499.7zm797.3 410.56c0-695.57 247.7-1862.76 454.7-1862.76 54.3 0 108.6 78.04 108.6 495.38 0 695.56-254.5 1852.58-461.5 1852.58-50.9 0-101.8-105.19-101.8-485.2z" fill="url(#_Linear5)" fill-rule="nonzero" transform="translate(-6151.87 -100.524) scale(.09163)"/><path d="M76796.2 4774.05l363-2073.12-152.6-176.44 1000.9-176.43-159.5 926.29c88.2-274.84 227.3-505.56 390.2-668.42 166.3-166.26 352.9-257.87 522.5-257.87 261.3 0 407.2 261.26 295.2 922.89l-196.8 1150.23 152.7 176.44-1000.9 176.43 186.6-1041.65c78-427.51 67.9-787.17-64.5-787.17-118.7 0-325.7 403.76-437.7 1150.22l3.4 522.52-902.5 156.08z" fill="url(#_Linear6)" fill-rule="nonzero" transform="translate(-6151.87 -100.524) scale(.09163)"/><g fill-rule="nonzero"><path d="M66915.8 3640.79c0 712.53 427.5 1136.65 1092.5 1136.65 441.1 0 773.6-111.96 1021.3-237.5V3382.92l-1106.1 312.16v81.43l563.2 251.08v454.66c-349.4-16.96-553-105.18-709.1-261.26-190-190-302-478.41-302-817.71 0-349.48 91.6-580.2 227.4-715.92 91.6-91.61 203.5-128.93 305.3-128.93 142.5 0 268.1 50.89 356.3 95l274.8 597.17h88.2l302-916.11c-271.4-64.47-454.6-74.65-648-74.65-773.6 0-1465.8 563.24-1465.8 1380.95z" fill="url(#_Linear7)" transform="translate(-6016.99 111.1) scale(.08978)"/><path d="M70363.1 4553.51l6.8 223.93 712.5-156.07v-74.65c-159.5-71.25-203.6-115.36-203.6-515.73v-692.17c0-257.87-186.6-420.74-583.6-420.74-339.3 0-699 139.12-916.1 234.12l271.4 519.13h61.1l213.8-485.2c128.9 0 308.7-6.79 383.4 67.86 37.3 37.32 54.3 98.4 54.3 176.44v264.65l-169.7 33.93c-363 71.25-553 145.9-654.8 247.69-108.6 108.57-159.5 237.51-159.5 393.58 0 254.48 217.1 407.16 454.7 407.16 227.3 0 386.8-71.25 529.3-223.93zm0-186.62c-67.9 27.15-132.4 54.29-227.4 54.29-196.8 0-264.6-95-264.6-206.97 0-57.68 0-115.36 27.1-190.01l464.9-67.86v410.55z" fill="url(#_Linear8)" transform="translate(-6016.99 111.1) scale(.08978)"/><path d="M71971.3 2222.52l-64.4-64.47-743.1 190.01v88.22c203.6 105.18 257.9 206.97 257.9 441.09v1479.34l-240.9 193.4v81.44c193.4 74.64 536.1 145.89 878.8 145.89 427.5 0 1065.4-257.86 1065.4-1051.82 0-522.52-295.2-807.54-617.6-807.54-240.9 0-434.3 145.9-570 301.98l33.9-997.54zm-33.9 2157.94v-980.57c81.4-44.11 179.8-95 288.4-95 207 0 369.9 156.07 369.9 597.16 0 410.55-132.4 603.96-322.4 603.96-166.2 0-281.6-71.26-335.9-125.55z" fill="url(#_Linear9)" transform="translate(-6016.99 111.1) scale(.08978)"/><path d="M73776.4 2782.36c196.8 0 346.1-142.5 346.1-346.08 0-176.44-149.3-339.3-346.1-339.3-203.6 0-359.6 162.86-359.6 339.3 0 203.58 156 346.08 359.6 346.08zm271.5 1442.03V3539l33.9-620.92-756.6 200.19v118.76c156 23.75 206.9 74.64 206.9 305.36v950.04l-237.5 95.01v135.72h990.8v-135.72c-193.4-111.97-237.5-173.05-237.5-363.05z" fill="url(#_Linear10)" transform="translate(-6016.99 111.1) scale(.08978)"/><path d="M75225.2 4777.44c529.3 0 997.6-305.37 997.6-1021.29 0-536.09-315.6-838.07-800.8-838.07-478.4 0-980.6 305.37-980.6 1021.3 0 539.48 315.6 838.06 783.8 838.06zm464.9-821.1c0 200.19-37.4 369.84-129 461.45-54.3 54.28-122.1 81.43-206.9 81.43-74.7 0-159.5-23.75-213.8-78.04-118.8-118.75-166.3-373.23-166.3-681.99 0-200.19 37.4-369.84 129-461.45 54.3-54.29 122.1-81.43 207-81.43 74.6 0 159.4 23.75 213.7 78.04 118.8 118.75 166.3 373.23 166.3 681.99z" fill="url(#_Linear11)" transform="translate(-6016.99 111.1) scale(.08978)"/><path d="M78251.8 4224.39v-692.17c0-481.81-217.2-614.14-447.9-614.14-254.5 0-512.3 162.87-658.2 268.05v-268.05l-722.7 200.19v118.76c156 23.75 206.9 74.64 206.9 305.36v950.04l-237.5 95.01v135.72h990.8v-135.72c-193.4-111.97-237.5-173.05-237.5-396.98v-824.5c95-30.54 227.3-61.07 335.9-61.07 193.4 0 254.4 98.39 254.4 288.4v899.14l-237.5 95.01v135.72h990.8v-135.72c-193.4-111.97-237.5-173.05-237.5-363.05z" fill="url(#_Linear12)" transform="translate(-6016.99 111.1) scale(.08978)"/></g><g fill-rule="nonzero"><path d="M66875.1 4560.29l-162.9 162.87h749.9c899.1 0 1380.9-614.14 1380.9-1577.75 0-929.68-468.2-1340.23-1228.3-1340.23H66702c125.6 71.25 179.9 135.72 173.1 346.09v2409.02zm1330-1153.62c0 848.25-203.6 1235.06-478.4 1235.06-101.8 0-179.8-64.47-230.7-118.76V1839.11c376.6 0 709.1 695.56 709.1 1567.56z" fill="url(#_Linear13)" transform="translate(-6016.99 386.578) scale(.08978)"/><path d="M69426.6 2232.7c227.3 0 380-122.15 380-281.62 0-162.86-156.1-295.19-390.2-295.19-230.7 0-369.8 132.33-369.8 295.19 0 159.47 142.5 281.62 380 281.62zm-261.3 2341.16l-169.6 149.3h912.7c-128.9-78.04-169.6-135.72-169.6-329.12v-1404.7l23.7-631.1-766.8 98.4c139.1 78.03 169.6 149.29 169.6 325.72v1791.5z" fill="url(#_Linear14)" transform="translate(-6016.99 386.578) scale(.08978)"/><path d="M70247.7 3776.51l-203.6 851.64c118.8 64.47 359.7 152.69 678.6 152.69 536.1 0 817.7-329.12 821.1-712.53 0-244.3-95-393.59-213.7-512.34-220.6-220.55-654.9-366.45-855.1-563.24-64.4-67.86-149.3-162.86-149.3-274.83 0-128.94 108.6-206.98 230.8-206.98 217.1 0 522.5 237.51 766.8 848.25h23.7l210.4-848.25c-115.4-64.46-349.5-152.68-641.3-152.68-495.4 0-831.3 301.98-831.3 709.14 0 220.54 91.7 380.01 217.2 502.16 169.6 169.65 665 386.8 841.5 559.84 88.2 91.61 149.2 179.83 149.2 295.19 0 139.12-101.7 206.98-220.5 206.98-190 0-549.7-203.58-797.4-855.04h-27.1z" fill="url(#_Linear15)" transform="translate(-6016.99 386.578) scale(.08978)"/><path d="M71883.1 4913.16l-169.6 149.3h912.7c-128.9-98.4-173-156.08-173-329.12v-64.47c318.9 0 570-95.01 763.4-288.41 240.9-237.51 407.1-614.13 407.1-1089.15 0-627.7-288.4-933.07-580.2-933.07-295.2 0-515.7 274.83-587 549.66l17-549.66-760 122.15c135.7 64.46 169.6 132.32 169.6 318.94v2113.83zm919.5-366.44c-105.2 0-247.7-149.29-346.1-390.19V2955.41c47.5-88.22 112-152.69 173.1-152.69 264.6 0 458 498.77 458 1038.26 0 542.88-159.4 705.74-285 705.74z" fill="url(#_Linear16)" transform="translate(-6016.99 386.578) scale(.08978)"/><path d="M73932.5 4573.86l-169.7 149.3h912.8c-129-78.04-169.7-135.72-169.7-329.12V2249.66l27.2-637.88-770.3 98.4c139.2 78.04 169.7 149.29 169.7 325.72v2537.96z" fill="url(#_Linear17)" transform="translate(-6016.99 386.578) scale(.08978)"/><path d="M76433.1 2965.59c0-437.7-176.4-607.35-420.7-607.35-298.6 0-549.7 359.66-760 929.68l220.5-872h-624.3l288.4 1306.3h23.8c128.9-624.31 312.1-838.07 458-838.07 135.7 0 244.3 122.15 244.3 346.09v210.36c-498.8 166.26-698.9 274.84-831.3 410.56-132.3 128.93-196.8 288.4-196.8 464.84 0 281.62 179.9 464.84 417.4 464.84 257.8 0 468.2-251.08 610.7-522.52l-33.9 522.52 773.6-98.4c-139.1-78.04-169.7-139.11-169.7-308.76V2965.59zm-570 736.28v512.34c-61.1 67.86-139.1 173.04-237.5 173.04-139.1 0-251.1-115.36-251.1-396.98 0-156.08 34-271.44 101.8-342.69 40.7-37.33 108.6-71.26 183.2-71.26 50.9 0 118.8 47.51 203.6 125.55z" fill="url(#_Linear18)" transform="translate(-6016.99 386.578) scale(.08978)"/><path d="M76640.1 2415.92l980.6 2354.74c-71.3 84.82-159.5 108.57-224 108.57-213.7 0-396.9-220.54-485.2-1089.15h-27.1l-186.6 1282.56c81.4 30.53 169.6 47.5 264.6 47.5 308.8 0 763.5-149.29 1062.1-868.61l692.1-1835.61h-797.3c176.4 485.2 264.6 1170.58 64.4 1781.32l-580.2-1475.95-47.5-305.37h-715.9z" fill="url(#_Linear19)" transform="translate(-6016.99 386.578) scale(.08978)"/></g><g fill-rule="nonzero"><path d="M70203.6 2483.78v2059.55l-274.8 105.18v74.65h868.6v-84.83c-91.6-16.96-152.7-47.5-196.8-91.61-57.7-57.68-78.1-152.68-78.1-593.77V2483.78l464.9 37.32 176.4 671.82h54.3l179.8-878.79h-2069.7l179.8 878.79h54.3l176.5-671.82 464.8-37.32z" fill="url(#_Linear20)" transform="translate(-6016.99 594.979) scale(.08978)"/><path d="M72164.7 4495.83c-281.6 0-475-217.16-478.4-637.89l1109.5 74.65c17-105.18 27.2-217.15 27.2-285.01 0-400.38-220.6-668.42-573.4-668.42-366.5 0-868.6 346.08-868.6 1007.72 0 549.66 403.7 783.78 702.3 783.78 386.8 0 661.6-271.44 749.9-583.6l-57.7-23.75c-118.8 145.9-295.2 332.52-610.8 332.52zm-329.1-1163.8c78.1-78.04 173.1-98.4 274.9-98.4 318.9 0 407.1 227.33 407.1 434.3l-827.9 67.87c17-186.62 64.5-322.34 145.9-403.77z" fill="url(#_Linear21)" transform="translate(-6016.99 594.979) scale(.08978)"/><path d="M74061.4 4567.08c95 152.68 190 203.58 305.4 203.58 108.6 0 240.9-74.65 339.3-142.51v-47.5l-359.7-128.93-325.7-525.92 644.7-851.64v-47.5h-468.2c-30.6 363.05-101.8 542.88-251.1 773.6l-237.5-383.41-240.9-441.09-495.4 206.98v47.5c234.1 57.68 352.9 142.5 454.6 308.76l179.9 291.8-610.8 844.85v47.51h468.3c16.9-308.77 91.6-532.7 223.9-756.64l373.2 600.56z" fill="url(#_Linear22)" transform="translate(-6016.99 594.979) scale(.08978)"/><path d="M75323.6 2392.17h-54.3l-359.6 702.35v50.89c159.5 50.9 186.6 152.69 186.6 393.59v899.15c0 227.33 132.3 332.51 285 332.51 183.2 0 407.2-98.4 580.2-176.44v-57.68l-559.8-98.39V3247.2h546.2v-220.54h-546.2l-78.1-634.49z" fill="url(#_Linear23)" transform="translate(-6016.99 594.979) scale(.08978)"/></g><defs><linearGradient id="_Linear1" x1="0" y1="0" x2="1" y2="0" gradientUnits="userSpaceOnUse" gradientTransform="matrix(0 2318.14 -2318.14 0 72869.3 2183.87)"><stop offset="0" stop-color="#fffeff"/><stop offset=".55" stop-color="#4a4a4a" stop-opacity=".29"/><stop offset="1" stop-opacity="0"/></linearGradient><linearGradient id="_Linear2" x1="0" y1="0" x2="1" y2="0" gradientUnits="userSpaceOnUse" gradientTransform="matrix(0 2318.14 -2318.14 0 72869.3 2183.87)"><stop offset="0" stop-color="#fffeff"/><stop offset=".55" stop-color="#4a4a4a" stop-opacity=".29"/><stop offset="1" stop-opacity="0"/></linearGradient><linearGradient id="_Linear3" x1="0" y1="0" x2="1" y2="0" gradientUnits="userSpaceOnUse" gradientTransform="matrix(0 2318.14 -2318.14 0 72869.3 2183.87)"><stop offset="0" stop-color="#fffeff"/><stop offset=".55" stop-color="#4a4a4a" stop-opacity=".29"/><stop offset="1" stop-opacity="0"/></linearGradient><linearGradient id="_Linear4" x1="0" y1="0" x2="1" y2="0" gradientUnits="userSpaceOnUse" gradientTransform="matrix(0 2318.14 -2318.14 0 72869.3 2183.87)"><stop offset="0" stop-color="#fffeff"/><stop offset=".55" stop-color="#4a4a4a" stop-opacity=".29"/><stop offset="1" stop-opacity="0"/></linearGradient><linearGradient id="_Linear5" x1="0" y1="0" x2="1" y2="0" gradientUnits="userSpaceOnUse" gradientTransform="matrix(0 2318.14 -2318.14 0 72869.3 2183.87)"><stop offset="0" stop-color="#fffeff"/><stop offset=".55" stop-color="#4a4a4a" stop-opacity=".29"/><stop offset="1" stop-opacity="0"/></linearGradient><linearGradient id="_Linear6" x1="0" y1="0" x2="1" y2="0" gradientUnits="userSpaceOnUse" gradientTransform="matrix(0 2318.14 -2318.14 0 72869.3 2183.87)"><stop offset="0" stop-color="#fffeff"/><stop offset=".55" stop-color="#4a4a4a" stop-opacity=".29"/><stop offset="1" stop-opacity="0"/></linearGradient><linearGradient id="_Linear7" x1="0" y1="0" x2="1" y2="0" gradientUnits="userSpaceOnUse" gradientTransform="rotate(90 35281.09 37553.11) scale(2277.29)"><stop offset="0" stop-color="#fffeff"/><stop offset=".55" stop-color="#4a4a4a" stop-opacity=".29"/><stop offset="1" stop-opacity="0"/></linearGradient><linearGradient id="_Linear8" x1="0" y1="0" x2="1" y2="0" gradientUnits="userSpaceOnUse" gradientTransform="rotate(90 35281.09 37553.11) scale(2277.29)"><stop offset="0" stop-color="#fffeff"/><stop offset=".55" stop-color="#4a4a4a" stop-opacity=".29"/><stop offset="1" stop-opacity="0"/></linearGradient><linearGradient id="_Linear9" x1="0" y1="0" x2="1" y2="0" gradientUnits="userSpaceOnUse" gradientTransform="rotate(90 35281.09 37553.11) scale(2277.29)"><stop offset="0" stop-color="#fffeff"/><stop offset=".55" stop-color="#4a4a4a" stop-opacity=".29"/><stop offset="1" stop-opacity="0"/></linearGradient><linearGradient id="_Linear10" x1="0" y1="0" x2="1" y2="0" gradientUnits="userSpaceOnUse" gradientTransform="rotate(90 35281.09 37553.11) scale(2277.29)"><stop offset="0" stop-color="#fffeff"/><stop offset=".55" stop-color="#4a4a4a" stop-opacity=".29"/><stop offset="1" stop-opacity="0"/></linearGradient><linearGradient id="_Linear11" x1="0" y1="0" x2="1" y2="0" gradientUnits="userSpaceOnUse" gradientTransform="rotate(90 35281.09 37553.11) scale(2277.29)"><stop offset="0" stop-color="#fffeff"/><stop offset=".55" stop-color="#4a4a4a" stop-opacity=".29"/><stop offset="1" stop-opacity="0"/></linearGradient><linearGradient id="_Linear12" x1="0" y1="0" x2="1" y2="0" gradientUnits="userSpaceOnUse" gradientTransform="rotate(90 35281.09 37553.11) scale(2277.29)"><stop offset="0" stop-color="#fffeff"/><stop offset=".55" stop-color="#4a4a4a" stop-opacity=".29"/><stop offset="1" stop-opacity="0"/></linearGradient><linearGradient id="_Linear13" x1="0" y1="0" x2="1" y2="0" gradientUnits="userSpaceOnUse" gradientTransform="rotate(90 35611.21 37222.99) scale(2937.52)"><stop offset="0" stop-color="#fffeff"/><stop offset=".55" stop-color="#4a4a4a" stop-opacity=".29"/><stop offset="1" stop-opacity="0"/></linearGradient><linearGradient id="_Linear14" x1="0" y1="0" x2="1" y2="0" gradientUnits="userSpaceOnUse" gradientTransform="rotate(90 35611.21 37222.99) scale(2937.52)"><stop offset="0" stop-color="#fffeff"/><stop offset=".55" stop-color="#4a4a4a" stop-opacity=".29"/><stop offset="1" stop-opacity="0"/></linearGradient><linearGradient id="_Linear15" x1="0" y1="0" x2="1" y2="0" gradientUnits="userSpaceOnUse" gradientTransform="rotate(90 35611.21 37222.99) scale(2937.52)"><stop offset="0" stop-color="#fffeff"/><stop offset=".55" stop-color="#4a4a4a" stop-opacity=".29"/><stop offset="1" stop-opacity="0"/></linearGradient><linearGradient id="_Linear16" x1="0" y1="0" x2="1" y2="0" gradientUnits="userSpaceOnUse" gradientTransform="rotate(90 35611.21 37222.99) scale(2937.52)"><stop offset="0" stop-color="#fffeff"/><stop offset=".55" stop-color="#4a4a4a" stop-opacity=".29"/><stop offset="1" stop-opacity="0"/></linearGradient><linearGradient id="_Linear17" x1="0" y1="0" x2="1" y2="0" gradientUnits="userSpaceOnUse" gradientTransform="rotate(90 35611.21 37222.99) scale(2937.52)"><stop offset="0" stop-color="#fffeff"/><stop offset=".55" stop-color="#4a4a4a" stop-opacity=".29"/><stop offset="1" stop-opacity="0"/></linearGradient><linearGradient id="_Linear18" x1="0" y1="0" x2="1" y2="0" gradientUnits="userSpaceOnUse" gradientTransform="rotate(90 35611.21 37222.99) scale(2937.52)"><stop offset="0" stop-color="#fffeff"/><stop offset=".55" stop-color="#4a4a4a" stop-opacity=".29"/><stop offset="1" stop-opacity="0"/></linearGradient><linearGradient id="_Linear19" x1="0" y1="0" x2="1" y2="0" gradientUnits="userSpaceOnUse" gradientTransform="rotate(90 35611.21 37222.99) scale(2937.52)"><stop offset="0" stop-color="#fffeff"/><stop offset=".55" stop-color="#4a4a4a" stop-opacity=".29"/><stop offset="1" stop-opacity="0"/></linearGradient><linearGradient id="_Linear20" x1="0" y1="0" x2="1" y2="0" gradientUnits="userSpaceOnUse" gradientTransform="matrix(0 2441.12 -2441.12 0 72834.2 2108.19)"><stop offset="0" stop-color="#fffeff"/><stop offset=".55" stop-color="#4a4a4a" stop-opacity=".29"/><stop offset="1" stop-opacity="0"/></linearGradient><linearGradient id="_Linear21" x1="0" y1="0" x2="1" y2="0" gradientUnits="userSpaceOnUse" gradientTransform="matrix(0 2441.12 -2441.12 0 72834.2 2108.19)"><stop offset="0" stop-color="#fffeff"/><stop offset=".55" stop-color="#4a4a4a" stop-opacity=".29"/><stop offset="1" stop-opacity="0"/></linearGradient><linearGradient id="_Linear22" x1="0" y1="0" x2="1" y2="0" gradientUnits="userSpaceOnUse" gradientTransform="matrix(0 2441.12 -2441.12 0 72834.2 2108.19)"><stop offset="0" stop-color="#fffeff"/><stop offset=".55" stop-color="#4a4a4a" stop-opacity=".29"/><stop offset="1" stop-opacity="0"/></linearGradient><linearGradient id="_Linear23" x1="0" y1="0" x2="1" y2="0" gradientUnits="userSpaceOnUse" gradientTransform="matrix(0 2441.12 -2441.12 0 72834.2 2108.19)"><stop offset="0" stop-color="#fffeff"/><stop offset=".55" stop-color="#4a4a4a" stop-opacity=".29"/><stop offset="1" stop-opacity="0"/></linearGradient></defs></svg>