<svg viewBox="0 0 1080 960" xmlns="http://www.w3.org/2000/svg"><path d="m0 0h1080v960h-1080z" fill="#ff0000"/><path d="m647.4845 369.4323c-65.151 0-123.444 33.147-164.592 100.584l14.859-225.171c68.58 57.15 132.588 75.438 189.7379 74.295 58.2931-1.143 112.0141-18.2879 128.0161-125.73 6.858-46.8629 9.144-70.866 13.716-98.298-114.3-3.429-211.455-25.146-330.327-25.146-213.741 0-229.743 105.156-228.6 211.455l2.286 298.323c0 1.143 25.146 9.144 66.294 9.144 126.873 0 182.88-9.144 230.886-35.433 4.572 16.002 8.001 29.718 8.001 49.149 0 51.435-26.289 82.296-84.582 80.01-37.719-1.143-182.88-27.432-242.316-45.72 0 16.002 1.143 34.29 1.143 40.005 0 136.017 85.725 213.741 245.745 213.741 195.453 0 329.184-140.589 329.184-322.326 0-131.445-70.866-198.882-179.451-198.882" fill="#fff"/></svg>