<svg viewBox="0 0 1080 960" xmlns="http://www.w3.org/2000/svg"><path d="m0 0h1080v960h-1080z" fill="#ff0000"/><path d="m971.4974 846.1721c-12.3571-238.159-41.5661-534.735-86.5011-762.784-124.6969 15.727-220.185 29.208-259.5039 112.339-35.9491 70.774-64.034 202.211-77.5141 314.55h-2.2469c-19.098-211.198-68.527-426.889-208.951-426.889-73.021 0-157.275 75.267-221.309 122.45 32.579 42.689 73.021 83.131 103.352 110.092-64.033 98.859-80.884 306.687-105.599 529.119-3.37 30.331 171.88 24.714 238.16 19.097 4.493-120.203 16.851-246.023 32.578-433.63h5.6169c21.3451 111.216 34.8251 244.9 38.1961 306.687 30.331 7.864 73.02 15.727 103.352 15.727 67.4029 0 116.833-21.344 134.807-119.079l38.1949-210.075h3.3707c11.2329 204.458 16.85 322.414 19.097 440.37 51.676 4.494 246.023 6.741 244.9-17.974" fill="#fff"/></svg>