<svg enable-background="new 0 0 1080 960" viewBox="0 0 1080 960" xmlns="http://www.w3.org/2000/svg"><path d="m-1.2-1h1082.3v962h-1082.3z" fill="#0000ff"/><path d="m537.5 622.2c-104.6 0-152.1 60.6-153.3 146.2-1.2 91.5 53.5 135.5 133.1 135.5 99.8 0 146.2-64.2 147.4-152.1 1.1-92.8-55.9-129.6-127.2-129.6m280.4-530c-105.8-11.9-223.4-13.1-310.2-19-13.1 51.1-25 86.7-30.9 117.6-14.3 76.1 30.9 105.8 86.7 114.1 45.2 5.9 111.7-2.4 198.4-30.9l1.2 2.4c-152 115.3-314.8 212.7-184 293.5 25 15.4 61.8 40.4 95.1 57 59.4-96.3 266.2-215.1 292.3-351.7 17.8-95.1-14.3-167.6-148.6-183m-443.2-47.5c-46.3 27.3-112.9 63-141.4 83.2-77.2 54.7-97.4 116.5-51.1 197.3l174.7 294.7c13.1 22.6 110.5-29.7 168.7-67.7z" fill="#fff"/></svg>