<svg enable-background="new 0 0 1080 960" viewBox="0 0 1080 960" xmlns="http://www.w3.org/2000/svg"><path d="m0 0h1080v960h-1080z" fill="#ff0000"/><path d="m612.8 575c-2.6 79.1-19.4 106.3-57 106.3-33.7 0-59.6-25.9-60.9-150.3-1.3-76.5 3.9-164.6 15.6-241.1 36.3 25.9 72.6 49.2 107.6 67.4-1.4 53.1-1.4 117.9-5.3 217.7m281.3-312.3c9.1-48 14.3-70 19.4-95.9-80.4-3.9-254-59.6-388.8-59.6-259.2 0-317.5 211.2-317.5 394 0 232 94.6 374.5 327.9 374.5 221.6 0 334.4-146.4 335.7-298.1 1.3-107.6-29.8-140-152.9-182.7 12.4 2.5 25 3.8 37.6 3.9 89.3 0 123-53.2 138.6-136.1" fill="#fff"/></svg>