<svg viewBox="0 0 1080 960" xmlns="http://www.w3.org/2000/svg"><path d="m0 0h1080v960h-1080z" fill="#ff0000"/><path d="m488.5735 471.8111c2.592-63.504 12.96-90.72 67.392-90.72 20.736 0 34.992 3.888 44.064 9.072 1.2959 127.008-3.888 185.328-57.0241 185.328-37.5839 0-57.0239-33.696-54.4319-103.68m165.888 272.16c-58.32 1.296-110.16 9.072-158.112 16.848a432.3321 432.3321 0 0 0 3.888-55.728h25.92c228.096-7.776 346.032-146.448 342.144-434.16-2.592-189.216-57.024-206.064-259.2-212.544-1.2959 97.2-3.888 138.672-7.776 273.456-20.7359-111.456-76.4639-134.784-154.2239-134.784-142.56 0-230.688 102.384-229.392 261.792 1.296 125.712 58.32 213.84 195.696 239.76-80.352 15.552-165.888 72.576-165.888 143.856 0 66.096 75.168 86.832 177.552 86.832 136.08 0 202.176-28.512 202.176 14.256 0 5.184 0 16.848-1.296 24.624-115.344 22.032-309.744 29.808-414.72 16.848l2.592 41.472c7.776 128.304 98.496 167.184 255.312 164.592 219.024-3.888 403.056-95.904 403.056-289.008 0-120.528-89.4241-162-217.728-158.112" fill="#fff"/></svg>