<svg xmlns="http://www.w3.org/2000/svg" xmlns:xlink="http://www.w3.org/1999/xlink" width="2560" height="1440" viewBox="0 0 1920 1080"><defs><symbol overflow="visible" id="a"><path d="M72.89 64.703c139.75.922 168.594-29.328 204.673-164.016l40.875-152.796c42.046-155.047 68.109-228.5 84.812-281.672l-130.625-1.922-76.484 255.672c-3.578 11.297-7.094 19.203-11.72 24.828-5.796 6.734-11.515 10.047-20.608 9.922-10.22-.156-15.844-4.781-16.829-13.89-1.015-9.095 1.563-29.517 42.235-168.673 34.687-118.797 46.578-154.969 61.625-174.062 15.078-19.11 40.125-23.282 86.687-22.594 28.406.406 59.047 3.14 88.547 6.984l42.906-136.843c-20.39-3.735-62.39-7.75-112.375-8.485-96.546-1.422-138.812 12.735-173.343 44.047-36.844 32.39-62.516 79.75-121.047 274.297C18-296.297 1.937-209.031-.906-170.453c-4.188 53.36 16.062 67.281 52.406 67.812 37.484.547 68.36-12.625 103.453-81.437l38.625-75.547 2.266.047-34.64 115.375c-21.5 71.266-46.673 82.25-100.063 82.61-68.188.14-105.625-3.829-93.453-59.313l6.078-27.188-7.953-.11-9.579 33.938C-86.906 38.5-41.859 64.156 72.891 64.704zm0 0"/></symbol><symbol overflow="visible" id="b"><path d="M809.594-505.094l38.203-125.531-54.516-.813 52.407-165.125c-52.172-6.453-98.72-9.406-136.188-9.953-110.203-1.625-143.516 24.016-160.125 71.5-15.484 48.641-1.172 79.516 55.438 92.86l24.906 6.031-.032 2.281-59.062-.86c-112.469-1.655-152.86 40.938-186.234 147.235-20.282 65.61-20.985 113.328-7.297 186.219 10.562 54.703 9.781 108.11 2.594 132.984-11.954 40.735-23.563 57.594-61.047 57.047-37.485-.547-49.891-7.547-39.11-44.875l9.594-33.953-7.922-2.375L264.5-138.14C232.266-32.953 232.703 14.781 332.656 16.25 430.36 17.688 455-35.36 487.391-150.781c19.187-69.016 18.89-126.969 7.25-185.094-10.563-54.688-12.375-85.39-1.61-122.734 13.156-44.11 32.61-54.063 80.328-53.36l26.11.39 53.547-163.968c8.343-26 16.375-31.562 42.453-26.64l-51.203 158.312-140.438 433.11C470.516-9 482.641 16.187 559.906 17.327 636 18.438 654.375 6.203 691.422-117.094l20.297-67.86-7.907-2.405-16.671 52.015c-8.344 26.016-17.47 28.156-33.375 27.922-23.86-.344-25.97-10.61-15.282-42.281l114.297-356.219zM241.062-168.03c-15.468 47.5-32.609 54.062-78.03 53.406-34.079-.5-53.266-8.734-56.36-31.516-5.172-34.172 18.484-97.453 41.172-172.093C188.39-448.297 205-496.922 213.188-512.72c7.015-13.515 13.875-16.828 25.234-16.656 10.234.156 18.125 4.797 19.094 15.047 1 10.234-7.407 40.797-35.922 125.594-46.36 139.062-53.39 153.734-81.969 165.812l-10.297 4.406 1.063 5.703c30.797-8.64 43.343-10.734 80.984-22.671 63.953-20.672 79.094-46.578 135.047-219.594 47.61-147 17.578-191.766-84.656-193.266-48.86-.718-86.438 6.688-114.11 33.547-29.984 29.11-55.703 78.719-107.031 247.266C-25.109-146.953-39.547-92.61-27.703-48.141-16.97-5.938 21.407 12.812 91.844 12.72c86.36.125 117.515-33.5 146.312-136.485l19.172-67.875-7.922-2.39zm0 0"/></symbol><symbol overflow="visible" id="c"><path d="M91.844 12.719c48.844.703 87.594-6.672 115.234-33.547 34.594-33.563 55.75-80.969 105.906-247.266 71.641-235.281 83.625-278.297 71.75-320.484-10.812-37.656-46.875-58.64-122.968-59.766-48.86-.718-86.438 6.688-114.11 33.547-32.281 31.344-56.937 85.516-105.89 247.281C-27.516-137.89-40.75-88.094-29.984-47.03-19.172-9.374 15.734 11.595 91.844 12.72zm24.484-118.953c-13.64-.204-21.516-5.985-22.5-16.22-2.047-15.952 8.688-49.89 54.016-195.78 40.547-130.063 56-177.563 64.203-194.5 5.875-12.407 13.89-16.828 26.375-16.641 13.64.203 21.516 5.984 22.5 16.219 2.031 15.937-8.688 49.89-54.016 195.781-40.547 130.063-57.14 177.547-63.031 192.234-5.906 14.688-13.922 19.11-27.547 18.907zm0 0"/></symbol></defs><path d="M0 0h1920v1080H0z"/><path d="M44 461l122 132L62 883l366.469 10.934L477 1032l229-197 144 174 303-55 368 256 40.2-256.36 215.831-35.656L1691 727l197.527-262.023L1612 467l132.031-374.54-396.418 151.438-71.176-119.957-120 54.676L995 73 864 196 279 57l-15 311zm0 0" fill="none" stroke-width="8" stroke="#f0f"/><use xlink:href="#a" x="245.842" y="878.101" fill="#fff"/><use xlink:href="#b" x="587.776" y="883.13" fill="#fff"/><use xlink:href="#c" x="1329.58" y="894.041" fill="#fff"/></svg>