<svg width="1080" height="960" xmlns="http://www.w3.org/2000/svg" fill-rule="evenodd" clip-rule="evenodd" stroke-linejoin="round" stroke-miterlimit="2"><path d="M0 0h1080v960H0z"/><path d="M42.227 216.078c0 84.752 80.29 133.075 80.29 193.293 0 35.685-27.507 60.218-82.52 69.14v7.434c55.757 8.177 82.52 34.198 82.52 70.626 0 60.961-80.29 110.028-80.29 204.444 0 69.883 47.58 105.567 113.002 105.567 92.185 0 161.325-79.547 161.325-359.078h-7.435c-10.408 166.53-115.975 212.622-185.115 212.622-23.79 0-56.5-4.46-56.5-18.586 0-34.198 199.983-57.988 199.983-182.14 0-58.732-61.705-69.884-149.43-75.831 85.495-7.434 149.43-15.612 149.43-78.06 0-89.956-174.707-198.497-174.707-233.438 0-4.461 2.974-8.178 11.895-8.178 31.968 0 127.87 46.836 185.115 167.272h7.434l31.968-168.76c-49.81-17.841-94.416-28.993-148.687-28.993-125.64 0-138.278 89.212-138.278 122.666zm333.767-11.151c0 64.679 56.5 146.456 56.5 203.7 0 34.942-24.533 62.449-101.85 75.087v1.487c84.008 7.435 104.824 34.198 104.824 72.857 0 68.395-59.474 168.759-59.474 232.694 0 52.04 33.454 68.396 61.705 68.396 38.658 0 72.856-31.224 96.646-70.626h-1.487c-31.224 29.737-57.988 35.685-75.087 35.685-38.658 0-59.474-26.764-59.474-68.396 0-73.6 59.474-165.042 59.474-227.49 0-43.12-26.763-58.732-53.527-60.962 42.376-23.79 54.27-61.705 54.27-103.337 0-55.014-59.474-139.022-59.474-199.24 0-28.994 15.612-48.324 37.915-48.324 34.941 0 62.448 26.764 69.883 130.101h1.487l9.664-132.33c-28.25-8.922-41.632-13.383-58.73-13.383-67.653 0-83.265 66.91-83.265 104.081zm320.384 550.14c0-64.678-56.5-146.456-56.5-203.7 0-34.942 24.533-62.449 101.85-75.087v-1.487c-84.008-7.434-104.824-34.198-104.824-72.856 0-68.396 59.474-168.76 59.474-232.695 0-52.04-33.454-68.396-61.705-68.396-38.658 0-72.856 31.225-96.646 70.627h1.487c31.224-29.738 57.988-35.685 75.087-35.685 38.658 0 59.474 26.763 59.474 68.396 0 73.6-59.474 165.042-59.474 227.49 0 43.12 26.763 58.731 53.527 60.962-42.376 23.79-54.27 61.704-54.27 103.337 0 55.014 59.474 139.022 59.474 199.24 0 28.994-15.612 48.323-37.915 48.323-34.941 0-62.448-26.764-69.883-130.1h-1.487l-9.664 132.33c28.25 8.921 41.632 13.382 58.73 13.382 67.653 0 83.265-66.909 83.265-104.08zm333.765-11.151c0-84.751-80.29-133.075-80.29-193.293 0-35.684 27.506-60.218 82.52-69.139v-7.434c-55.757-8.178-82.52-34.198-82.52-70.626 0-60.962 80.29-110.028 80.29-204.444 0-69.883-47.58-105.568-113.002-105.568-92.186 0-161.325 79.547-161.325 359.078h7.434c10.408-166.529 115.976-212.622 185.115-212.622 23.79 0 56.501 4.46 56.501 18.586 0 34.198-199.983 57.988-199.983 182.141 0 58.731 61.705 69.883 149.43 75.83-85.495 7.435-149.43 15.612-149.43 78.06 0 89.956 174.706 198.497 174.706 233.439 0 4.46-2.973 8.178-11.895 8.178-31.967 0-127.87-46.837-185.114-167.273h-7.435l-31.967 168.76c49.81 17.842 94.416 28.993 148.686 28.993 125.64 0 138.279-89.212 138.279-122.666z" fill="#fff" fill-rule="nonzero"/></svg>