<svg clip-rule="evenodd" fill-rule="evenodd" height="960" stroke-linejoin="round" stroke-miterlimit="2" width="1080" xmlns="http://www.w3.org/2000/svg"><path d="M0 0h1080v960H0z"/><path d="M40.516 560.853c0 165.13 66.773 285.141 174.152 285.141 22.559 0 44.215-5.414 64.067-15.34 9.023 36.996 20.754 66.774 38.8 84.82 13.536 12.634 27.973 19.852 47.825 19.852 73.09 0 129.035-115.5 129.035-279.727h-1.805c-14.437 139.864-57.75 208.442-105.574 208.442-14.437 0-28.875-5.414-42.41-18.95-9.023-9.023-16.242-24.362-21.656-43.312 9.023-7.218 17.144-15.34 26.168-24.363 90.234-90.234 163.324-271.606 163.324-451.172 0-172.348-68.578-278.825-170.543-278.825-164.227 0-301.383 255.364-301.383 513.434zm86.625 11.73c0-259.874 106.477-513.433 200.32-513.433 57.75 0 98.356 92.941 98.356 268.898 0 175.055-45.117 359.134-109.184 449.368-24.363-123.621-10.828-351.012-91.136-351.012-46.02 0-91.137 68.578-98.356 218.367v-72.187zm9.023 75.798c0-112.793 46.922-195.809 77.602-195.809 55.043 0 34.29 224.684 63.164 367.254-15.34 10.828-31.582 16.242-46.922 16.242-61.36 0-93.844-87.527-93.844-187.687zM525.977 844.19l150.692-29.778-54.14-24.363 127.23-721.876h66.773c97.454 0 135.352 49.63 135.352 122.719 0 106.477-111.89 182.274-208.441 222.88l-34.29 17.144v3.61c72.188 303.187 111.891 410.566 179.567 410.566 57.75 0 73.09-76.7 73.09-153.399 0-120.012-31.582-215.66-41.508-257.168h-3.61c10.829 57.75 25.266 135.352 25.266 230.098 0 54.14-7.218 88.43-29.777 88.43-30.68 0-64.969-78.504-151.594-340.184 164.227-36.094 284.239-109.184 284.239-226.489 0-71.285-45.118-128.133-185.883-128.133H615.31c30.68 15.34 42.41 30.68 34.289 82.114z" fill="#fff" fill-rule="nonzero"/></svg>