<svg width="1080" height="960" xmlns="http://www.w3.org/2000/svg" fill-rule="evenodd" clip-rule="evenodd" stroke-linejoin="round" stroke-miterlimit="2"><path d="M0 0h1080v960H0z"/><path d="M138.209 410.51v408.38l-86.594 33.14v23.52h269.402v-26.727c-28.864-5.345-48.107-14.967-62.005-28.864-18.174-18.174-24.588-48.108-24.588-187.085V410.51h121.872v-69.488H236.562V186.009l203.12-57.73v-14.966L207.699 69.482l-76.972 271.54H54.823v69.488h83.386zm503.525 393.413c-88.732 0-149.668-68.42-150.737-200.983l349.581 23.52c5.345-33.141 8.552-68.42 8.552-89.801 0-126.149-69.488-210.604-180.67-210.604-115.458 0-273.678 109.044-273.678 317.51 0 173.186 127.217 246.951 221.294 246.951 121.873 0 208.466-85.524 236.262-183.877l-18.174-7.484c-37.417 45.97-93.008 104.768-192.43 104.768zM538.035 437.237c24.589-24.589 54.522-31.003 86.594-31.003 100.491 0 128.286 71.627 128.286 136.84l-260.85 21.38c5.346-58.798 20.313-101.56 45.97-127.217zm431.899 453.279c42.762 0 74.834-34.21 74.834-74.834s-32.072-74.834-74.834-74.834c-41.693 0-74.834 34.21-74.834 74.834s33.14 74.834 74.834 74.834z" fill="#fff" fill-rule="nonzero"/></svg>