<svg width="1080" height="960" xmlns="http://www.w3.org/2000/svg" fill-rule="evenodd" clip-rule="evenodd" stroke-linejoin="round" stroke-miterlimit="2"><path d="M0 0h1080v960H0z"/><path d="M552.26 157.034l51.844-50.994H301.537c25.497 20.398 33.996 47.595 25.497 94.34L213.147 849.709l271.97-47.595-38.246-44.195 105.388-600.885zm72.242 207.378L938.117 106.04h-271.12c4.25 120.687-27.197 228.625-113.888 322.115l-57.793 62.043C562.458 692.476 601.554 785.966 641.5 825.91c22.947 22.948 47.594 28.047 67.142 28.047 100.29 0 117.287-135.135 117.287-222.676 0-111.337-29.746-271.97-42.495-334.863h-8.499c15.298 79.891 21.248 180.18 21.248 230.325 0 71.392-12.749 90.94-28.897 90.94-14.449 0-45.895-30.597-142.784-253.272z" fill="#fff" fill-rule="nonzero"/></svg>