<svg width="1080" height="960" xmlns="http://www.w3.org/2000/svg" fill-rule="evenodd" clip-rule="evenodd" stroke-linejoin="round" stroke-miterlimit="2"><path d="M0 0h1080v960H0z"/><path d="M372.304 652.89l-20.796-110.095h-6.116l-24.058 76.66c-13.048 2.854-29.359 6.523-39.145 6.523-30.174 0-65.242-6.116-104.387-27.32h9.787c35.475 0 71.358-16.718 98.27-43.63 30.99-30.99 51.786-75.436 51.786-123.551 0-77.067-50.97-133.746-124.367-133.746-75.844 0-148.833 76.251-148.833 165.959 0 40.776 14.272 78.697 51.378 115.804 51.378 51.377 111.318 82.775 183.492 82.775 24.466 0 46.893-4.078 72.99-9.378zM298.5 450.235c0 40.368-8.971 69.727-27.728 88.891-16.718 16.719-40.368 30.99-72.581 30.99-53.825 0-94.6-42-94.6-123.959 0-39.96 8.97-69.727 27.727-88.892 16.718-16.718 39.96-28.135 69.727-28.135 56.27 0 97.455 43.222 97.455 121.105zm322.538-10.195V325.05l33.029-12.64v-8.971H549.68v10.194c11.01 2.039 18.35 5.709 23.65 11.01 6.932 6.931 9.378 18.349 9.378 71.357v90.523c0 28.951-5.708 49.34-18.349 61.98-11.417 11.417-28.543 16.31-50.154 16.31-46.893 0-78.698-22.834-78.698-84.406V325.05l33.029-12.64v-8.971H364.149v10.194c11.01 2.039 18.35 5.709 23.65 11.01 6.932 6.931 9.378 18.349 9.378 71.357v92.154c0 66.465 35.883 110.503 99.086 110.503 66.057 0 124.775-54.232 124.775-158.618zm114.58-114.989l33.029-12.64v-8.971H664.26v10.194c11.01 2.039 18.35 5.709 23.65 11.01 6.932 6.931 9.379 18.349 9.379 71.357v175.337L664.26 583.98v8.97h104.387v-10.193c-11.01-2.039-18.35-5.709-23.65-11.01-6.932-6.932-9.379-18.349-9.379-71.358V325.051zm125.593 247.511v-247.51l33.029-11.418V303.44H789.853v10.194c11.01 2.039 18.35 5.709 23.65 11.01 6.932 6.931 9.379 18.349 9.379 71.357v175.337l-33.029 13.457v8.155h215.298l-21.612-97.455h-6.524l-21.203 68.912-94.6 8.155z" fill="#fff" fill-rule="nonzero"/></svg>