<svg width="1080" height="960" xmlns="http://www.w3.org/2000/svg" fill-rule="evenodd" clip-rule="evenodd" stroke-linejoin="round" stroke-miterlimit="2"><path d="M0 0h1080v960H0z"/><path d="M173.865 694.541c72.054 0 131.355-51.65 149.21-91.821l-9.565-13.39c-26.144 15.94-52.287 29.331-98.198 29.331-56.113 0-93.097-41.447-93.097-121.153 0-70.142 28.057-95.648 63.127-95.648 15.942 0 28.695 4.464 36.984 9.565l35.07 92.46h11.478l56.114-146.023c-33.158-8.289-64.403-12.753-95.648-12.753-98.835 0-202.135 83.533-202.135 197.034 0 94.372 56.751 152.398 146.66 152.398zM479.937 567.65V461.8l6.376-116.69-142.195 44.635v19.13c29.331 4.463 38.896 14.028 38.896 57.388v112.864c0 90.546 40.81 115.414 84.17 115.414 47.824 0 96.285-30.607 123.704-50.374v50.374l144.109-36.983v-19.13c-15.304-5.1-26.144-12.115-33.796-21.68-12.753-16.579-13.39-38.896-13.39-89.27v-65.679l6.376-116.69-153.673 44.636v19.13c38.259 4.463 50.374 14.028 50.374 57.388v144.109c-17.854 5.739-42.723 11.477-63.127 11.477-36.346 0-47.824-18.491-47.824-54.2zm327.114 73.329l-44.635 17.854v25.506h198.946v-25.506c-49.099-21.042-57.388-32.52-57.388-74.605v-54.2c0-72.055 25.506-96.923 58.664-96.923l34.433 86.083h12.115l40.81-165.151c-11.478-5.74-26.144-8.928-42.085-8.928-50.374 0-87.996 40.172-103.937 88.634v-88.634l-135.82 37.622v25.506c29.332 4.463 38.897 14.028 38.897 57.388V640.98z" fill="#fff" fill-rule="nonzero"/></svg>