<svg clip-rule="evenodd" fill-rule="evenodd" height="960" stroke-linejoin="round" stroke-miterlimit="2" width="1080" xmlns="http://www.w3.org/2000/svg"><path d="M0 0h1080v960H0z"/><path d="M710.63 686.061c-12.12-29.837-18.647-61.539-18.647-117.483V369.043c0-82.984-35.432-128.672-126.808-128.672-217.25 0-367.367 174.36-367.367 364.57 0 140.794 100.7 291.844 302.099 291.844 226.575 0 387.88-189.278 387.88-450.352 0-251.75-126.806-383.219-366.435-383.219-98.835 0-258.276 33.567-329.139 55.012l41.026 178.09h14.918l52.215-150.118c66.201-14.918 110.024-17.715 179.954-17.715 200.468 0 328.207 99.767 328.207 360.84 0 234.034-107.226 342.194-283.451 342.194-159.441 0-248.02-109.092-248.02-265.736 0-118.416 72.728-254.547 234.034-254.547 71.795 0 96.97 27.972 96.97 82.052v58.741l-96.97 26.108c-39.161 10.256-90.443 31.702-114.686 55.944-27.04 27.04-35.431 53.147-35.431 87.646 0 63.404 48.485 110.957 124.01 110.957 46.62 0 85.78-27.04 123.077-49.418l1.865 50.35 100.7-34.5v-13.053zm-102.564-45.688c-20.513 8.392-59.674 22.378-90.443 22.378-51.283 0-70.863-29.837-70.863-70.863 0-17.715 1.865-26.107 5.594-41.026l155.712-41.025z" fill="#fff" fill-rule="nonzero"/></svg>