<svg clip-rule="evenodd" fill-rule="evenodd" stroke-linejoin="round" stroke-miterlimit="2" viewBox="0 0 1920 440" xmlns="http://www.w3.org/2000/svg"><path d="m-130.13-64.74554h2129.5v697.141h-2129.5z"/><path d="m448.415 400.777h12.308v-7.964l29.322-11.222v-88.69c0-19.548-1.086-33.666-8.326-40.906-4.706-4.706-10.86-6.516-19.91-8.326v-5.43l47.784-18.462h-61.178zm220.458 0v-9.05c-9.774-1.81-16.29-5.068-20.996-9.774-6.154-6.154-8.326-16.29-8.326-63.35v-44.526c0-28.598-9.412-46.336-25.702-54.3h148.42c-38.734 13.756-67.694 53.214-67.694 100.274 0 35.476 17.014 68.418 48.146 80.726zm130.682 0c38.734-13.756 67.694-53.214 67.694-100.274 0-35.476-17.014-68.418-48.146-80.726h105.342v150.23l-28.598 13.394v5.068c10.86 5.068 22.082 9.412 34.028 12.308zm204.535 0c17.01-5.068 33.3-14.48 47.42-28.598 18.1-18.1 31.13-44.526 31.13-81.088 0-34.752-16.29-60.816-41.99-71.314h152.04c-40.55 13.394-72.4 52.852-72.4 101.36 0 41.992 18.82 69.142 47.42 79.64zm220.45 0c25.34-10.136 43.44-34.028 50.68-64.436l-6.15-2.534c-13.03 22.806-34.75 42.716-65.89 42.716-28.95 0-48.86-21.358-48.86-67.694 0-23.53 4.34-43.078 16.29-55.024 8.32-8.326 19.54-13.394 34.02-13.394 8.69 0 17.74 1.448 26.43 3.982l18.1 45.612h5.79l23.89-65.884c-4.7-1.81-9.41-3.258-13.75-4.344h83.62c-24.26 7.964-41.27 24.616-41.27 49.956 0 14.842 5.07 23.892 11.22 30.046 18.83 18.824 64.08 26.064 76.75 38.734 6.15 6.154 9.41 11.946 9.41 20.996 0 8.326-2.17 13.756-6.88 18.462-5.43 5.43-12.67 8.688-25.34 8.688-9.77 0-21.36-1.81-31.49-6.154l-14.84-39.82h-5.8l-19.18 58.282c2.53.724 5.43 1.086 7.96 1.81zm232.05-181h-27.52c2.54.724 5.07 1.086 7.6 1.81l-19.18 56.834h-5.79l-14.84-38.372c-9.78-3.982-20.64-6.154-29.69-6.154-10.13 0-15.56 3.62-20.27 8.326-4.34 4.344-6.52 9.05-6.52 15.928 0 8.688 3.62 14.118 8.69 19.186 11.22 11.222 56.47 19.186 76.02 38.734 6.88 6.878 13.4 17.014 13.4 32.58 0 26.064-19.19 43.802-45.62 52.128h63.72z" fill="#fff" fill-rule="nonzero" stroke="#000" stroke-width=".58" transform="matrix(1.73546 0 0 1.73546 -693.027 -318.475)"/></svg>