<svg clip-rule="evenodd" fill-rule="evenodd" stroke-linejoin="round" stroke-miterlimit="2" viewBox="0 0 1920 1080" xmlns="http://www.w3.org/2000/svg"><clipPath id="a"><path d="M-1005.75-457.64H960V540h-1965.75z"/></clipPath><clipPath id="b"><path d="M0 0h1920v1080H0z"/></clipPath><g clip-path="url(#a)" transform="translate(963 498.82)"><g clip-path="url(#b)" fill-rule="nonzero" transform="translate(-960 -540)"><g fill="#221efe"><path d="M1632.645 57.333v1.047h9.719l.531-1.453c-1.953-1.375-3.453-3.719-4.453-6.125l-8.922-22.016h-2.078l-8.344 19.719c-1.781 4.25-3.625 6.875-6 8.828v1.047h9.344l.531-1.25c-2-1.625-2.203-4-.781-7.75h11.078l.922 2.328c1.078 2.719.797 4.719-1.547 5.625zm-4.875-21.625l4.297 10.75h-8.719z"/><path d="M1654.018 67.333c-.828-.281-1.406-.5-1.875-.953-.625-.625-.875-1.625-.875-7.047v-.328c.344.047.672.047 1 .047 5.094 0 13.766-3.469 13.766-13.094 0-5.328-3.422-9-7.891-9-2.781 0-5.25 1.25-6.953 2.344v-2.766l-7.703 3.047v.625c1.203.297 2.031.75 2.578 1.297 1.078 1.078 1.203 2.547 1.203 5.625v12.203c0 5.422-.406 6.344-1.375 7.297-.578.578-1.5.875-2.828 1.125v1.047h10.578zm-2.75-12.703V41.333c1.469-.75 2.625-1.031 4.344-1.031 4.203 0 6.25 2.781 6.25 7.703 0 4.578-2.547 7.672-6 7.672-1.922 0-3.125-.469-4.594-1.047z"/><path d="M1673.898 48.927c0 5.406-.25 6.578-.953 7.281-.578.594-1.5.875-2.828 1.125v1.047h10.703l.453-1.453c-1.031-.297-1.781-.5-2.328-.969-.797-.625-1.125-1.625-1.125-7.031v-2.25c0-2.469 1.828-5.672 4.625-5.672l1.953 5h.672l2.172-8.297c-.969-.547-1.719-.75-2.844-.75-2.828 0-5.406 2.344-6.578 4.797v-5.219l-7.703 3.516v.625c1.203.281 2.031.75 2.578 1.281 1.078 1.094 1.203 2.547 1.203 5.625z"/><path d="M1694.353 33.661c1.969 0 3.469-1.578 3.469-3.5 0-1.875-1.5-3.453-3.469-3.453-1.906 0-3.5 1.578-3.5 3.453 0 1.922 1.594 3.5 3.5 3.5zm2.594 15.266V36.958l-7.719 2.719v.625c1.219.281 2.047.75 2.594 1.281 1.078 1.094 1.203 2.547 1.203 5.625v1.719c0 5.406-.25 6.578-.953 7.281-.594.594-1.5.875-2.844 1.125v1.047h10.094l.375-1.453c-.844-.297-1.422-.5-1.875-.969-.625-.625-.875-1.625-.875-7.031z"/><path d="M1710.678 27.208l-.406-.422-7.672 3.625v.625c1.203.297 2.047.75 2.578 1.297 1.094 1.078 1.219 2.547 1.219 5.625v10.969c0 5.406-.25 6.578-.969 7.281-.578.594-1.5.875-2.828 1.125v1.047h10.078l.375-1.453c-.828-.297-1.406-.5-1.875-.969-.625-.625-.875-1.625-.875-7.031V36.083z"/><path d="M1731.133 45.302l2.469-5.5h3.25c2.406 0 4 .906 4 2.828 0 4.172-12.875 5.328-12.875 13.047 0 1.125.156 1.656.375 2.703h17.281l-2.578-7.125h-.672l-1.906 4.125-8.594.422v-.625c0-4.172 12.875-5.344 12.875-13.047 0-2.578-2.078-5.172-7-5.172-2.906 0-6.625 1.297-9.828 2.75l2.547 5.594z"/><path d="M1748.718 39.755v.578l4.25 1.719v6.875c0 5.406-.328 6.578-1.156 7.281-.672.594-1.797.875-3.422 1.125v1.047h11.578l.469-1.453c-1.094-.297-1.844-.5-2.422-.969-.797-.625-1.125-1.625-1.125-7.031V36.958z"/><path d="M1767.97 67.505h.672l3.25-14h-7.172z"/><path d="M1791.173 45.302l2.469-5.5h3.25c2.406 0 4 .906 4 2.828 0 4.172-12.875 5.328-12.875 13.047 0 1.125.156 1.656.375 2.703h17.281l-2.578-7.125h-.672l-1.906 4.125-8.594.422v-.625c0-4.172 12.875-5.344 12.875-13.047 0-2.578-2.078-5.172-7-5.172-2.906 0-6.625 1.297-9.828 2.75l2.547 5.594z"/><path d="M1810.217 49.927c0 4.875 3.453 9.031 8.156 9.031 7 0 11.641-6.156 11.641-12.953 0-4.875-3.469-9.047-8.172-9.047-7 0-11.625 6.172-11.625 12.969zm15.781-1.547c0 4.203-2.25 7.25-5.906 7.25-3.797 0-5.875-3.297-5.875-8.078 0-4.219 2.25-7.25 5.906-7.25 3.797 0 5.875 3.281 5.875 8.078z"/><path d="M1837.003 45.302l2.469-5.5h3.25c2.406 0 4 .906 4 2.828 0 4.172-12.875 5.328-12.875 13.047 0 1.125.156 1.656.375 2.703h17.281l-2.578-7.125h-.672l-1.906 4.125-8.594.422v-.625c0-4.172 12.875-5.344 12.875-13.047 0-2.578-2.078-5.172-7-5.172-2.906 0-6.625 1.297-9.828 2.75l2.547 5.594z"/><path d="M1856.047 49.927c0 4.875 3.453 9.031 8.156 9.031 7 0 11.641-6.156 11.641-12.953 0-4.875-3.469-9.047-8.172-9.047-7 0-11.625 6.172-11.625 12.969zm15.781-1.547c0 4.203-2.25 7.25-5.906 7.25-3.797 0-5.875-3.297-5.875-8.078 0-4.219 2.25-7.25 5.906-7.25 3.797 0 5.875 3.281 5.875 8.078z"/><path d="M60.797 48.505v-10.25c0-5.422.25-6.594.953-7.297.547-.547 1.297-.922 2.422-1.125v-1.047H53.25l-.453 1.469c1.281.156 2.078.453 2.656.953.719.625 1 1.625 1 7.047V51.88l-7.531 3.422v.828l7.656 2.922z"/><path d="M78 56.755l.078 2.25 7.469-3.078v-.594c-1.219-.281-2.047-.75-2.594-1.281-1-1-1.031-1.719-1.031-4.797V41.88c0-3.125-1.5-4.719-4.719-4.719-2.625 0-8.203 1.641-10.781 2.594l2.375 5.672h.656l2.344-5.125h3.625c1.453 0 2.578.875 2.578 2.375v3.703c-7.625 2.453-11 4.922-11 8.297 0 2.656 2.328 4.281 4.625 4.281 2.328 0 4.547-1.078 6.375-2.203zm0-1.922c-1.078.422-2.703.844-4.078.844-2.344 0-3.547-1.547-3.547-4.094L78 49.677z"/><path d="M105.875 49.755c0 4.75-.328 5.922-1.047 6.625-.406.422-.953.703-1.703.953v1.047h9.125l.594-1.453c-.969-.297-1.672-.547-2.172-1.047-.625-.625-.875-1.625-.875-6.125v-5.953c0-4.672-2.078-6.844-5.797-6.844-3.125 0-5.875 1.297-7.828 2.672v-3.094l-7.719 3.141v.625c1.219.281 2.047.75 2.594 1.281 1.078 1.094 1.203 2.547 1.203 4.797v3.375c0 4.578-.25 5.75-.953 6.453-.594.594-1.5.875-2.844 1.125v1.047h10.094l.375-1.453c-.844-.297-1.422-.5-1.875-.969-.625-.625-.875-1.625-.875-6.203v-8.047c1.5-.781 3.25-1.406 5.703-1.406s4 1.625 4 5.25z"/><path d="M138.208 26.583l8.5-6.828-.406-.844-8.094 3-8.922-2.656-.406.828 8.5 6.5zm-10.703 10.375c0 2.172.906 3.875 2.328 5.297 2.328 2.328 9.922 3.828 11.547 5.453 1 1 1.375 2 1.375 3.25 0 3.422-2.875 4.469-5.875 4.469h-3.922l-2.203-6.469h-.875l-2.797 8.047c2.703 1.328 5.75 1.953 8.922 1.953 5.625 0 11.078-3.703 11.078-9.125 0-2.203-.953-3.906-2.422-5.375-2.203-2.203-9.656-3.75-11.531-5.625-.875-.875-1.297-1.875-1.297-3 0-2.875 2.672-4.078 5.828-4.078h3.125l2.219 6.078h.875l2.797-8.047c-3.016-.953-5.547-1.578-8.547-1.578-5.25 0-10.625 3.625-10.625 8.75z"/><path d="M155.786 33.661c1.969 0 3.469-1.578 3.469-3.5 0-1.875-1.5-3.453-3.469-3.453-1.906 0-3.5 1.578-3.5 3.453 0 1.922 1.594 3.5 3.5 3.5zm2.594 15.266V36.958l-7.719 2.719v.625c1.219.281 2.047.75 2.594 1.281 1.078 1.094 1.203 2.547 1.203 5.625v1.719c0 5.406-.25 6.578-.953 7.281-.594.594-1.5.875-2.844 1.125v1.047h10.094l.375-1.453c-.844-.297-1.422-.5-1.875-.969-.625-.625-.875-1.625-.875-7.031z"/><path d="M182.288 49.755c0 4.75-.328 5.922-1.047 6.625-.406.422-.953.703-1.703.953v1.047h9.125l.594-1.453c-.969-.297-1.672-.547-2.172-1.047-.625-.625-.875-1.625-.875-6.125v-5.953c0-4.672-2.078-6.844-5.797-6.844-3.125 0-5.875 1.297-7.828 2.672v-3.094l-7.719 3.141v.625c1.219.281 2.047.75 2.594 1.281 1.078 1.094 1.203 2.547 1.203 4.797v3.375c0 4.578-.25 5.75-.953 6.453-.594.594-1.5.875-2.844 1.125v1.047h10.094l.375-1.453c-.844-.297-1.422-.5-1.875-.969-.625-.625-.875-1.625-.875-6.203v-8.047c1.5-.781 3.25-1.406 5.703-1.406s4 1.625 4 5.25z"/><path d="M212.21 53.677V36.083l.453-8.875-.406-.422-7.672 3.625v.625c1.203.297 2.031.75 2.578 1.297.953.953 1.172 2.203 1.203 4.625-.375-.047-.781-.047-1.156-.047-5.094 0-13.75 3.469-13.75 13.094 0 5.328 3.406 9 7.875 9 2.781 0 5.25-1.25 6.953-2.328v2.953l7.5-2.25v-.422c-2.875-.656-3.578-1.906-3.578-3.281zm-4-12.344V54.63c-1.469.75-2.625 1.047-4.344 1.047-4.203 0-6.25-2.797-6.25-7.719 0-4.578 2.547-7.656 6-7.656 1.922 0 3.125.453 4.594 1.031z"/><path d="M226.116 27.208l-.406-.422-7.672 3.625v.625c1.203.297 2.047.75 2.578 1.297 1.094 1.078 1.219 2.547 1.219 5.625v10.969c0 5.406-.25 6.578-.969 7.281-.578.594-1.5.875-2.828 1.125v1.047h10.078l.375-1.453c-.828-.297-1.406-.5-1.875-.969-.625-.625-.875-1.625-.875-7.031V36.083z"/><path d="M243.038 55.255c-4.078 0-6.125-3.172-6.125-7.547v-.203l13.422-.047c.156-.953.25-1.875.25-2.703 0-5.328-3.25-7.875-7.125-7.875-3.75 0-10.719 3.953-10.719 12.453 0 7.047 4.969 9.672 9.25 9.672 4.344 0 7.547-3.375 8.625-7.203l-.703-.297c-1.453 1.797-4.078 3.75-6.875 3.75zm-1-15c3.047 0 3.875 2.797 3.875 5.047l-8.797-.047c.594-3.25 2.469-5 4.922-5z"/><path d="M258.411 48.927c0 5.406-.25 6.578-.953 7.281-.578.594-1.5.875-2.828 1.125v1.047h10.703l.453-1.453c-1.031-.297-1.781-.5-2.328-.969-.797-.625-1.125-1.625-1.125-7.031v-2.25c0-2.469 1.828-5.672 4.625-5.672l1.953 5h.672l2.172-8.297c-.969-.547-1.719-.75-2.844-.75-2.828 0-5.406 2.344-6.578 4.797v-5.219l-7.703 3.516v.625c1.203.281 2.031.75 2.578 1.281 1.078 1.094 1.203 2.547 1.203 5.625z"/><path d="M283.828 39.755v.578l4.25 1.719v6.875c0 5.406-.328 6.578-1.156 7.281-.672.594-1.797.875-3.422 1.125v1.047h11.578l.469-1.453c-1.094-.297-1.844-.5-2.422-.969-.797-.625-1.125-1.625-1.125-7.031V36.958z"/><path d="M299.126 49.927c0 4.875 3.453 9.031 8.156 9.031 7 0 11.641-6.156 11.641-12.953 0-4.875-3.469-9.047-8.172-9.047-7 0-11.625 6.172-11.625 12.969zm15.781-1.547c0 4.203-2.25 7.25-5.906 7.25-3.797 0-5.875-3.297-5.875-8.078 0-4.219 2.25-7.25 5.906-7.25 3.797 0 5.875 3.281 5.875 8.078z"/><path d="M324.63 64.396l10.844-36.125h3.156l-10.844 36.125z"/><path d="M343.637 39.755v.578l4.25 1.719v6.875c0 5.406-.328 6.578-1.156 7.281-.672.594-1.797.875-3.422 1.125v1.047h11.578l.469-1.453c-1.094-.297-1.844-.5-2.422-.969-.797-.625-1.125-1.625-1.125-7.031V36.958z"/><path d="M377.357 50.083c0-3.578-2.422-5.375-5.297-6.75 2.625-2.156 4.875-5.078 4.875-8.5 0-3.703-2.844-6.625-8-6.625-5.547 0-10.125 4.328-10.125 8.875 0 3.469 2.281 5.25 5.031 6.625-2.875 2.219-5.453 5.094-5.453 8.625 0 3.719 2.922 6.625 8.422 6.625 5.828 0 10.547-4.203 10.547-8.875zM362.81 35.411c0-2 1.406-3.906 4.875-3.906 3.375 0 5.25 1.703 5.25 4.578 0 2.469-1.219 4.594-3.047 6.297-3.578-1.578-7.078-3.078-7.078-6.969zm-.422 15.672c0-2.531 1.547-4.625 3.578-6.406 3.672 1.625 7.375 3.078 7.375 7.078 0 2.172-1.5 3.922-5.281 3.922-3.719 0-5.672-1.719-5.672-4.594z"/><path d="M674.235 30.255c1.125.156 1.781.453 2.281.953.625.625.875 1.625.875 7.047v10.672c0 5.406-.25 6.578-.953 7.281-.547.547-1.297.922-2.422 1.125v1.047h12.125c8.922 0 15.516-7.375 15.516-16.828 0-8.469-6.375-12.766-14.094-12.766H674.61zm10.656 1.578c8.125 0 12.391 4.422 12.391 12.094 0 6.531-4.422 11.406-9.891 11.406h-5.656v-23.5z"/><path d="M716.234 55.255c-4.078 0-6.125-3.172-6.125-7.547v-.203l13.422-.047c.156-.953.25-1.875.25-2.703 0-5.328-3.25-7.875-7.125-7.875-3.75 0-10.719 3.953-10.719 12.453 0 7.047 4.969 9.672 9.25 9.672 4.344 0 7.547-3.375 8.625-7.203l-.703-.297c-1.453 1.797-4.078 3.75-6.875 3.75zm-1-15c3.047 0 3.875 2.797 3.875 5.047l-8.797-.047c.594-3.25 2.469-5 4.922-5z"/><path d="M735.827 48.927v-8.625h3.906v-2.766h-3.828v-5.203l8.328-2.672v-.578l-9.453-2.125-3.172 10.578h-3.078v2.766h3.375v8.625c0 5.406-.25 6.578-.953 7.281-.594.594-1.5.875-2.844 1.125v1.047h10.922l.375-1.453c-1.172-.297-2.047-.547-2.625-1.125-.703-.719-.953-1.594-.953-6.875z"/><path d="M743.998 49.927c0 4.875 3.453 9.031 8.156 9.031 7 0 11.641-6.156 11.641-12.953 0-4.875-3.469-9.047-8.172-9.047-7 0-11.625 6.172-11.625 12.969zm15.781-1.547c0 4.203-2.25 7.25-5.906 7.25-3.797 0-5.875-3.297-5.875-8.078 0-4.219 2.25-7.25 5.906-7.25 3.797 0 5.875 3.281 5.875 8.078z"/><path d="M771.654 48.927c0 5.406-.25 6.578-.953 7.281-.578.594-1.5.875-2.828 1.125v1.047h10.703l.453-1.453c-1.031-.297-1.781-.5-2.328-.969-.797-.625-1.125-1.625-1.125-7.031v-2.25c0-2.469 1.828-5.672 4.625-5.672l1.953 5h.672l2.172-8.297c-.969-.547-1.719-.75-2.844-.75-2.828 0-5.406 2.344-6.578 4.797v-5.219l-7.703 3.516v.625c1.203.281 2.031.75 2.578 1.281 1.078 1.094 1.203 2.547 1.203 5.625z"/><path d="M803.983 49.755c0 4.75-.328 5.922-1.031 6.625-.422.422-.969.703-1.719.953v1.047h9.141l.578-1.453c-.953-.297-1.672-.547-2.172-1.047-.625-.625-.875-1.625-.875-6.125v-8c1.875-.922 3.375-1.453 5.5-1.453 2.344 0 3.797 1.625 3.797 5.25v4.203c0 4.75-.328 5.922-1.047 6.625-.406.422-.953.703-1.703.953v1.047h9.125l.578-1.453c-.953-.297-1.656-.547-2.156-1.047-.625-.625-.875-1.625-.875-6.125v-5.953c0-4.672-2-6.844-5.594-6.844-2.953 0-5.531 1.25-8.281 2.922-.875-1.969-2.547-2.922-4.922-2.922-3.047 0-5.719 1.344-7.625 2.672v-3.094l-7.719 3.141v.625c1.219.281 2.047.75 2.594 1.281 1.078 1.094 1.203 2.547 1.203 4.797v3.375c0 4.578-.25 5.75-.953 6.453-.594.594-1.5.875-2.844 1.125v1.047h10.094l.375-1.453c-.844-.297-1.422-.5-1.875-.969-.625-.625-.875-1.625-.875-6.203v-8.047c1.453-.75 3.125-1.406 5.5-1.406 2.328 0 3.781 1.625 3.781 5.25z"/><path d="M832.779 33.661c1.969 0 3.469-1.578 3.469-3.5 0-1.875-1.5-3.453-3.469-3.453-1.906 0-3.5 1.578-3.5 3.453 0 1.922 1.594 3.5 3.5 3.5zm2.594 15.266V36.958l-7.719 2.719v.625c1.219.281 2.047.75 2.594 1.281 1.078 1.094 1.203 2.547 1.203 5.625v1.719c0 5.406-.25 6.578-.953 7.281-.594.594-1.5.875-2.844 1.125v1.047h10.094l.375-1.453c-.844-.297-1.422-.5-1.875-.969-.625-.625-.875-1.625-.875-7.031z"/><path d="M859.28 49.755c0 4.75-.328 5.922-1.047 6.625-.406.422-.953.703-1.703.953v1.047h9.125l.594-1.453c-.969-.297-1.672-.547-2.172-1.047-.625-.625-.875-1.625-.875-6.125v-5.953c0-4.672-2.078-6.844-5.797-6.844-3.125 0-5.875 1.297-7.828 2.672v-3.094l-7.719 3.141v.625c1.219.281 2.047.75 2.594 1.281 1.078 1.094 1.203 2.547 1.203 4.797v3.375c0 4.578-.25 5.75-.953 6.453-.594.594-1.5.875-2.844 1.125v1.047h10.094l.375-1.453c-.844-.297-1.422-.5-1.875-.969-.625-.625-.875-1.625-.875-6.203v-8.047c1.5-.781 3.25-1.406 5.703-1.406s4 1.625 4 5.25z"/><path d="M889.53 60.63c0-2.172-1.922-4.125-7-4.75l-5.5-.672-1.125-2.828c.672.125 1.375.203 2.125.203 4.047 0 9.797-2.703 9.797-9.5v-1.031l3.078-1.797v-.578l-3.453-1.25c-2.672-.969-5.047-1.469-7.672-1.469-4.078 0-9.375 3.125-9.375 8.922 0 2.828 1.578 4.953 3.953 6l-2.875 6.5 10.219 1.203c2.25.25 3.75 1.344 3.75 2.797 0 2.375-2.922 3.875-6.125 3.875-4.672 0-5.547-2.078-5.547-3.922V60.63l-.547-.172c-2.125.797-3.375 3.172-3.375 4.625 0 2.297 1.5 4.5 7.469 4.5 5.375 0 12.203-3.75 12.203-8.953zm-10.5-11.078c-3.078 0-4.672-2.172-4.672-4.719 0-2.703 2.125-4.828 4.922-4.828 2.75 0 4.578 2.125 4.578 4.25 0 3.172-2.156 5.297-4.828 5.297z"/><path d="M908.858 33.661c1.969 0 3.469-1.578 3.469-3.5 0-1.875-1.5-3.453-3.469-3.453-1.906 0-3.5 1.578-3.5 3.453 0 1.922 1.594 3.5 3.5 3.5zm2.594 15.266V36.958l-7.719 2.719v.625c1.219.281 2.047.75 2.594 1.281 1.078 1.094 1.203 2.547 1.203 5.625v1.719c0 5.406-.25 6.578-.953 7.281-.594.594-1.5.875-2.844 1.125v1.047h10.094l.375-1.453c-.844-.297-1.422-.5-1.875-.969-.625-.625-.875-1.625-.875-7.031z"/><path d="M933.781 37.911c-2.422-.578-3.844-1-6.422-1-3.375 0-8.047 2.266-8.047 6.422 0 1.719.625 2.797 1.547 3.719 1.625 1.625 6.797 2.953 8.203 4.375.625.625 1 1.25 1 2.281 0 1.297-.781 2.797-3.375 2.797h-2.906l-2.547-4.875h-.672l-2.078 6.422c1.922.453 4.047.953 6.625.953 4.75 0 8.875-2.25 8.875-6.422 0-1.875-.703-3.078-1.703-4.078-1.797-1.797-6.969-3.25-8.219-4.5-.531-.547-.828-1.125-.828-1.922 0-1.328.953-2.656 2.953-2.656h2.297l2.547 4.875h.656z"/><path d="M969.609 44.13l.422-7.719-8.125 3.266v.625c1.203.281 2.031.75 2.578 1.281 1.078 1.094 1.203 2 1.203 5.094v7.656c-1.25.719-3.156 1.344-5.656 1.344-2.719 0-4.047-1.469-4.047-4.422V44.13l.422-7.719-7.469 3.266v.625c1.047.25 1.672.781 2.172 1.281 1 1 .953 2.547.953 5.625v5.797c0 3.828 2.375 5.953 5.672 5.953 3 0 6.047-1.281 7.953-2.656v2.703l7.547-2.703v-.594c-1.203-.281-2.031-.75-2.578-1.281-1-1-1.047-2.547-1.047-5.625z"/><path d="M992.202 37.911c-2.422-.578-3.844-1-6.422-1-3.375 0-8.047 2.266-8.047 6.422 0 1.719.625 2.797 1.547 3.719 1.625 1.625 6.797 2.953 8.203 4.375.625.625 1 1.25 1 2.281 0 1.297-.781 2.797-3.375 2.797h-2.906l-2.547-4.875h-.672l-2.078 6.422c1.922.453 4.047.953 6.625.953 4.75 0 8.875-2.25 8.875-6.422 0-1.875-.703-3.078-1.703-4.078-1.797-1.797-6.969-3.25-8.219-4.5-.531-.547-.828-1.125-.828-1.922 0-1.328.953-2.656 2.953-2.656h2.297l2.547 4.875h.656z"/><path d="M1007.451 55.255c-4.078 0-6.125-3.172-6.125-7.547v-.203l13.422-.047c.156-.953.25-1.875.25-2.703 0-5.328-3.25-7.875-7.125-7.875-3.75 0-10.719 3.953-10.719 12.453 0 7.047 4.969 9.672 9.25 9.672 4.344 0 7.547-3.375 8.625-7.203l-.703-.297c-1.453 1.797-4.078 3.75-6.875 3.75zm-1-15c3.047 0 3.875 2.797 3.875 5.047l-8.797-.047c.594-3.25 2.469-5 4.922-5z"/><path d="M1022.828 48.927c0 5.406-.25 6.578-.953 7.281-.578.594-1.5.875-2.828 1.125v1.047h10.703l.453-1.453c-1.031-.297-1.781-.5-2.328-.969-.797-.625-1.125-1.625-1.125-7.031v-2.25c0-2.469 1.828-5.672 4.625-5.672l1.953 5h.672l2.172-8.297c-.969-.547-1.719-.75-2.844-.75-2.828 0-5.406 2.344-6.578 4.797v-5.219l-7.703 3.516v.625c1.203.281 2.031.75 2.578 1.281 1.078 1.094 1.203 2.547 1.203 5.625z"/><path d="M1038.83 41.755l.922.172 6.156-13.266-7.078-1.781z"/><path d="M1062.872 37.911c-2.422-.578-3.844-1-6.422-1-3.375 0-8.047 2.266-8.047 6.422 0 1.719.625 2.797 1.547 3.719 1.625 1.625 6.797 2.953 8.203 4.375.625.625 1 1.25 1 2.281 0 1.297-.781 2.797-3.375 2.797h-2.906l-2.547-4.875h-.672l-2.078 6.422c1.922.453 4.047.953 6.625.953 4.75 0 8.875-2.25 8.875-6.422 0-1.875-.703-3.078-1.703-4.078-1.797-1.797-6.969-3.25-8.219-4.5-.531-.547-.828-1.125-.828-1.922 0-1.328.953-2.656 2.953-2.656h2.297l2.547 4.875h.656z"/><path d="M1085.997 48.927v-8.625h3.906v-2.766h-3.828v-5.203l8.328-2.672v-.578l-9.453-2.125-3.172 10.578h-3.078v2.766h3.375v8.625c0 5.406-.25 6.578-.953 7.281-.594.594-1.5.875-2.844 1.125v1.047h10.922l.375-1.453c-1.172-.297-2.047-.547-2.625-1.125-.703-.719-.953-1.594-.953-6.875z"/><path d="M1096.948 48.927c0 5.406-.25 6.578-.953 7.281-.578.594-1.5.875-2.828 1.125v1.047h10.703l.453-1.453c-1.031-.297-1.781-.5-2.328-.969-.797-.625-1.125-1.625-1.125-7.031v-2.25c0-2.469 1.828-5.672 4.625-5.672l1.953 5h.672l2.172-8.297c-.969-.547-1.719-.75-2.844-.75-2.828 0-5.406 2.344-6.578 4.797v-5.219l-7.703 3.516v.625c1.203.281 2.031.75 2.578 1.281 1.078 1.094 1.203 2.547 1.203 5.625z"/><path d="M1122.95 55.255c-4.078 0-6.125-3.172-6.125-7.547v-.203l13.422-.047c.156-.953.25-1.875.25-2.703 0-5.328-3.25-7.875-7.125-7.875-3.75 0-10.719 3.953-10.719 12.453 0 7.047 4.969 9.672 9.25 9.672 4.344 0 7.547-3.375 8.625-7.203l-.703-.297c-1.453 1.797-4.078 3.75-6.875 3.75zm-1-15c3.047 0 3.875 2.797 3.875 5.047l-8.797-.047c.594-3.25 2.469-5 4.922-5z"/><path d="M1145.5 55.255c-4.078 0-6.125-3.172-6.125-7.547v-.203l13.422-.047c.156-.953.25-1.875.25-2.703 0-5.328-3.25-7.875-7.125-7.875-3.75 0-10.719 3.953-10.719 12.453 0 7.047 4.969 9.672 9.25 9.672 4.344 0 7.547-3.375 8.625-7.203l-.703-.297c-1.453 1.797-4.078 3.75-6.875 3.75zm-1-15c3.047 0 3.875 2.797 3.875 5.047l-8.797-.047c.594-3.25 2.469-5 4.922-5z"/><path d="M1176.837 53.677V36.083l.453-8.875-.406-.422-7.672 3.625v.625c1.203.297 2.031.75 2.578 1.297.953.953 1.172 2.203 1.203 4.625-.375-.047-.781-.047-1.156-.047-5.094 0-13.75 3.469-13.75 13.094 0 5.328 3.406 9 7.875 9 2.781 0 5.25-1.25 6.953-2.328v2.953l7.5-2.25v-.422c-2.875-.656-3.578-1.906-3.578-3.281zm-4-12.344V54.63c-1.469.75-2.625 1.047-4.344 1.047-4.203 0-6.25-2.797-6.25-7.719 0-4.578 2.547-7.656 6-7.656 1.922 0 3.125.453 4.594 1.031z"/><path d="M1184.217 49.927c0 4.875 3.453 9.031 8.156 9.031 7 0 11.641-6.156 11.641-12.953 0-4.875-3.469-9.047-8.172-9.047-7 0-11.625 6.172-11.625 12.969zm15.781-1.547c0 4.203-2.25 7.25-5.906 7.25-3.797 0-5.875-3.297-5.875-8.078 0-4.219 2.25-7.25 5.906-7.25 3.797 0 5.875 3.281 5.875 8.078z"/><path d="M1225.368 49.755c0 4.75-.328 5.922-1.031 6.625-.422.422-.969.703-1.719.953v1.047h9.141l.578-1.453c-.953-.297-1.672-.547-2.172-1.047-.625-.625-.875-1.625-.875-6.125v-8c1.875-.922 3.375-1.453 5.5-1.453 2.344 0 3.797 1.625 3.797 5.25v4.203c0 4.75-.328 5.922-1.047 6.625-.406.422-.953.703-1.703.953v1.047h9.125l.578-1.453c-.953-.297-1.656-.547-2.156-1.047-.625-.625-.875-1.625-.875-6.125v-5.953c0-4.672-2-6.844-5.594-6.844-2.953 0-5.531 1.25-8.281 2.922-.875-1.969-2.547-2.922-4.922-2.922-3.047 0-5.719 1.344-7.625 2.672v-3.094l-7.719 3.141v.625c1.219.281 2.047.75 2.594 1.281 1.078 1.094 1.203 2.547 1.203 4.797v3.375c0 4.578-.25 5.75-.953 6.453-.594.594-1.5.875-2.844 1.125v1.047h10.094l.375-1.453c-.844-.297-1.422-.5-1.875-.969-.625-.625-.875-1.625-.875-6.203v-8.047c1.453-.75 3.125-1.406 5.5-1.406 2.328 0 3.781 1.625 3.781 5.25z"/></g><path d="M213.518 1003.887C361.986 514.434 474.19 116.606 430.564 116.606c-21.015 0-62.203 90.516-108.375 213.438 28.516-113.985 46.563-213.438 21.516-213.438-48.89 0-225.422 514.047-350.844 927.516l52.938-41.344C170.205 592.653 279.596 250.7 296.564 250.7c14.141 0-81.359 337.484-219.67 793.422l52.936-41.344C248.143 612.762 366.05 250.7 380.19 250.7c10.921 0-88.079 360.953-219.266 793.422z"/><path d="M641.05 116.606l-52.953 41.344C379.284 846.325 341.472 932.372 327.331 932.372c-14.125 0 .703-84.922 222.406-815.766l-52.25 39.11c-191.875 632.5-265.062 888.406-214.562 888.406 51.312 0 208.969-435.828 358.125-927.516z"/><path d="M565.505 825.091c-3.219-34.641-4.844-69.282-4.078-105.047 47.265-103.922 97.906-226.844 135.875-352 52.875-174.344 57.265-251.438 32.218-251.438-35.953 0-106.671 145.266-163.968 334.125-32.547 107.281-47.844 205.625-52.11 284.969-45.922 99.453-96.156 201.141-143.5 297.25h134.532l30.515-100.578h-76.75a6650.576 6650.576 0 0 0 55.36-110.625c.859 14.515 2.437 27.937 3.968 40.219zm57.453-457.047c24.734-81.578 53.437-150.875 63.141-150.875 10.5 0-9.547 86.047-36.672 175.453-21.36 70.406-49.047 143.047-80.641 217.906 8.766-71.516 26.375-150.859 54.172-242.484z"/><path d="M524.113 1044.122l52.609-40.235 269.156-887.281-52.609 40.219z"/><path d="M848.473 459.669l52.594-40.219c42.359-139.688 85.406-302.844 52.266-302.844-46.047 0-154.969 245.844-255.313 576.625-60 197.797-85.422 350.891-45.437 350.891 29.093 0 87.125-92.75 128.14-227.969 26.438-87.156 38.922-157.562 44.985-226.844h23.031l38.484-88.297h-90.078c56.453-182.14 92.688-281.609 107.641-281.609 12.922 0-19.703 119.578-56.313 240.266zm-84.625 149.75a173743.12 173743.12 0 0 0 20.344-67.047c-6.016 111.75-28.531 252.547-55.656 341.953-8.813 29.047-25.594 73.75-38.938 73.75-20.187 0 22.735-178.797 74.25-348.656z"/><path d="M932.413 534.544c44.407-146.391 95.875-317.375 103.547-317.375 8.485 0-58.5 244.734-94.422 363.187l-2.375 7.828c-66.5 86.047-135.14 225.735-164.297 321.844-21.687 71.516-30.968 134.094-9.156 134.094 43.625 0 134.594-221.266 210.891-451.469h3.625c5.656 0 10.562 1.125 15.094 2.234-12.344 38-23.594 73.75-34.11 108.407-70.844 233.547-93.297 340.828-63.39 340.828 28.281 0 112.328-166.5 158.765-319.61 29.156-96.093 37.422-189.968 3-212.312 52.61-172.094 91.11-295.031 100.813-295.031 9.687 0-37.797 169.859-63.563 254.797l57-54.766c55.25-182.141 77.453-300.594 57.25-300.594-37.969 0-118.765 194.438-187.515 394.469-8.313 3.359-16.86 8.937-25.766 15.641 6.5-20.11 12.266-39.11 18.031-58.11 53.219-175.437 98.703-352 63.953-352-33.125 0-143.375 271.547-204.047 471.578zm62.297 279.375c-23.719 78.218-42.953 129.625-51.828 129.625-10.516 0 29.656-143.032 78.734-306.188 6.438 41.344-5.546 106.156-26.906 176.563zm-162.812 41.343c19.984-65.921 54.234-150.859 88.953-206.734-46.485 151.984-91.906 295.016-105.641 295.016-8.078 0 5.156-50.282 16.688-88.282z"/><path d="M1293.123 207.122c20.719 2.234-10.531 110.625-53.578 252.547l52.594-40.219c48.813-160.922 85-302.844 41.359-302.844-31.5 0-101.156 115.094-144.89 259.25-28.813 94.985-32.735 166.516-30.406 213.453-30.688 55.875-85.844 163.141-121.11 279.375-30.5 100.563-33.828 175.438-3.125 175.438 43.625 0 126.375-160.922 171.797-310.656 16.609-54.766 29.719-107.282 43.656-173.219l-54.89 42.469c-11.235 56.984-32.203 140.796-47.453 191.093-20.672 68.157-58.36 177.672-74.516 177.672-14.953 0-14.063-40.219 24.922-168.734 20.344-67.047 54.672-157.563 115.719-274.906-.813-62.579 6.968-144.157 25.343-210.094 16.766-59.219 40.032-110.625 54.578-110.625z"/><path d="M1440.672 514.434c68.141-224.625 95.234-397.828 46.344-397.828-37.969 0-110.75 124.031-157.875 279.375-30.172 99.453-44.11 172.094-51.719 242.485l-123.063 405.656c48.469 0 144.282-61.453 286.313-529.688zm-121.328 198.907c1.547-35.75 3.969-70.391 7.265-103.922l73.907-243.61-37.094 29.047c5.578-22.344 11.953-44.703 19.062-68.172 19.672-64.812 40.907-109.515 55.454-109.515 28.687 0 14.875 124.047-75.625 422.422-69.5 229.093-114.422 303.953-137.047 303.953l62.359-205.61z"/><path d="M1618.344 207.122c20.719 2.234-10.531 110.625-53.578 252.547l52.594-40.219c48.813-160.922 85-302.844 41.359-302.844-31.5 0-101.156 115.094-144.89 259.25-28.813 94.985-32.735 166.516-30.406 213.453-30.688 55.875-85.844 163.141-121.11 279.375-30.5 100.563-33.828 175.438-3.125 175.438 43.625 0 126.375-160.922 171.797-310.656 16.609-54.766 29.719-107.282 43.656-173.219l-54.89 42.469c-11.235 56.984-32.203 140.796-47.453 191.093-20.672 68.157-58.36 177.672-74.516 177.672-14.953 0-14.063-40.219 24.922-168.734 20.344-67.047 54.672-157.563 115.719-274.906-.813-62.579 6.968-144.157 25.343-210.094 16.766-59.219 40.032-110.625 54.578-110.625z"/><path d="M1499.376 1044.122c30.297 0 110.969-162.031 169.61-355.36 5.64 6.704 5.906 39.11-75.078 355.36l51.046-39.11c91.907-350.89 87.969-397.828 73.422-404.531 40.203-65.937 105.703-189.984 144.016-316.25 27.453-90.531 34.281-167.625-5.313-167.625-73.125 0-220.25 331.891-315.859 647.031-42.703 140.797-71.75 280.485-41.844 280.485zm303.985-698.438c-29.157 96.11-80.75 202.266-106.391 254.797l115.938-382.187c16.953 6.703 12.812 53.64-9.547 127.39zM1610.47 655.231c50.5-166.5 102.969-306.187 145.078-381.062l-151.187 498.406c-35.594 117.328-54.282 170.969-64.782 170.969-10.906 0 15.985-107.282 70.891-288.313z"/></g></g></svg>