<svg viewBox="0 0 1280 1440" xmlns="http://www.w3.org/2000/svg" fill-rule="evenodd" clip-rule="evenodd"><path fill="none" d="M0 0H1280V1440H0z"/><clipPath id="a"><path d="M0 0H1280V1440H0z"/></clipPath><g clip-path="url(#a)" fill-rule="nonzero"><path fill="#f2a6b0" d="M0.667 0.667H2559.997V1439.9969999999998H0.667z"/><path fill="none" stroke="#000" d="M0.667 0.667H2571.337V1457.147H0.667z"/><path d="M244.156 813.718l-25.657 102.584h-51.856V735.649h32.489l19.367 51.284h16.539V667.827H219.07l-19.938 50.156h-32.489V524.779h46.168l26.213 112.274h19.939v-129.94H86.858v11.407l18.239 14.251v376.128l-18.239 13.678v11.391h177.237v-120.25h-19.939zm219.429 96.881V486.603h-6.847l-69.522 12.535v10.835l22.226 6.831v84.916c-9.692-6.274-21.083-10.262-34.189-10.262-74.097 0-80.929 87.204-80.929 185.212 0 128.797 19.366 160.714 47.868 160.714 25.642 0 41.037-27.914 66.678-71.81v68.394h74.082v-10.834l-19.367-12.535zm-97.451-23.356c-2.288 0-7.42-7.418-9.691-10.262-3.417-4.559-4.56-17.094-4.56-107.143v-32.489c0-109.987 7.403-128.797 20.51-128.797 10.835 0 27.93 25.086 35.333 34.204v204.596c-7.976 9.675-38.749 39.893-41.592 39.893v-.002zm136.349-122.536c0 111.13 23.355 172.678 81.485 172.678 60.42 0 83.773-71.238 83.773-172.677 0-116.263-29.057-173.249-83.772-173.249-58.687 0-81.484 66.106-81.484 173.249l-.002-.001zm56.988-15.379c0-86.06 2.844-126.525 18.81-137.344l19.367 14.235c11.407 37.049 12.535 75.226 13.106 147.607.572 92.32-1.699 133.356-19.366 143.62l-18.81-13.679c-10.836-33.061-13.107-77.513-13.107-154.438v-.001zm310.583 159.571v-233.67c0-51.283-18.238-83.772-46.151-83.772-26.214 0-39.892 28.5-62.691 66.678v-63.819h-6.848l-68.377 12.536v10.819l20.511 6.848v284.38l-19.382 13.678v11.391h88.348v-11.391l-13.124-13.678V676.947c6.847-7.976 34.204-35.333 38.193-35.333 2.272 0 13.107 9.691 13.679 13.678v253.607l-13.106 13.678v11.391h85.472v-11.391l-16.524-13.678zm80.354-348.215c22.226 0 32.473-19.366 32.473-39.892 0-20.51-10.247-38.177-32.474-38.177-23.369 0-33.633 17.667-33.633 38.177 0 20.526 10.264 39.892 33.633 39.892h.001zm-47.885 373.284h94.608v-11.391l-19.382-13.678V594.318h-6.831l-69.521 12.533v10.819l20.51 6.848v284.38l-19.382 13.679-.002 11.391zM1177.2 911.17V708.292c0-45.597 1.128-116.834-77.514-116.834-59.831 0-70.666 49.012-70.666 91.192 0 10.247.573 19.939.573 28.486v5.704h50.727v-78.643c2.272-14.25 6.833-22.797 13.107-26.785l19.367 13.679c10.834 38.177 9.119 74.654 9.119 97.452v32.473h-28.486c-32.489 0-76.941 0-76.941 104.87 0 44.454 15.951 77.499 44.452 77.499 25.642 0 38.749-26.786 62.119-64.963v61.546h74.081v-10.263L1177.2 911.17zm-90.049-23.925c-3.987 0-11.39-7.42-14.251-11.408v-35.333c0-59.831.573-70.093 26.215-70.093h22.798v82.057c-7.976 9.119-32.49 34.777-34.762 34.777z"/></g></svg>