<svg xmlns="http://www.w3.org/2000/svg" xmlns:xlink="http://www.w3.org/1999/xlink" width="2560" height="1440" viewBox="0 0 1920 1080"><defs><symbol overflow="visible" id="a"><path d="M167.031-118.266L141.797-17.375h-51v-177.672h31.953l19.047 50.438h16.266V-261.75h-15.704l-19.609 49.328H90.797v-190.016h45.406l25.781 110.422h19.61v-127.796H12.328v11.218l17.938 14.016v369.922L12.328-11.203V0h174.313v-118.266zm0 0"/></symbol><symbol overflow="visible" id="b"><path d="M188.89-22.984v-417h-6.734l-68.375 12.328V-417l21.86 6.719v83.515c-9.532-6.171-20.735-10.093-33.625-10.093-72.875 0-79.594 85.765-79.594 182.156C22.422-28.031 41.469 3.359 69.5 3.359c25.219 0 40.36-27.453 65.578-70.625V0h72.86v-10.656zm-95.843-22.97c-2.25 0-7.297-7.296-9.531-10.093-3.36-4.484-4.485-16.812-4.485-105.375v-31.953c0-108.172 7.281-126.672 20.172-126.672 10.656 0 27.469 24.672 34.75 33.64v201.22c-7.844 9.515-38.11 39.234-40.906 39.234zm0 0"/></symbol><symbol overflow="visible" id="c"><path d="M14.578-166.469C14.578-57.172 37.547 3.36 94.718 3.36c59.423 0 82.391-70.062 82.391-169.828 0-114.344-28.578-170.39-82.39-170.39-57.719 0-80.14 65.015-80.14 170.39zm56.047-15.125c0-84.64 2.797-124.437 18.5-135.078l19.047 14c11.219 36.438 12.328 73.985 12.89 145.172.563 90.797-1.671 131.156-19.046 141.25l-18.5-13.453c-10.657-32.516-12.891-76.234-12.891-151.89zm0 0"/></symbol><symbol overflow="visible" id="d"><path d="M186.64-24.656V-254.47c0-50.437-17.937-82.39-45.39-82.39-25.781 0-39.234 28.03-61.656 65.578v-62.766h-6.735L5.61-321.719v10.64l20.172 6.735v279.688L6.72-11.203V0h86.89v-11.203L80.703-24.656v-228.125c6.734-7.844 33.64-34.75 37.563-34.75 2.234 0 12.89 9.531 13.453 13.453v249.422l-12.89 13.453V0h84.062v-11.203zm0 0"/></symbol><symbol overflow="visible" id="e"><path d="M53.813-367.125c21.859 0 31.937-19.047 31.937-39.234 0-20.172-10.078-37.547-31.938-37.547-22.984 0-33.078 17.375-33.078 37.547 0 20.187 10.094 39.234 33.078 39.234zM6.718 0h93.047v-11.203L80.703-24.656v-309.39h-6.719L5.61-321.72v10.64l20.172 6.735v279.688L6.72-11.203zm0 0"/></symbol><symbol overflow="visible" id="f"><path d="M171.516-22.422v-199.531c0-44.844 1.109-114.906-76.235-114.906-58.844 0-69.5 48.203-69.5 89.687 0 10.078.563 19.61.563 28.016v5.61h49.89v-77.345c2.235-14.015 6.72-22.421 12.891-26.343l19.047 13.453c10.656 37.547 8.969 73.422 8.969 95.844V-176H89.125c-31.953 0-75.672 0-75.672 103.14 0 43.72 15.688 76.22 43.719 76.22 25.219 0 38.11-26.344 61.094-63.891V0h72.859v-10.094zM82.953-45.953c-3.922 0-11.203-7.297-14.016-11.219v-34.75c0-58.844.563-68.937 25.782-68.937h22.422v80.703c-7.844 8.969-31.954 34.203-34.188 34.203zm0 0"/></symbol></defs><path d="M.5 1080H1920V.5H.5zm0 0" fill="#f2a6b0"/><path d="M.5 1092.863h1928V.5H.5zm0 0" fill="none" stroke="#000"/><use xlink:href="#a" x="404" y="760.268"/><use xlink:href="#b" x="597.949" y="760.268"/><use xlink:href="#c" x="810.518" y="760.268"/><use xlink:href="#d" x="999.962" y="760.268"/><use xlink:href="#e" x="1211.817" y="760.268"/><use xlink:href="#f" x="1317.168" y="760.268"/></svg>