<svg height="1280" viewBox="0 0 1080 960" width="1440" xmlns="http://www.w3.org/2000/svg" xmlns:xlink="http://www.w3.org/1999/xlink"><symbol id="a" overflow="visible"><path d="M463.063 4.984c81.812 0 165.64-99.796 165.64-306.375 0-229.515-123.734-306.359-254.469-306.359-181.625 0-343.296 147.688-343.296 421.125 0 236.516 107.78 330.328 262.468 330.328 73.844 0 134.719-24.937 161.672-51.89l-3-10.985c-30.937 15.969-65.86 28.953-123.75 28.953C191.61 109.781 107.781 1 107.781-183.625c0-217.563 105.781-380.219 261.469-380.219 80.828 0 184.61 46.907 184.61 265.453 0 147.704-27.954 259.47-69.844 259.47-29.938 0-27.938-54.892-21.954-112.767 9.985-108.78 18.954-202.593 31.938-310.375l-90.828 25.954c-14.969-17.97-37.922-29.938-68.86-29.938-88.812 0-160.671 91.813-160.671 286.406 0 117.766 27.953 189.625 89.828 189.625 48.89 0 81.828-42.922 87.812-104.796 10.985 40.921 41.922 99.796 111.781 99.796zm-98.797-413.156c4.984 0 8.968 1 12.968 2l-29.937 278.438c-2 13.968-9.985 65.859-31.938 65.859-16.968 0-25.953-23.953-25.953-85.828 0-190.61 24.953-260.469 74.86-260.469zm0 0"/></symbol><use fill="#66b876" x="207.06" xlink:href="#a" y="701.628"/></svg>