<svg height="1280" viewBox="0 0 1080 960" width="1440" xmlns="http://www.w3.org/2000/svg" xmlns:xlink="http://www.w3.org/1999/xlink"><symbol id="a" overflow="visible"><path d="M259.844-430.078c-101.25 0-172.938 79.734-172.938 168.453 0 56.438 30.469 103.031 86.016 125.438-55.547 4.468-111.094 25.984-111.094 73.468C61.828-37.625 78.844-17.03 121.86 0l24.188 9.86C50.172 7.171-34.937 46.593-34.937 101.25c0 52.86 77.046 83.328 187.25 83.328 167.562 0 248.203-57.344 248.203-133.5 0-51.078-37.641-75.266-136.204-111.11L202.5-82.437c-24.203-8.953-29.578-13.437-29.578-18.812 0-9.86 14.344-19.703 26.89-26.875 15.235 2.688 31.36 4.484 48.375 4.484 101.25 0 172.938-79.75 172.938-168.453 0-43.906-17.922-81.531-51.969-106.625h82.422l7.172-67.203-151.422 40.328c-14.344-2.687-30.469-4.484-47.484-4.484zm-29.578 259.844c-17.016 0-29.563-9.86-29.563-44.813 0-70.781 35.844-169.344 77.063-169.344 17.015.907 29.562 10.766 29.562 45.704 0 70.78-35.844 169.343-77.062 168.453zM77.063 87.813c0-17.922 10.75-49.282 110.203-61.829l25.093 9.86c60.032 23.297 83.328 35.843 83.328 53.75 0 17.922-24.203 42.125-106.625 42.125-76.171 0-112-21.516-112-43.906zm0 0"/></symbol><use x="319.468" xlink:href="#a" y="674.74"/></svg>