<svg xmlns="http://www.w3.org/2000/svg" xmlns:xlink="http://www.w3.org/1999/xlink" width="1440" height="1280" viewBox="0 0 1080 960"><defs><symbol overflow="visible" id="a"><path d="M503.703-60.219c-41.062-78.484-53.828-103.125-81.203-149.656-20.078-35.594-43.813-56.578-73-63.875 104.938-21.906 153.297-79.39 153.297-167 0-118.61-121.36-145.063-247.297-145.063H37.406v37.407l39.25 20.984 5.469 11.86v445.296l-5.469 12.782-39.25 20.078V0H270.11v-37.406l-49.28-20.078-5.47-12.782v-170.64c6.375 0 12.766 0 25.547 1.828 45.625 6.39 61.14 30.11 128.656 239.078h180.672v-38.328zM239.078-526.5c75.734 0 126.844 23.703 126.844 102.188 0 69.343-36.5 133.218-116.813 133.218-13.687 0-23.718 0-33.75-.906v-234.5zm0 0"/></symbol></defs><path fill="#66b876" d="M0 0h1080v960H0z"/><path d="M-547.5 1069.5h2175v-1179h-2175zm0 0" fill="none" stroke="#66b876"/><use xlink:href="#a" x="259.876" y="747.283" fill="#fff"/></svg>