<svg height="1280" viewBox="0 0 1080 960" width="1440" xmlns="http://www.w3.org/2000/svg" xmlns:xlink="http://www.w3.org/1999/xlink"><symbol id="a" overflow="visible"><path d="M272.813-371.938c0 84.97-64.188 131.22-129.329 131.22H77.406v39.64c18.875-1.875 41.531-4.719 75.516-4.719 96.297 0 143.5 37.766 143.5 118 0 84.016-57.594 130.281-149.156 130.281-53.813 0-92.516-11.328-134.047-28.328v28.328C50.969 59.47 89.688 71.75 150.094 71.75c129.328 0 194.469-64.203 194.469-159.547 0-104.781-72.688-139.703-143.485-144.422v-2.844c65.125-18.875 115.156-61.359 115.156-138.765 0-75.516-44.359-120.828-142.53-120.828-49.095 0-95.345 11.328-132.173 23.594v48.156h3.782c31.156-25.5 75.515-40.594 127.437-40.594 59.469 0 100.063 27.375 100.063 91.563zm0 0"/></symbol><use fill="#66b876" x="347.897" xlink:href="#a" y="714.567"/></svg>